<svg viewBox="0 0 3013 1975" xmlns="http://www.w3.org/2000/svg" fill-rule="evenodd" clip-rule="evenodd" stroke-linejoin="round" stroke-miterlimit="2"><path d="M3140.34 1509.44h-556.91c-1.591 0-2.9-1.236-2.9-2.738 0-1.503 1.309-2.74 2.9-2.74h556.91c1.591 0 2.901 1.237 2.901 2.74 0 1.502-1.31 2.738-2.901 2.738zM2871.64 1585.01h-556.911c-1.59 0-2.9-1.236-2.9-2.738 0-1.503 1.31-2.739 2.9-2.739h556.911c1.59 0 2.9 1.236 2.9 2.739 0 1.502-1.31 2.738-2.9 2.738z" fill="#ccc" fill-rule="nonzero"/><g fill-rule="nonzero"><path d="M2591.43 960.611V538.906c.012-9.91 8.163-18.061 18.073-18.073h333.348c9.91.012 18.061 8.163 18.073 18.073v421.705c-.012 9.91-8.163 18.061-18.073 18.073h-333.348c-9.91-.012-18.061-8.163-18.073-18.073zm18.073-435.761c-7.708.008-14.048 6.348-14.056 14.056v421.705c.008 7.708 6.348 14.048 14.056 14.057h333.348c7.708-.009 14.048-6.349 14.056-14.057V538.906c-.008-7.708-6.348-14.048-14.056-14.056h-333.348z" fill="#e6e6e6"/><path d="M2794.87 714.499V627.91c.006-4.955 4.081-9.031 9.037-9.036h73.376c4.955.005 9.031 4.081 9.037 9.036v86.589c-.006 4.956-4.082 9.031-9.037 9.037h-73.376c-4.956-.006-9.031-4.081-9.037-9.037z" fill="#153f6f"/><path d="M2652.29 754.662v-86.589c.005-4.956 4.081-9.031 9.036-9.037h73.377c4.955.006 9.031 4.081 9.036 9.037v86.589c-.005 4.955-4.081 9.031-9.036 9.036h-73.377c-4.955-.005-9.031-4.081-9.036-9.036z" fill="#e8ecf5"/><path d="M2766.76 877.157v-86.589c.006-4.956 4.082-9.031 9.037-9.037h73.376c4.956.006 9.032 4.081 9.037 9.037v86.589c-.005 4.955-4.081 9.031-9.037 9.036h-73.376c-4.955-.005-9.031-4.081-9.037-9.036z" fill="#ef8231"/></g><g fill="#e9f0f4"><circle cx="2363.61" cy="759.846" r="15.539"/><circle cx="2301.68" cy="759.846" r="15.539"/><circle cx="2239.75" cy="759.846" r="15.539"/><circle cx="2177.82" cy="759.846" r="15.539"/><circle cx="2363.61" cy="824.724" r="15.539"/><circle cx="2301.68" cy="824.724" r="15.539"/><circle cx="2239.75" cy="824.724" r="15.539"/><circle cx="2177.82" cy="824.724" r="15.539"/><circle cx="2363.61" cy="889.601" r="15.539"/><circle cx="2301.68" cy="889.601" r="15.539"/><circle cx="2239.75" cy="889.601" r="15.539"/><circle cx="2177.82" cy="889.601" r="15.539"/><circle cx="2363.61" cy="954.479" r="15.539"/><circle cx="2301.68" cy="954.479" r="15.539"/><circle cx="2239.75" cy="954.479" r="15.539"/><circle cx="2177.82" cy="954.479" r="15.539"/><circle cx="2363.61" cy="1019.36" r="15.539"/><circle cx="2301.68" cy="1019.36" r="15.539"/><circle cx="2239.75" cy="1019.36" r="15.539"/><circle cx="2177.82" cy="1019.36" r="15.539"/><circle cx="2363.61" cy="1084.23" r="15.539"/><circle cx="2301.68" cy="1084.23" r="15.539"/><circle cx="2239.75" cy="1084.23" r="15.539"/><circle cx="2177.82" cy="1084.23" r="15.539"/></g><g fill="#e4e5e7"><path d="M2248.25 1380.34v4.805c.014 16.472 13.564 30.022 30.036 30.036h216.259c16.475-.006 30.03-13.561 30.036-30.036v-4.805a29.826 29.826 0 00-6.97-19.223 30.838 30.838 0 00-5.069-4.806c-1.867-1.405-118.895-2.691-118.895-6.007h-115.361c-16.469.023-30.013 13.567-30.036 30.036z" fill-rule="nonzero"/><path d="M2372.53 1413.99h31.237v201.841h-31.237z"/><path d="M2492.68 1614.73c0 3.375-47.335 1.306-105.726 1.306-58.392 0-105.727 2.069-105.727-1.306s47.335-30.14 105.727-30.14c58.391 0 105.726 26.765 105.726 30.14z" fill-rule="nonzero"/></g><path d="M2939.61 947a27.937 27.937 0 01-1.688-9.565c0-12.875 8.898-24.165 21.417-27.173a26.886 26.886 0 013.686-.6l61.728-108.199-15.587-26.778 38.799-29.932 29.685 41.228c7.248 10.149 6.978 23.946-.661 33.803l-84.745 108.492c.307.862.571 1.739.788 2.628a27.95 27.95 0 01.772 6.524c0 14.052-10.598 26.029-24.545 27.74a27.17 27.17 0 01-3.421.214c-11.7-.037-22.201-7.397-26.228-18.382zM2819.18 1479.47l-31.14-.003-14.813-120.11 45.958.003-.005 120.11z" fill="#ffb8b8" fill-rule="nonzero"/><path d="M2765.79 1470.57h60.054v37.812h-97.866c0-20.743 17.069-37.812 37.812-37.812zM3022.33 1470.57h60.055v37.812h-97.867c0-20.743 17.069-37.812 37.812-37.812z" fill-rule="nonzero"/><path d="M3056.6 750.601l-69.912 26.567-17.068-47.413c-4.66-12.944.735-27.505 12.705-34.288 12.115-6.865 27.583-3.845 36.226 7.072l38.049 48.062z" fill="#153f6f" fill-rule="nonzero"/><path d="M2821.86 1382.19l-58.634-13.373c-6.433-1.478-10.687-7.749-9.682-14.273 23.527-149.12 46.162-236.447 104.495-347.346.814-2.068 9.923-44.038 15.867-71.843-.14-6.308 4.468-11.801 10.703-12.761l109.331-16.826c1.65-.572 3.39-.834 5.135-.773l1.093.207-.014 1.076c-.014 1.111-1.12 1.281-1.536 1.345l-1.453.224a16.992 16.992 0 014.508 3.064c47.904 57.616 72.813 246.478 104.451 455.123a11.393 11.393 0 01-3.311 9.264 12.539 12.539 0 01-8.986 4.066l-69.852 1.702c-6.318.142-11.822-4.469-12.789-10.714l-47.051-271.9c-.749-4.908-5.014-8.572-9.979-8.572-3.84 0-7.361 2.191-9.057 5.636-37.958 77.303-73.356 144.156-108.219 277.532-1.417 5.546-6.449 9.458-12.172 9.465a12.81 12.81 0 01-2.848-.323z" fill="#3e4149" fill-rule="nonzero"/><path d="M2878.78 938.457a12.702 12.702 0 01-5.292-9.014c-8.955-83.589-2.718-149.004 19.064-199.984a63.516 63.516 0 0142.08-36.015l56.513-2.853.292.141c26.112 12.79 40.851 41.386 36.117 70.074-18.177 47.912-33.397 97.796-21.79 138.037a13.015 13.015 0 01-1.229 10.118 12.41 12.41 0 01-7.914 5.865l-107.639 25.606a12.616 12.616 0 01-10.202-1.975z" fill="#153f6f" fill-rule="nonzero"/><path d="M2854.45 818.501l-108.391-85.511c-.864.304-1.742.563-2.632.777a28.02 28.02 0 01-22.397-4.296 27.733 27.733 0 01-11.751-19.643c-1.492-12.864 6.128-25.166 18.31-29.56a27.952 27.952 0 019.437-1.642c12.925 0 24.245 8.967 27.206 21.548.279 1.215.473 2.447.581 3.689l107.902 62.247 26.852-15.459 29.745 38.943-41.691 29.715c-9.994 7.065-23.533 6.735-33.171-.808z" fill="#ffb8b8" fill-rule="nonzero"/><path d="M2942.54 801.721l-61.845-42.055 29.065-41.165c7.935-11.238 22.959-15.165 35.378-9.245 12.57 5.991 18.963 20.397 14.972 33.737l-17.57 58.728z" fill="#153f6f" fill-rule="nonzero"/><circle cx="2972.28" cy="607.099" r="62.384" fill="#ffb8b8"/><path d="M2949.41 597.807c-16.034 10.974-37.087 22.255-53.463 10.569-10.753-7.674-14.141-21.883-9.78-34.353 7.841-22.424 29.386-32.297 49.987-39.864 26.783-9.837 55.945-17.663 83.594-10.618 27.648 7.045 52.083 33.814 47.092 61.906-4.014 22.591-25.323 41.389-22.298 64.133 3.044 22.891 28.787 34.94 51.514 39.031 22.727 4.091 48.159 5.405 64.491 21.73 20.836 20.824 15.633 58.046-3.972 80.033-19.606 21.987-49.191 31.953-77.86 38.728-37.984 8.977-79.067 13.695-115.142-1.203s-64.148-55.001-53.698-92.607c4.414-15.884 14.813-29.309 24.863-42.378 10.049-13.069 20.226-26.735 24.059-42.77 3.195-13.362.83-28.876-8.031-38.899a11.293 11.293 0 01-1.51-13.173l.154-.265z" fill="#282c34" fill-rule="nonzero"/><g><path d="M2490.95 1561.8l24.824-.002 11.811-64.382h-36.639l.004 64.384z" fill="#a0616a" fill-rule="nonzero"/><path d="M2484.62 1553.69l48.891-.002c17.091 0 31.155 14.064 31.155 31.155v1.012l-80.044.003-.002-32.168z" fill-rule="nonzero"/><path d="M2519.76 1527.27c-.289 0-.579-.014-.871-.042l-34.355-2.501c-4.661-.433-8.27-4.391-8.27-9.073 0-1.07.189-2.131.557-3.136l45.977-103.297a7.085 7.085 0 00-.397-5.667 6.992 6.992 0 00-4.477-3.564c-21.62-5.651-77.091-20.699-125.109-38.306-20.572-7.544-33.529-18.445-38.51-32.402-6.567-18.399 3.148-35.179 3.564-35.883l.326-.552 45.184 4.107 48.984 4.166 107.345 57.562c18.552 10.033 26.378 32.917 17.856 52.21l-49.489 110.977a9.12 9.12 0 01-8.315 5.401z" fill="#282c34" fill-rule="nonzero"/><circle cx="2411.24" cy="1042.85" r="49.733" fill="#a0616a"/><path d="M2476.78 1559.77l24.824-.002 11.811-64.382h-36.639l.004 64.384z" fill="#a0616a" fill-rule="nonzero"/><path d="M2470.44 1551.66l48.891-.002c17.091 0 31.154 14.064 31.154 31.155v1.013l-80.043.003-.002-32.169z" fill-rule="nonzero"/><path d="M2505.59 1533.34c-.289 0-.579-.013-.871-.041l-34.355-2.502c-4.661-.432-8.27-4.391-8.27-9.072 0-1.07.189-2.132.557-3.136l45.977-103.298a7.085 7.085 0 00-.397-5.667 6.993 6.993 0 00-4.477-3.563c-21.62-5.651-77.091-20.699-125.109-38.306-20.572-7.544-33.529-18.446-38.51-32.402-6.567-18.4 3.148-35.18 3.564-35.884l.326-.552 45.184 4.107 48.984 4.167 107.345 57.562c18.552 10.033 26.378 32.917 17.856 52.209l-49.489 110.978a9.12 9.12 0 01-8.315 5.4z" fill="#282c34" fill-rule="nonzero"/><path d="M2426.58 1120.79l-52.647-18.224s-33.049 25.392-17.172 88.383a155.963 155.963 0 01-6.885 97.841 100.651 100.651 0 01-5.303 11.2c-1.996 3.621 58.721 70.87 113.392 18.224l-21.261-102.255s33.41-67.833-10.124-95.169z" fill="#ef8231" fill-rule="nonzero"/><path d="M2417.41 1094.28c-7.078-10.595-12.664-25.285-4.871-35.366 7.693-9.95 22.865-8.484 34.647-12.887 16.409-6.133 25.926-25.411 22.958-42.676-2.968-17.264-16.827-31.576-33.337-37.432-16.51-5.856-35.128-3.952-51.296 2.792-19.903 8.301-36.977 24.36-44.136 44.701-7.159 20.342-3.332 44.766 11.52 60.401 15.923 16.762 40.914 21.23 64.032 20.959" fill-rule="nonzero"/><path d="M2371.15 1003.9c-8.919 7.261-22.527 4.036-32.102-2.336-9.574-6.372-17.343-15.446-27.702-20.442-18.262-8.808-40.343-2.953-58.117 6.803-17.774 9.757-33.53 23.236-52.304 30.892-18.775 7.656-42.733 8.035-56.949-6.422a52.092 52.092 0 00-2.851 16.999c0 28.584 23.52 52.104 52.103 52.104a52.11 52.11 0 0027.106-7.605c20.571-12.531 31.934-38.804 55.007-45.72 12.767-3.827 26.477-.745 39.382 2.594 12.904 3.339 26.359 6.946 39.381 4.104 13.023-2.843 25.204-14.545 23.547-27.771l-6.501-3.2z" fill-rule="nonzero"/><g fill-rule="nonzero"><path d="M2533.05 1472.51a339.168 339.168 0 010-103.218c.687-4.186 4.337-7.292 8.579-7.301h80.736a8.605 8.605 0 016.794 3.293 8.75 8.75 0 011.635 7.501 207.22 207.22 0 00-.001 96.232 8.746 8.746 0 01-1.634 7.501 8.602 8.602 0 01-6.794 3.293h-80.736c-4.242-.008-7.892-3.114-8.579-7.301z" fill="#153f6f"/><path d="M2597.52 1411.96h-42.367c-3.331-.004-6.071-2.744-6.075-6.075v-2.373c.004-3.331 2.744-6.07 6.075-6.074h42.367c3.331.004 6.071 2.743 6.075 6.074v2.373c-.004 3.331-2.744 6.071-6.075 6.075zM2597.52 1436.95h-42.367c-3.331-.003-6.071-2.743-6.075-6.074v-2.374c.004-3.331 2.744-6.071 6.075-6.075h42.367c3.331.004 6.071 2.744 6.075 6.075v2.374c-.004 3.331-2.744 6.071-6.075 6.074z" fill="#fff"/></g><g fill-rule="nonzero"><path d="M2554.28 1371.67a21.756 21.756 0 001.616-8.228c0-10.217-7.199-19.124-17.188-21.268l-101.517-170.137-35.938 30.761 111.088 157.566a21.912 21.912 0 00-.23 3.165c0 11.997 9.873 21.87 21.87 21.87 8.917 0 16.979-5.453 20.299-13.729z" fill="#a0616a"/><path d="M2457.36 1199.62l-42.825 24.343a9.757 9.757 0 01-4.82 1.274 9.77 9.77 0 01-9.094-6.228l-17.751-45.791a27.097 27.097 0 01-3.462-13.25c0-14.859 12.228-27.087 27.088-27.087a27.118 27.118 0 0123.55 13.704l30.176 38.546a9.754 9.754 0 01-2.862 14.489z" fill="#ef8231"/></g></g><path d="M2995.65 1229.8h-975.567c-8.568 0-15.618 7.051-15.618 15.619s7.05 15.618 15.618 15.618h27.633v340.007c0 8.568 7.051 15.619 15.619 15.619s15.619-7.051 15.619-15.619v-309.995l175.1 317.367a15.634 15.634 0 0013.51 7.782c8.568 0 15.619-7.051 15.619-15.619 0-2.73-.716-5.414-2.077-7.782l-183.041-331.76h836.312v.203l-182.928 331.557a15.617 15.617 0 00-2.093 7.809c0 8.568 7.05 15.619 15.618 15.619a15.636 15.636 0 0013.526-7.809l155.877-282.526v275.154c0 8.568 7.05 15.619 15.619 15.619 8.568 0 15.618-7.051 15.618-15.619v-331.771l4.544-8.236h25.492c8.568 0 15.619-7.05 15.619-15.618 0-8.568-7.051-15.619-15.619-15.619z" fill="#282c34" fill-rule="nonzero"/><g><path d="M2629.32 1226.78a6.81 6.81 0 00-6.807-6.807H2468.87a6.81 6.81 0 00-6.807 6.807 6.81 6.81 0 006.807 6.806h153.643a6.81 6.81 0 006.807-6.806z" fill="#e8ecf5"/><path d="M2725.59 1233.59h-173.091c-6.932-.007-12.634-5.709-12.642-12.641v-95.298c.008-6.932 5.71-12.633 12.642-12.641h173.091c6.932.008 12.634 5.709 12.642 12.641v95.298c-.008 6.932-5.71 12.634-12.642 12.641z" fill="#e8ecf5" fill-rule="nonzero"/><circle cx="2639.05" cy="1173.3" r="11.669" fill="#fff"/></g></svg>