<svg xmlns="http://www.w3.org/2000/svg" xmlns:xlink="http://www.w3.org/1999/xlink" viewBox="0 0 6056 4719" fill-rule="evenodd" stroke-linejoin="round" stroke-miterlimit="2"><style><![CDATA[.B{fill-rule:nonzero}.C{fill:#153f6f}.D{fill:#ef8231}.E{fill:#ffb8b8}.F{fill-opacity:.3}]]></style><clipPath id="A"><path d="M0 0h6056v4719H0z"/></clipPath><g clip-path="url(#A)"><clipPath id="B"><path d="M0 77.228h6056v4641.77H0z"/></clipPath><g clip-path="url(#B)"><ellipse cx="5140.04" cy="4567.82" rx="915.959" ry="151.178" class="C"/><g class="B"><path d="M5914.77 4011.23c-1.798 324.792-195.512 437.113-433.673 435.794l-16.515-.277c-11.037-.299-21.957-.862-32.76-1.69-214.864-16.409-381.219-136.547-379.547-438.602 1.731-312.591 403.427-704.862 433.551-733.864.026 0 .026 0 .052-.026l1.73-1.658s428.96 415.557 427.162 740.323z" class="D"/><path d="M5465.67 4397.25l158.944-219.501-159.475 243.691-.564 25.301a663.92 663.92 0 0 1-32.759-1.69l18.791-324.83-.118-2.515.294-.475 1.784-30.695-157.16-246.052 157.764 223.054.361 6.514 14.197-245.422-134.3-254.106 136.206 210.972 16.238-508.937-4.446 401.379 135.948-158.38-136.722 192.944-4.79 219.8 127.342-210.254-128.024 242.569-2.662 122.219 184.734-292.625-185.684 335.261-5.899 271.778z" class="C"/></g><circle cx="5053.8" cy="1252.98" r="288.69"/><g class="E"><circle cx="5010.84" cy="1353.83" r="196.043"/><g class="B"><path d="M4894.27 1459.8s84.776 196.043 42.388 217.237-63.581 116.566-63.581 116.566l111.267 233.132L5138 2122.108h90.073s90.074-402.683 58.284-450.37S5138 1597.56 5138 1597.56s-26.493-63.582-15.896-121.865-227.834-15.895-227.834-15.895zm-127.16 556.34l-137.761-111.267s-249.027-174.849-217.237-47.686 174.85 137.76 174.85 137.76l238.43 190.744-58.282-169.551z"/></g></g><path d="M4756.51 2598.97s-63.581 264.923 0 625.219l26.493 143.058s0 111.268 26.492 153.655c0 0 68.88 630.517 105.969 630.517s153.656-21.194 164.253-37.089-206.64-1541.85-206.64-1541.85l-116.567 26.492z" fill="#63767e" class="B"/><path d="M4756.51 2598.97s-63.581 264.923 0 625.219l26.493 143.058s0 37.677 5.22 77.535c3.75 28.636 10.196 58.398 21.272 76.12 0 0 68.88 630.517 105.969 630.517s153.656-21.194 164.253-37.089-206.64-1541.85-206.64-1541.85l-116.567 26.492z" fill-opacity=".1" class="B"/><use xlink:href="#D" fill="#2f2e41" class="B"/><use xlink:href="#D" fill-opacity=".1" class="B"/><path d="M4735.32 2588.37s42.387 158.954 58.283 185.446c0 0 21.193 450.37 90.073 604.025l74.179 196.043s121.865 577.532 90.074 641.114c0 0 164.252 37.089 174.849 0 0 0-5.298-307.311 10.597-349.699s42.388-275.52-84.775-445.07v-513.951s201.341-169.551 84.775-386.788-498.055 68.88-498.055 68.88z" fill="#63767e" class="B"/><path d="M5063.82 4183.21l-90.074 333.803s-180.147 105.969-68.88 127.163 222.536-21.194 222.536-21.194l52.984-153.655 52.985-31.791v164.252h15.895l37.09-217.237s-5.299-111.267-37.09-121.864-47.686-68.88-47.686-68.88l-137.76-10.597z" fill="#2f2e41" class="B"/><path d="M4948.18 1637.47s-133.391 76.66-133.391 81.958 15.896 90.074 15.896 90.074-164.252 164.253-52.985 307.311c0 0 37.089 26.492 37.089 111.268v84.775s-312.609 196.043-233.132 259.625 164.252 52.984 190.745 90.074 180.147-31.791 211.938-42.388 37.089-21.194 63.582 15.895 174.849-26.492 174.849-26.492 95.372-26.492 116.566-26.492c13.086-.158 25.895-3.817 37.089-10.597l-227.833-233.132 113.916-288.766-28.168-409.858c0-58.283-286.161-3.255-286.161-3.255z" fill="#4c4c4c" class="B"/><path d="M5153.89 1650.55s-68.88 95.373-15.895 227.834 137.76 286.117 137.76 286.117l-132.462 42.388h-121.864s-254.327-42.388-227.834 52.985 206.64 52.984 206.64 52.984h105.969s238.431 26.492 270.222-15.895c0 0 84.775-5.299 47.686-174.849s-145.379-459.784-145.379-459.784l-124.843-11.78z" class="B E"/><path d="M5438.88 1942.35l-117.149-223.743c-24.908-70.304-102.128-108.73-173.231-86.201-1.305.355-2.55.77-3.853 1.245-72.135 25.215-110.807 105.257-85.729 177.441l47.014 247.279c2.723 14.316 11.564 26.753 24.189 34.03a48.92 48.92 0 0 0 22.409 6.64 48.25 48.25 0 0 0 19.149-2.668l25.139-8.774 214.139-74.581c20.097-7.03 33.638-26.111 33.638-47.403 0-8.102-1.961-16.085-5.715-23.265h0z" fill="#4c4c4c" class="B"/><ellipse cx="4972.71" cy="1171.89" rx="184.891" ry="94.068"/><ellipse cx="5204.23" cy="1340.59" rx="26.492" ry="58.283" class="E"/><circle cx="5183.04" cy="996.186" r="158.954"/><g class="D"><circle cx="1796.35" cy="1067.02" r="652.139" class="F"/><circle cx="533.568" cy="2881.15" r="385.355" class="F"/><circle cx="3005.77" cy="2881.15" r="788.495" class="F"/><g class="B"><path d="M392.053 1607.01l-11.596-2.473 7.767-34.83 11.55 2.69-7.721 34.613zm3733.537-97.96c-6.079-22.591-12.679-45.405-19.604-67.805l11.325-3.503c6.97 22.539 13.611 45.495 19.731 68.228l-11.452 3.08zm-3708.52-5.182l-11.44-3.114c6.206-22.8 12.934-45.819 19.997-68.419l11.319 3.538c-7.023 22.46-13.707 45.335-19.876 67.995h0zm3666.85-129.542c-7.764-22.139-16.014-44.374-24.536-66.082l11.035-4.331a1920.28 1920.28 0 0 1 24.687 66.494l-11.186 3.919zm-3624.59-5.645l-11.179-3.954c7.897-22.307 16.312-44.751 25.014-66.71l11.023 4.365a1915.7 1915.7 0 0 0-24.858 66.299zm3573.08-125.584c-9.333-21.431-19.21-43.006-29.353-64.126l10.688-5.135c10.207 21.253 20.147 42.961 29.538 64.525l-10.873 4.736zm-3520.93-6.03l-10.855-4.777c9.518-21.635 19.565-43.384 29.871-64.64l10.67 5.17a1914.9 1914.9 0 0 0-29.686 64.247h0zm3459.86-121.115a1934.26 1934.26 0 0 0-34.02-61.819l10.283-5.905a1941.68 1941.68 0 0 1 34.228 62.2l-10.491 5.524zm-3398.13-6.219l-10.473-5.563a1938.51 1938.51 0 0 1 34.555-62.236l10.259 5.946c-11.761 20.29-23.317 41.101-34.341 61.853zm3327.83-116.139c-12.395-19.861-25.346-39.771-38.477-59.181l9.819-6.646a1942.1 1942.1 0 0 1 38.721 59.546l-10.063 6.281zm-3256.91-6.25l-10.034-6.316c12.578-19.971 25.706-39.992 39.022-59.502l9.796 6.681a1936.18 1936.18 0 0 0-38.784 59.137h0zm3177.78-110.668c-13.762-18.827-28.137-37.745-42.727-56.222l9.31-7.347c14.676 18.593 29.139 37.626 42.994 56.57l-9.577 6.999zm-3098.07-6.131l-9.541-7.04c14.031-19.022 28.589-38.017 43.271-56.46l9.275 7.382c-14.59 18.333-29.058 37.213-43.005 56.118h0zm3010.57-104.722a1935.23 1935.23 0 0 0-46.74-52.966l8.743-8.007a1940.18 1940.18 0 0 1 47.028 53.291l-9.031 7.682zm-2922.53-5.894l-9.003-7.717c15.348-17.898 31.252-35.774 47.272-53.128l8.713 8.042c-15.921 17.25-31.73 35.015-46.982 52.803zm2827.13-98.301c-16.483-16.729-33.476-33.357-50.509-49.423l8.141-8.626c17.131 16.167 34.228 32.896 50.809 49.729l-8.441 8.32zm-2731.28-5.543l-8.412-8.355c16.65-16.766 33.814-33.426 51.012-49.515l8.099 8.658c-17.094 15.991-34.15 32.549-50.699 49.212zm2628.47-91.43c-17.641-15.466-35.808-30.815-53.994-45.616l7.481-9.194a1945.06 1945.06 0 0 1 54.329 45.894l-7.816 8.916zm-2525.31-5.106l-7.782-8.948c17.818-15.49 36.145-30.847 54.48-45.645l7.446 9.229c-18.22 14.705-36.437 29.97-54.144 45.364zm2415.67-84.122a1923.93 1923.93 0 0 0-57.207-41.549l6.785-9.721a1934.09 1934.09 0 0 1 57.567 41.804l-7.145 9.466zm-2305.76-4.589l-7.103-9.495c18.908-14.15 38.306-28.12 57.652-41.523l6.751 9.75c-19.227 13.316-38.507 27.202-57.3 41.268zm2189.85-76.388c-19.72-12.723-39.954-25.257-60.131-37.247l6.056-10.196c20.304 12.069 40.66 24.678 60.501 37.479l-6.426 9.964zm-2073.79-4.012l-6.391-9.987a1947.69 1947.69 0 0 1 60.518-37.172l6.021 10.219c-20.168 11.88-40.405 24.31-60.148 36.94h0zm1952.18-68.248c-20.558-11.22-41.667-22.232-62.73-32.728l5.292-10.612a1925.06 1925.06 0 0 1 63.118 32.931l-5.68 10.409zm-1830.58-3.392l-5.639-10.433c20.727-11.203 41.945-22.174 63.06-32.604l5.251 10.63c-20.987 10.366-42.073 21.27-62.672 32.407zm1703.93-59.734c-21.346-9.675-43.213-19.094-65-28.005l4.487-10.977c21.923 8.966 43.932 18.449 65.411 28.184l-4.898 10.798zm-1577.45-2.736l-4.854-10.815a1937.46 1937.46 0 0 1 65.26-27.854l4.452 10.989c-21.714 8.8-43.535 18.113-64.858 27.68zm1446.43-50.853c-22.093-8.091-44.615-15.869-66.942-23.12l3.665-11.279a1940.62 1940.62 0 0 1 67.353 23.266l-4.076 11.133zm-1315.75-2.09l-4.041-11.145a1921.31 1921.31 0 0 1 67.098-22.944l3.627 11.29c-22.243 7.147-44.678 14.818-66.684 22.799zm1181.04-41.653c-22.577-6.415-45.561-12.485-68.315-18.049l2.814-11.515c22.895 5.595 46.024 11.706 68.743 18.159l-3.242 11.405zm-1046.69-1.514l-3.207-11.417c22.689-6.371 45.833-12.413 68.792-17.956l2.782 11.527a1919.27 1919.27 0 0 0-68.367 17.846zm909.443-32.039a1922.68 1922.68 0 0 0-69.461-12.943l1.957-11.695c23.271 3.893 46.786 8.276 69.889 13.024l-2.385 11.614zm-772.099-1.115l-2.351-11.62c23.147-4.687 46.673-9 69.927-12.821l1.922 11.701c-23.109 3.795-46.493 8.082-69.498 12.74h0zm632.746-22.206c-23.297-3.019-46.924-5.639-70.224-7.796l1.091-11.805a1953.6 1953.6 0 0 1 70.656 7.842l-1.523 11.759zm-493.325-.703l-1.49-11.765c23.364-2.961 47.144-5.532 70.676-7.642l1.06 11.811a1932.49 1932.49 0 0 0-70.245 7.596h-.001zm352.633-12.315c-23.367-1.305-47.122-2.197-70.607-2.652l.231-11.857c23.625.461 47.527 1.358 71.036 2.669l-.66 11.84zm-211.905-.304l-.625-11.84c23.543-1.247 47.451-2.075 71.055-2.466l.197 11.857c-23.462.385-47.223 1.21-70.627 2.449zM4150.6 1613.58l-7.596-34.636 11.556-2.652 7.642 34.856-11.602 2.432zm15.99 773.08l-11.637-2.298 6.554-34.851 11.671 2.079-6.588 35.07zm-1895.96 1555.7a1971.27 1971.27 0 0 1-38.57-.377l.232-11.857a1984.48 1984.48 0 0 0 70.505.11l.191 11.858-32.358.266zm103.249-2.704l-.625-11.845a1936.52 1936.52 0 0 0 70.311-4.985l1.054 11.811a1962.34 1962.34 0 0 1-70.74 5.019zm-212.686-.341c-23.535-1.315-47.33-3.075-70.723-5.234l1.088-11.811c23.254 2.148 46.905 3.902 70.295 5.211l-.66 11.834zm353.94-12.269l-1.488-11.764c23.338-2.953 46.809-6.357 69.759-10.12l1.916 11.706c-23.092 3.781-46.704 7.203-70.187 10.178h0zm-495.157-.787c-23.428-3.04-47.032-6.536-70.158-10.404l1.956-11.695a1932.34 1932.34 0 0 0 69.724 10.335l-1.522 11.764zm635.115-22.134l-2.345-11.625a1910.8 1910.8 0 0 0 68.824-15.221l2.773 11.533c-22.8 5.483-46.1 10.635-69.252 15.313h0zm-775-1.245c-23.13-4.747-46.415-9.975-69.203-15.539l2.814-11.521a1912.54 1912.54 0 0 0 68.774 15.446l-2.385 11.614zm912.896-31.935l-3.196-11.417a1907.46 1907.46 0 0 0 67.513-20.264l3.618 11.29a1905.74 1905.74 0 0 1-67.935 20.391h0zm-1050.68-1.685c-22.664-6.426-45.559-13.379-68.048-20.669l3.653-11.278c22.354 7.243 45.107 14.156 67.631 20.542l-3.236 11.405zm1185.58-41.523l-4.035-11.15c21.911-7.926 44.01-16.379 65.68-25.133l4.441 10.994c-21.807 8.807-44.041 17.317-66.085 25.29l-.001-.001zm-1320.84-2.31a1909.47 1909.47 0 0 1-66.296-25.642l4.481-10.977c21.693 8.858 43.862 17.433 65.885 25.48l-4.07 11.139zm1452.04-50.682l-4.84-10.826a1911.84 1911.84 0 0 0 63.691-29.915l5.234 10.641c-21.05 10.364-42.611 20.49-64.085 30.101v-.001zm-1583.62-3.022c-21.485-9.715-43.08-19.957-64.186-30.447l5.28-10.618c20.973 10.427 42.438 20.611 63.793 30.262l-4.887 10.803zm1710.66-59.528l-5.628-10.433c20.611-11.104 41.251-22.718 61.347-34.524l6.009 10.225c-20.228 11.875-40.995 23.564-61.728 34.732h0zm-1837.86-3.717c-20.715-11.267-41.488-23.072-61.746-35.079l6.047-10.202a1911.97 1911.97 0 0 0 61.367 34.865l-5.668 10.416zm1960.02-68.011l-6.374-9.992c19.632-12.517 39.369-25.619 58.671-38.947l6.739 9.761a1956.99 1956.99 0 0 1-59.036 39.179v-.001zm-2082.16-4.388a1945.8 1945.8 0 0 1-58.982-39.502l6.777-9.727a1950.8 1950.8 0 0 0 58.62 39.259l-6.415 9.97zm2198.78-76.116l-7.087-9.506a1932.35 1932.35 0 0 0 55.696-43.138l7.434 9.24c-18.364 14.769-37.221 29.37-56.043 43.404h0zm-2315.24-5.014a1939.62 1939.62 0 0 1-55.913-43.694l7.469-9.205c18.211 14.775 36.909 29.382 55.571 43.428l-7.127 9.471zm2425.7-83.827l-7.758-8.962a1949.77 1949.77 0 0 0 52.419-47.104l8.082 8.672c-17.212 16.049-34.957 31.994-52.742 47.394h-.001zm-2535.89-5.581a1951.43 1951.43 0 0 1-52.558-47.643l8.123-8.638a1937.84 1937.84 0 0 0 52.239 47.354l-7.804 8.927zm2639.64-91.105l-8.395-8.372a1946.54 1946.54 0 0 0 48.859-50.809l8.696 8.059c-15.951 17.207-32.492 34.408-49.16 51.122zm-2742.97-6.062a1958.02 1958.02 0 0 1-48.933-51.33l8.73-8.024c15.852 17.247 32.214 34.407 48.636 51.017l-8.433 8.337zm2839.4-97.959l-8.986-7.735a1942.29 1942.29 0 0 0 45.043-54.266l9.264 7.411a1967.66 1967.66 0 0 1-45.321 54.59h0zm-2935.35-6.45a1971.41 1971.41 0 0 1-45.043-54.746l9.293-7.365a1953.01 1953.01 0 0 0 44.771 54.411l-9.021 7.7zm3023.99-104.369l-9.529-7.063c13.993-18.88 27.778-38.2 40.967-57.421l9.773 6.704c-13.264 19.343-27.13 38.779-41.211 57.78h0zm-3112.03-6.727c-13.932-18.955-27.697-38.426-40.915-57.861l9.808-6.67a1932.98 1932.98 0 0 0 40.66 57.514l-9.553 7.017zm3192.33-110.321l-10.016-6.345c12.512-19.737 24.843-40.024 36.66-60.287l10.247 5.975a1927.69 1927.69 0 0 1-36.891 60.657h0zm-3272-6.855c-12.494-19.904-24.794-40.318-36.553-60.675l10.265-5.928a1940.54 1940.54 0 0 0 36.333 60.304l-10.045 6.299zm3343.53-115.797l-10.456-5.593c11.088-20.733 21.897-41.876 32.138-62.846l10.653 5.199c-10.299 21.103-21.178 42.38-32.335 63.24zm-3414.38-6.849c-11.003-20.773-21.766-42.027-31.987-63.165l10.676-5.164a1927.98 1927.98 0 0 0 31.79 62.782l-10.479 5.547zm3476.71-120.782l-10.838-4.806a1922.68 1922.68 0 0 0 27.426-65.086l11.012 4.4a1932.98 1932.98 0 0 1-27.6 65.491v.001zm-3538.33-6.682a1925.4 1925.4 0 0 1-27.243-65.312l11.026-4.366a1910.14 1910.14 0 0 0 27.072 64.913l-10.855 4.765zm3591.09-125.287l-11.162-3.994a1925.78 1925.78 0 0 0 22.55-66.969l11.302 3.578c-7.099 22.458-14.735 45.13-22.69 67.385h0zm-3643.13-6.287a1921.12 1921.12 0 0 1-22.4-67.304l11.319-3.532c6.973 22.325 14.462 44.829 22.261 66.887l-11.18 3.949zm3685.99-129.293l-11.428-3.161c6.206-22.475 12.088-45.448 17.484-68.282l11.545 2.732c-5.437 22.973-11.354 46.091-17.601 68.711zm-3728.29-6.085c-6.171-22.678-12.007-45.784-17.345-68.687l11.55-2.687c5.303 22.759 11.101 45.726 17.236 68.259l-11.441 3.115zM3238.55 2392.09l-11.024-4.359c4.302-10.879 8.482-22.015 12.431-33.108l11.174 3.977c-3.995 11.221-8.227 22.487-12.581 33.49zm-967.92 658.03a1060.59 1060.59 0 0 1-42.599-.857l.48-11.845a1043.55 1043.55 0 0 0 70.596.457l.324 11.857-28.801.388zm100.062-4.753l-1.123-11.799a1032.13 1032.13 0 0 0 69.999-9.107l1.933 11.695a1037.21 1037.21 0 0 1-70.809 9.211zm-213.865-1.401a1042.04 1042.04 0 0 1-70.673-10.155l2.09-11.672c23.045 4.122 46.551 7.504 69.869 10.039l-1.286 11.788zm354.682-21.873l-2.738-11.533a1029.38 1029.38 0 0 0 68.074-18.648l3.525 11.324a1042 1042 0 0 1-68.861 18.857h0zm-495.172-3.277c-23.025-5.784-46.117-12.442-68.635-19.783l3.676-11.278c22.261 7.26 45.087 13.843 67.848 19.563l-2.889 11.498zm631.439-39.161l-4.302-11.046c21.821-8.494 43.645-17.867 64.861-27.854l5.054 10.722c-21.465 10.109-43.54 19.592-65.613 28.178h0zm-767.173-5.112c-21.997-8.899-43.948-18.677-65.245-29.064l5.199-10.653a1026.07 1026.07 0 0 0 64.493 28.728l-4.447 10.989zm896.301-55.69l-5.778-10.352a1040.07 1040.07 0 0 0 60.429-36.503l6.472 9.935a1049.08 1049.08 0 0 1-61.123 36.92zm-1024.63-6.849a1047.17 1047.17 0 0 1-60.632-37.737l6.606-9.842c19.459 13.055 39.624 25.607 59.943 37.308l-5.917 10.271zm1144.22-71.09l-7.145-9.461a1044.49 1044.49 0 0 0 54.885-44.417l7.77 8.962a1056.69 1056.69 0 0 1-55.51 44.916zm-1262.76-8.447c-18.773-14.55-37.251-29.915-54.915-45.663l7.892-8.846c17.461 15.562 35.727 30.748 54.289 45.141l-7.266 9.368zm1370.59-85.067l-8.36-8.406c16.627-16.541 32.887-33.858 48.331-51.47l8.916 7.816c-15.62 17.815-32.068 35.328-48.887 52.06h0zm-1477.17-9.877c-16.581-16.934-32.795-34.662-48.189-52.697l9.02-7.7c15.218 17.832 31.249 35.363 47.639 52.107l-8.47 8.29zm1571.28-97.45l-9.426-7.191c14.208-18.625 27.958-37.991 40.875-57.572l9.9 6.531c-13.067 19.806-26.974 39.398-41.349 58.232zm-1663.95-11.111a1044.15 1044.15 0 0 1-40.559-58.775l9.987-6.392a1032.67 1032.67 0 0 0 40.096 58.104l-9.524 7.063zm1742.54-108.045l-10.317-5.836a1033.41 1033.41 0 0 0 32.607-62.62l10.699 5.112c-10.224 21.399-21.323 42.71-32.989 63.344h0zm-1819.53-12.135a1042.09 1042.09 0 0 1-32.126-63.766l10.768-4.968a1030.22 1030.22 0 0 0 31.756 63.037l-10.398 5.697zm-59.944-130.002c-4.195-11.055-8.271-22.38-12.115-33.664l11.226-3.821c3.798 11.154 7.827 22.351 11.976 33.276l-11.087 4.209zm18.32-752.55l-11-4.423a1030.48 1030.48 0 0 1 13.912-32.957l10.844 4.799a1024.68 1024.68 0 0 0-13.756 32.581zm44.91-96.81l-10.479-5.541a1039.96 1039.96 0 0 1 35.957-62.615l10.068 6.259c-12.512 20.133-24.47 40.958-35.546 61.897zm1810.34-17.271a1029.45 1029.45 0 0 0-36.712-61.204l9.946-6.45a1040.79 1040.79 0 0 1 37.141 61.911l-10.375 5.743zm-1735.04-103.908l-9.614-6.942a1049.24 1049.24 0 0 1 44.259-57.042l9.113 7.59a1036.05 1036.05 0 0 0-43.758 56.394zm1657.45-15.812c-14.22-18.929-29.302-37.621-44.812-55.551l8.962-7.758a1050.19 1050.19 0 0 1 45.333 56.188l-9.483 7.121zm-1566.15-93.823l-8.569-8.198c16.57-17.314 33.959-34.274 51.684-50.41l7.984 8.771a1038.61 1038.61 0 0 0-51.099 49.837zm1472.8-14.054a1040.01 1040.01 0 0 0-52.04-48.861l7.816-8.916c18.026 15.791 35.734 32.418 52.634 49.417l-8.41 8.36zm-1367.29-81.981l-7.358-9.298a1050.91 1050.91 0 0 1 58.127-42.814l6.699 9.785a1037.1 1037.1 0 0 0-57.468 42.327zm1259.98-12.034c-18.851-14.34-38.454-28.212-58.266-41.227l6.507-9.912a1047.98 1047.98 0 0 1 58.938 41.702l-7.179 9.437zm-1142.25-68.536l-6.004-10.225c20.666-12.132 42.027-23.694 63.486-34.364l5.28 10.618a1031.03 1031.03 0 0 0-62.762 33.971zm1023-9.782c-20.686-11.62-42.021-22.643-63.407-32.769l5.071-10.717c21.636 10.242 43.217 21.396 64.143 33.146l-5.807 10.34zm-895.267-53.713l-4.527-10.96c22.151-9.147 44.913-17.626 67.648-25.202l3.746 11.249c-22.472 7.489-44.97 15.87-66.867 24.913zm766.325-7.324c-22.091-8.629-44.748-16.575-67.345-23.624l3.532-11.319c22.857 7.13 45.778 15.169 68.126 23.897l-4.313 11.046zm-631.008-37.765l-2.952-11.484c23.199-5.966 46.922-11.191 70.506-15.527l2.142 11.66c-23.312 4.287-46.76 9.451-69.696 15.351zm494.834-4.719c-23.052-5.456-46.595-10.169-69.979-14.008l1.922-11.7c23.653 3.882 47.469 8.649 70.789 14.17l-2.732 11.538zm-354.537-21.094l-1.332-11.782a1055.84 1055.84 0 0 1 71.97-5.622l.519 11.846a1043.99 1043.99 0 0 0-71.157 5.558zm213.774-2.021a1042.64 1042.64 0 0 0-71.243-4.206l.289-11.851a1052.95 1052.95 0 0 1 72.06 4.253l-1.106 11.804zm850.299 622.847c-4.591-10.832-9.425-21.705-14.364-32.318l10.746-5.002c4.996 10.734 9.889 21.734 14.538 32.688l-10.92 4.632z"/></g></g><g fill="#f0f0f0" class="B"><path d="M389.341 3113.17c-39.028 0-71.142-32.114-71.142-71.142s32.114-71.142 71.142-71.142 71.142 32.114 71.142 71.142c-.044 39.011-32.131 71.098-71.142 71.142zm0-130.427c-32.523 0-59.285 26.762-59.285 59.285s26.762 59.285 59.285 59.285 59.285-26.762 59.285-59.285c-.036-32.509-26.776-59.249-59.285-59.285zM1889.26 1518.39c-39.028 0-71.143-32.115-71.143-71.142s32.115-71.143 71.143-71.143 71.142 32.115 71.142 71.143c-.044 39.01-32.132 71.097-71.142 71.142zm0-130.428c-32.523 0-59.286 26.763-59.286 59.286s26.763 59.285 59.286 59.285 59.285-26.762 59.285-59.285c-.036-32.51-26.776-59.25-59.285-59.286zM3214.12 3471.08l-79.829-85.586 85.586-79.828 79.828 85.586-85.585 79.828zm-67.105-85.143l67.547 72.419 72.419-67.547-67.547-72.419-72.419 67.547z"/></g><path d="M373.24 2379.32l-6.461-35.093 11.683-2.038 6.421 34.873-11.643 2.258z" class="B D"/><ellipse cx="4197.4" cy="1971.4" rx="326.07" ry="323.105" fill="#fff"/><g class="C"><path d="M4197.4 1636.16c-185.381 0-337.927 152.546-337.927 337.927s152.546 337.926 337.927 337.926 337.926-152.545 337.926-337.926-152.545-337.927-337.926-337.927zm-89.578 241.576c28.361.657 51.333 24.167 51.333 52.536 0 28.828-23.722 52.55-52.55 52.55s-52.55-23.722-52.55-52.55c.309-28.918 24.185-52.54 53.105-52.54l.662.004zm286.588 227.69h-35.811v-52.536h-322.398v52.536h-35.811v-262.679h35.811v157.607h143.242v-122.618l144.125-.004c38.578 0 70.428 31.511 70.842 70.087v157.607z" class="B"/><circle cx="3235.5" cy="1974.36" r="337.927"/></g><g fill="#fff"><path d="M3382.87 1803.28c16.945.646 31.542 15.041 32.193 32.503l.009 259.928c-.183 17.334-14.213 32.648-32.198 33.34l-266.6.01c-17.121-.218-32.354-14.609-33.022-32.514l-.009-259.928c.184-17.353 14.353-32.659 32.199-33.339h267.428zm-78.407 270.248c6.108 0 11.061-4.972 11.061-11.106s-4.953-11.107-11.061-11.107-11.061 4.973-11.061 11.107 4.952 11.106 11.061 11.106zm-103.236 0c6.109 0 11.061-4.972 11.061-11.106s-4.952-11.107-11.061-11.107-11.061 4.973-11.061 11.107 4.952 11.106 11.061 11.106zm51.618 0c6.108 0 11.061-4.972 11.061-11.106s-4.953-11.107-11.061-11.107-11.061 4.973-11.061 11.107 4.952 11.106 11.061 11.106zm-103.236 0c6.109 0 11.061-4.972 11.061-11.106s-4.952-11.107-11.061-11.107-11.061 4.973-11.061 11.107 4.953 11.106 11.061 11.106zm154.854-51.83c14.253 0 25.808-11.603 25.808-25.916s-11.555-25.915-25.808-25.915-25.809 11.603-25.809 25.915 11.555 25.916 25.809 25.916zm-51.618-14.809c6.108 0 11.061-4.973 11.061-11.107s-4.953-11.106-11.061-11.106-11.061 4.973-11.061 11.106 4.952 11.107 11.061 11.107zm-51.618 0c6.109 0 11.061-4.973 11.061-11.107s-4.952-11.106-11.061-11.106-11.061 4.973-11.061 11.106 4.952 11.107 11.061 11.107zm-51.618 0c6.109 0 11.061-4.973 11.061-11.107s-4.952-11.106-11.061-11.106-11.061 4.973-11.061 11.106 4.953 11.107 11.061 11.107zm206.471 0c6.109 0 11.061-4.973 11.061-11.107s-4.952-11.106-11.061-11.106-11.061 4.973-11.061 11.106 4.953 11.107 11.061 11.107zm0-66.639c6.109 0 11.061-4.973 11.061-11.107s-4.952-11.106-11.061-11.106-11.061 4.972-11.061 11.106 4.953 11.107 11.061 11.107zm-103.235 0c6.108 0 11.061-4.973 11.061-11.107s-4.953-11.106-11.061-11.106-11.061 4.972-11.061 11.106 4.952 11.107 11.061 11.107zm51.618 0c6.108 0 11.061-4.973 11.061-11.107s-4.953-11.106-11.061-11.106-11.061 4.972-11.061 11.106 4.952 11.107 11.061 11.107zm-103.236 0c6.109 0 11.061-4.973 11.061-11.107s-4.952-11.106-11.061-11.106-11.061 4.972-11.061 11.106 4.952 11.107 11.061 11.107zm206.857-59.235l-.393-45.054c-.494-13.229-11.721-24.772-25.008-25.279l-266.362-.008c-13.467.171-25.19 11.722-25.696 25.288l-.394 45.053h317.853z"/><ellipse cx="2270.63" cy="1971.4" rx="337.927" ry="334.962"/></g><g class="C"><path d="M2270.63 1636.16c-185.381 0-337.926 152.546-337.926 337.927s152.545 337.926 337.926 337.926 337.927-152.545 337.927-337.926-152.545-337.927-337.927-337.927zm155.672 370.864c-3.489 0-15.084-.102-18.47-.308l-66.593-1.744a2.02 2.02 0 0 0-1.745.923l-99.941 149.4c-3.005 4.735-8.244 7.606-13.852 7.593h-24.319c-5.746 0-7.696-5.747-5.643-11.082l51.407-146.629c.091-.235.138-.484.138-.736 0-1.097-.888-2.007-1.985-2.034l-124.875-2.771c-2.629-.058-5.139 1.121-6.773 3.181l-38.683 46.893a16.61 16.61 0 0 1-12.929 6.259h-17.179a4.11 4.11 0 0 1-4.086-4.087c0-.46.077-.917.23-1.351l20.419-70.493c1.539-3.924 1.539-8.287 0-12.211l-20.419-70.492c-.153-.435-.23-.892-.23-1.352a4.11 4.11 0 0 1 4.086-4.087c.015 0 .029 0 .043.001h17.239c5.043-.03 9.824 2.285 12.928 6.259l37.966 46.174a8.27 8.27 0 0 0 6.772 3.181l125.594-1.847a2.02 2.02 0 0 0 1.847-2.771l-51.408-146.526c-2.052-5.335-.102-11.082 5.644-11.082h24.319a16.51 16.51 0 0 1 13.852 7.593l99.838 149.503c.363.608 1.038.965 1.745.923l66.593-1.744c3.284-.206 14.981-.308 18.47-.308 45.559 0 74.186 14.776 74.186 32.937s-28.73 32.835-74.186 32.835z" class="B"/><circle cx="1308.72" cy="1974.36" r="337.927"/></g><g fill="#fff"><path d="M1249.14 1858.51l-1.068-50.657c-.125-5.941-4.03-10.935-8.717-10.935-3.912 0-8.976 4.896-9.118 10.935l-.528 22.46v62.981c0 5.396-4.312 9.771-9.715 9.771-5.366 0-9.716-4.353-9.716-9.771v-95.054a9.93 9.93 0 0 1 .088-1.322h-5.865c-6.008 0-11.247 4.906-11.568 10.96l-4.469 84.227c-.019.367-.02.732-.003 1.091-.098.923-.148 1.867-.148 2.833 0 16.003 14.919 40.051 33.793 49.952v180.441c0 9.31 7.564 16.871 16.896 16.871 9.397 0 16.896-7.554 16.896-16.871v-180.441c18.874-9.901 33.793-33.949 33.793-49.952 0-.693-.025-1.374-.077-2.046a10.92 10.92 0 0 0 .058-1.878l-4.469-84.227c-.321-6.054-5.559-10.96-11.568-10.96h-5.152a9.93 9.93 0 0 1 .088 1.322v95.054c0 5.396-4.312 9.771-9.716 9.771-5.365 0-9.715-4.353-9.715-9.771v-34.784zm141.929 268.064c0 9.233-7.744 16.719-16.896 16.719-6.336 0-14.081-7.481-16.897-15.677v-122.907c-15.739-14.468-27.327-39.678-28.16-56.951.833-44.944 5.642-81.787 14.361-103.623 14.307-35.83 25.68-43.94 25.68-43.94 8.68-4.895 21.912-1.308 21.912 7.883v318.496z"/><ellipse cx="337.927" cy="1971.4" rx="326.07" ry="323.105"/></g><g class="B C"><path d="M456.953 1883.79H356.396c-2.249.006-4.098 1.855-4.104 4.104v143.653a4.14 4.14 0 0 0 4.104 4.104h100.557c8.997-.026 16.391-7.421 16.418-16.417v-119.027c-.027-8.996-7.421-16.391-16.418-16.417zm-22.574 182.65c-12.73 1.037-22.655 11.802-22.655 24.575 0 13.526 11.13 24.657 24.656 24.657 12.773 0 23.539-9.926 24.575-22.656a24.91 24.91 0 0 0 .077-1.951c0-13.551-11.151-24.702-24.702-24.702a24.91 24.91 0 0 0-1.951.077zm-196.907 0c-12.73 1.037-22.655 11.802-22.655 24.575 0 13.526 11.13 24.657 24.656 24.657 12.773 0 23.538-9.926 24.575-22.656a24.91 24.91 0 0 0 .077-1.951c0-13.551-11.151-24.702-24.702-24.702a24.91 24.91 0 0 0-1.951.077zm81.985-182.65H219.105c-9.106.033-16.589 7.516-16.623 16.622v118.616c.034 9.107 7.517 16.589 16.623 16.623h100.352a4.14 4.14 0 0 0 4.104-4.104v-143.653c-.006-2.249-1.855-4.098-4.104-4.104zm138.522-59.51H217.874l-.992-.034c-7.9 0-14.4 6.5-14.4 14.399s6.5 14.4 14.4 14.4c.331 0 .662-.012.992-.034h240.105a14.94 14.94 0 0 0 .992.034c7.9 0 14.4-6.5 14.4-14.4s-6.5-14.399-14.4-14.399a14.29 14.29 0 0 0-.992.034zm-120.052-188.12C152.546 1636.16 0 1788.706 0 1974.087s152.546 337.926 337.927 337.926 337.926-152.545 337.926-337.926-152.545-337.927-337.926-337.927zm164.175 475.423c-.067 22.491-18.553 40.978-41.044 41.043H214.795c-22.49-.065-40.977-18.552-41.043-41.043v-283.202c.052-17.992 14.842-32.782 32.835-32.835h262.68c17.992.053 32.782 14.843 32.835 32.835v283.202z"/></g></g></g><defs ><path id="D" d="M4930.52 4109.1l-82.078 304.169s-164.154 96.561-62.764 115.873 202.779-19.312 202.779-19.312l48.28-140.014 48.281-28.969v149.671h14.484l33.797-197.951s-4.828-101.39-33.797-111.046-43.452-62.765-43.452-62.765l-125.53-9.656z"/></defs></svg>