<svg width="4101" height="3210" xmlns="http://www.w3.org/2000/svg" xmlns:xlink="http://www.w3.org/1999/xlink" viewBox="0 0 4101 3210" fill-rule="evenodd" stroke-miterlimit="10"><style><![CDATA[.B{fill-rule:nonzero}.C{fill-opacity:.1}.D{fill:#3f3d56}.E{fill:#ef8231}.F{fill:#153f6f}.G{fill:#fda8a8}.H{fill:#ffb9b9}.I{fill:#4c4c4c}.J{fill:#46455b}.K{fill:#bbbdc8}.L{fill:#a1616a}]]></style><clipPath id="A"><path d="M0 263.738h4101v2946.26H0z"/></clipPath><g clip-path="url(#A)"><ellipse cx="1085.29" cy="2916.74" rx="1085.29" ry="293.258" class="C E"/><g fill="#f2f2f2"><path d="M3911.65 1628.49l-610.765-763.228c-27.73 25.36-61.905 42.616-98.775 49.876-114.983 22.645-227.274-55.876-250.809-175.38-16.51-80.43 12.999-163.699 76.471-215.785l-208.253-260.239-1186.44 1014 1092.13 1364.76 1186.44-1014z" class="B"/><circle cx="3152.75" cy="706.695" r="172.185"/></g><g fill="none" stroke="#153f6f" stroke-width="9.24"><circle cx="2019.8" cy="565.169" r="68.145"/><circle cx="4033.35" cy="1862.9" r="68.145"/><circle cx="3568.14" cy="1184.01" r="68.145"/></g><g class="E"><path d="M2075.37 1473.92l-52.684 60.971 177.492 153.367 52.684-60.971-177.492-153.367zm1140.99 1090.37l-52.684 60.971 157.331 135.945 52.683-60.971-157.33-135.945z"/></g><g class="B"><path d="M3500.63 2110.16v4.727c-.107 11.872-.447 23.69-1.02 35.455-21.239 417.541-370.575 749.559-788.656 749.559-414.202 0-761.611-325.888-788.063-739.245-1.074-16.707-1.611-33.539-1.611-50.496-.284-163.531 50.491-323.142 145.203-456.454 7.575-10.744 15.453-21.291 23.637-31.64 5.64-7.199 11.442-14.236 17.297-21.22 275.529-326.412 768.489-373.191 1100.5-104.43 9.508 7.682 18.856 15.632 27.988 23.744 7.306 6.5 14.486 13.143 21.541 19.93a787.75 787.75 0 0 1 240.449 503.673c1.826 21.917 2.739 44.049 2.739 66.397z" class="F"/><g class="E"><path d="M2710.95 2999.22c-490.226 0-889.056-398.83-889.056-889.056-.29-224.22 84.531-440.401 237.221-604.598l19.688 18.272c-148.075 159.234-230.332 368.882-230.049 586.326 0 475.417 386.779 862.196 862.196 862.196 233.323.789 457.1-93.922 618.964-261.971l19.285 18.697c-166.907 173.285-397.656 270.947-638.249 270.134z"/></g></g><path d="M2614.26 2980.41h225.622v225.622H2614.26z" class="E"/><g class="B E"><path d="M2090.12 1622.07c.387.163.749.38 1.074.645 4.244 3.492-1.074 10.207-.429 15.74.752 7.091 10.206 8.649 17.351 9.347 7.145.752 16.17 6.5 12.785 12.839-17.942 6.178-36.099.107-54.418-6.93-94.712 133.312-145.486 292.923-145.203 456.454 0 16.975.537 33.807 1.612 50.496a20.42 20.42 0 0 0 4.888 2.633c5.372 2.041 11.603 1.665 16.546 4.566 3.921 2.31 6.553 6.392 10.475 8.541 11.227 6.124 26.806-5.64 37.281 1.666 2.708 2.466 5.273 5.084 7.682 7.843 9.67 8.38 25.571 2.739 36.744 9.024 7.199 4.029 10.905 12.087 14.773 19.393 9.616 18.265 25.194 36.207 45.769 37.657 6.489-.298 12.991-.082 19.446.645 6.339 1.45 12.571 6.983 11.55 13.376-1.773 11.013 3.653 23.046 2.203 34.058-2.633 20.145-31.158 28.955-33.575 49.1a121.27 121.27 0 0 1-.752 13.268c-1.289 5.265-5.265 9.562-6.661 14.827-2.686 9.938 4.458 19.876 12.248 26.537 7.843 6.715 17.19 12.517 21.487 21.864 4.513 9.938 2.31 21.488 3.761 32.285 3.223 23.583 23.583 41.042 44.533 52.323a46.5 46.5 0 0 1 17.405 12.678c5.372 7.789 4.835 18.05 6.661 27.343 4.405 22.723 23.53 41.472 24.067 64.625.376 16.491-8.756 31.425-14.236 46.95-5.636 16.274-7.312 33.66-4.888 50.711a793.33 793.33 0 0 0 97.393 70.641c1.86-2.749 3.224-5.804 4.029-9.024 1.327-7.275-1.998-14.655-8.327-18.48a44.16 44.16 0 0 0 15.418-9.884c4.409-4.535 5.528-11.38 2.793-17.083 9.455 1.182 20.682 1.773 26.913-5.48 4.996-5.801 4.674-14.504 2.686-21.863-2.727-7.155-4.532-14.629-5.372-22.24a400.03 400.03 0 0 0 65.646-2.203c-3.152-10.621-10.324-19.607-19.984-25.033 9.884-1.665 18.856-13.483 21.971-22.992 2.694-9.7 2.843-19.933.43-29.707a15.8 15.8 0 0 1-.322-7.735 15.22 15.22 0 0 1 7.843-7.575l48.992-28.149a29.53 29.53 0 0 0 7.843-5.748c5.103-6.07 4.351-15.148 1.719-22.615s-6.823-14.505-7.843-22.348c-3.008-23.475 22.132-40.343 30.62-62.475 2.886-8.836 4.443-18.051 4.62-27.344.698-9.991.752-21.541-6.876-27.934-7.36-6.177-18.802-4.781-26.484-10.529-7.037-5.264-9.455-15.417-17.136-19.661-6.984-3.868-15.687-1.397-23.476-3.223-13.645-3.17-22.24-18.909-36.207-20.36-7.843-.859-16.76 3.009-23.207-1.558-5.694-4.082-5.909-12.194-6.983-19.07-3.898-21.884-21.101-39.131-42.976-43.083-8.111-1.289-16.921-.806-23.851-5.264-6.984-4.513-10.153-12.947-15.686-19.232-8.81-10.046-22.777-13.645-35.831-16.707l-53.128-12.463c-9.401-2.256-21.542-3.438-26.645 4.835-1.51 3.146-2.56 6.493-3.116 9.938-3.925 12.684-15.626 21.47-28.901 21.703a34.16 34.16 0 0 0-20.091-15.579 126.66 126.66 0 0 1-16.33-3.868 22.91 22.91 0 0 1-12.814-20.546 22.89 22.89 0 0 1 2.929-11.202 28.58 28.58 0 0 0-4.888-34.219c-9.025-8.112-22.079-10.099-34.22-9.293-3.169-6.93 2.149-14.72 7.843-19.769 5.748-4.996 12.678-9.938 13.914-17.459 1.987-11.818-13.108-20.789-24.55-17.298-11.442 3.546-18.748 14.666-23.583 25.625-2.345 6.466-5.542 12.59-9.508 18.21-4.137 5.661-11.128 8.532-18.05 7.414-9.454-2.418-13.054-13.645-15.149-23.1a150.62 150.62 0 0 1-5.049-38.731c.082-13.2 5.329-25.856 14.611-35.24 15.633-14.397 39.699-13.001 60.811-10.69-4.657-6.211-3.962-15.011 1.611-20.414a23.23 23.23 0 0 1 21.059-5.157 28.9 28.9 0 0 1 16.276 9.723c6.017 7.306 7.736 17.244 12.248 25.517 4.567 8.327 14.773 15.417 23.1 10.959 7.252-3.868 8.38-13.86 6.607-21.864-1.826-7.95-5.64-15.74-4.996-23.905 1.236-15.525 17.406-24.926 31.641-31.319s30.513-15.041 32.769-30.512a28.49 28.49 0 0 1 1.719-8.81c1.575-2.524 3.778-4.597 6.393-6.017 41.525-27.451 83.802-55.277 131.29-70.265 2.471-.806 2.74.054 5.264-.537 3.546-2.041 1.182-7.682-2.202-9.938s-7.897-4.029-8.756-8.004c-.591-2.901 1.128-5.802 1.558-8.756.014-.229.021-.458.021-.687 0-5.997-4.935-10.932-10.932-10.932-1.166 0-2.325.186-3.433.552-3.814-5.049 3.707-10.905 9.831-12.624a268.49 268.49 0 0 1 56.137-9.132c2.191-.362 4.44.016 6.392 1.074a7.63 7.63 0 0 1 .484 10.422 58.89 58.89 0 0 1-8.541 7.789c-6.274 6.093-8.64 15.208-6.124 23.583 9.938 5.05 20.682 10.26 31.694 8.488 10.959-1.773 20.682-14.128 15.525-23.959-4.781-9.186-19.232-11.281-21.703-21.327-2.901-11.764 13.752-22.24 9.992-33.735-1.612-5.05-6.661-8.058-10.529-11.658a31.84 31.84 0 0 1-6.93-35.132 40.06 40.06 0 0 1-35.025-10.959c-8.38-8.434-15.041-21.81-26.967-21.38-10.905.322-20.306 13.054-30.513 9.186-2.524-.967-5.157-2.901-7.574-1.773-1.615 1.038-2.665 2.763-2.847 4.674-2.579 12.409 1.88 26.537-4.889 37.281-7.359 11.657-24.388 13.269-33.306 23.798-4.834 5.694-6.715 13.376-11.173 19.393s-13.86 9.884-19.232 4.619c5.399-11.068 2.397-24.512-7.198-32.231-4.948-3.248-10.292-5.848-15.901-7.736-6.266-2.644-12.228-5.958-17.781-9.884a17.62 17.62 0 0 1-6.5-6.984 16.06 16.06 0 0 1 .429-11.066c5.535-15.788 19.395-27.266 35.938-29.76 7.091-.967 15.364-.645 20.091-6.071 2.472-2.847 3.761-7.198 7.414-8.326 2.301-.481 4.697-.198 6.822.805l26.538 9.348c2.955 1.355 6.22 1.893 9.454 1.558a6.39 6.39 0 0 0 5.533-6.715c-.859-4.405-7.628-6.5-6.983-10.959.313-1.457 1.085-2.775 2.202-3.76 19.387-20.622 47.016-31.527 75.261-29.707 3.331 5.533-1.934 12.033-6.393 16.706-4.404 4.728-7.95 13.108-2.578 16.707a14.15 14.15 0 0 0 7.037 1.612 61.38 61.38 0 0 1 18.802 5.694c9.186 3.975 18.211 8.38 27.021 13.108a34.07 34.07 0 0 1 .644-17.405 11.87 11.87 0 0 1 13.968-7.575c5.264 2.041 7.95 9.025 13.591 9.67 7.467.859 10.421-10.207 7.306-17.083s-9.348-12.571-9.831-20.145c-.376-5.05 1.558-11.335-2.471-14.397-1.432-.949-3.073-1.538-4.781-1.719l-101.261-18.587c-6.017-1.128-14.666-.268-14.934 5.802-.161 3.438 2.901 6.822 1.558 9.938-1.451 3.331-6.178 3.062-9.616 4.244a13.09 13.09 0 0 0-7.521 13.806c.918 5.585 3.085 10.893 6.339 15.525-6.607-2.74-16.546-3.224-23.153-6.017a89.06 89.06 0 0 0-5.802-22.293 7.9 7.9 0 0 0-7.787-6.738c-.84 0-1.675.134-2.473.399l-26.108 3.975a10.1 10.1 0 0 0-5.963 2.31c-3.384 3.599-.053 9.347-.161 14.289a13.42 13.42 0 0 1-10.368 11.55c-5.467 1.11-11.109 1.037-16.545-.215l-36.529-5.641a59.84 59.84 0 0 0 27.611-18.479c4.835-5.694 7.414-16.331.43-19.017-2.062-.566-4.215-.73-6.339-.483-16.545.107-29.599-13.699-45.07-19.554a44.3 44.3 0 0 0-15.203-2.793l-17.298 21.218zm1409.49 528.27c-3.843 5.159-10.012 8.082-16.438 7.789-16.815-1.45-23.906-25.678-40.559-28.417a6.49 6.49 0 0 0-4.405.429c-2.471 1.343-2.9 4.674-3.061 7.467-.699 13.86-1.29 28.257 4.136 41.042 7.897 18.694 28.364 34.38 24.066 54.203-23.099-10.69-35.132-36.637-40.558-61.509-5.479-24.872-6.339-50.979-16.116-74.509-7.467 9.509-23.045 1.666-29.814-8.326-6.446-9.455-10.422-20.414-16.653-30.029-6.231-9.562-15.793-18.158-27.182-18.695-11.979-.537-22.401 7.682-31.533 15.471-7.945 5.868-14.615 13.289-19.608 21.81-6.393 12.893-4.727 28.042-5.05 42.385-.322 15.471-3.599 31.856-14.181 43.244-10.583 11.335-30.083 15.31-41.74 5.05-5.636-5.876-9.653-13.114-11.658-21.004a1022.29 1022.29 0 0 1-31.587-112.704c-1.934 8.703-9.615 19.93-16.921 14.827-1.634-1.389-2.952-3.111-3.868-5.05-13.645-23.046-38.839-36.905-64.356-45.232-25.463-8.272-52.269-12.14-77.463-21.273-14.129-5.13-27.628-11.853-40.236-20.037a31.72 31.72 0 0 0-1.934 32.339c5.804 10.16 17.804 15.186 29.116 12.195 5.587-1.827 10.314-5.695 15.847-7.629 5.533-1.88 13-.967 15.418 4.405 2.363 5.104-1.182 11.281.591 16.653 2.632 8.112 14.934 8.757 19.231 16.17 2.586 6.009.946 13.049-4.029 17.298-4.944 4.03-10.399 7.39-16.223 9.991-18.05 10.046-30.889 27.182-46.682 40.505-15.794 13.376-38.087 23.099-56.889 14.558 4.459-22.724-22.562-39.377-27.558-61.992-1.665-7.467-.806-15.364-3.116-22.616-3.384-10.529-12.731-17.728-20.36-25.678-18.714-19.71-28.696-46.167-27.665-73.327.429-9.347 2.149-18.856 0-27.988-2.095-9.079-9.67-17.889-19.017-17.512-21.326.967-48.24 2.578-59.413-15.633-4.029-6.5-5.748-16.008.053-21.004a20.29 20.29 0 0 1 15.418-2.632l48.132 4.727c11.228 1.074 23.368 1.988 33.038-3.868s13.859-21.488 4.888-28.417c-6.5-5.05-18.211-4.781-20.145-12.786-1.557-6.715 5.856-14.289 1.827-19.93-2.847-3.975-9.294-2.9-13.215.108-3.422 3.553-7.142 6.806-11.12 9.723-7.682 3.975-16.814.161-25.087-2.417s-19.339-2.794-23.314 4.888c-4.513 8.542 3.921 19.823-.484 28.418-5.909 11.335-25.785 4.888-34.058 14.665-9.454 11.174 6.447 27.934 3.277 42.224a26.35 26.35 0 0 1-25.946-1.451 25.15 25.15 0 0 1-10.852-23.421c.752-6.447 4.137-13.054 1.881-19.125a22.34 22.34 0 0 0-11.335-10.368l-46.736-25.839c-4.351 8.058 1.128 17.996 8.004 24.067 6.822 6.016 15.418 10.582 19.93 18.533 5.897 11.373 1.866 25.554-9.132 32.124-1.365.938-3.074 1.233-4.674.806a6.48 6.48 0 0 1-3.008-4.029c-8.219-21.112-20.629-41.902-40.397-52.914-19.823-11.066-48.24-8.756-61.24 9.777-3.062 4.405-5.157 9.454-7.843 14.128-14.236 24.765-44.856 36.476-73.435 35.723-2.795.18-5.581-.475-8.004-1.88-4.62-3.169-4.405-9.938-3.707-15.525l3.009-23.636c.024-4.82 1.889-9.453 5.21-12.947 5.319-4.19 12.947-1.557 19.715-1.665 10.442-.465 19.522-7.475 22.616-17.459a28.1 28.1 0 0 0-7.843-27.934c-3.062-2.901-7.198-6.553-5.587-10.475 1.325-2.185 3.547-3.679 6.071-4.083 12.087-3.491 24.926-4.405 36.797-8.595 11.926-4.136 23.476-12.624 26.323-24.925.859-3.761 1.236-8.327 4.62-10.207 1.709-.686 3.53-1.05 5.372-1.075 13.317-1.908 23.098-13.8 22.401-27.235 5.694-3.975 13.698-1.021 19.231 3.223 5.48 4.244 10.368 9.831 17.083 11.657 12.517 3.438 24.604-7.682 37.604-7.736 5.479 0 11.12 1.934 16.223.054 5.211-1.88 8.327-7.037 12.302-10.851 4.029-3.868 11.012-6.178 14.719-2.041l-3.17-23.261c12.798 3.223 26.384.753 37.228-6.769l-40.558-13.698a8.75 8.75 0 0 1-3.814-2.041c-2.955-3.17 0-8.112 2.364-11.711 5.748-8.649 6.714-22.885-2.74-27.182-6.446-2.955-13.806.591-19.984 4.029l-29.653 16.492c-.913 5.64 5.963 8.863 10.207 12.624 3.66 3.247 5.758 7.912 5.758 12.805 0 9.32-7.612 17.015-16.932 17.116 3.941 5.144 5.344 11.807 3.814 18.104l-19.93 1.45a8.56 8.56 0 0 1-6.446-1.289c-2.149-1.88-1.826-5.211-2.364-8.004a17.32 17.32 0 0 0-14.611-12.732c-6.844-.769-13.773-.13-20.36 1.88-2.863 1.009-5.999.933-8.81-.215-1.594-1.055-2.802-2.602-3.438-4.404-2.375-7.484-.661-15.69 4.512-21.596a123.65 123.65 0 0 1 16.976-15.632c13.899-12.168 24.117-27.988 29.492-45.662 10.959-4.619 22.293-10.851 33.306-15.471a133.05 133.05 0 0 1 27.665-9.293 130.65 130.65 0 0 1 27.129-1.289l37.12.698a89.33 89.33 0 0 1 32.5 4.674c10.153 4.19 19.124 13.268 19.823 24.227.429 2.536-.488 5.122-2.418 6.822-1.426.789-3.046 1.161-4.673 1.075-10.261.322-14.612 2.901-24.873 3.277 6.5 6.929 13.806 14.235 23.261 15.471 16.653 2.148 28.632-15.095 36.314-30.083.568 7.884 7.415 13.962 15.31 13.591 4.116-.708 8.045-2.243 11.55-4.513a227.22 227.22 0 0 1 107.707-27.826c-.761-5.876 3.095-11.438 8.864-12.785 7.682-1.505 14.558 5.103 18.265 11.979 3.653 6.876 5.963 14.827 11.872 19.984 5.855 5.157 17.19 4.888 19.5-2.525 2.256-7.145-5.211-13.269-11.389-17.513-6.231-4.19-12.731-11.979-8.541-18.211 31.587-7.037 63.442-14.02 95.835-15.417a40.79 40.79 0 0 0 16.116-2.793 12.56 12.56 0 0 0 7.521-13.269c-14.427 3.367-29.537-2.337-38.141-14.397 33.252-2.74 68.062-5.157 100.026 2.31l27.987 23.744c-5.318 5.533-12.409 10.744-8.541 16.277 2.584 2.573 6.211 3.822 9.831 3.384l20.252.269c138.91 132.872 224.477 312.112 240.448 503.673-11.281-.429-21.649 13.86-20.199 26.323 1.719 14.45 12.141 26.053 19.608 38.516a58.79 58.79 0 0 1 3.33 6.286l-1.02 35.455z"/></g><circle cx="2167.38" cy="1919.02" r="23.364" class="F"/><circle cx="1935.04" cy="1694" r="100.806" fill="#fff"/><path d="M1837.1 1575.64c55.965-54.596 146.942-53.469 201.537 2.496 54.963 56.342 133.434 340.876 133.434 340.876s-282.503-85.494-337.467-141.836c-54.595-55.964-53.468-146.941 2.496-201.536zm148.067 151.78a66.07 66.07 0 0 0 19.926-47.276c0-36.231-29.814-66.045-66.045-66.045s-66.046 29.814-66.046 66.045c0 17.227 6.74 33.788 18.77 46.119 25.3 25.935 67.46 26.457 93.395 1.157z" fill="#57b894" class="B"/><circle cx="1132.02" cy="879.154" r="105.125"/><g class="B"><path d="M811.835 2144.77l64.586-223.991 21.987 6.871s-26.109 167.65-67.334 210.25l-19.239 6.87z"/><use xlink:href="#D" class="H"/><use xlink:href="#D" class="C"/><g class="H"><path d="M1107.28 2587.26v56.339l75.579 15.116-6.871-93.442-68.708 21.987zm226.74-21.99l-16.492 78.326 32.982 23.361 57.716-42.597-6.871-67.338-67.335 8.248z"/></g><path d="M1189.73 2651.84s-28.858-48.778-82.451-18.205c0 0-9.619 53.934-19.238 58.056s-63.212 82.451 0 89.322 94.818-13.742 94.818-13.742-12.367 10.642 6.871 5.145 10.994-35.729 10.994-35.729l-10.994-84.847zm188.27-32.98s-42.6 30.232-49.471 16.49-17.864-12.368-17.864-12.368-38.477 145.048-13.742 151.919c15.926 3.92 32.659 3.056 48.096-2.485s32.98-23.097 32.98-5.233 92.07 16.578 130.547 15.204 17.865-30.232 17.865-30.232l-50.845-49.47-57.715-83.825s-26.11-23.361-39.851 0z"/><path d="M972.614 1699.54l57.715 553.793 37.103 343.545c5.497 5.497 41.226 23.361 119.554 0l-17.865-442.485 32.981-274.836 75.579 189.637s17.865 509.82 30.232 509.82 87.948 24.735 105.812-5.497 15.116-355.912 15.116-355.912-8.245-513.943-68.709-530.433-387.518 12.368-387.518 12.368z" fill="#63767e"/></g><circle cx="1132.02" cy="898.393" r="94.818" class="H"/><g class="B"><path d="M1137.52 1162.24s-9.619-59.09-9.619-70.083-42.599-17.865-42.599-17.865-32.981-37.102-39.852-31.606-111.308 75.58-127.798 85.199-34.355 50.845-32.98 53.593 86.573 181.392 86.573 181.392 37.103 109.934 10.993 167.65-59.089 171.772-10.993 195.133 281.706 74.205 324.306 30.232 72.831-56.341 83.825-56.341-45.348-191.011-32.981-208.875-5.496-129.173-5.496-129.173l63.212-177.269s-5.497-98.941-130.547-120.928l-74.81-36.272-61.234 135.213z" class="I"/><g class="H"><path d="M880.544 1724.27s-6.871 65.96-6.871 85.199-32.98 131.921 15.116 145.663 43.974-149.786 43.974-149.786v-83.824l-52.219 2.748zm570.286-61.83s8.245 63.212 4.123 76.954 39.851 133.295-19.239 140.166-43.974-142.915-43.974-142.915v-74.205h59.09z"/></g><path d="M868.176 2122.79l39.852-211.624h12.367c17.56 22.638 22.242 52.808 12.368 79.702-16.49 46.723-30.232 131.922-30.232 131.922h-34.355z"/><g class="I"><path d="M905.279 1164.98l-20.612 16.49s-27.484 436.989-20.613 469.969-24.735 79.703 2.748 83.825 60.464 21.987 75.58 10.994 17.864-50.845 23.361-60.464 15.116-123.676 15.116-123.676 28.858-114.057 10.993-199.256l-34.354-171.772-52.219-26.11zm435.611-34.35l63.212 53.593 48.096 280.332s30.232 218.495 6.871 221.243-59.09-4.123-74.206 0-27.483-6.871-27.483-6.871l-16.49-89.321c0-1.375-10.994-101.69-10.994-101.69l-13.741-112.682 20.612-123.676 4.123-120.928z"/></g><g class="F"><path d="M1042.7 2427.85l-21.245 60.588-18.799 53.125-12.889 36.128-19.225 53.001c-7.641 20.709-13.838 36.938-17.164 44.51-15.115 34.355-291.325-20.612-313.312-34.354s-27.484-60.464-30.232-126.425l-.028-1.03c-.357-13.316 3.037-33.145 8.713-56.41 2.83-11.626 6.238-24.104 10.031-37.062 5.085-17.383 10.856-35.605 16.889-53.744 25.917-77.916 56.465-154.073 56.465-154.073s53.593-37.103 72.831-61.838 125.051-43.974 125.051-43.974c30.231 1.374 98.94 118.18 126.424 153.908s16.49 167.65 16.49 167.65z"/></g></g><circle cx="888.789" cy="2206.61" r="12.368" class="F"/><circle cx="908.028" cy="2220.35" r="6.871" class="F"/><g fill="#f2f2f2" class="B"><path d="M1021.45 2488.44l-18.799 53.125-374.106-121.642c5.085-17.383 10.856-35.605 16.889-53.744l376.016 122.261zm-31.686 89.25l-19.225 53.001-360.736-117.299c-.357-13.316 3.037-33.145 8.713-56.41l371.248 120.708z"/></g><g fill="none" stroke="#000" stroke-width="10.17"><path d="M888.789 2209.36s27.484 120.928 10.994 228.113 41.225 207.501 41.225 207.501"/><path d="M908.028 2218.98s-53.593 195.133-54.968 222.617-23.361 223.991-50.844 244.604"/></g><g class="B"><path d="M1059.22 840.532s-21.463-55.803 9.658-74.046l8.585 24.682s78.34-47.218 98.729-36.487l-19.316 25.756s91.217 0 97.656 35.413l-32.195 1.074s34.341 22.535 35.414 59.022l-68.681 4.293 33.267 19.316s-124.484 17.17-154.532-32.194l-8.585-26.829z"/><path d="M1040.64 842.738s24.735 49.471 57.715 37.103 0-57.715 0-57.715l-21.987-10.994-35.728 31.606z"/><g class="D"><path d="M403.236 2970.42a117.74 117.74 0 0 0 5.972 18.027 3508.19 3508.19 0 0 1 116.565-43.408l-1.078-5.032a102.08 102.08 0 0 0-24.497-46.559c-15.704-16.589-35.942-24.607-55.628-19.714s-33.98 21.649-40.505 43.685c-4.878 17.293-5.163 35.563-.829 53.001z"/></g></g><path d="M421.945 2773.97c33.717-7.531 69.27 22.979 79.345 68.088s-9.119 87.847-42.836 95.377-69.27-22.979-79.345-68.088 9.12-87.847 42.836-95.377z" class="D"/><path d="M398.27 2674.4c33.717-7.531 69.27 22.979 79.345 68.088s-9.12 87.847-42.836 95.377-69.27-22.979-79.345-68.089 9.119-87.846 42.836-95.376z" class="D"/><path d="M374.546 2574.88c33.716-7.53 69.27 22.979 79.345 68.089s-9.12 87.846-42.836 95.377-69.27-22.979-79.345-68.089 9.119-87.846 42.836-95.377z" class="D"/><path d="M350.822 2475.33c33.716-7.53 69.27 22.979 79.344 68.089s-9.119 87.846-42.836 95.377-69.27-22.98-79.344-68.089 9.119-87.847 42.836-95.377z" class="D"/><g class="B"><path d="M-41.485 2133.1c15.608 66.464 52.988 125.843 106.169 168.654-27.949 62.755-34.404 133.017-18.359 199.814 39.205 164.59 201.224 265.423 361.888 225.277s259.119-206.145 219.914-370.734a306.51 306.51 0 0 0-106.17-168.654c26.93-60.439-571.405-87.728-563.442-54.357z" class="C"/><path d="M727.024 2311.04c-7.05-36.883-14.93-73.848-16.229-111.367-.774-22.119.774-44.624-2.074-66.687-1.41-10.839-3.871-21.483-6.304-32.128l-9.787-42.606a71.15 71.15 0 0 0-.94-24.524 85.78 85.78 0 0 0-3.899-12.469 193.51 193.51 0 0 0 22.423-41.472c2.599-6.636 4.839-13.686 3.816-20.709-1.991-13.464-15.041-22.339-27.179-28.975-7.354-4.009-15.096-7.88-23.501-8.516-11.905-.479-23.374 4.641-30.966 13.824a67.28 67.28 0 0 1 1.991-32.707c-7.216-3.235-14.488-6.277-21.814-9.235-1.059-9.555-1.429-19.174-1.106-28.782.166-11.529.359-23.169 1.023-34.726 40.175-14.662 67.151-52.979 67.406-95.746v-3.511c10.82-19.45 13.391-42.453 7.133-63.812-8.101-27.648-29.279-50.43-54.798-64.503s-55.103-20.018-84.383-21.068c-9.826-.575-19.686.047-29.362 1.852-10.356 2.549-20.392 6.259-29.916 11.06-14.625 6.746-29.362 14.128-40.311 25.768-18.994 20.266-23.252 50.043-21.178 77.415 2.765 35.942 14.764 70.724 28.643 104.178 4.618 11.059 9.539 22.285 17.142 31.713 5.889 7.271 16.119 7.713 24.248 2.626a265.28 265.28 0 0 0-.609 26.542c-15.013-.525-29.638 1.936-41.693 10.396-5.53 3.954-10.783 10.175-9.566 16.866a15.73 15.73 0 0 1 15.096 13.409c.608 5.889-2.351 11.502-5.226 16.589l-3.76 6.829c-11.889 12.718-24.082 28.644-25.16 44.431-1.94.184-3.869.47-5.778.857-10.783 1.99-21.511 5.668-32.1 8.432l-76.641 20.184-18.939 5.253-30.413 8.018c-19.354 5.087-39.067 10.313-56.236 20.542s-31.74 26.294-35.197 45.648c-1.714 9.621-.663 19.63-2.764 29.168 0 .443-.166.858-.277 1.272a93.29 93.29 0 0 1-7.05 17.446c-17.17 36.192-29.39 75.646-27.095 115.487 1.41 24.469 8.294 48.329 14.985 71.885l20.791 72.273c4.51 17.246 10.229 34.153 17.115 50.596 11.796 26.338 29.296 49.731 51.232 68.484 6.156 5.522 13.04 10.173 20.459 13.825 11.313 4.891 23.665 6.896 35.943 5.833a104.16 104.16 0 0 0 9.815-1.106c23.75-3.76 45.896-15.206 66.218-28.09a432.18 432.18 0 0 0 24.883-17.004 157.81 157.81 0 0 0 5.53 27.427c1.797 6.166 4.009 12.497 3.29 18.884-.995 8.903-7.465 16.202-10.811 24.552-7.105 17.639.194 37.297 1.383 56.208 1.133 17.723-3.18 35.307-6.636 52.753-5.771 29.095-9.183 58.609-10.202 88.253a266.99 266.99 0 0 1-2.212 33.565c-2.571 15.704-8.598 30.856-9.649 46.726-1.604 24.717 9.069 48.909 8.101 73.654-1.134 29.059-18.193 57.288-12.248 85.71.746 3.567 2.765 7.686 6.027 8.599l-1.604 1.465c-4.893 4.534-9.649 12.912-4.091 16.589a10.85 10.85 0 0 0 4.174 1.437c8.599 1.798 17.253 3.429 25.907 4.95-.191 7.993.816 15.971 2.986 23.666 1.576 1.134 3.179 2.157 4.783 3.125-1.217 3.262-1.134 6.414 1.742 8.294a10.87 10.87 0 0 0 4.175 1.438 902.64 902.64 0 0 0 216.623 17.971c12.995-.498 26.57-1.438 37.657-8.073s18.58-20.764 13.299-32.404c-4.673-10.285-16.893-14.736-27.869-18.165l-12.884-3.981c3.342-5.925 3.771-13.072 1.161-19.354-4.673-10.285-16.893-14.736-27.87-18.165l-29.666-9.207a29.11 29.11 0 0 1-10.783-5.059c-2.125-2.114-4.084-4.388-5.861-6.802-4.281-4.893-9.906-8.422-16.175-10.146-.333-6.287-.194-12.59.415-18.857l8.295-100.114c1.852-22.671 3.677-45.785-1.604-67.931-2.129-8.986-5.53-18.193-3.456-27.206 3.235-14.709 18.718-22.893 29.279-33.814 15.926-16.589 20.875-40.173 24.524-62.623 15.113-92.645 19.861-186.685 14.156-280.381 33.191-9.356 67.351-14.849 101.801-16.367 5.861-.249 8.737-3.014 10.562-8.488s.718-11.419-.36-17.087zm-165.474 4.894l.58-2.903 2.295 2.93-2.875-.027z" fill="url(#B)"/><use xlink:href="#E" class="L"/><use xlink:href="#E" class="C"/><use xlink:href="#F" class="J"/><use xlink:href="#F" class="C"/><use xlink:href="#G" class="K"/><use xlink:href="#G" class="C"/><path d="M602.082 2995.66a57.35 57.35 0 0 0 5.53 6.94 27.81 27.81 0 0 0 10.534 5.059l28.975 9.207c10.755 3.429 22.699 7.852 27.261 18.137 5.143 11.613-2.184 25.741-13.022 32.349s-24.11 7.575-36.8 8.073a865.73 865.73 0 0 1-211.758-17.944 11.06 11.06 0 0 1-4.064-1.437c-5.53-3.733-.802-12.083 3.981-16.589 18.663-17.695 38.957-36.247 64.365-40.339 13.354-2.184 26.764-1.299 40.035-4.479 9.539-2.295 18.552-6.249 28.063-8.599 17.722-4.34 44.237-5.889 56.9 9.622z" class="J"/><path d="M432.267 2331.58c-10.673 13.824-13.824 32.072-12.387 49.379s7.272 33.925 12.995 50.32c-7.603 6.995-6.027 19.05-5.032 29.335 3.622 38.21-9.649 76.337-7.714 114.657.802 16.119 4.313 32.017 5.143 48.135.912 17.612-1.327 35.224-3.429 52.726-13.422 112.04-20.806 224.722-22.118 337.557 0 10.395-.166 20.957 2.765 30.91 20.1 14.792 45.343 16.783 69.673 11.253s46.532-17.861 68.346-30.026c11.951-6.185 23.284-13.499 33.842-21.842 3.229-2.285 5.62-5.57 6.801-9.345 2.323-11.059-13.05-16.064-21.869-23.225-12.829-10.423-12.636-29.721-11.309-46.2l8.018-99.976c1.825-22.643 3.595-45.73-1.548-67.848-2.101-8.958-5.336-18.165-3.401-27.179 3.152-14.653 18.303-22.837 28.616-33.758 15.594-16.589 20.405-40.118 23.999-62.513a1292.11 1292.11 0 0 0 10.727-321.327c-20.321 7.05-44.403 3.207-65.83 4.866s-42.716 8.82-64.42 9.4c-18.082.415-40.754-9.566-51.868 4.701z" class="K"/></g><circle cx="578.664" cy="1736.15" r="102.298" class="L"/><g class="B"><path d="M636.476 1904.42c-32.78-15.056-66.961-26.854-102.049-35.224-24.718-5.889-52.947-9.428-73.6 5.364-5.529 3.953-10.534 10.174-9.345 16.865 7.495.248 13.77 5.945 14.737 13.382.608 5.861-2.267 11.474-5.088 16.589l-23.86 44.237a172.94 172.94 0 0 0-11.751 24.883c-4.81 14.046-5.861 29.086-6.884 43.906l-2.765 40.145c-1.714 25.298-3.456 50.707-1.161 75.949 1.714 19.05 5.696 38.183 2.986 57.122-2.184 15.234-8.626 29.528-12.248 44.513-6.802 28.201-3.705 59.112-16.893 84.991 5.355-2.472 11.403-3.019 17.114-1.548 40.035 7.382 71.526 38.984 110.399 51.066 9.815-14.322 23.114-24.884 34.091-38.21a73.88 73.88 0 0 0 15.676-34.671c8.295 11.059 15.345 19.686 20.294 32.514a21.84 21.84 0 0 0 4.424 8.101c5.225 5.088 13.824 3.125 20.819.996a429.12 429.12 0 0 1 105.533-17.889c5.751-.249 8.543-3.013 10.34-8.488s.802-11.391-.276-17.031c-6.884-36.855-14.571-73.765-15.843-111.229-.774-22.118.747-44.541-2.045-66.604-1.383-10.811-3.788-21.455-6.166-32.072l-19.741-87.728c-1.106-4.894-6.359-8.101-8.598-12.608-9.069-18.358-26.404-31.629-35.362-50.043-6.765-14.864-7.742-31.732-2.738-47.278z" class="J"/><path d="M492.954 1777.1a6.78 6.78 0 0 1 .968-4.092c1.094-1.149 2.465-1.996 3.982-2.461a21.04 21.04 0 0 0 11.695-22.423l9.677-2.018.304-33.703c14.377-7.963 33.979-1.935 47.499-11.308 7.604-5.309 11.502-14.322 16.147-22.34s11.557-16.091 20.791-16.755c-6.425 16.344-5.259 34.726 3.18 50.126 9.681-4.899 17.767-12.458 23.307-21.786l4.811 27.648a6.86 6.86 0 0 0 2.046 4.507c2.516 1.852 5.917-.47 8.129-2.765l12.524-12.304c5.271 13.226 8.884 27.054 10.755 41.168 20.571-19.962 26.957-52.033 19.05-79.571s-28.616-50.347-53.555-64.42-53.858-19.99-82.474-21.041c-9.606-.562-19.245.06-28.699 1.853a136.22 136.22 0 0 0-29.252 11.059c-14.294 6.719-28.726 14.101-39.398 25.713-18.58 20.238-22.755 49.988-20.709 77.415 2.765 35.943 14.432 70.641 28.008 104.04 4.506 11.059 9.317 22.257 16.754 31.685 11.198 14.183 38.708 2.405 35.197-25.63-2.433-20.017-20.737-12.303-20.737-32.597z" class="D"/><path d="M531.662 2324.78a433.84 433.84 0 0 1-153.309 173.078c-19.879 12.856-41.473 24.303-64.725 28.063-3.179.525-6.359.885-9.594 1.106-11.99.993-24.039-1.052-35.03-5.945-7.277-3.664-14.013-8.316-20.017-13.824a194.39 194.39 0 0 1-50.071-68.374 384.9 384.9 0 0 1-16.727-50.541l-20.294-72.244c-6.608-23.557-13.271-47.389-14.654-71.886-2.239-39.785 9.705-79.184 26.487-115.32a95.06 95.06 0 0 0 6.885-17.419c0-.414.193-.829.276-1.272 1.991-9.538.968-19.519 2.765-29.141 3.373-19.354 17.64-35.39 34.394-45.592s35.943-15.427 54.993-20.515l122.979-33.095c10.368-2.764 20.847-6.442 31.381-8.294 11.75-2.212 11.667-1.051 12.58 10.451 1.686 20.847 1.133 41.334 5.529 61.987 4.175 19.713 11.529 38.708 17.059 58.062 13.962 48.854 16.285 100.28 27.289 149.908 2.516 11.308 6 23.363 15.096 30.413 10.423 8.295 27.98 10.341 30.745 23.335 1.023 5.779-1.549 11.695-4.037 17.059z" class="E"/><path d="M313.628 2525.81l-9.594 1.106c-11.98 1.028-24.029-.979-35.03-5.834-7.277-3.664-14.013-8.316-20.017-13.824a194.39 194.39 0 0 1-50.071-68.374 384.9 384.9 0 0 1-16.727-50.541l-20.294-72.244c-6.608-23.557-13.271-47.389-14.654-71.886-2.239-39.785 9.705-79.184 26.487-115.32a95.06 95.06 0 0 0 6.885-17.419c0-.414.193-.829.276-1.272 45.122 7.935 99.257 94.253 127.182 207.362 20.57 84.576 21.455 162.461 5.557 208.246zm81.562-297.61l-7.548 1.299c-7.769-20.404-15.51-40.836-24.606-60.687-4.728-10.368-9.843-20.598-13.825-31.298-14.93-41.085-12.386-89.829-40.062-123.671a42.33 42.33 0 0 0-6.718-6.801l18.413-4.949c16.125 25.494 27.497 53.7 33.565 83.249 2.986 14.432 4.673 29.196 9.539 43.076a297.86 297.86 0 0 0 14.183 30.8c10.507 21.538 18.414 45.066 17.059 68.982z" class="C"/><path d="M468.679 1916.69c19.879-17.032 47.002-26.377 72.743-22.119 15.151 2.461 29.224 9.29 42.799 16.589 26.46 14.045 52.532 30.219 71.609 53.306a213.71 213.71 0 0 1 28.257 47.555 115.31 115.31 0 0 1 8.294 23.252c6.746 31.242-9.815 62.291-25.768 89.995l-30.69 53.25c-14.1 24.469-28.311 49.103-46.67 70.586-8.46 9.898-17.75 19.05-27.012 28.201l-40.671 40.145c-.731.863-1.689 1.504-2.764 1.853a6.14 6.14 0 0 1-4.784-1.908l-13.437-10.7a228.52 228.52 0 0 0 34.339-29.113c17.585-18.193 32.045-39.123 46.422-59.969l44.735-64.863c13.077-18.994 26.735-39.896 25.27-62.9-.691-11.059-4.838-21.455-9.179-31.602a800.45 800.45 0 0 0-25.049-53.278c-10.12-19.602-21.179-38.956-35.75-55.517s-32.984-30.413-54.19-36.413c-6.325-2.066-13.029-2.708-19.63-1.88-14.543 2.405-24.884 14.902-34.091 26.515l-28.035 35.942c-6.387 8.156-12.248 17.612-12.635 2.129-.664-22.091 21.676-44.845 35.887-59.056z" class="E"/><path d="M477.361 2159.17c5.53 21.29 13.686 45.454 34.173 53.527 14.515 5.723 31.519 1.079 44.071-8.294s21.455-22.589 29.639-35.943c6.927-12 14.562-23.578 22.865-34.671 16.396-20.57 38.708-36.882 49.767-60.826 3.263-7.133 5.53-14.764 9.235-21.621a135.14 135.14 0 0 1 13.381-17.888c12.73-15.771 22.908-33.441 30.164-52.366 2.544-6.608 4.728-13.686 3.733-20.681-1.963-13.464-14.709-22.312-26.57-28.92-7.216-4.009-14.764-7.907-22.976-8.515-11.999-.94-23.805 5.529-31.187 15.013-7.105 9.807-11.078 21.54-11.391 33.648-.829 14.736 2.046 30.053-2.765 43.988-2.544 6.501-6.058 12.579-10.423 18.027a211.38 211.38 0 0 1-56.707 52.338 98.38 98.38 0 0 0-6.718-30.496c-2.101-5.364-43.297 0-48.661.884-10.617 1.549-31.187 2.765-37.878 12.884s1.604 27.123 4.313 37.325l13.935 52.587z" class="L"/><path d="M476.366 1926.84c-6.12 5.056-11.816 10.605-17.032 16.589-12.276 14.792-18.275 34.035-19.824 53.196s1.079 38.403 4.369 57.342a801.39 801.39 0 0 0 10.589 50.624c1.134-12.635 11.364-23.086 23.225-27.648s24.883-4.065 37.518-2.212a183.39 183.39 0 0 1 47.168 13.63l5.834-81.755a142.43 142.43 0 0 0-.194-33.178 73.16 73.16 0 0 0-34.118-49.629c-22.173-13.492-37.629-14.349-57.535 3.041z" class="J"/><g class="D"><path d="M395.466 2984.22c1.068 7.637 1.49 15.351 1.261 23.06a4433.22 4433.22 0 0 0-154.024 5.163l-.998-6.161c-3.322-21.51-.84-43.521 7.188-63.751 10.62-25.876 30.424-44.389 55.214-47.968s48.965 8.625 66.421 30.394a122.47 122.47 0 0 1 24.938 59.263z"/></g></g><path d="M377.699 2861.26c-7.985-55.551-48.924-95.698-91.365-89.598s-70.413 56.154-62.428 111.705 48.924 95.698 91.365 89.597 70.413-56.154 62.428-111.704z" class="D"/><path d="M360.024 2738.24c-7.985-55.551-48.924-95.698-91.365-89.597s-70.413 56.153-62.428 111.704 48.924 95.698 91.365 89.598 70.413-56.154 62.428-111.705z" class="D"/><path d="M342.353 2615.24c-7.985-55.55-48.924-95.698-91.364-89.597s-70.414 56.154-62.429 111.705 48.925 95.698 91.365 89.597 70.414-56.154 62.428-111.705z" class="D"/><path d="M324.65 2492.21c-7.986-55.551-48.925-95.698-91.365-89.597s-70.414 56.153-62.429 111.704 48.925 95.698 91.365 89.597 70.414-56.153 62.429-111.704z" class="D"/><g class="B"><path d="M.752 2331.24a204.88 204.88 0 0 1 20.244-67.624c6.483-12.908 14.375-25.26 18.453-39.078 3.315-11.236 3.961-23.06 6.601-34.472s7.305-22.326 11.061-33.475c26.551-79.212 6.601-165.877 15.167-248.903 3.198-30.629 12.586-64.221 39.137-80.181 15.784-9.476 34.736-10.943 53.307-11.735l8.479-.382 13.613-.674c19.715-.968 39.489-1.702 58.676 2.435 23.47 5.134 51.283 21.651 58.676 45.62 4.049-2.083 8.127-3.931 11.882-5.662a213.1 213.1 0 0 1 47.205-14.669c-13.94-3.511-27.399-8.713-40.076-15.49-29.338-17.075-36.144-66.95-42.129-100.307s-.529-67.829 9.417-100.248c3.285-11.503 7.759-22.634 13.349-33.211 20.39-36.785 59.271-59.687 101.33-59.687 22.53 0 44.579 6.572 63.432 18.908 27.372 17.925 52.808 44.007 73.697 69.208 2.934 3.462 15.197 15.725 11.119 20.889-2.288 2.933-9.828.586-17.749-2.934 6.093 13.766 9.232 28.659 9.212 43.713a109.02 109.02 0 0 1-53.483 93.647l-2.934 26.991v.206l-.587 26.991.176 19.216c12.173 13.774 27.081 24.865 43.772 32.565-13.788 2.289-26.932-.939-39.723-6.454a56.63 56.63 0 0 0 10.268 19.774l-10.562-3.521a76.91 76.91 0 0 1 4.9 9.212c2.17 5.024 3.755 10.281 4.723 15.667a220.04 220.04 0 0 1 19.334 34.56c2.464 5.486 4.665 11.06 6.66 16.722v.382c1.956 5.633 3.686 11.344 5.192 17.133.705 2.778 1.35 5.565 1.937 8.362v.616a257.75 257.75 0 0 1 2.934 17.104v1.173c.322 2.67.616 5.369.821 8.068v.411c.235 2.934.411 5.721.499 8.596v10.122c0 5.515-.352 11.06-.88 16.605 0 .675 0 1.379-.206 2.054-.234 2.259-.498 4.518-.821 6.806 0 .528 0 1.056-.206 1.555a186.54 186.54 0 0 1-1.32 8.126c0 .587-.264 1.203-.381 1.79-.411 2.171-.851 4.313-1.35 6.484l-.528 2.229c-.645 2.7-1.32 5.369-2.083 8.068l-1.349 4.548a114.35 114.35 0 0 0-2.934 16.928l16.048.528c34.345.978 68.66 2.533 102.947 4.665 4.283-16.518 18.893-26.052 37.288-28.311 2.921-.352 5.86-.529 8.802-.529-3.173-2.672-5.993-5.738-8.391-9.124-3.192-4.391-5.467-9.38-6.689-14.669 4.728 2.691 8.86 6.314 12.146 10.65 1.085 1.467 2.054 2.934 2.934 4.283v-8.801c0-.01-.001-.02-.001-.03 0-.756.623-1.379 1.379-1.379.01 0 .02.001.03.001h2.934c.01 0 .02-.001.029-.001.757 0 1.379.623 1.379 1.379v17.955h1.584c1.937.176 3.814.411 5.662.763 19.98 3.726 34.619 16.547 34.619 38.14-.011 13.753-6.066 26.828-16.546 35.733-.861 6.725-2.384 13.349-4.548 19.774-2.024 6.366-4.664 13.29-10.591 16.459-3.621 1.643-7.591 2.368-11.559 2.112-32.624 0-63.487-15.05-95.964-17.603-20.068-1.613-40.223 1.497-60.349.88-2.933 0-5.867-.293-8.801-.528 27.519 136.275 60.818 274.281 43.42 411.935-1.144 9.154-2.934 19.07-9.769 25.289-9.066 8.274-23.031 6.924-35.206 5.868a294.26 294.26 0 0 0-99.602 7.951c-4.571 1.263-9.375 1.434-14.024.498a26.02 26.02 0 0 1-2.934-.85l-.821-.323c-.616-.235-1.203-.47-1.761-.734l-.85-.44-1.438-.88c-.235-.176-.499-.323-.704-.499a11.38 11.38 0 0 1-1.438-1.173l-.41-.352a20.53 20.53 0 0 1-1.555-1.702l-.352-.528c-.34-.441-.653-.901-.939-1.379a8.39 8.39 0 0 1-.411-.704c-.117-.235-.469-.88-.675-1.32s-.234-.528-.322-.792-.382-.968-.558-1.467 0-.469-.234-.734-.411-1.466-.558-2.2v-.469c0-.616-.235-1.262-.323-1.878s0-.645 0-.968v-7.452c0-2.611.294-5.251.558-7.774-2.097.609-4.234 1.07-6.396 1.378a35.72 35.72 0 0 1-6.102.44h-.294c-.968 0-1.936 0-2.933-.234-.85-.131-1.692-.307-2.523-.528h-.382a13.62 13.62 0 0 1-2.23-.88l-.352-.206c-.61-.34-1.189-.732-1.731-1.173l-.264-.206a10.16 10.16 0 0 1-1.466-1.701l-.264-.44c-.435-.708-.78-1.467-1.027-2.259-1.673-5.663 2.141-12.058-3.961-17.251-5.868 18.806-11.735 37.64-12.703 57.092-.323 7.099 0 14.669-4.166 20.536a86.16 86.16 0 0 1-8.802 8.978c-8.977 9.71-9.182 24.35-8.566 37.494l.938 15.93c4.847 70.862 19.256 140.743 42.834 207.742a111.94 111.94 0 0 0 8.977 20.537 99.43 99.43 0 0 0 22.033 24.233 279.51 279.51 0 0 0 39.166 27.842 119.88 119.88 0 0 1 19.921 13.231c.235-.674.499-1.32.675-2.024.322-1.35.762-2.934 2.083-3.433 1.001-.226 2.053-.058 2.933.47 13.76 6.044 27.519 12.087 40.751 19.158 6.679 3.043 12.564 7.593 17.192 13.29 4.225 5.867 5.486 14.669 1.115 20.536-3.843 5.134-10.738 6.836-17.104 7.98-8.156 1.438-16.342 2.465-24.527 3.227a37.06 37.06 0 0 1 10.826 9.623c4.225 5.868 5.486 14.669 1.115 20.537-3.844 5.134-10.738 6.836-17.104 7.98-52.017 9.183-105.353 2.934-158.161 1.379-17.163-.558-34.707-.675-50.96-6.249a25.69 25.69 0 0 1-8.802-4.606c-7.393-6.513-6.66-17.955-5.369-27.666l5.369-39.665c.792 0 1.555.264 2.318.44-4.498-37.261-12.564-74.005-24.087-109.724-17.896-55.596-44.535-110.37-44.183-168.547v-4.224c.499-18.219 3.756-36.233 5.868-54.364 3.315-30.335 2.934-60.935 2.728-91.417.257-11.952-.578-23.903-2.493-35.704 0-.411-.176-.792-.264-1.203l-48.731-1.291a34.35 34.35 0 0 1-15.725-2.934 10.37 10.37 0 0 1-5.692-12.586c-20.771 9.418-48.554-3.403-54.686-25.231a44.22 44.22 0 0 1-1.026-4.664 1.48 1.48 0 0 0 0-.352c-.206-1.467-.352-2.934-.411-4.372v-.733a81.79 81.79 0 0 1 4.606-29.631c9.975-28.253 25.817-53.982 40.721-80.005 7.687-13.466 15.138-27.108 22.385-40.809l-6.366 8.185c-2.235 3.338-5.168 6.151-8.596 8.244-11.882 6.132-24.322-6.22-36.409-11.911-16.048-7.569-34.824-3.11-52.544-1.849s-39.078-3.315-45.415-19.744a43.31 43.31 0 0 1-1.145-20.713zm305.497-440.92c0 6.278-.411 12.644-.91 19.04 5.955-9.732 12.832-18.869 20.537-27.284l-19.627 8.244z" fill="url(#C)"/><use xlink:href="#H" class="G"/><use xlink:href="#H" class="C"/><use xlink:href="#I" fill="#eeeff3"/><use xlink:href="#I" class="C"/><use xlink:href="#J" class="K"/><use xlink:href="#J" class="C"/><path d="M448.391 3092.54c-6.483 5.867-16.399 5.721-25.201 5.075l-40.105-2.933c-31.861-2.347-64.808-4.988-92.913-20.156a22.08 22.08 0 0 1-7.716-5.867 24.85 24.85 0 0 1-3.374-12.645c-3.796-43.454-12.436-86.349-25.759-127.884-17.603-55.302-44.007-109.812-43.655-167.696v-4.196c.499-18.13 3.697-36.056 5.662-54.099 3.257-30.189 2.934-60.612 2.7-90.948.25-11.892-.574-23.784-2.465-35.528-1.848-9.535-8.801-19.099-4.547-27.49 8.244-16.282 38.139-22.267 54.216-22.854 21.652-.763 42.951 4.9 63.869 10.532 6.367 1.731 13.026 3.58 17.838 8.068 6.454 6.044 8.302 15.52 8.537 24.351 1.115 39.166-21.446 75.604-23.236 114.712-.322 7.041 0 14.669-4.107 20.536-2.709 3.195-5.651 6.186-8.801 8.948-8.802 9.652-9.066 24.204-8.45 37.289l.91 15.842c4.792 70.48 19.031 139.998 42.334 206.686 2.247 7.121 5.195 14 8.802 20.537 5.886 9.177 13.24 17.324 21.769 24.116 12.084 10.32 25.03 19.585 38.696 27.695 9.125 5.398 18.865 10.562 25.114 19.128s7.628 21.564-.118 28.781z" class="G"/><path d="M448.391 3092.54c-6.483 5.867-16.399 5.721-25.201 5.075l-40.105-2.933c-31.861-2.347-64.808-4.988-92.913-20.156a22.08 22.08 0 0 1-7.716-5.867 24.85 24.85 0 0 1-3.374-12.645c-3.796-43.454-12.436-86.349-25.759-127.884-17.603-55.302-44.007-109.812-43.655-167.696 33.908 3.749 68.013 5.434 102.126 5.046 4.792 70.48 19.031 139.998 42.334 206.686 2.247 7.12 5.195 14 8.802 20.537 5.886 9.176 13.24 17.324 21.769 24.116a278.31 278.31 0 0 0 38.696 27.695c9.125 5.398 18.865 10.561 25.114 19.128s7.628 21.681-.118 28.898z" fill="#eeeff3"/><path d="M359.791 3080.16c-9.636-3.453-18.896-7.876-27.637-13.202l-44.212-24.937c-3.994-2.587-8.445-4.389-13.114-5.31l-5.281 39.459c-1.32 9.682-2.024 21.065 5.281 27.549 2.609 2.082 5.598 3.637 8.801 4.576 16.048 5.545 33.358 5.663 50.344 6.191 52.163 1.672 104.854 7.774 156.254-1.379 6.279-1.115 13.085-2.934 16.87-7.921 4.312-5.868 3.08-14.376-1.086-20.332a47.18 47.18 0 0 0-16.986-13.231c-13.085-7.041-26.669-13.026-40.252-19.04a3.93 3.93 0 0 0-2.787-.47c-1.32.44-1.731 2.054-2.083 3.403-2.377 9.623-10.122 17.222-18.953 21.769-.117 0-45.62 9.095-65.159 2.875z" class="K"/><path d="M505.278 1902.47c-14.288-17.603-14.669-42.188-14.317-64.779 0-8.801.264-17.896.587-26.844v-.205a302.65 302.65 0 0 1 5.192-48.995c1.544-7.756 3.602-15.401 6.161-22.883-1.936-.44-3.872-.851-5.867-1.203-30.752-6.073-62.397-6.073-93.148 0-5.31 1.056-18.747.821-26.404 3.432-2.18.521-4.08 1.854-5.311 3.726-1.496 3.139 1.585 12.234 3.814 20.302a39.66 39.66 0 0 1 2.054 11.266c-.297 3.603-.846 7.182-1.643 10.708-1.379 6.484-3.198 12.909-4.049 19.481-1.496 11.207-.176 22.619-.909 33.914s-3.99 23.177-12.586 30.541c49.945 4.282 99.146 14.88 146.426 31.539z" class="G"/><path d="M364.69 1785.7l11.735 1.145a591.11 591.11 0 0 1 115.123 24.057v-.206l5.192-48.994v-8.948c0-5.017.147-10.092.265-15.139a240.44 240.44 0 0 0-93.149 0c-5.31 1.057-18.747.822-26.404 3.433l-.176 14.346a63.94 63.94 0 0 1-1.32 9.682 36.85 36.85 0 0 1-11.266 20.624z" class="C"/></g><circle cx="438.71" cy="1690.62" r="108.551" class="G"/><g class="B"><path d="M534.058 2099.91c19.275-68.211 1.673-141.468-44.359-195.332-10.239-11.999-20.536-24.321-33.973-31.509-15.989-8.508-34.912-8.801-53.014-8.977-15.989 0-32.477 0-47.175 6.366-19.862 8.479-33.563 26.903-45.122 45.18-12.322 19.481-23.471 40.575-25.348 63.576-.998 13.642 1.408 27.489-.616 41.073-2.582 17.221-12.176 32.653-16.107 49.611-2.141 9.153-2.582 18.629-3.96 27.959-2.078 12.762-5.098 25.353-9.037 37.67a1351.76 1351.76 0 0 1-118.994 277.889c-14.669 25.905-30.365 51.518-40.223 79.594-4.459 12.703-7.686 26.404-4.048 39.489 6.073 21.71 33.504 34.472 54.011 25.113-1.564 4.968.875 10.379 5.633 12.498a33.62 33.62 0 0 0 15.549 2.934l181.191 4.811a65.42 65.42 0 0 1 14.112 1.907c21.299 5.457 13.29 14.669 15.578 22.356 2.787 9.388 16.254 8.625 25.642 5.868-1.438 13.7-1.761 30.452 15.93 34.442 4.589.93 9.333.77 13.848-.469a288.74 288.74 0 0 1 98.399-7.921c12.088 1.115 25.906 2.464 34.854-5.868 6.748-6.19 8.508-16.048 9.652-25.143 18.043-143.756-19.07-287.717-46.941-429.742-3.755-19.158-2.405-50.198 3.228-68.915l1.29-4.46z" fill="#f75842"/><path d="M293.487 2000.84c-4.254 12.263-9.564 24.321-11.002 37.23-1.144 10.327.235 20.771-.381 31.127-1.125 11.499-3.496 22.841-7.071 33.827-5.648 21.368-12.614 42.365-20.859 62.871-3.931 9.242-8.479 19.422-5.31 28.957s12.997 15.432 15.813 24.908c2.934 10.004-2.934 20.537-10.415 27.842s-16.84 12.498-23.764 20.272c-7.54 8.479-11.735 19.305-17.045 29.338a271.46 271.46 0 0 1-25.847 37.7l-35.47 46.031c-2.211 3.319-5.113 6.121-8.508 8.215-11.735 6.102-24.027-6.191-35.968-11.736-15.842-7.54-34.384-3.109-51.899-1.848s-38.609-3.286-44.858-19.656a43.2 43.2 0 0 1-1.261-20.537c2.745-23.409 9.514-46.168 20.008-67.272 6.396-12.85 14.2-25.143 18.219-38.902 3.286-11.178 3.931-22.943 6.543-34.296s7.217-22.209 10.913-33.299c26.228-78.802 6.513-165.026 14.992-247.642 3.139-30.482 12.439-63.898 38.667-79.77 15.579-9.417 34.297-10.884 52.809-11.735l8.361-.381 13.466-.675c19.481-.968 39.02-1.702 58.002 2.435 26.697 5.867 58.822 26.609 59.878 56.417a347.51 347.51 0 0 1-18.013 120.579z" class="E"/><path d="M193.474 1821.29a338.06 338.06 0 0 0-5.369 60.495c-.528 57.914-6.777 115.592-13.056 173.094l-4.136 38.14c-.763 7.041-1.673 14.434-5.868 20.096s-12.997 8.626-18.541 4.254c-3.404-13.466-2.729-27.607-2.054-41.484l4.371-88.571c1.408-28.751 2.934-57.532 6.425-86.107 2.739-22.133 6.775-44.086 12.087-65.746 1.008-4.487 2.412-8.876 4.196-13.114l8.361-.382 13.584-.675z" class="C"/></g><path d="M776.741 2067.09l-75.516-35.921-55.547 116.772 75.516 35.922 55.547-116.773z" fill="#fff"/><path d="M722.522 2083.93c-11.763-6.075-26.634-1.02-32.944 11.198s-1.822 27.27 9.941 33.344 26.635 1.021 32.944-11.197 1.822-27.27-9.941-33.345zm-2.744 29.543a37.59 37.59 0 0 1-1.162-.625l-4.166-2.297c-.044-.025-.098-.023-.142.003l-11.427 6.571c-.352.214-.782.232-1.137.047l-1.543-.797c-.365-.188-.293-.631.019-.915l8.252-7.979c.014-.013.026-.028.034-.044.038-.073.012-.162-.057-.199l-7.829-4.275a.59.59 0 0 0-.538-.012l-4.051 1.822c-.333.157-.713.153-1.033-.011l-1.087-.561a.3.3 0 0 1-.123-.405.3.3 0 0 1 .06-.081l3.695-3.977a1.29 1.29 0 0 0 .416-.805l1.103-5.315a.33.33 0 0 1 .032-.096c.076-.148.256-.209.398-.136l1.097.566a1.15 1.15 0 0 1 .607.837l.838 4.287a.58.58 0 0 0 .321.431l8.032 3.994c.07.036.158.006.195-.066.009-.018.015-.036.017-.056l1.725-11.341c.051-.419.371-.734.735-.546l1.543.797a1.17 1.17 0 0 1 .621.955l1.247 13.124c.002.052.033.098.079.118l4.285 2.068a35.88 35.88 0 0 1 1.182.585c2.891 1.493 4.205 3.404 3.587 4.601s-2.941 1.223-5.825-.267z" class="B I"/><g transform="matrix(1.2069 .582973 -.582973 1.2069 558.889 1339.78)" class="I"><g class="B"><path d="M332.27 432.737c-.014.125-.111.292-.32.473-.209.195-.362.292-.459.292-.125 0-.209 0-.237.014v3.508c0-.028.042.139.139.515.084.599.014.947-.209 1.044a.68.68 0 0 1-.209.028c-.32 0-.738-.111-1.253-.348-.543-.237-.877-.487-1.002-.724a5.03 5.03 0 0 1-.042-.376c-.014-.07.014-.153.097-.265s.125-.181.125-.209v-2.812c-.181.014-.529.084-1.044.209l-1.03.278v2.826c0 .07.028.139.097.223a1.18 1.18 0 0 1 .097.209l-.097.432c-.028.097-.084.167-.153.195-.153.056-.557-.028-1.239-.265-.682-.223-1.044-.404-1.086-.543a.86.86 0 0 1-.028-.334l.042-.39v-8.91c0-.153.042-.404.125-.766.014-.097.181-.223.473-.39.014-.014.07-.014.153-.014.348 0 .71.056 1.086.167.487.153.752.348.78.585.014.084-.028.237-.111.473-.097.237-.139.39-.139.473v3.397l2.074-.487v-3.884a1.1 1.1 0 0 0-.056-.209c-.042-.125-.056-.223-.042-.292.042-.167.195-.278.459-.32l.585-.07c.209-.028.501.028.905.181.39.153.613.306.654.473.014.07 0 .167-.056.292a.99.99 0 0 0-.097.39v3.842c.042.056.265.251.654.599.251.223.376.39.362.487zm5.931 5.681c-.195.014-.418-.014-.654-.07l-.71-.223c-.278-.07-.71-.209-1.309-.404-.738-.32-1.309-.961-1.685-1.921-.334-.849-.501-1.866-.501-3.063 0-.975.167-2.116.501-3.411.459-1.74 1.044-2.617 1.768-2.617.07 0 .153.014.265.042.125.042.209.056.278.07.682-.195 1.128-.292 1.323-.292a1.85 1.85 0 0 1 .278.014c1.114.139 1.991.835 2.631 2.088.571 1.128.863 2.478.863 4.051 0 1.49-.265 2.757-.78 3.829-.557 1.156-1.309 1.796-2.269 1.907zm-.251-10.205c-.209-.056-.404.223-.599.821-.209.599-.404.905-.613.905-.042 0-.111-.028-.195-.084l-.223-.084c-.32.696-.473 1.685-.473 2.979 0 1.016.111 1.879.32 2.603.237.807.571 1.253 1.002 1.337.501.097.905-.418 1.211-1.545.265-.988.404-2.158.404-3.508 0-.919-.07-1.685-.209-2.311-.153-.668-.362-1.044-.626-1.114zm11.36-.529c.014-.097.014.78.014 2.659 0 5.29-.738 8.019-2.214 8.186-.265.028-.571-.014-.947-.139l-1.072-.362-.919-.237c-.32-.097-.557-.237-.738-.432-.376-.418-.682-1.323-.919-2.729-.209-1.295-.306-2.715-.306-4.288 0-1.211.07-2.269.195-3.188.042-.292.167-.473.404-.557.097-.042.459.028 1.072.195.599.167.961.306 1.058.432.042.056.07.125.07.223a1.14 1.14 0 0 1-.139.487c-.097.209-.139.376-.125.501-.042.181-.07.682-.07 1.531 0 1.629.07 3.119.223 4.441.181 1.712.459 2.548.807 2.506.446-.042.78-.863 1.002-2.436.181-1.211.265-2.645.265-4.302l-.097-2.047a1.04 1.04 0 0 0-.056-.459l-.125-.334c-.056-.32.042-.557.306-.71.042-.028.125-.042.237-.042.278 0 .668.07 1.169.209s.794.251.877.348c.056.07.07.251.028.543zm9.926 6.07c-.125.042-.278.07-.459.056a2.06 2.06 0 0 1-.418-.084c-.209-.056-.376-.084-.515-.084h-2.13c-.097 0-.223.056-.362.153s-.265.139-.362.125c-.181-.014-.334-.125-.446-.32l-.32-.557-.32-.418c-.097-.139-.153-.251-.153-.334-.014-.167.042-.32.153-.459s.237-.223.376-.251c.181.014.473.014.891.014l1.044-.07 1.768-.07c.515 0 .821.028.905.097.167.125.32.404.446.807.111.376.167.696.167.961 0 .209-.084.362-.265.432zm11.514-2.52c0 1.016-.278 2.116-.821 3.3-.432.961-.988 1.852-1.643 2.701-.585.724-1.016 1.142-1.295 1.267a1.25 1.25 0 0 1-.473.084c-.404 0-.877-.125-1.392-.39-.459-.209-.807-.446-1.044-.696v-10.024a.46.46 0 0 1 .418-.432c.028-.014.265.028.696.097.084.014.362-.084.821-.292.473-.209.877-.306 1.211-.306.404 0 .794.111 1.169.32.209.125.529.376.961.752.626.543 1.03 1.1 1.211 1.698.125.404.181 1.044.181 1.921zm-2.311-2.687a.45.45 0 0 0-.223-.042c-.487 0-1.086.209-1.768.64v6.265c.626-.362 1.169-1.253 1.615-2.659.376-1.211.571-2.325.571-3.313 0-.515-.07-.821-.195-.891zm10.525 6.724c-.028.237-.111.418-.265.557-.265.571-.682 1.156-1.239 1.74-.599.626-1.086.933-1.462.933-.056 0-.111 0-.153-.014l-1.378-.487c-.905-.376-1.601-1.086-2.088-2.13-.432-.947-.64-2.047-.64-3.3 0-1.531.292-2.882.877-4.051.626-1.239 1.406-1.893 2.339-1.935.362-.014.891.167 1.587.557.71.39 1.169.78 1.392 1.169.223.376.376 1.225.459 2.52a2.27 2.27 0 0 1-.111.849c-.111.348-.251.501-.432.473-.32-.042-.738-.153-1.225-.306-.599-.195-.919-.362-.961-.487-.014-.042-.028-.084-.028-.125 0-.084.042-.181.111-.306.084-.125.125-.237.125-.32l.07-1.072c0-.487-.056-.821-.167-1.002-.557.404-.975 1.086-1.267 2.047-.237.807-.362 1.726-.362 2.743 0 .794.07 1.49.209 2.116.139.613.306.988.501 1.114.097.056.348-.125.766-.557.432-.432.696-.78.821-1.044.014-.014.056-.153.125-.446.056-.167.125-.265.223-.306.153-.056.557.084 1.211.404s.975.543.961.668z"/></g><path d="M324 439.573h55.075v.279H324v-.279zm0 .557h55.075v.279H324v-.279z"/></g><g class="B"><path d="M385.168 1846.11c17.984-2.581 36.819-3.902 53.894 2.347 16.312 6.015 29.338 18.366 41.073 31.363a109.03 109.03 0 0 1 19.598 28.428c10.004 23.001 6.102 49.523 0 73.873-16.635 67.067-49.669 131.757-102.683 176.028a382.46 382.46 0 0 1-51.371 35.206c-23.47 13.759-47.703 26.404-73.668 34.355-7.246 2.229-14.962 4.107-22.384 2.523s-14.435-7.599-14.669-15.197c42.54-23.911 80.679-54.804 118.554-85.55a244.94 244.94 0 0 0 29.074-26.404c13.437-15.109 22.913-33.358 35.939-48.819 11.736-13.877 26.405-25.582 35.206-41.454 5.524-10.84 9.221-22.517 10.943-34.56 4.342-24.556 5.164-50.638-4.577-73.609s-32.066-41.836-57.003-41.426c-12.792.206-24.967 5.281-36.761 10.239l-74.225 31.333c.909-.41-4.254-13.29-4.019-15.079.704-5.604 1.701-5.692 5.867-9.946 7.1-7.1 18.131-12.087 27.138-16.224a232.18 232.18 0 0 1 64.074-17.427z" class="E"/><path d="M532.914 1670.08a125.65 125.65 0 0 1-56.886-29.338l15.52 81.443c-15.461-7.097-30.454-15.171-44.887-24.175-2.083 37.259.938 75.369 14.669 110.047s39.048 65.717 73.022 81.119c-30.16 5.047-57.239-16.605-84.083-31.244-18.718-10.181-50.696.293-71.174-5.868-17.368-5.105-35.205-9.564-50.872-18.688-29.103-16.987-35.704-66.598-41.601-99.75s-.528-67.477 9.271-99.749c3.261-11.429 7.674-22.497 13.172-33.034 19.96-36.546 58.416-59.361 100.058-59.361 22.3 0 44.119 6.543 62.739 18.816 27.049 17.808 52.133 44.007 72.787 68.856 2.934 3.432 15.051 15.637 11.031 20.771-4.899 6.22-33.65-11.5-38.52-13.906 1.408 5.31 10.151 32.682 15.754 34.061z" fill="#ffd566"/><path d="M410.839 2618.96c4.589.93 9.332.769 13.847-.469 32.102-8.27 65.389-10.949 98.4-7.922 12.087 1.115 25.905 2.465 34.854-5.867 6.747-6.191 8.508-16.048 9.652-25.143 18.043-143.756-19.07-287.718-46.941-429.743-3.755-19.158-2.406-50.197 3.227-68.915l1.32-4.547a207.87 207.87 0 0 0-1.848-118.32 209.49 209.49 0 0 1 10.708 141.878l-1.32 4.548c-5.633 18.717-6.982 49.874-3.227 68.915 27.783 142.025 64.896 286.074 46.941 429.743-1.144 9.094-2.934 18.952-9.652 25.142-8.802 8.244-22.767 6.895-34.854 5.868-33.011-3.028-66.298-.348-98.4 7.921a29.89 29.89 0 0 1-13.847.469c-14.434-3.256-16.869-15.021-16.517-26.668a22.96 22.96 0 0 0 7.657 3.11zm-273.606-84.81c-1.564 4.968.875 10.379 5.633 12.498a33.62 33.62 0 0 0 15.549 2.934l181.191 4.811c4.759.12 9.491.759 14.112 1.907 21.299 5.457 13.29 14.669 15.578 22.356 2.787 9.388 16.253 8.625 25.642 5.867-.881 8.362-1.321 17.838 2.464 24.879-8.244 1.232-17.104.147-19.304-7.276s5.721-16.899-15.579-22.356a65.41 65.41 0 0 0-14.111-1.907l-181.075-4.811c-5.342.273-10.673-.733-15.549-2.934a10.34 10.34 0 0 1-5.633-12.498c-20.536 9.359-47.938-3.403-54.011-25.113-.915-3.29-1.427-6.679-1.525-10.092 10.972 13.143 30.834 19.011 46.618 11.735z"/><path d="M380.298 1921.1a1015.14 1015.14 0 0 0-41.279 101.715c-9.622 27.9-18.101 57.209-14.903 86.547s20.536 58.969 48.701 68.211c11.97 3.931 24.79 3.961 37.376 4.254 30.147.708 60.228 3.137 90.097 7.276 13.902 2.299 27.916 3.856 41.983 4.665 19.891.645 39.782-2.465 59.615-.851 32.096 2.611 62.578 17.603 94.791 17.603 3.929.242 7.858-.483 11.442-2.113 5.867-3.168 8.478-10.033 10.473-16.37 4.489-14.317 8.01-30.747.411-43.685-9.359-15.93-30.629-19.128-49.082-20.536a2949.97 2949.97 0 0 0-124.775-6.161c-35.528-.998-74.02-2.347-101.568-24.82-1.858-1.329-3.376-3.078-4.43-5.105-1.04-3.434-.916-7.117.352-10.474a456.27 456.27 0 0 0 13.906-130.7c.189-3.947-.835-7.859-2.934-11.208-2.492-2.685-5.732-4.565-9.3-5.398a136.17 136.17 0 0 0-75.926-2.112" class="G"/><path d="M454.142 1950.53a22.04 22.04 0 0 1 10.62 7.833c-1.173-12.233.411-24.585.176-36.907s-2.523-25.172-10.298-34.736c-9.886-12.205-26.697-16.576-42.422-16.987-22.825-.616-46.442 6.015-63.165 21.564a64.55 64.55 0 0 0-19.803 38.139c-.528 4.02-2.288 19.099 1.907 21.681 3.667 2.288 17.603-5.604 22.091-6.865a148.25 148.25 0 0 1 100.894 6.278z" fill="#f75842"/></g></g><defs><linearGradient id="B" x1="430.912" y1="3076.06" x2="430.912" y2="1581.31" gradientUnits="userSpaceOnUse"><stop offset="0" stop-color="gray" stop-opacity=".25"/><stop offset=".54" stop-color="gray" stop-opacity=".12"/><stop offset="1" stop-color="gray" stop-opacity=".1"/></linearGradient><linearGradient id="C" x1="0" y1="0" x2="1" y2="0" gradientUnits="userSpaceOnUse" gradientTransform="matrix(-5.23991e-11,-855742,-855742,5.23991e-11,-525731,1.25105e+06)"><stop offset="0" stop-color="gray" stop-opacity=".25"/><stop offset=".54" stop-color="gray" stop-opacity=".12"/><stop offset="1" stop-color="gray" stop-opacity=".1"/></linearGradient><path id="D" d="M1057.81 942.366s8.245 87.948-10.993 112.683 12.367 72.831 12.367 72.831l57.716 68.709 85.199-38.477 12.367-71.457-8.245-49.47s-28.857-28.858-16.49-81.077-131.921-13.742-131.921-13.742z"/><path id="E" d="M507.636 1808.45c-.719 9.621-4.12 18.856-5.364 28.45-1.41 10.561-.166 21.317-.857 31.961s-3.76 21.842-11.861 28.782c47.084 4.078 93.461 14.111 138.02 29.86-13.465-16.589-13.824-39.758-13.493-61.047.443-31.492.996-63.591 11.281-93.313a227.09 227.09 0 0 0-93.285-1.216c-6.691 1.327-26.957.497-29.971 6.746-2.184 4.589 6.027 22.81 5.53 29.777z"/><path id="F" d="M563.374 2954.19c1.662 2.452 3.511 4.772 5.53 6.939a27.81 27.81 0 0 0 10.534 5.06l28.975 9.207c10.756 3.428 22.7 7.852 27.262 18.137 5.142 11.612-2.185 25.741-13.023 32.348s-24.109 7.576-36.8 8.074c-71.054 2.737-142.176-3.289-211.757-17.944a11.04 11.04 0 0 1-4.064-1.438c-5.53-3.732-.802-12.082 3.981-16.589 18.662-17.694 38.956-36.246 64.365-40.338 13.354-2.185 26.763-1.3 40.035-4.479 9.538-2.295 18.551-6.249 28.062-8.599 17.723-4.341 44.238-5.889 56.9 9.622z"/><path id="G" d="M417.89 2328.84a175.77 175.77 0 0 0-2.489 117.533c-9.649-1.051-13.824 11.999-13.575 21.731a160.96 160.96 0 0 0 6.11 40.035c1.77 6.193 3.926 12.497 3.235 18.856-.995 8.903-7.299 16.202-10.589 24.524-6.912 17.612.193 37.242 1.382 56.126 1.106 17.722-3.124 35.279-6.525 52.697a562.08 562.08 0 0 0-9.953 88.115c-.02 11.214-.75 22.416-2.184 33.538-2.489 15.704-8.295 30.827-9.401 46.67-1.576 24.662 8.848 48.854 7.908 73.572-1.106 29.003-17.806 57.204-11.972 85.709.829 4.009 3.069 8.737 7.189 8.792 41.693.526 80.649-11.059 121.9-5.004 4.203-95.442 8.295-191.326 27.096-285.025 16.589-83.415 44.707-165.89 42.08-250.936-1.52-48.633-13.077-96.326-20.1-144.489-44.068-9.785-90.213-3.559-130.112 17.556z"/><path id="H" d="M477.729 3051.46c-6.483 5.867-16.399 5.721-25.201 5.075l-40.105-2.934c-31.861-2.347-64.808-4.987-92.913-20.155-2.975-1.36-5.61-3.365-7.716-5.867a24.85 24.85 0 0 1-3.374-12.645c-3.796-43.454-12.436-86.349-25.759-127.884-17.603-55.303-44.007-109.813-43.655-167.696v-4.196c.499-18.131 3.697-36.056 5.662-54.099 3.257-30.189 2.934-60.612 2.7-90.948a197.39 197.39 0 0 0-2.465-35.528c-1.848-9.535-8.801-19.099-4.547-27.49 8.244-16.282 38.139-22.267 54.216-22.854 21.652-.763 42.951 4.899 63.869 10.532 6.367 1.731 13.026 3.58 17.838 8.068 6.454 6.044 8.302 15.52 8.537 24.351 1.115 39.166-21.446 75.604-23.236 114.711-.322 7.041 0 14.669-4.107 20.537-2.709 3.195-5.651 6.186-8.801 8.948-8.802 9.652-9.066 24.204-8.45 37.289l.91 15.842c4.792 70.48 19.031 139.998 42.334 206.686 2.247 7.12 5.195 14 8.802 20.537 5.886 9.177 13.24 17.324 21.769 24.116 12.084 10.32 25.03 19.585 38.696 27.695 9.125 5.398 18.865 10.561 25.114 19.128s7.628 21.564-.118 28.781z"/><path id="I" d="M477.729 3051.46c-6.483 5.867-16.399 5.721-25.201 5.075l-40.105-2.934c-31.861-2.347-64.808-4.987-92.913-20.155-2.975-1.36-5.61-3.365-7.716-5.867a24.85 24.85 0 0 1-3.374-12.645c-3.796-43.454-12.436-86.349-25.759-127.884-17.603-55.303-44.007-109.813-43.655-167.696 33.908 3.749 68.013 5.434 102.126 5.046 4.792 70.48 19.031 139.997 42.334 206.686 2.247 7.12 5.195 13.999 8.802 20.536 5.886 9.177 13.24 17.325 21.769 24.116 12.084 10.32 25.03 19.586 38.696 27.695 9.125 5.399 18.865 10.562 25.114 19.129s7.628 21.681-.118 28.898z"/><path id="J" d="M389.129 3039.08a151.09 151.09 0 0 1-27.637-13.202l-44.212-24.937a37.48 37.48 0 0 0-13.114-5.311l-5.281 39.46c-1.32 9.682-2.024 21.065 5.281 27.548a25.69 25.69 0 0 0 8.801 4.577c16.048 5.545 33.358 5.662 50.344 6.191 52.163 1.672 104.854 7.774 156.254-1.379 6.279-1.115 13.085-2.934 16.87-7.922 4.312-5.867 3.08-14.375-1.086-20.331a47.17 47.17 0 0 0-16.986-13.231c-13.085-7.041-26.669-13.026-40.252-19.041-.839-.496-1.832-.663-2.787-.469-1.32.44-1.731 2.054-2.083 3.403-2.377 9.623-10.122 17.222-18.953 21.769-.117 0-45.62 9.095-65.159 2.875z"/></defs></svg>