<svg viewBox="0 0 12555 8230" xmlns="http://www.w3.org/2000/svg" fill-rule="evenodd" clip-rule="evenodd" stroke-linejoin="round" stroke-miterlimit="2"><path d="M9953.62 2710.83c0-62.131-47.072-112.564-105.055-112.564h-6215.53c-57.977 0-105.055 50.433-105.055 112.564v3222.06c0 62.125 47.078 112.558 105.055 112.558h6215.53c57.983 0 105.055-50.433 105.055-112.558V2710.83z" fill="#e8ecf5"/><path d="M3827.16 5831.55h6105.19v143.836c0 38.468-27.254 70.12-60.382 70.12h-5984.41c-33.127 0-60.388-31.652-60.388-70.12V5831.55h-.006z" fill-opacity=".1" fill-rule="nonzero"/><path fill="#d0cde1" d="M4942.75 3196.65h1042.33v935.773H4942.75z"/><path fill="#153f6f" d="M5061.17 3308.44h805.438v581.304H5061.17z"/><path d="M5060.41 3958.32h438.106v21.76H5060.41v-21.76zm0 65.288h438.106v21.761H5060.41v-21.761z" fill="#f2f2f2"/><ellipse cx="5204.52" cy="3599.25" rx="92.231" ry="87.05" fill="#3f3d56"/><ellipse cx="5463.9" cy="3599.25" rx="92.231" ry="87.05" fill="#f2f2f2"/><ellipse cx="5723.34" cy="3599.25" rx="92.231" ry="87.05" fill="#ff6584"/><ellipse cx="5463.9" cy="3251.05" rx="46.115" ry="43.522" fill="#3f3d56"/><path fill="#153f6f" d="M6503.37 3916.44h874.318v520.307H6503.37z"/><ellipse cx="6922.97" cy="4173.43" rx="212.27" ry="165.191" fill="#f2f2f2"/><ellipse cx="6967.67" cy="3954.64" rx="50.063" ry="38.956" fill="#3f3d56"/><path fill="#d0cde1" d="M5700.61 2893.5h1131.48v837.577H5700.61z"/><path fill="#153f6f" d="M5815.63 3006.35h874.318v520.307H5815.63z"/><path d="M6158.75 3413.68h188.088v43.376H6158.75v-43.376zm-227.398-337.718h642.878v18.591h-642.878v-18.591zm0 58.866h642.878v18.591h-642.878v-18.591zm0 58.872h642.878v18.591h-642.878V3193.7zm0 58.866h642.878v18.591h-642.878v-18.591zm0 58.866h642.878v18.59h-642.878v-18.59z" fill="#3f3d56"/><path d="M5814.75 3578.3h475.572v19.478H5814.75V3578.3zm0 48.695h663.295v19.478H5814.75v-19.478z" fill="#f2f2f2"/><ellipse cx="6252.74" cy="2954.99" rx="50.063" ry="38.956" fill="#3f3d56"/><g><path d="M7646.91 7376.43l-163.743-.013-77.915-596.122 241.696.013-.038 596.122z" fill="#a0616a" fill-rule="nonzero"/><path d="M7366.19 7332.3h315.814v187.668h-514.655c0-102.951 89.763-187.668 198.841-187.668z" fill-rule="nonzero"/><path d="M8845.72 6949.08l-120.983 104.163-483.252-390.827 178.556-153.733 425.679 440.397z" fill="#a0616a" fill-rule="nonzero"/><path d="M8606.8 7094.98l233.316-200.882 134.009 138.643-380.212 327.358c-73.514-76.055-67.697-195.734 12.887-265.119z" fill-rule="nonzero"/><path d="M7485.86 7240.11c-29.747.083-55.257-20.803-59.368-48.613l-142.691-931.462a510.618 510.618 0 01-2.008-140.19l139.064-1121.64 888.213 70.393-134.059 1062.77 507.112 596.775c20.134 23.58 16.829 58.434-7.416 78.274l-127.675 104.943c-10.942 8.997-24.969 13.955-39.48 13.955-17.565 0-34.28-7.266-45.694-19.871l-480.501-530.693c-74.377-82.358-127.915-179.629-156.534-284.419l-68.598-252.495c-2.266-8.331-10.287-14.209-19.403-14.209-8.518 0-16.148 5.123-18.937 12.726l-90.733 247.377 57.404 1089.57c1.561 30.929-23.936 57.661-56.692 59.455l-138.542 7.26a64.195 64.195 0 01-3.462.095z" fill="#153f6f" fill-rule="nonzero"/><ellipse cx="7979.44" cy="3172.95" rx="328.059" ry="309.623" fill="#a0616a"/><path d="M6074.01 3532.92c21.374 46.007 69.781 75.859 123.01 75.859 26.593 0 52.594-7.45 74.698-21.412l430.136 245.938-33.43-207.99-364.082-222.066c-25.542-31.329-65.128-49.71-107.013-49.71-74.081 0-135.041 57.528-135.041 127.446 0 17.899 3.991 35.595 11.722 51.935z" fill="#a0616a" fill-rule="nonzero"/><path d="M7964.21 5212.32c-174.237.006-355.558-51.01-538.918-151.648-28.015-15.331-40.336-47.826-28.998-76.454l170.555-433.74-38.793-511.056c-13.196-173.846 78.632-338.866 233.945-420.412 112.799-59.734 248.659-67.324 368.137-20.562 128.148 50.921 224.634 154.703 261.47 281.242l54.747 179.768c66.394 219.853 58.751 453.839-21.871 669.412l-158.612 420.304-4.111 2.321c-1.083.615-109.928 60.812-297.551 60.825z" fill="#ccc" fill-rule="nonzero"/><path d="M6301.72 3677.21c-15.116-21.45-14.839-49.589.711-70.761l83.121-113.306c19.083-25.939 56.006-34.575 85.715-20.042l616.431 302.559 680.142-64.35c87.868-7.888 170.554 42.97 198.4 122.024a169.106 169.106 0 019.336 55.366c0 97.119-84.078 177.289-186.98 178.272l-634.247 6.074c-66.752.602-132.573-14.97-191.129-45.24l-637.992-330.211a65.697 65.697 0 01-23.508-20.385z" fill="#ccc" fill-rule="nonzero"/><path d="M8262.18 5489.42c32.309-24.025 51.208-60.768 51.208-99.598 0-36.16-16.4-70.653-45.026-94.697l160.192-416.188-220.92 44.25-136.3 388.373c-18.427 22.363-28.437 49.907-28.437 78.237 0 69.923 60.96 127.451 135.041 127.451 30.603 0 60.318-9.815 84.242-27.828z" fill="#a0616a" fill-rule="nonzero"/><path d="M8320.92 5247.36a69.712 69.712 0 01-22.942-3.855l-137.087-47.478c-31.396-10.918-49.521-42.482-42.08-73.272l155.477-639.123-236.81-605.176c-30.188-78.287 1.215-166.624 75.315-211.889 30.414-18.382 65.77-28.152 101.882-28.152 85.073 0 160.148 54.243 182.346 131.757l165.525 577.886a348.162 348.162 0 011.605 185.963l-178.424 665.772c-7.46 27.886-34.267 47.58-64.744 47.567h-.063z" fill="#ccc" fill-rule="nonzero"/><path d="M8001.1 3391.42c16.633-65.15 24.855-101.729 41.331-166.916 11.042-43.655-22.262-88.356-64.052-108.76-41.784-20.397-90.223-22.743-136.911-27.061-46.682-4.318-95.656-12.022-132.045-40.364-48.854-38.057-62.817-108.938-38.793-164.684 26.158-55.556 79.419-95.749 142.596-107.612 62.54-10.798 127.146-1.408 183.347 26.643 22.022-48.835 85.835-70.064 140.657-61.548 54.829 8.522 102.436 39.933 146.997 71.68 82.869 59.043 167.898 130.616 186.287 227.95 17.754 93.993-32.762 188.847-100.327 259.114-92.187 95.546-215.94 158.926-351.05 179.799-18.176-25.977-24.673-57.743-18.037-88.241z" fill-rule="nonzero"/><path d="M9262.3 7533.62H6697.78c-7.328 0-13.359-5.687-13.359-12.598 0-6.918 6.031-12.612 13.359-12.612H9262.3c7.322 0 13.353 5.694 13.353 12.612 0 6.911-6.031 12.598-13.353 12.598z" fill="#ccc" fill-rule="nonzero"/></g><g><ellipse cx="4735.49" cy="3838.74" rx="303.386" ry="279.194" fill="#ffb8b8"/><path d="M4625.95 5490.75c-3.816 0-7.656-.152-11.509-.463-70.058-5.376-124.603-59.937-124.603-124.636 0-8.211.875-16.403 2.625-24.456a109.27 109.27 0 013.331-11.888l-447.764-487.35c-29.873-32.768-32.876-80.024-7.347-115.772l.812-.907 403.052-365.724c21.789-19.776 51.19-30.872 81.793-30.872 63.913 0 116.513 48.397 116.513 107.212 0 29.37-13.114 57.478-36.244 77.711L4314.7 4768.996l319.566 472.005c6.056.286 12.081.97 18.031 2.042 63.309 11.622 109.304 63.235 109.304 122.646 0 68.522-61.187 124.934-135.651 125.068v-.007zm609.227 2233.66h151.442l72.041-537.535-223.508.013.025 537.522zm-1387.12-137.02l149.867 39.027 201.989-482.848-221.178-57.578-130.678 501.399z" fill="#ffb8b8" fill-rule="nonzero"/><path d="M5196.52 7678.88l298.249-.013c104.262 0 190.053 78.953 190.053 174.899v5.687l-488.289.013-.013-180.586zM3813.5 7518.654l298.242-.007c104.269 0 190.053 78.953 190.053 174.899v5.681l-488.283.019-.012-180.592z" fill-rule="nonzero"/><path d="M5422.35 7534.5h-169.58c-28.298.038-52.323-19.846-55.269-45.747l-170.958-1478.84c-1.001-8.624-8.996-15.249-18.427-15.249-7.265 0-13.888 3.937-16.885 10.03l-308.41 628.446-546.02 819.354c-14.543 21.615-44.441 30.213-69.768 20.068l-218.131-88.311c-20.133-8.161-33.197-26.586-33.197-46.832a48.118 48.118 0 017.87-26.237l501.938-773.436 153.94-651.665c-48.413-282.599 159.147-702.757 161.25-706.974l1.026-2.048 571.738-205.65 2.864 3.234c225.478 680.92 362.874 1413.71 261.42 2512.98-2.575 26.288-26.725 46.711-55.401 46.87z" fill="#63767e" fill-rule="nonzero"/><path d="M4618.71 5245.94l-2.664-5.149c-1.271-2.466-128.399-249.216-226.403-512.94-38.063-103.059-27.424-216.232 29.313-311.74 57.466-96.497 156.389-166.504 272.493-192.836 205.238-45.265 417.747 55.639 496.587 235.793 77.732 178.893 52.959 369.833 29.646 519.991l-.466 3.011-2.978 1.313-595.528 262.557z" fill="#153f6f" fill-rule="nonzero"/><path d="M5103.35 3681.04h-481.741v-193.248c105.741-38.659 209.203-71.534 271.75 0 115.198 0 209.991 87.234 209.991 193.248z" fill-rule="nonzero"/><path d="M4594.91 3453.69c-287.993 0-368.603 332.196-368.603 519.61 0 104.512 51.366 141.896 132.076 154.545l28.507-139.898 66.759 145.916c22.677.107 46.493-.292 71.184-.717l22.633-42.894 50.479 42.127c202.165.273 365.562 27.391 365.562-159.079 0-187.414-70.694-519.61-368.597-519.61z" fill-rule="nonzero"/><path d="M5982.47 4854.26a119.758 119.758 0 01-5.566 9.258 120.362 120.362 0 01-37.742 36.515c-47.305 28.951-110.004 22.636-154.161-15.547a132.918 132.918 0 01-9.475-9.111l-649.149 109.051c-43.54 7.14-88.459-15.661-110.041-55.86l-.478-1.161-157.517-528.391c-14.266-47.853 4.111-98.102 45.026-123.147 51.026-31.234 120.933-13.391 154.873 39.521a118.69 118.69 0 0114.455 32.21l105.332 377.619 577.819-11.407a114.772 114.772 0 019.928-13.79 120.4 120.4 0 0129.08-24.944c59.518-36.427 141.066-15.617 180.646 46.102 26.31 41.011 28.985 92.129 6.97 133.082z" fill="#ffb8b8" fill-rule="nonzero"/><path d="M5937.9 7872.58H3424.06c-7.177 0-13.094-5.434-13.094-12.047 0-6.607 5.917-12.047 13.094-12.047H5937.9c7.177 0 13.088 5.44 13.088 12.047 0 6.613-5.911 12.047-13.088 12.047z" fill="#ccc" fill-rule="nonzero"/></g></svg>