<svg viewBox="0 0 3013 1975" xmlns="http://www.w3.org/2000/svg" fill-rule="evenodd" clip-rule="evenodd" stroke-linejoin="round" stroke-miterlimit="2"><path d="M1081.25 543.11c0-12.921-9.785-23.411-21.838-23.411h-1292.07c-12.052 0-21.838 10.49-21.838 23.411v670.136c0 12.921 9.786 23.411 21.838 23.411h1292.07c12.053 0 21.838-10.49 21.838-23.411V543.11z" fill="#e8ecf5"/><path d="M-192.311 1192.16h1269.13v29.916c0 8-5.666 14.583-12.552 14.583h-1244.03c-6.886 0-12.552-6.583-12.552-14.583v-29.916h-.003z" fill-opacity=".1" fill-rule="nonzero"/><path fill="#d0cde1" d="M39.601 644.152h216.677v194.626H39.601z"/><path fill="#153f6f" d="M64.223 667.403h167.432v120.902H64.223z"/><path fill="#f2f2f2" d="M64.058 802.569h91.072v4.526H64.058zM64.058 816.147h91.072v4.526H64.058z"/><ellipse cx="94.015" cy="727.887" rx="19.173" ry="18.105" fill="#3f3d56"/><ellipse cx="147.94" cy="727.887" rx="19.173" ry="18.105" fill="#f2f2f2"/><ellipse cx="201.864" cy="727.887" rx="19.173" ry="18.105" fill="#ff6584"/><ellipse cx="147.94" cy="655.468" rx="9.587" ry="9.052" fill="#3f3d56"/><g><path fill="#153f6f" d="M364.024 793.858h181.751v108.215H364.024z"/><ellipse cx="451.252" cy="847.307" rx="44.127" ry="34.357" fill="#f2f2f2"/><ellipse cx="460.536" cy="801.803" rx="10.406" ry="8.102" fill="#3f3d56"/><path fill="#d0cde1" d="M197.139 581.102h235.208v174.202H197.139z"/><path fill="#153f6f" d="M221.049 604.574H402.8v108.215H221.049z"/><path fill="#3f3d56" d="M292.375 689.291h39.1v9.022h-39.1zM245.105 619.051h133.639v3.866H245.105zM245.105 631.295h133.639v3.866H245.105zM245.105 643.538h133.639v3.866H245.105zM245.105 655.782h133.639v3.866H245.105zM245.105 668.026h133.639v3.866H245.105z"/><path fill="#f2f2f2" d="M220.869 723.531h98.86v4.051h-98.86zM220.869 733.659h137.884v4.051H220.869z"/><ellipse cx="311.925" cy="593.892" rx="10.406" ry="8.102" fill="#3f3d56"/></g><g><path d="M601.734 1513.48l-34.038-.003-16.196-123.984 50.242.003-.008 123.984z" fill="#a0616a" fill-rule="nonzero"/><path d="M543.384 1504.3h65.65v39.031H502.049c0-21.411 18.659-39.031 41.335-39.031z" fill-rule="nonzero"/><path d="M850.946 1424.59l-25.149 21.664-100.458-81.286 37.118-31.973 88.489 91.595z" fill="#a0616a" fill-rule="nonzero"/><path d="M801.282 1454.95l48.501-41.78 27.857 28.835-79.037 68.085c-15.281-15.818-14.072-40.71 2.679-55.14z" fill-rule="nonzero"/><path d="M568.264 1485.13c-6.183.018-11.486-4.327-12.34-10.111l-29.662-193.729a106.214 106.214 0 01-.417-29.157l28.908-233.283 184.639 14.64-27.867 221.039 105.416 124.12c4.185 4.904 3.498 12.154-1.541 16.28l-26.541 21.827c-2.274 1.871-5.19 2.902-8.207 2.902-3.652 0-7.126-1.512-9.498-4.134l-99.886-110.375c-15.462-17.129-26.59-37.36-32.54-59.155l-14.26-52.514c-.471-1.734-2.139-2.956-4.034-2.956-1.77 0-3.357 1.066-3.936 2.647l-18.861 51.45 11.932 226.613c.325 6.433-4.976 11.994-11.785 12.366l-28.8 1.51c-.242.014-.481.02-.72.02z" fill="#153f6f" fill-rule="nonzero"/><ellipse cx="670.866" cy="639.224" rx="68.197" ry="64.397" fill="#a0616a"/><path d="M274.764 714.093c4.442 9.568 14.506 15.778 25.571 15.778 5.528 0 10.934-1.551 15.528-4.455l89.416 51.152-6.949-43.259-75.685-46.185c-5.31-6.516-13.539-10.34-22.246-10.34-15.4 0-28.072 11.965-28.072 26.507 0 3.722.83 7.403 2.437 10.802z" fill="#a0616a" fill-rule="nonzero"/><path d="M667.697 1063.38c-36.219.002-73.912-10.609-112.029-31.539-5.824-3.189-8.384-9.947-6.027-15.902l35.454-90.21-8.065-106.292c-2.742-36.158 16.347-70.479 48.633-87.439 23.449-12.423 51.69-14.002 76.528-4.277 26.638 10.591 46.695 32.176 54.353 58.494l11.381 37.39c13.802 45.725 12.213 94.39-4.547 139.226l-32.971 87.417-.856.482c-.224.128-22.851 12.648-61.854 12.65z" fill="#ccc" fill-rule="nonzero"/><path d="M322.098 744.102c-3.142-4.462-3.083-10.314.148-14.718l17.279-23.566c3.968-5.394 11.643-7.19 17.819-4.168l128.142 62.927 141.386-13.384c18.266-1.64 35.455 8.939 41.243 25.381a35.193 35.193 0 011.941 11.514c0 20.199-17.479 36.873-38.869 37.078l-131.846 1.263c-13.877.126-27.559-3.114-39.731-9.409l-132.625-68.679a13.67 13.67 0 01-4.887-4.239z" fill="#ccc" fill-rule="nonzero"/><path d="M729.631 1121.02c6.717-4.996 10.646-12.639 10.646-20.714 0-7.522-3.41-14.696-9.361-19.696l33.301-86.561-45.924 9.204-28.334 80.775c-3.83 4.652-5.911 10.381-5.911 16.273 0 14.542 12.672 26.508 28.071 26.508 6.363 0 12.539-2.043 17.512-5.789z" fill="#a0616a" fill-rule="nonzero"/><path d="M741.852 1070.67c-1.627 0-3.242-.27-4.769-.802l-28.497-9.874c-6.526-2.272-10.295-8.836-8.748-15.24l32.321-132.927-49.228-125.868c-6.275-16.282.252-34.654 15.657-44.069 6.322-3.823 13.672-5.855 21.178-5.855 17.685 0 33.292 11.282 37.906 27.403l34.409 120.191a72.443 72.443 0 01.334 38.678l-37.09 138.47c-1.552 5.8-7.124 9.896-13.459 9.893h-.014z" fill="#ccc" fill-rule="nonzero"/><path d="M675.368 684.662c3.458-13.549 5.166-21.158 8.592-34.715 2.295-9.08-4.628-18.377-13.315-22.62-8.686-4.243-18.755-4.731-28.46-5.629-9.705-.898-19.886-2.5-27.45-8.396-10.156-7.914-13.059-22.656-8.065-34.25 5.439-11.556 16.51-19.915 29.643-22.383 13.001-2.245 26.431-.292 38.114 5.541 4.578-10.155 17.843-14.571 29.24-12.799 11.397 1.771 21.294 8.304 30.557 14.907 17.227 12.28 34.901 27.166 38.724 47.41 3.692 19.55-6.81 39.278-20.856 53.892-19.163 19.872-44.888 33.054-72.975 37.396-3.777-5.404-5.128-12.011-3.749-18.354z" fill-rule="nonzero"/><path d="M937.541 1546.18H404.434c-1.522 0-2.776-1.183-2.776-2.621 0-1.439 1.254-2.623 2.776-2.623h533.107c1.523 0 2.776 1.184 2.776 2.623 0 1.438-1.253 2.621-2.776 2.621z" fill="#ccc" fill-rule="nonzero"/></g><g><ellipse cx="-3.481" cy="777.698" rx="63.067" ry="58.067" fill="#ffb8b8"/><path d="M-26.251 1121.29c-.794 0-1.593-.032-2.394-.096-14.563-1.119-25.902-12.467-25.902-25.923 0-1.707.183-3.411.546-5.087.184-.834.415-1.66.693-2.472l-93.081-101.36c-6.21-6.816-6.833-16.644-1.527-24.079l.169-.189 83.785-76.065c4.529-4.112 10.642-6.421 17.004-6.421 13.286 0 24.219 10.067 24.219 22.299 0 6.108-2.725 11.955-7.533 16.163l-60.682 53.116 66.431 98.17a29.01 29.01 0 013.747.424c13.161 2.419 22.723 13.153 22.723 25.51 0 14.25-12.72 25.984-28.198 26.011v-.001zM100.389 1585.85h31.481l14.975-111.798-46.462.003.006 111.795z" fill="#ffb8b8" fill-rule="nonzero"/><path d="M92.36 1576.39l61.998-.003c21.675 0 39.508 16.421 39.508 36.376v1.183l-101.504.003-.002-37.559z" fill-rule="nonzero"/><path d="M139.298 1546.36h-35.251c-5.883.009-10.878-4.127-11.49-9.514l-35.538-307.575c-.208-1.794-1.87-3.171-3.83-3.171-1.511 0-2.888.819-3.511 2.086l-64.11 130.707-113.506 170.412c-3.023 4.496-9.238 6.284-14.503 4.174l-45.345-18.368c-4.186-1.697-6.9-5.529-6.9-9.74 0-1.921.565-3.807 1.634-5.456l104.343-160.863 32.001-135.535c-10.065-58.777 33.082-146.162 33.519-147.04l.214-.426 118.851-42.771.596.672c46.871 141.62 75.433 294.029 54.343 522.661-.535 5.467-5.555 9.715-11.517 9.747z" fill="#63767e" fill-rule="nonzero"/><path d="M-27.763 1070.37l-.553-1.071c-.265-.513-26.692-51.833-47.064-106.683-7.913-21.435-5.701-44.972 6.093-64.837 11.946-20.071 32.511-34.63 56.646-40.106 42.664-9.416 86.839 11.571 103.228 49.04 16.159 37.207 11.009 76.92 6.163 108.151l-.097.625-.618.273-123.798 54.608z" fill="#153f6f" fill-rule="nonzero"/><path d="M72.986 744.898H-27.157v-40.192c21.98-8.04 43.489-14.878 56.491 0 23.946 0 43.651 18.143 43.652 40.192z" fill-rule="nonzero"/><path d="M-32.702 697.614c-59.867 0-76.623 69.091-76.623 108.071 0 21.736 10.677 29.512 27.455 32.142l5.926-29.096 13.878 30.348c4.713.022 9.664-.062 14.797-.149l4.705-8.921 10.494 8.76c42.025.058 75.991 5.698 75.991-33.084 0-38.98-14.695-108.071-76.623-108.071z" fill-rule="nonzero"/><path d="M255.737 988.91a24.391 24.391 0 01-1.156 1.925 25.035 25.035 0 01-7.846 7.594c-9.834 6.022-22.867 4.708-32.046-3.232a27.552 27.552 0 01-1.971-1.896l-134.942 22.681c-9.052 1.485-18.389-3.258-22.875-11.618l-.1-.241-32.744-109.897c-2.966-9.953.854-20.404 9.36-25.613 10.607-6.496 25.139-2.785 32.194 8.22a24.685 24.685 0 013.005 6.699l21.896 78.538 120.116-2.372a23.891 23.891 0 012.063-2.868 25.025 25.025 0 016.046-5.187c12.372-7.577 29.324-3.249 37.552 9.588 5.469 8.53 6.025 19.161 1.448 27.679z" fill="#ffb8b8" fill-rule="nonzero"/><path d="M246.469 1616.67h-522.57c-1.493 0-2.722-1.131-2.722-2.506 0-1.374 1.229-2.506 2.722-2.506h522.57c1.493 0 2.721 1.132 2.721 2.506 0 1.375-1.228 2.506-2.721 2.506z" fill="#ccc" fill-rule="nonzero"/></g></svg>