<svg xmlns="http://www.w3.org/2000/svg" width="12351" height="3374" viewBox="0 0 12351 3374"  fill-rule="evenodd" stroke-linecap="round" stroke-linejoin="round" stroke-miterlimit="1"><g fill="#0f3f72" fill-rule="nonzero" stroke="#f0f9fd"><path d="M10115.8 2856.46l-62.709 256.836-51.642-16.052 33.199-140.457c7.377-24.078-3.689-40.131-25.821-40.131h-507.2c-22.133 0-38.732 16.053-46.109 40.131l-29.51 120.392c-25.821 108.353 20.288 180.588 119.883 180.588h885.295c101.44 0 184.436-72.235 210.257-180.588l64.553-260.849c18.444-72.235-12.911-120.392-81.152-120.392H10099.2l64.553-256.836 51.642 16.052-14.755 60.196c-16.599 72.235 11.067 120.392 79.308 120.392h433.425c22.133 0 40.576-16.052 47.954-40.131l29.51-120.392c25.821-108.352-20.288-180.587-121.728-180.587h-885.295c-101.44 0-184.436 72.235-210.257 180.587l-64.553 260.85c-18.443 72.235 12.911 120.391 81.152 120.391h525.644zm-1187.81-341.11c-16.599 72.235 11.066 120.392 79.307 120.392h433.426c22.132 0 40.576-16.052 47.953-40.131l29.51-120.392c25.821-108.352-20.288-180.587-121.728-180.587h-1014.4c-22.132 0-40.576 16.052-47.953 40.13l-213.946 882.874c-7.378 24.078 3.689 40.131 25.821 40.131h505.355c22.133 0 40.576-16.053 47.954-40.131l189.969-776.528 53.487 16.053-14.755 58.189zm-1285.52-180.59c5.533-24.078-3.689-40.13-25.821-40.13h-507.2c-22.132 0-40.576 16.052-47.954 40.13l-180.747 742.417c-25.821 108.353 20.288 180.588 119.883 180.588h1014.4c22.132 0 40.576-16.053 47.954-40.131l215.79-882.874c7.378-24.078-3.689-40.13-25.821-40.13h-507.2c-22.132 0-42.42 16.052-47.953 40.13l-189.97 776.528-53.486-16.052 188.125-760.476zm-669.51 140.46c25.821-108.352-20.288-180.587-121.728-180.587h-885.294c-101.44 0-184.437 72.235-210.258 180.587l-147.549 601.96c-25.821 108.353 20.288 180.588 119.884 180.588h885.294c101.44 0 184.437-72.235 210.258-180.588l149.393-601.96zm-737.745 638.077l-51.642-16.052 162.304-658.142 51.642 16.052-162.304 658.142z" stroke-width="44.57"/><path d="M4293.94 3133.61c-12.763 61.997 12.763 103.329 63.813 103.329h1097.59c51.051 0 93.593-41.332 106.356-103.329l433.931-1958.09h650.897c51.051 0 93.593-41.332 106.356-103.33l187.186-831.801c12.762-61.998-12.763-103.329-63.814-103.329h-2569.55c-51.051 0-93.593 41.331-106.356 103.329l-187.186 831.801c-12.763 61.998 12.763 103.33 63.813 103.33h650.897l-433.931 1958.09z" stroke-width="44.74"/></g><g fill="#ef8231"><path d="M11554.1 2051.75l-53.63-16.4 188.628-776.972c5.548-24.601-3.699-41.001-25.89-41.001h-508.555c-22.192 0-42.534 16.4-48.082 41.001l-181.23 758.521c-25.89 110.704 18.493 184.506 120.204 184.506h416.09c46.232 0 86.917-14.351 120.204-41.001l-14.794 61.501c-5.548 24.601-24.041 41.001-46.233 41.001h-617.663c-22.191 0-40.684 16.401-48.081 41.002l-44.383 188.605c-5.548 24.601 3.698 41.001 25.89 41.001h1015.26c101.711 0 184.93-73.802 212.669-184.505l262.599-1090.63c5.548-24.601-3.698-41.001-25.89-41.001h-506.706c-22.191 0-42.533 16.4-48.081 41.001l-192.326 793.372zm-1129.9-608.87c-16.644 73.802 11.096 123.004 79.519 123.004h434.584c22.191 0 40.684-16.401 48.081-41.002l29.589-123.003c25.89-110.703-20.342-184.505-122.053-184.505H9876.81c-22.192 0-40.685 16.4-48.082 41.001l-214.518 902.026c-7.397 24.6 3.699 41.001 25.89 41.001h506.706c22.192 0 40.685-16.401 48.082-41.001l190.477-793.373 53.629 16.4-14.794 59.452zm-1327.83 215.26l-53.629-16.4 68.423-276.758 51.78 16.4-66.574 276.758zm438.282 133.254c68.424 0 122.053-49.201 140.546-123.003l64.725-266.508c25.89-110.703-20.342-184.505-122.053-184.505h-887.66c-101.711 0-184.929 73.802-210.819 184.505L8371.448 2016.9c-25.89 110.704 20.342 184.506 120.204 184.506h887.659c101.711 0 184.93-73.802 210.82-184.506l29.588-123.003c7.397-24.601-3.698-41.001-25.89-41.001h-508.555c-22.191 0-40.684 16.4-48.081 41.001l-36.986 159.904-51.78-16.4 59.177-246.007h527.048zM7724.19 2051.75l-53.629-16.4 188.627-776.972c5.548-24.601-3.698-41.001-25.89-41.001h-508.555c-22.191 0-40.684 16.4-48.081 41.001l-68.424 287.008-33.287 533.015c-3.699 71.752 12.945 123.004 81.368 123.004h806.291c68.424 0 110.958-51.252 140.546-123.004l225.614-533.015 68.424-287.008c7.397-24.601-3.699-41.001-25.89-41.001h-508.555c-22.192 0-40.685 16.4-48.082 41.001L7724.19 2051.75zm-536.29-649.87c25.89-110.703-20.342-184.505-122.053-184.505h-887.66c-101.711 0-184.929 73.802-210.819 184.505l-147.944 615.017c-25.89 110.704 20.343 184.506 120.204 184.506h887.66c101.711 0 184.929-73.802 210.819-184.506L7187.9 1401.88zm-739.717 651.918l-51.78-16.4 162.738-672.419 51.78 16.4-162.738 672.419zm-1277.863.002l-51.78-16.4 162.738-672.419 51.78 16.4-61.027 256.258c-5.548 24.6 5.548 41.001 27.74 41.001h508.555c22.191 0 40.684-16.401 46.232-41.001l57.328-235.757c25.89-110.703-20.342-184.505-122.053-184.505h-887.66c-101.711 0-184.929 73.802-210.819 184.505l-147.943 615.017c-25.89 110.704 20.342 184.506 120.204 184.506h887.659c101.711 0 184.929-73.802 210.819-184.506l57.328-235.756c5.548-24.601-5.547-41.001-27.739-41.001h-508.555c-22.191 0-40.684 16.4-46.232 41.001L5170.32 2053.8zm-1211.28-262.41l-62.876 262.407-51.78-16.4 33.287-143.504c7.397-24.601-3.699-41.001-25.89-41.001h-508.555c-22.192 0-38.835 16.4-46.232 41.001l-29.589 123.003c-25.89 110.704 20.342 184.506 120.204 184.506h887.659c101.711 0 184.93-73.802 210.82-184.506l64.725-266.507c18.493-73.802-12.945-123.004-81.369-123.004h-527.048l64.725-262.407 51.78 16.4-14.794 61.502c-16.644 73.802 11.096 123.004 79.52 123.004h434.583c22.191 0 40.684-16.401 48.082-41.002l29.588-123.003c25.89-110.703-20.342-184.505-122.053-184.505h-887.66c-101.711 0-184.929 73.802-210.819 184.505l-64.725 266.508c-18.493 73.802 12.945 123.003 81.369 123.003h527.048zM3128.7 2201.4c22.192 0 40.684-16.401 46.232-41.001l218.217-902.026c7.397-24.601-3.699-41.001-25.89-41.001h-508.555c-22.192 0-40.685 16.4-48.082 41.001l-181.23 758.521c-25.891 110.704 20.342 184.506 120.203 184.506H3128.7z" fill-rule="nonzero" stroke="#f0f9fd" stroke-width="44.55"/><path d="M1067.91 3351.66c-312.585 3.821-672.633-81.933-864.325-314.596-220.674-267.839-239.855-714.871-64.061-1187.91 82.249-221.326 379.324-673.686 1152.26-931.184 320.887-106.901 1134.93-137.464 1585.88-79.928 387.041 49.381 490.307 173.722 329.914 200.731-217.556 36.635-1829.13 197.559-2184.54 897.206-226.722 446.328 44.403 738.139 366.267 585.552 369.313-175.082 342.531-880.279 344.495-1038.47 856.027-330.008-.507-.179 856.91-331.324 9.409-3.634 393.432 2165.18-1509.67 2200.7" stroke="#f0f9fd" stroke-width="42.48"/></g><path d="M1312.85 38.23l261.739 730.514 914.01 11.91L2280.87 22.349 1312.85 38.23z" fill="#aac5cf" stroke="#f0f9fd" stroke-width="44.7"/></svg>