<?xml version="1.0" encoding="UTF-8" standalone="no"?><!DOCTYPE svg PUBLIC "-//W3C//DTD SVG 1.1//EN" "http://www.w3.org/Graphics/SVG/1.1/DTD/svg11.dtd"><svg width="100%" height="100%" viewBox="0 0 907 249" version="1.1" xmlns="http://www.w3.org/2000/svg" xmlns:xlink="http://www.w3.org/1999/xlink" xml:space="preserve" xmlns:serif="http://www.serif.com/" style="fill-rule:evenodd;clip-rule:evenodd;stroke-linecap:round;stroke-linejoin:round;stroke-miterlimit:1.5;"><g id="logo"><g id="Logo"><path d="M95.05,2.942c-5.941,3.327 -14.97,4.277 -51.089,4.752l-43.961,0.713l0.475,93.149c0.475,51.327 1.188,97.664 2.139,103.367c0.713,6.416 3.802,13.069 8.079,17.822l6.654,7.604l29.465,0.713c35.881,0.713 37.782,1.188 48,10.218l8.317,7.128l10.931,-8.554l11.168,-8.317l61.783,-0l7.841,-7.842c10.456,-10.455 10.693,-13.544 11.406,-124.753l0.475,-90.772l-36.831,-0c-33.743,-0 -49.426,-1.901 -64.159,-7.842c-1.901,-0.95 -6.654,0.238 -10.693,2.614Zm-11.406,33.505c-1.426,6.891 -1.188,6.891 6.653,5.703c5.228,-0.713 8.317,-0.475 8.317,1.188c0,4.04 -9.98,9.98 -16.871,9.98c-6.178,0 -19.961,5.703 -22.337,9.268c-0.475,1.188 2.852,1.901 7.604,1.663c6.891,-0.237 9.03,0.713 9.743,4.277c0.713,3.802 -0.238,4.278 -6.416,3.327c-4.99,-0.713 -7.366,0 -7.366,1.901c-0,1.664 -3.327,6.891 -7.367,11.644c-7.604,8.792 -7.604,10.218 0.238,5.465c9.505,-5.94 7.841,1.188 -2.852,11.881c-5.94,6.179 -16.158,16.872 -22.336,23.525c-11.406,13.07 -15.208,15.208 -15.208,9.03c-0,-1.901 1.663,-3.564 3.564,-3.564c2.851,-0 3.089,-0.951 1.188,-4.515c-3.564,-6.891 -3.089,-8.08 3.327,-6.416c9.03,2.138 9.742,-2.614 1.663,-10.218c-4.515,-4.277 -7.366,-9.267 -7.366,-13.069c-0,-7.604 1.663,-7.604 8.792,-0.951c7.129,6.654 10.218,3.564 3.564,-3.564c-9.742,-10.456 -12.831,-25.426 -5.227,-25.426c3.564,-0 4.752,-1.663 4.752,-5.941c0,-3.564 1.188,-5.94 3.089,-5.703c6.891,0.951 8.792,-0.713 8.792,-7.128c0,-8.555 4.515,-12.119 6.416,-5.228c1.426,5.465 5.466,6.891 5.466,1.901c-0,-1.901 2.138,-5.228 4.752,-7.604c4.753,-4.277 4.753,-4.04 4.753,3.564l-0,7.842l5.227,-6.891c10.931,-14.02 17.585,-16.634 15.446,-5.941Zm54.416,3.089c4.752,5.703 8.079,8.317 7.366,5.941c-0.95,-2.139 -0.95,-5.703 0,-7.604c1.188,-3.327 1.901,-3.327 5.703,0.237c2.614,2.139 4.515,5.703 4.515,7.842c0,2.852 1.188,2.376 4.277,-1.663c4.991,-6.416 7.604,-4.753 7.604,4.752c0,3.565 1.189,6.891 2.377,6.891c1.425,0.238 3.802,0.476 5.465,0.713c1.426,0 3.089,2.614 3.564,5.466c0.476,3.564 2.377,5.465 5.466,5.465c7.366,-0 4.277,15.208 -5.466,25.426c-6.653,7.128 -3.564,10.218 3.565,3.564c3.089,-2.851 6.178,-5.228 7.128,-5.228c3.09,0 1.664,9.743 -2.138,15.446c-2.376,3.564 -2.852,5.941 -1.188,5.941c1.425,-0 2.614,0.95 2.614,2.376c-0,1.188 -1.664,2.376 -3.565,2.376c-1.901,0 -3.564,-1.188 -3.564,-2.851c-0,-2.139 -0.713,-2.139 -2.614,-0.238c-4.04,4.04 -0.238,8.079 6.416,6.416c6.416,-1.664 6.891,-0.475 3.327,6.416c-1.901,3.564 -1.664,4.515 1.188,4.515c3.802,-0 4.99,5.94 1.425,8.079c-2.613,1.663 -24,-22.099 -24,-26.852c0,-1.901 -0.712,-2.614 -1.663,-1.663c-2.139,2.138 -19.723,-15.208 -19.723,-19.485c0,-1.901 1.426,-2.852 3.089,-2.139c11.882,4.99 12.119,4.515 4.753,-3.327c-4.277,-4.515 -7.842,-9.98 -7.842,-12.119c0,-2.613 -1.663,-3.326 -6.178,-2.376c-4.99,0.951 -5.941,0.238 -5.228,-3.327c0.475,-2.851 3.327,-4.99 7.842,-5.703l7.129,-1.425l-8.08,-4.04c-4.515,-2.139 -10.93,-4.04 -14.257,-4.04c-6.891,0 -16.872,-5.94 -16.872,-9.98c0,-1.663 3.09,-1.901 8.317,-1.188c7.842,1.188 8.08,1.188 6.654,-5.703c-1.901,-9.743 2.138,-8.792 12.594,3.089Zm-29.941,31.604c0,2.139 2.139,3.565 4.99,3.565c4.515,-0 4.753,0.475 1.901,4.039c-1.901,2.139 -2.851,5.941 -2.614,8.792c0.713,4.04 0.238,4.278 -2.613,1.901c-1.901,-1.663 -5.228,-2.138 -7.604,-1.425c-3.09,1.188 -3.802,0.712 -3.09,-1.664c0.713,-1.901 -0.237,-5.227 -2.376,-7.604c-3.327,-3.564 -3.089,-4.039 1.426,-4.039c3.089,-0 5.228,-1.426 5.228,-3.565c-0,-1.901 1.188,-3.564 2.376,-3.564c1.426,-0 2.376,1.663 2.376,3.564Zm-26.851,34.456c3.089,-0 3.326,0.713 1.188,2.851c-1.664,1.664 -2.852,4.515 -2.852,6.416c0,2.614 -2.376,3.802 -6.891,4.04c-5.465,0.237 -6.416,-0.713 -5.703,-4.277c0.713,-2.377 0,-4.278 -1.426,-4.278c-1.425,0 -2.613,-1.188 -2.613,-2.376c-0,-1.426 1.663,-2.376 3.564,-2.376c2.139,-0 4.277,-1.664 5.228,-3.802c1.188,-3.565 1.663,-3.565 3.564,-0c1.188,2.138 3.802,3.802 5.941,3.802Zm32.079,-0c4.515,-0 4.752,0.475 1.426,4.039c-2.139,2.377 -3.327,5.466 -2.614,6.892c0.475,1.425 -2.139,2.613 -6.416,2.613c-5.465,0 -6.891,-0.95 -5.941,-3.564c0.713,-1.901 -0.713,-4.99 -2.851,-6.653c-4.04,-2.852 -4.04,-3.09 0.713,-3.327c2.851,-0 5.94,-1.901 6.891,-4.277c1.901,-3.802 1.901,-3.802 2.851,-0c0.713,2.376 3.327,4.277 5.941,4.277Zm32.079,-0c3.089,-0 3.327,0.713 1.188,2.851c-1.663,1.664 -2.851,4.515 -2.851,6.416c-0,2.614 -2.376,3.802 -6.891,4.04c-5.466,0.237 -6.416,-0.713 -5.703,-4.277c0.713,-2.377 -0,-4.278 -1.426,-4.278c-1.426,0 -2.614,-1.188 -2.614,-2.376c0,-1.426 1.426,-2.376 3.327,-2.376c1.901,-0 4.04,-1.901 4.99,-4.277c1.426,-3.802 1.663,-3.802 3.802,-0c1.426,2.376 4.04,4.277 6.178,4.277Zm-118.337,10.455c2.376,2.852 1.901,3.089 -1.901,2.139c-2.851,-0.713 -4.99,-2.139 -4.99,-3.327c0,-3.327 3.802,-2.614 6.891,1.188Zm54.416,20.436c2.852,0 2.852,0.713 0.476,3.564c-1.664,1.901 -2.377,5.228 -1.426,7.129c1.426,4.04 -1.188,4.753 -4.99,0.951c-1.901,-1.901 -3.089,-1.901 -4.04,-0c-2.614,4.039 -6.178,3.089 -4.752,-0.951c0.95,-1.901 0.237,-4.99 -1.189,-6.891c-2.138,-2.614 -1.663,-3.564 2.139,-4.515c2.614,-0.713 4.753,-3.089 4.99,-5.703c0,-3.564 0.475,-3.564 2.614,0.951c1.426,3.089 4.277,5.465 6.178,5.465Zm63.921,0c3.089,0 3.327,0.713 1.188,2.852c-1.663,1.663 -2.851,4.99 -2.851,7.604c-0,3.564 -0.713,4.039 -2.852,1.901c-1.901,-1.901 -4.039,-1.901 -7.366,-0c-4.04,2.138 -4.515,1.901 -3.089,-1.664c0.713,-2.376 0.238,-5.703 -1.188,-7.366c-2.139,-2.614 -1.901,-3.327 0.95,-3.327c2.139,0 4.515,-2.376 5.466,-5.228l1.663,-5.465l1.901,5.465c1.188,2.852 3.802,5.228 6.178,5.228Zm30.654,0c3.089,0 3.327,0.713 0.95,3.564c-1.663,1.901 -2.376,5.228 -1.425,7.129c1.425,4.04 -2.139,4.99 -4.515,1.188c-0.951,-1.663 -3.089,-1.663 -5.941,0c-3.802,2.139 -4.277,1.901 -3.327,-1.188c0.951,-1.901 0.238,-5.228 -1.425,-7.129c-2.377,-2.851 -2.377,-3.564 0.713,-3.564c2.138,0 4.514,-2.376 5.465,-5.228l1.663,-5.465l1.901,5.465c1.188,2.852 3.802,5.228 5.941,5.228Zm-125.704,0c3.09,0 3.327,0.713 1.189,2.852c-1.664,1.663 -2.852,4.99 -2.852,7.604c0,3.564 -0.713,4.039 -2.851,1.901c-1.901,-1.901 -4.04,-1.901 -7.367,-0c-4.039,2.138 -4.515,1.901 -3.089,-1.664c0.713,-2.376 0.238,-5.703 -1.188,-7.366c-2.139,-2.614 -1.901,-3.327 0.95,-3.327c1.901,0 4.278,-1.901 5.228,-4.277c1.426,-3.802 1.664,-3.802 3.802,-0c1.426,2.376 4.04,4.277 6.178,4.277Zm57.743,-3.564c0,2.138 2.139,3.564 5.466,3.564c4.752,0.238 4.99,0.475 0.95,3.327c-2.614,2.138 -3.564,4.752 -2.614,7.604c1.426,3.564 0.951,4.039 -1.426,1.663c-2.138,-2.138 -4.514,-2.138 -7.604,-0.475c-4.039,2.139 -4.514,1.901 -3.326,-2.139c1.188,-3.326 0.237,-5.703 -2.614,-7.366c-3.802,-2.139 -3.802,-2.376 1.188,-2.614c3.089,0 5.228,-1.426 5.228,-3.564c-0,-1.901 1.188,-3.565 2.376,-3.565c1.426,0 2.376,1.664 2.376,3.565Zm-45.148,32.079c-0,1.188 1.425,2.376 3.326,2.376c1.664,0 5.941,2.139 9.505,4.99l6.179,4.753l-0,-4.753c-0,-7.128 4.039,-6.178 9.267,2.139c2.376,3.802 4.99,6.416 5.703,5.465c0.95,-0.713 1.663,1.426 1.663,4.753c0,5.228 1.188,6.416 5.941,6.416c4.752,-0 5.94,-1.188 5.94,-6.179c0,-3.326 0.951,-5.465 1.901,-4.752c0.951,0.713 3.802,-2.614 6.179,-6.891c4.752,-8.555 8.554,-9.03 8.554,-1.188c0,4.039 1.188,3.802 10.456,-2.614c9.505,-6.178 12.356,-6.891 26.376,-6.654c16.871,0.476 22.574,4.753 14.495,10.694c-3.802,2.613 -3.802,3.089 -0.238,4.99c3.327,1.901 3.09,2.613 -1.425,6.891c-4.04,3.564 -8.317,4.515 -22.099,4.039c-13.545,-0.237 -15.446,0.238 -9.505,1.901c7.604,2.139 14.495,8.317 12.119,10.693c-0.713,0.713 -5.466,1.901 -10.694,2.614c-6.415,0.951 -9.267,2.377 -8.554,4.278c2.139,4.99 -2.139,5.703 -12.119,2.138c-12.119,-4.515 -30.654,-4.515 -42.772,0c-10.218,3.565 -14.258,2.852 -12.119,-2.376c0.95,-2.376 -0.713,-3.327 -6.416,-3.327c-15.683,0 -17.109,-6.891 -3.089,-13.307c7.366,-3.564 7.129,-3.564 -5.228,-2.138c-17.109,1.901 -36.832,-7.129 -25.426,-11.644c3.089,-1.188 2.852,-2.139 -1.426,-6.416c-3.564,-3.564 -4.277,-5.465 -2.138,-6.891c4.515,-2.851 35.644,-2.851 35.644,0Z" style="fill:#869ab8;fill-rule:nonzero;"/><path d="M47.763,64.249c-0.951,2.139 -0.951,4.515 -0.238,5.228c0.475,0.713 1.663,-0.713 2.614,-2.852c0.95,-2.138 0.95,-4.514 0.237,-5.227c-0.475,-0.713 -1.663,0.713 -2.613,2.851Z" style="fill:#869ab8;fill-rule:nonzero;"/><path d="M39.208,71.14c0,5.228 0.951,8.08 2.376,7.129c1.426,-0.713 2.377,-4.04 2.377,-7.129c-0,-3.089 -0.951,-6.416 -2.377,-7.128c-1.425,-0.951 -2.376,1.901 -2.376,7.128Z" style="fill:#869ab8;fill-rule:nonzero;"/><path d="M47.525,74.942c-2.614,4.04 0.238,4.99 3.564,0.951c1.901,-2.139 1.901,-3.565 0.476,-3.565c-1.426,0 -3.327,1.189 -4.04,2.614Z" style="fill:#869ab8;fill-rule:nonzero;"/><path d="M158.733,64.012c0.476,2.613 2.139,4.514 3.565,4.039c1.663,-0.237 2.851,2.139 2.851,5.466c0,3.326 1.188,5.94 2.376,5.94c1.426,0 2.377,-3.802 2.377,-8.317c-0,-6.416 -0.713,-7.841 -3.802,-6.653c-2.139,0.713 -4.753,-0 -6.179,-1.901c-1.663,-2.614 -1.901,-2.139 -1.188,1.426Z" style="fill:#869ab8;fill-rule:nonzero;"/><path d="M158.02,75.893c1.664,2.138 3.565,3.089 4.04,2.614c1.663,-1.664 -1.663,-6.179 -4.515,-6.179c-1.426,0 -1.426,1.426 0.475,3.565Z" style="fill:#869ab8;fill-rule:nonzero;"/><path d="M62.971,173.319c-0,3.564 4.277,9.505 5.703,8.079c0.712,-0.713 -0.238,-3.327 -2.139,-5.94c-1.901,-2.377 -3.327,-3.565 -3.564,-2.139Z" style="fill:#869ab8;fill-rule:nonzero;"/><path d="M140.436,178.547c-1.426,3.326 -1.188,3.564 1.188,1.425c1.664,-1.663 2.377,-3.564 1.664,-4.277c-0.713,-0.713 -2.139,0.475 -2.852,2.852Z" style="fill:#869ab8;fill-rule:nonzero;"/></g><g id="Sub-Headline"><path d="M721.091,220.015l6.604,-0c0.546,-0 1.011,-0.073 1.396,-0.219c0.384,-0.146 0.705,-0.343 0.961,-0.591c0.256,-0.248 0.457,-0.537 0.602,-0.866c0.145,-0.33 0.245,-0.678 0.301,-1.045l0.234,-1.425l1.788,0l-0.234,5.797l-18.355,0l-0,-1.392l0.434,-0c0.379,-0 0.739,-0.025 1.079,-0.073c0.339,-0.049 0.638,-0.149 0.894,-0.3c0.256,-0.151 0.46,-0.375 0.61,-0.672c0.151,-0.297 0.226,-0.688 0.226,-1.174l-0,-16.29c-0,-0.518 -0.073,-0.934 -0.218,-1.247c-0.144,-0.313 -0.345,-0.553 -0.601,-0.72c-0.257,-0.168 -0.555,-0.278 -0.895,-0.332c-0.34,-0.054 -0.705,-0.081 -1.095,-0.081l-0.434,-0l-0,-1.393l17.252,0l0.167,5.797l-1.772,0l-0.167,-1.425c-0.045,-0.367 -0.131,-0.715 -0.259,-1.044c-0.128,-0.329 -0.312,-0.618 -0.552,-0.866c-0.239,-0.249 -0.54,-0.446 -0.903,-0.592c-0.362,-0.145 -0.799,-0.218 -1.312,-0.218l-5.751,-0l0,8.825l8.259,0l-0,1.619l-8.259,0l0,9.927Z" style="fill:#869ab8;fill-rule:nonzero;"/><path d="M750.363,200.34c0,-0.194 -0.047,-0.353 -0.142,-0.478c-0.094,-0.124 -0.223,-0.221 -0.384,-0.291c-0.162,-0.07 -0.354,-0.119 -0.577,-0.146c-0.223,-0.027 -0.468,-0.04 -0.735,-0.04l-0.101,-0l0,-1.393l7.49,0l-0,1.393l-0.301,-0c-0.335,-0 -0.638,0.038 -0.911,0.113c-0.273,0.076 -0.538,0.208 -0.794,0.397c-0.257,0.189 -0.521,0.434 -0.795,0.737c-0.273,0.302 -0.571,0.68 -0.894,1.133l-4.965,6.931l6.302,9.813c0.502,0.647 0.976,1.103 1.421,1.368c0.446,0.264 0.886,0.397 1.321,0.397l0.435,-0l-0,1.392l-9.245,0l0,-1.392l0.184,-0c1.36,-0 2.039,-0.367 2.039,-1.102c0,-0.118 -0.013,-0.237 -0.041,-0.356c-0.028,-0.119 -0.081,-0.259 -0.159,-0.421c-0.078,-0.162 -0.192,-0.361 -0.343,-0.599c-0.15,-0.237 -0.343,-0.54 -0.577,-0.907l-3.393,-5.279l-3.795,5.441c-0.1,0.141 -0.201,0.3 -0.301,0.478c-0.1,0.178 -0.195,0.364 -0.284,0.559c-0.089,0.194 -0.162,0.391 -0.217,0.591c-0.056,0.199 -0.084,0.386 -0.084,0.558c-0,0.378 0.181,0.645 0.543,0.802c0.362,0.156 0.922,0.235 1.68,0.235l0.101,-0l-0,1.392l-8.158,0l-0,-1.392l0.217,-0c0.412,-0 0.772,-0.041 1.078,-0.122c0.307,-0.081 0.591,-0.213 0.853,-0.397c0.262,-0.183 0.521,-0.421 0.777,-0.712c0.256,-0.292 0.541,-0.653 0.853,-1.085l5.717,-7.934l-5.65,-8.89c-0.413,-0.637 -0.878,-1.088 -1.396,-1.352c-0.519,-0.265 -1.034,-0.397 -1.547,-0.397l-0.451,-0l-0,-1.393l9.278,0l0,1.393l-0.1,-0c-0.39,-0 -0.714,0.024 -0.97,0.073c-0.256,0.048 -0.457,0.116 -0.602,0.202c-0.145,0.086 -0.245,0.189 -0.301,0.308c-0.055,0.118 -0.083,0.243 -0.083,0.372c-0,0.119 0.008,0.232 0.025,0.34c0.017,0.108 0.053,0.235 0.109,0.381c0.055,0.146 0.136,0.316 0.242,0.51c0.106,0.194 0.254,0.437 0.443,0.729l3.093,4.841l3.243,-4.777c0.256,-0.378 0.462,-0.734 0.618,-1.068c0.156,-0.335 0.234,-0.654 0.234,-0.956Z" style="fill:#869ab8;fill-rule:nonzero;"/><path d="M758.321,221.666l-0,-1.392l0.435,-0c0.39,-0 0.755,-0.027 1.095,-0.081c0.339,-0.054 0.638,-0.165 0.894,-0.332c0.256,-0.168 0.457,-0.408 0.602,-0.721c0.145,-0.313 0.217,-0.729 0.217,-1.247l0,-16.257c0,-0.486 -0.075,-0.877 -0.226,-1.174c-0.15,-0.297 -0.353,-0.527 -0.61,-0.689c-0.256,-0.161 -0.554,-0.267 -0.894,-0.315c-0.34,-0.049 -0.699,-0.073 -1.078,-0.073l-0.435,-0l-0,-1.393l9.612,0c1.438,0 2.686,0.159 3.745,0.478c1.059,0.318 1.934,0.777 2.625,1.376c0.691,0.599 1.206,1.325 1.546,2.178c0.34,0.853 0.51,1.819 0.51,2.899c-0,0.982 -0.159,1.927 -0.476,2.834c-0.318,0.906 -0.839,1.708 -1.564,2.404c-0.724,0.696 -1.671,1.252 -2.841,1.668c-1.171,0.416 -2.603,0.623 -4.297,0.623l-2.156,0l-0,5.603c-0,0.486 0.075,0.877 0.225,1.174c0.151,0.297 0.354,0.521 0.61,0.672c0.257,0.151 0.555,0.251 0.895,0.3c0.34,0.048 0.699,0.073 1.078,0.073l1.137,-0l-0,1.392l-10.649,0Zm6.704,-10.784l1.822,-0c1.036,-0 1.922,-0.106 2.658,-0.316c0.735,-0.211 1.337,-0.551 1.805,-1.02c0.468,-0.47 0.811,-1.074 1.028,-1.814c0.218,-0.739 0.326,-1.633 0.326,-2.68c0,-0.928 -0.094,-1.735 -0.284,-2.421c-0.189,-0.685 -0.496,-1.254 -0.919,-1.708c-0.424,-0.453 -0.973,-0.791 -1.647,-1.012c-0.674,-0.221 -1.496,-0.332 -2.466,-0.332l-2.323,0l-0,11.303Z" style="fill:#869ab8;fill-rule:nonzero;"/><path d="M779,221.666l0,-1.392l0.435,-0c0.39,-0 0.755,-0.027 1.095,-0.081c0.34,-0.054 0.638,-0.165 0.894,-0.332c0.257,-0.168 0.457,-0.408 0.602,-0.721c0.145,-0.313 0.218,-0.729 0.218,-1.247l-0,-16.128c-0,-0.518 -0.073,-0.934 -0.218,-1.247c-0.145,-0.313 -0.345,-0.553 -0.602,-0.72c-0.256,-0.168 -0.554,-0.278 -0.894,-0.332c-0.34,-0.054 -0.705,-0.081 -1.095,-0.081l-0.435,-0l0,-1.393l9.964,0l-0,1.393l-0.451,-0c-0.379,-0 -0.739,0.024 -1.079,0.073c-0.34,0.048 -0.638,0.154 -0.894,0.315c-0.256,0.162 -0.46,0.392 -0.61,0.689c-0.151,0.297 -0.226,0.688 -0.226,1.174l0,18.379l6.754,-0c0.512,-0 0.95,-0.09 1.312,-0.268c0.362,-0.178 0.66,-0.41 0.895,-0.696c0.234,-0.286 0.415,-0.607 0.543,-0.963c0.128,-0.357 0.214,-0.713 0.259,-1.069l0.334,-2.478l1.789,0l-0.234,7.125l-18.356,0Z" style="fill:#869ab8;fill-rule:nonzero;"/><path d="M822.482,209.797c0,1.824 -0.234,3.487 -0.702,4.987c-0.468,1.501 -1.159,2.785 -2.073,3.854c-0.914,1.069 -2.039,1.895 -3.377,2.478c-1.337,0.583 -2.87,0.874 -4.597,0.874c-1.817,0 -3.399,-0.291 -4.748,-0.874c-1.348,-0.583 -2.468,-1.409 -3.36,-2.478c-0.892,-1.069 -1.56,-2.356 -2.006,-3.862c-0.446,-1.506 -0.669,-3.176 -0.669,-5.012c0,-1.835 0.223,-3.5 0.669,-4.995c0.446,-1.495 1.114,-2.772 2.006,-3.83c0.892,-1.058 2.017,-1.875 3.377,-2.453c1.36,-0.577 2.948,-0.866 4.764,-0.866c1.728,-0 3.255,0.289 4.581,0.866c1.326,0.578 2.446,1.398 3.36,2.461c0.914,1.064 1.605,2.343 2.073,3.838c0.468,1.495 0.702,3.166 0.702,5.012Zm-17.737,-0c0,1.641 0.125,3.106 0.376,4.396c0.251,1.29 0.655,2.381 1.212,3.271c0.557,0.891 1.279,1.571 2.165,2.04c0.886,0.47 1.964,0.705 3.235,0.705c1.27,-0 2.349,-0.235 3.235,-0.705c0.886,-0.469 1.605,-1.149 2.156,-2.04c0.552,-0.89 0.95,-1.981 1.196,-3.271c0.245,-1.29 0.367,-2.755 0.367,-4.396c0,-1.641 -0.122,-3.107 -0.367,-4.397c-0.246,-1.29 -0.644,-2.377 -1.196,-3.262c-0.551,-0.886 -1.265,-1.56 -2.14,-2.025c-0.874,-0.464 -1.947,-0.696 -3.218,-0.696c-1.27,0 -2.351,0.232 -3.243,0.696c-0.891,0.465 -1.619,1.139 -2.181,2.025c-0.563,0.885 -0.97,1.972 -1.221,3.262c-0.251,1.29 -0.376,2.756 -0.376,4.397Z" style="fill:#869ab8;fill-rule:nonzero;"/><path d="M843.412,217.618c0.58,0.885 1.143,1.549 1.689,1.992c0.546,0.442 1.181,0.664 1.906,0.664l0.1,-0l-0,1.392l-0.485,0c-1.07,0 -1.947,-0.038 -2.633,-0.113c-0.685,-0.076 -1.268,-0.221 -1.747,-0.437c-0.479,-0.216 -0.889,-0.519 -1.229,-0.907c-0.339,-0.389 -0.704,-0.896 -1.095,-1.522l-4.63,-7.465l-2.842,-0l-0,6.833c-0,0.486 0.075,0.877 0.225,1.174c0.151,0.297 0.354,0.521 0.611,0.672c0.256,0.151 0.554,0.251 0.894,0.3c0.34,0.048 0.699,0.073 1.078,0.073l0.452,-0l-0,1.392l-9.964,0l0,-1.392l0.435,-0c0.379,-0 0.738,-0.025 1.078,-0.073c0.34,-0.049 0.638,-0.149 0.894,-0.3c0.257,-0.151 0.46,-0.375 0.611,-0.672c0.15,-0.297 0.225,-0.688 0.225,-1.174l0,-16.419c0,-0.486 -0.075,-0.877 -0.225,-1.174c-0.151,-0.297 -0.354,-0.527 -0.611,-0.689c-0.256,-0.161 -0.554,-0.267 -0.894,-0.315c-0.34,-0.049 -0.699,-0.073 -1.078,-0.073l-0.435,-0l0,-1.393l9.211,0c2.965,0 5.172,0.532 6.62,1.595c1.449,1.064 2.174,2.664 2.174,4.801c-0,0.886 -0.148,1.66 -0.443,2.324c-0.296,0.664 -0.683,1.239 -1.162,1.725c-0.479,0.485 -1.02,0.89 -1.622,1.214c-0.602,0.324 -1.203,0.583 -1.805,0.777l4.697,7.19Zm-10.966,-7.951l2.407,0c1.003,0 1.839,-0.108 2.508,-0.324c0.668,-0.215 1.203,-0.539 1.605,-0.971c0.401,-0.432 0.688,-0.972 0.861,-1.619c0.172,-0.648 0.259,-1.404 0.259,-2.267c-0,-0.886 -0.095,-1.639 -0.285,-2.259c-0.189,-0.621 -0.495,-1.128 -0.919,-1.522c-0.424,-0.395 -0.972,-0.681 -1.647,-0.859c-0.674,-0.178 -1.496,-0.267 -2.465,-0.267l-2.324,0l-0,10.088Z" style="fill:#869ab8;fill-rule:nonzero;"/><path d="M854.897,220.015l6.604,-0c0.546,-0 1.011,-0.073 1.396,-0.219c0.384,-0.146 0.704,-0.343 0.961,-0.591c0.256,-0.248 0.457,-0.537 0.602,-0.866c0.144,-0.33 0.245,-0.678 0.301,-1.045l0.234,-1.425l1.788,0l-0.234,5.797l-18.355,0l-0,-1.392l0.434,-0c0.379,-0 0.739,-0.025 1.078,-0.073c0.34,-0.049 0.639,-0.149 0.895,-0.3c0.256,-0.151 0.46,-0.375 0.61,-0.672c0.151,-0.297 0.226,-0.688 0.226,-1.174l-0,-16.29c-0,-0.518 -0.073,-0.934 -0.218,-1.247c-0.144,-0.313 -0.345,-0.553 -0.601,-0.72c-0.257,-0.168 -0.555,-0.278 -0.895,-0.332c-0.34,-0.054 -0.705,-0.081 -1.095,-0.081l-0.434,-0l-0,-1.393l17.252,0l0.167,5.797l-1.772,0l-0.167,-1.425c-0.045,-0.367 -0.131,-0.715 -0.259,-1.044c-0.128,-0.329 -0.312,-0.618 -0.552,-0.866c-0.24,-0.249 -0.54,-0.446 -0.903,-0.592c-0.362,-0.145 -0.799,-0.218 -1.312,-0.218l-5.751,-0l0,8.825l8.259,0l-0,1.619l-8.259,0l0,9.927Z" style="fill:#869ab8;fill-rule:nonzero;"/><circle cx="437.229" cy="209.805" r="3.564" style="fill:#869ab8;"/><path d="M481.65,217.618c0.585,0.888 1.152,1.554 1.702,1.998c0.551,0.444 1.191,0.666 1.921,0.666l0.101,0l0,1.397l-0.488,0c-1.079,0 -1.963,-0.038 -2.654,-0.114c-0.691,-0.075 -1.278,-0.222 -1.761,-0.438c-0.483,-0.217 -0.896,-0.52 -1.239,-0.91c-0.342,-0.39 -0.71,-0.899 -1.103,-1.527l-4.668,-7.488l-2.864,-0l-0,6.855c-0,0.487 0.076,0.88 0.227,1.177c0.152,0.298 0.357,0.523 0.615,0.675c0.259,0.151 0.559,0.251 0.902,0.3c0.342,0.049 0.705,0.073 1.087,0.073l0.455,0l-0,1.397l-10.043,0l-0,-1.397l0.438,0c0.382,0 0.744,-0.024 1.087,-0.073c0.342,-0.049 0.643,-0.149 0.901,-0.3c0.259,-0.152 0.464,-0.377 0.615,-0.675c0.152,-0.297 0.228,-0.69 0.228,-1.177l-0,-16.471c-0,-0.488 -0.076,-0.88 -0.228,-1.178c-0.151,-0.298 -0.356,-0.528 -0.615,-0.691c-0.258,-0.162 -0.559,-0.268 -0.901,-0.316c-0.343,-0.049 -0.705,-0.073 -1.087,-0.073l-0.438,-0l-0,-1.397l9.284,-0c2.988,-0 5.213,0.533 6.673,1.6c1.46,1.066 2.19,2.672 2.19,4.816c0,0.888 -0.148,1.665 -0.446,2.331c-0.298,0.666 -0.688,1.243 -1.171,1.73c-0.483,0.487 -1.028,0.893 -1.635,1.218c-0.606,0.325 -1.213,0.585 -1.819,0.78l4.734,7.212Zm-11.053,-7.976l2.426,0c1.011,0 1.854,-0.108 2.528,-0.324c0.674,-0.217 1.213,-0.542 1.617,-0.975c0.405,-0.433 0.694,-0.975 0.868,-1.624c0.174,-0.65 0.261,-1.408 0.261,-2.275c0,-0.888 -0.095,-1.643 -0.286,-2.266c-0.191,-0.622 -0.5,-1.131 -0.927,-1.527c-0.427,-0.395 -0.98,-0.682 -1.66,-0.86c-0.679,-0.179 -1.508,-0.268 -2.485,-0.268l-2.342,-0l-0,10.119Z" style="fill:#869ab8;fill-rule:nonzero;"/><path d="M493.227,220.022l6.656,0c0.55,0 1.019,-0.073 1.407,-0.219c0.387,-0.146 0.71,-0.344 0.968,-0.593c0.259,-0.249 0.461,-0.539 0.607,-0.869c0.146,-0.33 0.247,-0.679 0.303,-1.048l0.236,-1.429l1.803,-0l-0.236,5.815l-18.501,0l-0,-1.397l0.438,0c0.382,0 0.744,-0.024 1.087,-0.073c0.342,-0.049 0.643,-0.149 0.901,-0.3c0.258,-0.152 0.463,-0.377 0.615,-0.675c0.152,-0.297 0.228,-0.69 0.228,-1.177l-0,-16.342c-0,-0.519 -0.073,-0.936 -0.219,-1.25c-0.146,-0.314 -0.349,-0.555 -0.607,-0.723c-0.258,-0.168 -0.559,-0.279 -0.902,-0.333c-0.342,-0.054 -0.71,-0.081 -1.103,-0.081l-0.438,-0l-0,-1.397l17.389,-0l0.169,5.815l-1.786,-0l-0.169,-1.43c-0.045,-0.368 -0.132,-0.717 -0.261,-1.047c-0.129,-0.331 -0.315,-0.62 -0.556,-0.869c-0.242,-0.249 -0.545,-0.447 -0.91,-0.593c-0.365,-0.146 -0.806,-0.219 -1.323,-0.219l-5.796,-0l-0,8.852l8.324,0l-0,1.625l-8.324,-0l-0,9.957Z" style="fill:#869ab8;fill-rule:nonzero;"/><path d="M528.528,221.679l0,-1.397l0.118,0c0.371,0 0.705,-0.024 1.003,-0.073c0.297,-0.049 0.55,-0.146 0.758,-0.292c0.208,-0.146 0.373,-0.358 0.497,-0.634c0.123,-0.276 0.196,-0.641 0.219,-1.096l-0,-17.771l-7.903,21.263l-1.87,0l-8.004,-21.198l-0,17.413c-0,0.52 0.056,0.937 0.168,1.251c0.113,0.314 0.278,0.555 0.497,0.723c0.22,0.168 0.484,0.279 0.792,0.333c0.309,0.054 0.655,0.081 1.037,0.081l0.101,0l-0,1.397l-7.97,0l-0,-1.397l0.438,0c0.382,0 0.744,-0.024 1.087,-0.073c0.342,-0.049 0.643,-0.149 0.901,-0.3c0.258,-0.152 0.463,-0.377 0.615,-0.675c0.152,-0.297 0.228,-0.69 0.228,-1.177l-0,-16.471c-0,-0.488 -0.076,-0.88 -0.228,-1.178c-0.152,-0.298 -0.357,-0.528 -0.615,-0.691c-0.258,-0.162 -0.559,-0.268 -0.901,-0.316c-0.343,-0.049 -0.705,-0.073 -1.087,-0.073l-0.438,-0l-0,-1.397l7.869,-0l7.144,19.021l7.077,-19.021l7.65,-0l0,1.397l-0.438,-0c-0.393,-0 -0.761,0.027 -1.103,0.081c-0.343,0.054 -0.643,0.165 -0.902,0.333c-0.258,0.168 -0.46,0.409 -0.606,0.723c-0.147,0.314 -0.22,0.731 -0.22,1.25l0,16.179c0,0.52 0.073,0.937 0.22,1.251c0.146,0.314 0.348,0.555 0.606,0.723c0.259,0.168 0.559,0.279 0.902,0.333c0.342,0.054 0.71,0.081 1.103,0.081l0.438,0l0,1.397l-9.183,0Z" style="fill:#869ab8;fill-rule:nonzero;"/><path d="M547.097,220.022l6.656,0c0.55,0 1.019,-0.073 1.407,-0.219c0.387,-0.146 0.71,-0.344 0.969,-0.593c0.258,-0.249 0.46,-0.539 0.606,-0.869c0.146,-0.33 0.248,-0.679 0.304,-1.048l0.236,-1.429l1.803,-0l-0.236,5.815l-18.502,0l0,-1.397l0.438,0c0.382,0 0.744,-0.024 1.087,-0.073c0.343,-0.049 0.643,-0.149 0.902,-0.3c0.258,-0.152 0.463,-0.377 0.615,-0.675c0.151,-0.297 0.227,-0.69 0.227,-1.177l0,-16.342c0,-0.519 -0.073,-0.936 -0.219,-1.25c-0.146,-0.314 -0.348,-0.555 -0.607,-0.723c-0.258,-0.168 -0.558,-0.279 -0.901,-0.333c-0.343,-0.054 -0.711,-0.081 -1.104,-0.081l-0.438,-0l0,-1.397l17.39,-0l0.168,5.815l-1.786,-0l-0.169,-1.43c-0.044,-0.368 -0.132,-0.717 -0.261,-1.047c-0.129,-0.331 -0.314,-0.62 -0.556,-0.869c-0.241,-0.249 -0.545,-0.447 -0.91,-0.593c-0.365,-0.146 -0.806,-0.219 -1.322,-0.219l-5.797,-0l0,8.852l8.324,0l0,1.625l-8.324,-0l0,9.957Z" style="fill:#869ab8;fill-rule:nonzero;"/><path d="M582.398,221.679l0,-1.397l0.118,0c0.371,0 0.705,-0.024 1.003,-0.073c0.298,-0.049 0.55,-0.146 0.758,-0.292c0.208,-0.146 0.374,-0.358 0.497,-0.634c0.124,-0.276 0.197,-0.641 0.219,-1.096l0,-17.771l-7.902,21.263l-1.871,0l-8.004,-21.198l0,17.413c0,0.52 0.056,0.937 0.169,1.251c0.112,0.314 0.278,0.555 0.497,0.723c0.219,0.168 0.483,0.279 0.792,0.333c0.309,0.054 0.654,0.081 1.036,0.081l0.101,0l0,1.397l-7.97,0l0,-1.397l0.438,0c0.382,0 0.744,-0.024 1.087,-0.073c0.343,-0.049 0.643,-0.149 0.901,-0.3c0.259,-0.152 0.464,-0.377 0.616,-0.675c0.151,-0.297 0.227,-0.69 0.227,-1.177l0,-16.471c0,-0.488 -0.076,-0.88 -0.227,-1.178c-0.152,-0.298 -0.357,-0.528 -0.616,-0.691c-0.258,-0.162 -0.558,-0.268 -0.901,-0.316c-0.343,-0.049 -0.705,-0.073 -1.087,-0.073l-0.438,-0l0,-1.397l7.869,-0l7.145,19.021l7.077,-19.021l7.65,-0l-0,1.397l-0.438,-0c-0.393,-0 -0.761,0.027 -1.104,0.081c-0.343,0.054 -0.643,0.165 -0.901,0.333c-0.259,0.168 -0.461,0.409 -0.607,0.723c-0.146,0.314 -0.219,0.731 -0.219,1.25l-0,16.179c-0,0.52 0.073,0.937 0.219,1.251c0.146,0.314 0.348,0.555 0.607,0.723c0.258,0.168 0.558,0.279 0.901,0.333c0.343,0.054 0.711,0.081 1.104,0.081l0.438,0l-0,1.397l-9.184,0Z" style="fill:#869ab8;fill-rule:nonzero;"/><path d="M612.325,203.876c-0,0.747 -0.11,1.402 -0.329,1.965c-0.219,0.564 -0.52,1.056 -0.902,1.479c-0.381,0.422 -0.834,0.777 -1.356,1.064c-0.522,0.287 -1.087,0.528 -1.693,0.722l-0,0.13c0.786,0.13 1.505,0.352 2.156,0.666c0.652,0.314 1.211,0.723 1.677,1.227c0.466,0.503 0.828,1.099 1.087,1.787c0.258,0.687 0.387,1.47 0.387,2.347c0,2.144 -0.73,3.749 -2.19,4.816c-1.46,1.067 -3.685,1.6 -6.673,1.6l-10.279,0l0,-1.397l0.439,0c0.393,0 0.761,-0.027 1.103,-0.081c0.343,-0.054 0.643,-0.165 0.902,-0.333c0.258,-0.168 0.46,-0.409 0.606,-0.723c0.146,-0.314 0.219,-0.731 0.219,-1.251l0,-16.308c0,-0.488 -0.075,-0.88 -0.227,-1.178c-0.152,-0.298 -0.357,-0.528 -0.615,-0.691c-0.258,-0.162 -0.559,-0.268 -0.902,-0.316c-0.342,-0.049 -0.704,-0.073 -1.086,-0.073l-0.439,-0l0,-1.397l9.251,-0c2.988,-0 5.213,0.479 6.673,1.437c1.46,0.959 2.191,2.461 2.191,4.508Zm-11.358,16.146l3.354,0c0.977,0 1.803,-0.086 2.477,-0.26c0.674,-0.173 1.224,-0.452 1.651,-0.836c0.427,-0.385 0.736,-0.885 0.927,-1.503c0.191,-0.617 0.286,-1.37 0.286,-2.258c0,-0.866 -0.084,-1.619 -0.253,-2.258c-0.168,-0.638 -0.457,-1.169 -0.867,-1.591c-0.41,-0.423 -0.952,-0.737 -1.626,-0.943c-0.674,-0.205 -1.517,-0.308 -2.528,-0.308l-3.421,-0l0,9.957Zm0,-11.614l2.393,-0c1.011,-0 1.854,-0.087 2.528,-0.26c0.674,-0.173 1.213,-0.441 1.617,-0.804c0.405,-0.363 0.694,-0.831 0.868,-1.405c0.174,-0.574 0.261,-1.262 0.261,-2.063c0,-0.812 -0.095,-1.492 -0.286,-2.039c-0.191,-0.547 -0.5,-0.988 -0.927,-1.324c-0.427,-0.335 -0.98,-0.574 -1.66,-0.714c-0.679,-0.141 -1.508,-0.211 -2.485,-0.211l-2.309,-0l0,8.82Z" style="fill:#869ab8;fill-rule:nonzero;"/><path d="M623.53,220.022l6.656,0c0.55,0 1.019,-0.073 1.407,-0.219c0.387,-0.146 0.71,-0.344 0.969,-0.593c0.258,-0.249 0.46,-0.539 0.606,-0.869c0.146,-0.33 0.248,-0.679 0.304,-1.048l0.236,-1.429l1.803,-0l-0.236,5.815l-18.502,0l0,-1.397l0.438,0c0.382,0 0.744,-0.024 1.087,-0.073c0.343,-0.049 0.643,-0.149 0.901,-0.3c0.259,-0.152 0.464,-0.377 0.616,-0.675c0.151,-0.297 0.227,-0.69 0.227,-1.177l-0,-16.342c-0,-0.519 -0.073,-0.936 -0.219,-1.25c-0.146,-0.314 -0.348,-0.555 -0.607,-0.723c-0.258,-0.168 -0.559,-0.279 -0.901,-0.333c-0.343,-0.054 -0.711,-0.081 -1.104,-0.081l-0.438,-0l0,-1.397l17.39,-0l0.168,5.815l-1.786,-0l-0.169,-1.43c-0.045,-0.368 -0.132,-0.717 -0.261,-1.047c-0.129,-0.331 -0.314,-0.62 -0.556,-0.869c-0.241,-0.249 -0.545,-0.447 -0.91,-0.593c-0.365,-0.146 -0.806,-0.219 -1.322,-0.219l-5.797,-0l-0,8.852l8.324,0l0,1.625l-8.324,-0l-0,9.957Z" style="fill:#869ab8;fill-rule:nonzero;"/><path d="M656.085,217.618c0.584,0.888 1.151,1.554 1.702,1.998c0.55,0.444 1.19,0.666 1.921,0.666l0.101,0l-0,1.397l-0.489,0c-1.078,0 -1.963,-0.038 -2.654,-0.114c-0.691,-0.075 -1.278,-0.222 -1.761,-0.438c-0.483,-0.217 -0.896,-0.52 -1.238,-0.91c-0.343,-0.39 -0.711,-0.899 -1.104,-1.527l-4.667,-7.488l-2.865,-0l-0,6.855c-0,0.487 0.076,0.88 0.227,1.177c0.152,0.298 0.357,0.523 0.615,0.675c0.259,0.151 0.559,0.251 0.902,0.3c0.343,0.049 0.705,0.073 1.087,0.073l0.455,0l-0,1.397l-10.043,0l0,-1.397l0.438,0c0.382,0 0.744,-0.024 1.087,-0.073c0.343,-0.049 0.643,-0.149 0.901,-0.3c0.259,-0.152 0.464,-0.377 0.615,-0.675c0.152,-0.297 0.228,-0.69 0.228,-1.177l-0,-16.471c-0,-0.488 -0.076,-0.88 -0.228,-1.178c-0.151,-0.298 -0.356,-0.528 -0.615,-0.691c-0.258,-0.162 -0.558,-0.268 -0.901,-0.316c-0.343,-0.049 -0.705,-0.073 -1.087,-0.073l-0.438,-0l0,-1.397l9.285,-0c2.988,-0 5.212,0.533 6.672,1.6c1.461,1.066 2.191,2.672 2.191,4.816c-0,0.888 -0.149,1.665 -0.447,2.331c-0.297,0.666 -0.688,1.243 -1.171,1.73c-0.483,0.487 -1.028,0.893 -1.634,1.218c-0.607,0.325 -1.214,0.585 -1.82,0.78l4.735,7.212Zm-11.054,-7.976l2.426,0c1.011,0 1.854,-0.108 2.528,-0.324c0.674,-0.217 1.213,-0.542 1.618,-0.975c0.404,-0.433 0.693,-0.975 0.867,-1.624c0.175,-0.65 0.262,-1.408 0.262,-2.275c-0,-0.888 -0.096,-1.643 -0.287,-2.266c-0.191,-0.622 -0.5,-1.131 -0.927,-1.527c-0.427,-0.395 -0.98,-0.682 -1.659,-0.86c-0.68,-0.179 -1.509,-0.268 -2.486,-0.268l-2.342,-0l-0,10.119Z" style="fill:#869ab8;fill-rule:nonzero;"/><circle cx="689.112" cy="209.805" r="3.564" style="fill:#869ab8;"/><path d="M297.71,221.704l0,-1.397l0.451,-0c0.389,-0 0.754,-0.027 1.093,-0.082c0.34,-0.054 0.635,-0.165 0.885,-0.333c0.25,-0.167 0.451,-0.408 0.601,-0.722c0.15,-0.315 0.225,-0.731 0.225,-1.251l0,-7.797l-11.117,-0l-0,7.797c-0,0.52 0.075,0.936 0.225,1.251c0.15,0.314 0.35,0.555 0.601,0.722c0.25,0.168 0.548,0.279 0.893,0.333c0.345,0.055 0.707,0.082 1.085,0.082l0.451,-0l-0,1.397l-9.949,-0l-0,-1.397l0.434,-0c0.389,-0 0.754,-0.027 1.093,-0.082c0.339,-0.054 0.637,-0.165 0.893,-0.333c0.256,-0.167 0.456,-0.408 0.601,-0.722c0.145,-0.315 0.217,-0.731 0.217,-1.251l0,-16.309c0,-0.487 -0.075,-0.88 -0.225,-1.178c-0.151,-0.298 -0.354,-0.528 -0.61,-0.69c-0.256,-0.163 -0.553,-0.268 -0.893,-0.317c-0.339,-0.049 -0.698,-0.073 -1.076,-0.073l-0.434,-0l-0,-1.397l9.949,0l-0,1.397l-0.451,-0c-0.378,-0 -0.74,0.027 -1.085,0.081c-0.345,0.054 -0.643,0.165 -0.893,0.333c-0.251,0.168 -0.451,0.409 -0.601,0.723c-0.15,0.314 -0.225,0.731 -0.225,1.251l-0,6.725l11.117,-0l0,-6.725c0,-0.52 -0.075,-0.937 -0.225,-1.251c-0.15,-0.314 -0.351,-0.555 -0.601,-0.723c-0.25,-0.168 -0.545,-0.279 -0.885,-0.333c-0.339,-0.054 -0.704,-0.081 -1.093,-0.081l-0.451,-0l0,-1.397l9.949,0l0,1.397l-0.434,-0c-0.389,-0 -0.754,0.027 -1.093,0.081c-0.339,0.054 -0.637,0.165 -0.893,0.333c-0.256,0.168 -0.456,0.409 -0.601,0.723c-0.145,0.314 -0.217,0.731 -0.217,1.251l-0,16.341c-0,0.487 0.075,0.88 0.225,1.178c0.151,0.298 0.354,0.522 0.61,0.674c0.256,0.152 0.553,0.252 0.893,0.3c0.339,0.049 0.698,0.074 1.076,0.074l0.434,-0l0,1.397l-9.949,-0Z" style="fill:#869ab8;fill-rule:nonzero;"/><path d="M332.382,209.797c0,1.83 -0.233,3.498 -0.701,5.003c-0.467,1.505 -1.157,2.794 -2.07,3.866c-0.912,1.072 -2.036,1.9 -3.372,2.485c-1.335,0.585 -2.865,0.877 -4.59,0.877c-1.814,0 -3.395,-0.292 -4.741,-0.877c-1.347,-0.585 -2.465,-1.413 -3.356,-2.485c-0.89,-1.072 -1.558,-2.364 -2.003,-3.874c-0.445,-1.511 -0.668,-3.187 -0.668,-5.028c0,-1.841 0.223,-3.511 0.668,-5.011c0.445,-1.5 1.113,-2.78 2.003,-3.842c0.891,-1.061 2.015,-1.881 3.372,-2.461c1.358,-0.579 2.944,-0.869 4.758,-0.869c1.725,0 3.25,0.29 4.574,0.869c1.324,0.58 2.443,1.403 3.355,2.47c0.913,1.066 1.603,2.349 2.07,3.849c0.468,1.5 0.701,3.176 0.701,5.028Zm-17.711,-0c-0,1.646 0.125,3.116 0.375,4.41c0.251,1.294 0.654,2.388 1.211,3.281c0.556,0.894 1.277,1.576 2.161,2.047c0.885,0.471 1.962,0.707 3.231,0.707c1.268,-0 2.345,-0.236 3.23,-0.707c0.884,-0.471 1.602,-1.153 2.153,-2.047c0.551,-0.893 0.949,-1.987 1.194,-3.281c0.245,-1.294 0.367,-2.764 0.367,-4.41c-0,-1.646 -0.122,-3.116 -0.367,-4.41c-0.245,-1.295 -0.643,-2.386 -1.194,-3.274c-0.551,-0.888 -1.263,-1.564 -2.137,-2.03c-0.873,-0.466 -1.944,-0.699 -3.213,-0.699c-1.269,0 -2.348,0.233 -3.239,0.699c-0.89,0.466 -1.616,1.142 -2.178,2.03c-0.562,0.888 -0.968,1.979 -1.219,3.274c-0.25,1.294 -0.375,2.764 -0.375,4.41Z" style="fill:#869ab8;fill-rule:nonzero;"/><path d="M353.783,221.704l-12.82,-19.168l-0,15.383c-0,0.52 0.075,0.936 0.225,1.251c0.15,0.314 0.351,0.555 0.601,0.722c0.251,0.168 0.548,0.279 0.893,0.333c0.345,0.055 0.707,0.082 1.085,0.082l0.451,-0l0,1.397l-8.58,-0l-0,-1.397l0.434,-0c0.389,-0 0.754,-0.027 1.093,-0.082c0.339,-0.054 0.637,-0.165 0.893,-0.333c0.256,-0.167 0.456,-0.408 0.601,-0.722c0.145,-0.315 0.217,-0.731 0.217,-1.251l0,-16.309c0,-0.487 -0.075,-0.88 -0.225,-1.178c-0.15,-0.298 -0.354,-0.528 -0.61,-0.69c-0.256,-0.163 -0.553,-0.268 -0.893,-0.317c-0.339,-0.049 -0.698,-0.073 -1.076,-0.073l-0.434,-0l-0,-1.397l6.26,0l12.236,18.388l-0,-14.733c-0,-0.487 -0.075,-0.88 -0.225,-1.178c-0.151,-0.298 -0.354,-0.528 -0.61,-0.69c-0.256,-0.163 -0.553,-0.268 -0.893,-0.317c-0.339,-0.049 -0.698,-0.073 -1.077,-0.073l-0.45,-0l-0,-1.397l8.58,0l0,1.397l-0.434,-0c-0.389,-0 -0.754,0.027 -1.093,0.081c-0.34,0.054 -0.637,0.165 -0.893,0.333c-0.256,0.168 -0.457,0.409 -0.601,0.723c-0.145,0.314 -0.217,0.731 -0.217,1.251l-0,19.964l-2.438,-0Z" style="fill:#869ab8;fill-rule:nonzero;"/><path d="M383.848,209.797c0,1.83 -0.234,3.498 -0.701,5.003c-0.467,1.505 -1.157,2.794 -2.07,3.866c-0.913,1.072 -2.037,1.9 -3.372,2.485c-1.335,0.585 -2.866,0.877 -4.591,0.877c-1.814,0 -3.394,-0.292 -4.741,-0.877c-1.346,-0.585 -2.465,-1.413 -3.355,-2.485c-0.89,-1.072 -1.558,-2.364 -2.003,-3.874c-0.445,-1.511 -0.668,-3.187 -0.668,-5.028c0,-1.841 0.223,-3.511 0.668,-5.011c0.445,-1.5 1.113,-2.78 2.003,-3.842c0.89,-1.061 2.014,-1.881 3.372,-2.461c1.358,-0.579 2.944,-0.869 4.758,-0.869c1.725,0 3.249,0.29 4.574,0.869c1.324,0.58 2.442,1.403 3.355,2.47c0.913,1.066 1.603,2.349 2.07,3.849c0.467,1.5 0.701,3.176 0.701,5.028Zm-17.712,-0c0,1.646 0.126,3.116 0.376,4.41c0.25,1.294 0.654,2.388 1.21,3.281c0.557,0.894 1.277,1.576 2.162,2.047c0.885,0.471 1.962,0.707 3.23,0.707c1.269,-0 2.346,-0.236 3.23,-0.707c0.885,-0.471 1.603,-1.153 2.154,-2.047c0.551,-0.893 0.949,-1.987 1.194,-3.281c0.244,-1.294 0.367,-2.764 0.367,-4.41c-0,-1.646 -0.123,-3.116 -0.367,-4.41c-0.245,-1.295 -0.643,-2.386 -1.194,-3.274c-0.551,-0.888 -1.263,-1.564 -2.137,-2.03c-0.873,-0.466 -1.945,-0.699 -3.213,-0.699c-1.269,0 -2.349,0.233 -3.239,0.699c-0.89,0.466 -1.616,1.142 -2.178,2.03c-0.562,0.888 -0.969,1.979 -1.219,3.274c-0.25,1.294 -0.376,2.764 -0.376,4.41Z" style="fill:#869ab8;fill-rule:nonzero;"/><path d="M404.748,217.643c0.579,0.888 1.141,1.554 1.686,1.998c0.546,0.444 1.18,0.666 1.903,0.666l0.101,-0l-0,1.397l-0.485,-0c-1.068,-0 -1.944,-0.038 -2.629,-0.114c-0.684,-0.076 -1.266,-0.222 -1.744,-0.439c-0.479,-0.216 -0.888,-0.52 -1.227,-0.909c-0.34,-0.39 -0.704,-0.899 -1.094,-1.527l-4.624,-7.489l-2.838,0l0,6.855c0,0.487 0.076,0.88 0.226,1.178c0.15,0.298 0.353,0.522 0.609,0.674c0.256,0.152 0.554,0.252 0.893,0.3c0.34,0.049 0.699,0.074 1.077,0.074l0.451,-0l-0,1.397l-9.95,-0l0,-1.397l0.434,-0c0.379,-0 0.738,-0.025 1.077,-0.074c0.34,-0.048 0.637,-0.148 0.893,-0.3c0.256,-0.152 0.459,-0.376 0.61,-0.674c0.15,-0.298 0.225,-0.691 0.225,-1.178l-0,-16.471c-0,-0.487 -0.075,-0.88 -0.225,-1.178c-0.151,-0.298 -0.354,-0.528 -0.61,-0.69c-0.256,-0.163 -0.553,-0.268 -0.893,-0.317c-0.339,-0.049 -0.698,-0.073 -1.077,-0.073l-0.434,-0l0,-1.397l9.198,0c2.961,0 5.164,0.533 6.611,1.6c1.447,1.067 2.17,2.672 2.17,4.816c0,0.888 -0.147,1.665 -0.442,2.331c-0.295,0.666 -0.682,1.243 -1.16,1.73c-0.479,0.488 -1.019,0.894 -1.62,1.219c-0.601,0.324 -1.202,0.584 -1.803,0.779l4.691,7.213Zm-10.951,-7.976l2.404,-0c1.002,-0 1.837,-0.108 2.504,-0.325c0.668,-0.217 1.202,-0.541 1.603,-0.975c0.401,-0.433 0.687,-0.974 0.86,-1.624c0.172,-0.65 0.258,-1.408 0.258,-2.274c0,-0.888 -0.094,-1.644 -0.283,-2.266c-0.19,-0.623 -0.496,-1.132 -0.919,-1.527c-0.422,-0.395 -0.971,-0.682 -1.644,-0.861c-0.673,-0.179 -1.494,-0.268 -2.462,-0.268l-2.321,-0l0,10.12Z" style="fill:#869ab8;fill-rule:nonzero;"/></g><g id="Headline"><path id="Divider" d="M248.318,176.883l653.468,0" style="fill:none;stroke:#869ab8;stroke-width:2px;"/><path d="M273.48,151.602l-23.272,-29.208l0,23.441c0,0.792 0.137,1.427 0.41,1.906c0.272,0.478 0.636,0.845 1.09,1.101c0.455,0.256 0.995,0.425 1.622,0.508c0.626,0.082 1.282,0.123 1.969,0.123l0.818,0l0,2.129l-15.575,0l0,-2.129l0.788,0c0.707,0 1.369,-0.041 1.985,-0.123c0.616,-0.083 1.156,-0.252 1.621,-0.508c0.465,-0.256 0.828,-0.623 1.091,-1.101c0.263,-0.479 0.394,-1.114 0.394,-1.906l-0,-24.852c-0,-0.743 -0.137,-1.341 -0.409,-1.795c-0.273,-0.454 -0.642,-0.804 -1.106,-1.052c-0.465,-0.247 -1.005,-0.408 -1.621,-0.482c-0.616,-0.075 -1.268,-0.112 -1.955,-0.112l-0.788,0l0,-2.129l11.363,0l22.211,28.021l0,-22.451c0,-0.743 -0.136,-1.341 -0.409,-1.795c-0.273,-0.454 -0.641,-0.804 -1.106,-1.052c-0.465,-0.247 -1.005,-0.408 -1.621,-0.482c-0.616,-0.075 -1.268,-0.112 -1.954,-0.112l-0.819,0l0,-2.129l15.575,0l0,2.129l-0.788,0c-0.707,0 -1.368,0.041 -1.984,0.124c-0.616,0.082 -1.157,0.252 -1.621,0.507c-0.465,0.256 -0.829,0.623 -1.091,1.102c-0.263,0.478 -0.394,1.114 -0.394,1.906l-0,30.421l-4.424,0Z" style="fill:#869ab8;fill-rule:nonzero;"/><path d="M298.084,139.498l-2.363,5.322c-0.182,0.396 -0.323,0.788 -0.424,1.176c-0.101,0.387 -0.152,0.722 -0.152,1.002c0,0.858 0.339,1.485 1.015,1.881c0.677,0.396 1.712,0.594 3.106,0.594l1.424,0l0,2.129l-15.15,0l-0,-2.129l1.181,0c0.606,0 1.122,-0.053 1.546,-0.161c0.424,-0.107 0.808,-0.309 1.151,-0.606c0.344,-0.297 0.672,-0.701 0.985,-1.213c0.313,-0.511 0.662,-1.171 1.045,-1.98l13.757,-30.1l4.848,0l14.03,31.362c0.242,0.528 0.49,0.966 0.742,1.312c0.253,0.347 0.551,0.623 0.894,0.829c0.344,0.207 0.737,0.351 1.182,0.434c0.444,0.082 0.97,0.123 1.576,0.123l0.818,0l-0,2.129l-17.06,0l0,-2.129l1.424,0c2.485,0 3.727,-0.808 3.727,-2.425c0,-0.281 -0.045,-0.57 -0.136,-0.867c-0.091,-0.297 -0.217,-0.635 -0.379,-1.015l-2.485,-5.668l-16.302,-0Zm11.333,-11.411c-0.646,-1.502 -1.237,-2.909 -1.773,-4.22c-0.535,-1.312 -0.974,-2.579 -1.318,-3.8c-0.141,0.611 -0.308,1.201 -0.5,1.77c-0.192,0.569 -0.399,1.151 -0.621,1.745c-0.222,0.594 -0.475,1.217 -0.757,1.869c-0.283,0.652 -0.606,1.374 -0.97,2.166l-4.212,9.331l13.999,0l-3.848,-8.861Z" style="fill:#869ab8;fill-rule:nonzero;"/><path d="M347.657,145.835c0,0.792 0.137,1.427 0.409,1.906c0.273,0.478 0.637,0.845 1.091,1.101c0.455,0.256 0.995,0.425 1.621,0.508c0.626,0.082 1.283,0.123 1.97,0.123l1.424,0l-0,2.129l-19.302,0l0,-2.129l1.424,0c0.687,0 1.339,-0.037 1.955,-0.111c0.616,-0.074 1.156,-0.227 1.621,-0.458c0.464,-0.231 0.833,-0.573 1.106,-1.027c0.273,-0.454 0.409,-1.052 0.409,-1.795l-0,-28.144l-5.939,0c-0.909,0 -1.672,0.112 -2.288,0.334c-0.616,0.223 -1.121,0.524 -1.515,0.904c-0.394,0.379 -0.687,0.821 -0.879,1.324c-0.192,0.503 -0.328,1.036 -0.409,1.597l-0.333,2.178l-3.212,-0l0.303,-8.862l34.937,0l0.303,8.862l-3.212,-0l-0.303,-2.178c-0.08,-0.561 -0.222,-1.094 -0.424,-1.597c-0.202,-0.503 -0.495,-0.945 -0.879,-1.324c-0.383,-0.38 -0.888,-0.681 -1.515,-0.904c-0.626,-0.222 -1.404,-0.334 -2.333,-0.334l-6.03,0l0,27.897Z" style="fill:#869ab8;fill-rule:nonzero;"/><path d="M365.959,151.602l0,-2.129l0.788,0c0.707,0 1.369,-0.041 1.985,-0.123c0.616,-0.083 1.156,-0.252 1.621,-0.508c0.464,-0.256 0.828,-0.623 1.091,-1.101c0.262,-0.479 0.394,-1.114 0.394,-1.906l-0,-24.654c-0,-0.792 -0.132,-1.428 -0.394,-1.906c-0.263,-0.479 -0.627,-0.846 -1.091,-1.102c-0.465,-0.255 -1.005,-0.425 -1.621,-0.507c-0.616,-0.083 -1.278,-0.124 -1.985,-0.124l-0.788,0l0,-2.129l18.06,0l-0,2.129l-0.818,0c-0.687,0 -1.344,0.041 -1.97,0.124c-0.626,0.082 -1.167,0.252 -1.621,0.507c-0.455,0.256 -0.818,0.623 -1.091,1.102c-0.273,0.478 -0.409,1.114 -0.409,1.906l-0,24.654c-0,0.792 0.136,1.427 0.409,1.906c0.273,0.478 0.636,0.845 1.091,1.101c0.454,0.256 0.995,0.425 1.621,0.508c0.626,0.082 1.283,0.123 1.97,0.123l0.818,0l-0,2.129l-18.06,0Z" style="fill:#869ab8;fill-rule:nonzero;"/><path d="M428.895,133.458c-0,2.789 -0.424,5.33 -1.273,7.624c-0.848,2.294 -2.101,4.258 -3.757,5.891c-1.657,1.634 -3.697,2.896 -6.121,3.788c-2.424,0.891 -5.202,1.336 -8.333,1.336c-3.293,0 -6.161,-0.445 -8.605,-1.336c-2.445,-0.892 -4.475,-2.154 -6.091,-3.788c-1.616,-1.633 -2.828,-3.601 -3.636,-5.903c-0.808,-2.302 -1.212,-4.856 -1.212,-7.661c-0,-2.806 0.404,-5.351 1.212,-7.636c0.808,-2.286 2.02,-4.237 3.636,-5.855c1.616,-1.617 3.656,-2.867 6.121,-3.75c2.464,-0.882 5.343,-1.324 8.636,-1.324c3.131,0 5.898,0.442 8.302,1.324c2.404,0.883 4.434,2.137 6.091,3.763c1.656,1.625 2.909,3.581 3.757,5.866c0.849,2.286 1.273,4.839 1.273,7.661Zm-32.15,0c0,2.509 0.227,4.749 0.682,6.721c0.454,1.972 1.187,3.638 2.197,5c1.01,1.361 2.318,2.401 3.924,3.119c1.606,0.717 3.56,1.076 5.863,1.076c2.303,0 4.257,-0.359 5.863,-1.076c1.606,-0.718 2.909,-1.758 3.909,-3.119c1,-1.362 1.722,-3.028 2.167,-5c0.444,-1.972 0.666,-4.212 0.666,-6.721c0,-2.508 -0.222,-4.748 -0.666,-6.72c-0.445,-1.972 -1.167,-3.635 -2.167,-4.988c-1,-1.353 -2.293,-2.384 -3.878,-3.094c-1.586,-0.709 -3.53,-1.064 -5.833,-1.064c-2.303,-0 -4.263,0.355 -5.879,1.064c-1.616,0.71 -2.934,1.741 -3.954,3.094c-1.02,1.353 -1.758,3.016 -2.212,4.988c-0.455,1.972 -0.682,4.212 -0.682,6.72Z" style="fill:#869ab8;fill-rule:nonzero;"/><path d="M467.741,151.602l-23.271,-29.208l-0,23.441c-0,0.792 0.136,1.427 0.409,1.906c0.272,0.478 0.636,0.845 1.091,1.101c0.454,0.256 0.994,0.425 1.621,0.508c0.626,0.082 1.282,0.123 1.969,0.123l0.818,0l0,2.129l-15.574,0l-0,-2.129l0.787,0c0.707,0 1.369,-0.041 1.985,-0.123c0.616,-0.083 1.157,-0.252 1.621,-0.508c0.465,-0.256 0.828,-0.623 1.091,-1.101c0.263,-0.479 0.394,-1.114 0.394,-1.906l-0,-24.852c-0,-0.743 -0.136,-1.341 -0.409,-1.795c-0.273,-0.454 -0.641,-0.804 -1.106,-1.052c-0.465,-0.247 -1.005,-0.408 -1.621,-0.482c-0.616,-0.075 -1.268,-0.112 -1.955,-0.112l-0.787,0l-0,-2.129l11.362,0l22.211,28.021l0,-22.451c0,-0.743 -0.136,-1.341 -0.409,-1.795c-0.273,-0.454 -0.641,-0.804 -1.106,-1.052c-0.464,-0.247 -1.005,-0.408 -1.621,-0.482c-0.616,-0.075 -1.268,-0.112 -1.954,-0.112l-0.818,0l-0,-2.129l15.574,0l0,2.129l-0.787,0c-0.707,0 -1.369,0.041 -1.985,0.124c-0.616,0.082 -1.157,0.252 -1.621,0.507c-0.465,0.256 -0.829,0.623 -1.091,1.102c-0.263,0.478 -0.394,1.114 -0.394,1.906l-0,30.421l-4.424,0Z" style="fill:#869ab8;fill-rule:nonzero;"/><path d="M492.346,139.498l-2.364,5.322c-0.182,0.396 -0.323,0.788 -0.424,1.176c-0.101,0.387 -0.152,0.722 -0.152,1.002c0,0.858 0.339,1.485 1.015,1.881c0.677,0.396 1.712,0.594 3.106,0.594l1.424,0l0,2.129l-15.15,0l-0,-2.129l1.182,0c0.606,0 1.121,-0.053 1.545,-0.161c0.424,-0.107 0.808,-0.309 1.151,-0.606c0.344,-0.297 0.672,-0.701 0.985,-1.213c0.313,-0.511 0.662,-1.171 1.046,-1.98l13.756,-30.1l4.849,0l14.029,31.362c0.242,0.528 0.49,0.966 0.742,1.312c0.253,0.347 0.551,0.623 0.894,0.829c0.344,0.207 0.738,0.351 1.182,0.434c0.444,0.082 0.97,0.123 1.576,0.123l0.818,0l-0,2.129l-17.06,0l0,-2.129l1.424,0c2.485,0 3.727,-0.808 3.727,-2.425c0,-0.281 -0.045,-0.57 -0.136,-0.867c-0.091,-0.297 -0.217,-0.635 -0.379,-1.015l-2.484,-5.668l-16.302,-0Zm11.332,-11.411c-0.646,-1.502 -1.237,-2.909 -1.772,-4.22c-0.536,-1.312 -0.975,-2.579 -1.319,-3.8c-0.141,0.611 -0.308,1.201 -0.5,1.77c-0.191,0.569 -0.398,1.151 -0.621,1.745c-0.222,0.594 -0.474,1.217 -0.757,1.869c-0.283,0.652 -0.606,1.374 -0.97,2.166l-4.212,9.331l13.999,0l-3.848,-8.861Z" style="fill:#869ab8;fill-rule:nonzero;"/><path d="M525.919,151.602l0,-2.129l0.788,0c0.707,0 1.369,-0.041 1.985,-0.123c0.616,-0.083 1.156,-0.252 1.621,-0.508c0.465,-0.256 0.828,-0.623 1.091,-1.101c0.262,-0.479 0.394,-1.114 0.394,-1.906l-0,-24.654c-0,-0.792 -0.132,-1.428 -0.394,-1.906c-0.263,-0.479 -0.626,-0.846 -1.091,-1.102c-0.465,-0.255 -1.005,-0.425 -1.621,-0.507c-0.616,-0.083 -1.278,-0.124 -1.985,-0.124l-0.788,0l0,-2.129l18.06,0l-0,2.129l-0.818,0c-0.687,0 -1.339,0.037 -1.955,0.112c-0.616,0.074 -1.156,0.235 -1.621,0.482c-0.464,0.248 -0.833,0.598 -1.106,1.052c-0.273,0.454 -0.409,1.052 -0.409,1.795l0,28.094l12.242,0c0.929,0 1.722,-0.136 2.378,-0.408c0.657,-0.272 1.197,-0.627 1.622,-1.064c0.424,-0.438 0.752,-0.929 0.984,-1.473c0.233,-0.545 0.389,-1.089 0.47,-1.634l0.606,-3.787l3.242,-0l-0.424,10.891l-33.271,0Z" style="fill:#869ab8;fill-rule:nonzero;"/><path d="M601.794,114.894c2.121,-0 3.964,0.144 5.53,0.433c1.565,0.289 2.868,0.689 3.908,1.2c1.041,0.512 1.818,1.114 2.334,1.807c0.515,0.693 0.772,1.444 0.772,2.253c0,0.544 -0.136,1.035 -0.409,1.473c-0.273,0.437 -0.651,0.808 -1.136,1.113c-0.485,0.306 -1.056,0.541 -1.712,0.706c-0.657,0.165 -1.369,0.247 -2.136,0.247c-0,-0.792 -0.127,-1.575 -0.379,-2.351c-0.253,-0.776 -0.667,-1.473 -1.242,-2.092c-0.576,-0.618 -1.324,-1.122 -2.243,-1.51c-0.919,-0.387 -2.055,-0.581 -3.409,-0.581c-2.343,-0 -4.333,0.35 -5.969,1.052c-1.636,0.701 -2.97,1.724 -4,3.069c-1.03,1.345 -1.777,3.003 -2.242,4.975c-0.465,1.972 -0.697,4.229 -0.697,6.77c0,2.261 0.242,4.332 0.727,6.213c0.485,1.881 1.253,3.495 2.303,4.839c1.051,1.345 2.389,2.389 4.015,3.132c1.626,0.742 3.581,1.114 5.863,1.114c1.515,-0 2.854,-0.12 4.015,-0.359c1.162,-0.24 2.187,-0.557 3.076,-0.953c0.889,-0.396 1.671,-0.854 2.348,-1.374c0.677,-0.52 1.278,-1.06 1.803,-1.621c0.344,0.181 0.626,0.429 0.849,0.742c0.222,0.314 0.333,0.726 0.333,1.238c-0,0.643 -0.268,1.299 -0.803,1.968c-0.535,0.668 -1.349,1.274 -2.439,1.819c-1.091,0.545 -2.475,0.994 -4.152,1.349c-1.676,0.355 -3.666,0.532 -5.969,0.532c-3.091,0 -5.808,-0.445 -8.151,-1.336c-2.343,-0.892 -4.308,-2.154 -5.894,-3.788c-1.585,-1.633 -2.782,-3.597 -3.59,-5.891c-0.808,-2.294 -1.212,-4.835 -1.212,-7.624c-0,-2.739 0.424,-5.247 1.272,-7.525c0.849,-2.277 2.106,-4.232 3.773,-5.866c1.666,-1.634 3.742,-2.904 6.227,-3.812c2.484,-0.908 5.363,-1.361 8.636,-1.361Z" style="fill:#869ab8;fill-rule:nonzero;"/><path d="M630.943,149.077l11.969,0c0.99,0 1.834,-0.111 2.53,-0.334c0.697,-0.223 1.278,-0.524 1.743,-0.903c0.464,-0.38 0.828,-0.821 1.091,-1.325c0.262,-0.503 0.444,-1.035 0.545,-1.596l0.424,-2.178l3.242,-0l-0.424,8.861l-33.27,0l-0,-2.129l0.787,0c0.687,0 1.339,-0.037 1.955,-0.111c0.616,-0.074 1.156,-0.227 1.621,-0.458c0.465,-0.231 0.833,-0.573 1.106,-1.027c0.273,-0.454 0.409,-1.052 0.409,-1.795l-0,-24.901c-0,-0.792 -0.131,-1.428 -0.394,-1.906c-0.263,-0.479 -0.626,-0.846 -1.091,-1.102c-0.464,-0.255 -1.005,-0.425 -1.621,-0.507c-0.616,-0.083 -1.278,-0.124 -1.985,-0.124l-0.787,0l-0,-2.129l31.27,0l0.303,8.862l-3.212,-0l-0.303,-2.178c-0.08,-0.561 -0.237,-1.094 -0.469,-1.597c-0.233,-0.503 -0.566,-0.945 -1,-1.324c-0.434,-0.38 -0.98,-0.681 -1.636,-0.904c-0.657,-0.222 -1.45,-0.334 -2.379,-0.334l-10.424,0l0,13.491l14.969,-0l0,2.475l-14.969,-0l0,15.173Z" style="fill:#869ab8;fill-rule:nonzero;"/><path d="M694.424,151.602l0,-2.129l0.212,0c0.667,0 1.268,-0.037 1.803,-0.111c0.536,-0.074 0.99,-0.223 1.364,-0.446c0.374,-0.222 0.672,-0.544 0.894,-0.965c0.222,-0.421 0.353,-0.978 0.394,-1.671l-0,-27.079l-14.212,32.401l-3.363,0l-14.393,-32.302l-0,26.535c-0,0.792 0.101,1.427 0.303,1.906c0.202,0.478 0.5,0.845 0.894,1.101c0.394,0.256 0.869,0.425 1.424,0.508c0.556,0.082 1.177,0.123 1.864,0.123l0.181,0l0,2.129l-14.332,0l-0,-2.129l0.788,0c0.687,0 1.338,-0.037 1.954,-0.111c0.616,-0.074 1.157,-0.227 1.621,-0.458c0.465,-0.231 0.834,-0.573 1.106,-1.027c0.273,-0.454 0.409,-1.052 0.409,-1.795l0,-25.099c0,-0.743 -0.136,-1.341 -0.409,-1.795c-0.272,-0.454 -0.641,-0.804 -1.106,-1.052c-0.464,-0.247 -1.005,-0.408 -1.621,-0.482c-0.616,-0.075 -1.267,-0.112 -1.954,-0.112l-0.788,0l-0,-2.129l14.151,0l12.847,28.986l12.727,-28.986l13.757,0l-0,2.129l-0.788,0c-0.707,0 -1.369,0.041 -1.985,0.124c-0.616,0.082 -1.157,0.252 -1.621,0.507c-0.465,0.256 -0.828,0.623 -1.091,1.102c-0.263,0.478 -0.394,1.114 -0.394,1.906l0,24.654c0,0.792 0.131,1.427 0.394,1.906c0.263,0.478 0.626,0.845 1.091,1.101c0.464,0.256 1.005,0.425 1.621,0.508c0.616,0.082 1.278,0.123 1.985,0.123l0.788,0l-0,2.129l-16.515,0Z" style="fill:#869ab8;fill-rule:nonzero;"/><path d="M727.816,149.077l11.969,0c0.99,0 1.834,-0.111 2.53,-0.334c0.697,-0.223 1.278,-0.524 1.743,-0.903c0.464,-0.38 0.828,-0.821 1.091,-1.325c0.262,-0.503 0.444,-1.035 0.545,-1.596l0.424,-2.178l3.242,-0l-0.424,8.861l-33.27,0l-0,-2.129l0.787,0c0.687,0 1.339,-0.037 1.955,-0.111c0.616,-0.074 1.156,-0.227 1.621,-0.458c0.465,-0.231 0.833,-0.573 1.106,-1.027c0.273,-0.454 0.409,-1.052 0.409,-1.795l-0,-24.901c-0,-0.792 -0.131,-1.428 -0.394,-1.906c-0.263,-0.479 -0.626,-0.846 -1.091,-1.102c-0.464,-0.255 -1.005,-0.425 -1.621,-0.507c-0.616,-0.083 -1.278,-0.124 -1.985,-0.124l-0.787,0l-0,-2.129l31.27,0l0.303,8.862l-3.212,-0l-0.303,-2.178c-0.08,-0.561 -0.237,-1.094 -0.469,-1.597c-0.233,-0.503 -0.566,-0.945 -1,-1.324c-0.434,-0.38 -0.98,-0.681 -1.636,-0.904c-0.657,-0.222 -1.45,-0.334 -2.379,-0.334l-10.424,0l0,13.491l14.969,-0l0,2.475l-14.969,-0l0,15.173Z" style="fill:#869ab8;fill-rule:nonzero;"/><path d="M774.056,145.835c-0,0.792 0.136,1.427 0.409,1.906c0.273,0.478 0.636,0.845 1.091,1.101c0.454,0.256 0.995,0.425 1.621,0.508c0.626,0.082 1.283,0.123 1.97,0.123l1.424,0l-0,2.129l-19.302,0l-0,-2.129l1.424,0c0.687,0 1.338,-0.037 1.954,-0.111c0.617,-0.074 1.157,-0.227 1.622,-0.458c0.464,-0.231 0.833,-0.573 1.106,-1.027c0.272,-0.454 0.409,-1.052 0.409,-1.795l-0,-28.144l-5.939,0c-0.909,0 -1.672,0.112 -2.288,0.334c-0.616,0.223 -1.121,0.524 -1.515,0.904c-0.394,0.379 -0.687,0.821 -0.879,1.324c-0.192,0.503 -0.328,1.036 -0.409,1.597l-0.333,2.178l-3.212,-0l0.303,-8.862l34.937,0l0.303,8.862l-3.212,-0l-0.303,-2.178c-0.081,-0.561 -0.222,-1.094 -0.424,-1.597c-0.202,-0.503 -0.495,-0.945 -0.879,-1.324c-0.384,-0.38 -0.889,-0.681 -1.515,-0.904c-0.626,-0.222 -1.404,-0.334 -2.333,-0.334l-6.03,0l-0,27.897Z" style="fill:#869ab8;fill-rule:nonzero;"/><path d="M804.509,149.077l11.969,0c0.99,0 1.833,-0.111 2.53,-0.334c0.697,-0.223 1.278,-0.524 1.742,-0.903c0.465,-0.38 0.828,-0.821 1.091,-1.325c0.263,-0.503 0.444,-1.035 0.545,-1.596l0.425,-2.178l3.242,-0l-0.424,8.861l-33.271,0l-0,-2.129l0.788,0c0.687,0 1.338,-0.037 1.954,-0.111c0.616,-0.074 1.157,-0.227 1.621,-0.458c0.465,-0.231 0.834,-0.573 1.106,-1.027c0.273,-0.454 0.409,-1.052 0.409,-1.795l0,-24.901c0,-0.792 -0.131,-1.428 -0.394,-1.906c-0.262,-0.479 -0.626,-0.846 -1.09,-1.102c-0.465,-0.255 -1.005,-0.425 -1.622,-0.507c-0.616,-0.083 -1.277,-0.124 -1.984,-0.124l-0.788,0l-0,-2.129l31.271,0l0.303,8.862l-3.212,-0l-0.303,-2.178c-0.081,-0.561 -0.238,-1.094 -0.47,-1.597c-0.232,-0.503 -0.565,-0.945 -1,-1.324c-0.434,-0.38 -0.979,-0.681 -1.636,-0.904c-0.657,-0.222 -1.449,-0.334 -2.379,-0.334l-10.423,0l-0,13.491l14.969,-0l-0,2.475l-14.969,-0l-0,15.173Z" style="fill:#869ab8;fill-rule:nonzero;"/><path d="M863.051,145.414c1.05,1.353 2.07,2.368 3.06,3.045c0.99,0.676 2.141,1.014 3.454,1.014l0.182,0l0,2.129l-0.878,0c-1.94,0 -3.531,-0.058 -4.773,-0.173c-1.242,-0.116 -2.298,-0.338 -3.166,-0.668c-0.869,-0.331 -1.611,-0.793 -2.228,-1.387c-0.616,-0.594 -1.277,-1.369 -1.984,-2.326l-8.394,-11.411l-5.151,-0l0,10.445c0,0.743 0.136,1.341 0.409,1.795c0.273,0.454 0.642,0.796 1.106,1.027c0.465,0.231 1.005,0.384 1.621,0.458c0.616,0.074 1.268,0.111 1.955,0.111l0.818,0l-0,2.129l-18.06,0l0,-2.129l0.788,0c0.687,0 1.338,-0.037 1.955,-0.111c0.616,-0.074 1.156,-0.227 1.621,-0.458c0.464,-0.231 0.833,-0.573 1.106,-1.027c0.272,-0.454 0.409,-1.052 0.409,-1.795l-0,-25.099c-0,-0.743 -0.137,-1.341 -0.409,-1.795c-0.273,-0.454 -0.642,-0.804 -1.106,-1.052c-0.465,-0.247 -1.005,-0.408 -1.621,-0.482c-0.617,-0.075 -1.268,-0.112 -1.955,-0.112l-0.788,0l0,-2.129l16.696,0c5.374,0 9.373,0.813 12,2.439c2.626,1.625 3.939,4.071 3.939,7.339c-0,1.353 -0.268,2.537 -0.803,3.552c-0.536,1.015 -1.238,1.893 -2.106,2.636c-0.869,0.743 -1.849,1.361 -2.939,1.857c-1.091,0.495 -2.182,0.891 -3.273,1.188l8.515,10.99Zm-19.878,-12.154l4.363,0c1.819,0 3.334,-0.165 4.546,-0.495c1.212,-0.33 2.181,-0.825 2.909,-1.485c0.727,-0.66 1.247,-1.485 1.56,-2.475c0.313,-0.99 0.47,-2.145 0.47,-3.466c-0,-1.353 -0.172,-2.504 -0.515,-3.453c-0.344,-0.949 -0.899,-1.724 -1.667,-2.326c-0.768,-0.603 -1.762,-1.04 -2.985,-1.312c-1.222,-0.273 -2.712,-0.409 -4.469,-0.409l-4.212,0l0,15.421Z" style="fill:#869ab8;fill-rule:nonzero;"/><path d="M877.383,151.602l0,-2.129l1.424,0c0.687,0 1.339,-0.037 1.955,-0.111c0.616,-0.074 1.156,-0.227 1.621,-0.458c0.464,-0.231 0.833,-0.573 1.106,-1.027c0.273,-0.454 0.409,-1.052 0.409,-1.795l-0,-9.579l-11.484,-16.287c-0.344,-0.479 -0.667,-0.887 -0.97,-1.226c-0.303,-0.338 -0.621,-0.614 -0.954,-0.829c-0.334,-0.214 -0.702,-0.371 -1.106,-0.47c-0.404,-0.099 -0.869,-0.149 -1.394,-0.149l-0.788,0l-0,-2.129l17.06,0l-0,2.129l-2.303,0c-0.566,0 -1.026,0.041 -1.379,0.124c-0.354,0.082 -0.631,0.198 -0.833,0.347c-0.202,0.148 -0.339,0.321 -0.409,0.519c-0.071,0.198 -0.106,0.405 -0.106,0.619c-0,0.479 0.126,0.957 0.378,1.436c0.253,0.478 0.5,0.899 0.743,1.262l4.575,6.782c0.727,1.04 1.344,2.067 1.849,3.082c0.505,1.015 0.929,1.919 1.272,2.711c0.182,-0.363 0.409,-0.768 0.682,-1.213c0.273,-0.446 0.576,-0.92 0.909,-1.424c0.333,-0.503 0.682,-1.023 1.045,-1.559c0.364,-0.536 0.728,-1.068 1.091,-1.597l3.97,-5.816c0.404,-0.578 0.692,-1.127 0.863,-1.646c0.172,-0.52 0.258,-0.986 0.258,-1.399c-0,-0.743 -0.323,-1.3 -0.97,-1.671c-0.646,-0.371 -1.565,-0.557 -2.757,-0.557l-1.818,0l-0,-2.129l15.15,0l0,2.129l-0.727,0c-0.444,0 -0.863,0.062 -1.257,0.186c-0.394,0.124 -0.793,0.338 -1.197,0.643c-0.404,0.306 -0.823,0.71 -1.258,1.213c-0.434,0.504 -0.914,1.135 -1.439,1.894l-10.424,15.025l0,9.332c0,0.792 0.132,1.427 0.394,1.906c0.263,0.478 0.626,0.845 1.091,1.101c0.465,0.256 1.005,0.425 1.621,0.508c0.616,0.082 1.268,0.123 1.955,0.123l1.454,0l0,2.129l-19.302,0Z" style="fill:#869ab8;fill-rule:nonzero;"/><path d="M270.625,59.922l-4.203,9.302c-0.323,0.692 -0.574,1.377 -0.754,2.055c-0.179,0.678 -0.269,1.262 -0.269,1.752c-0,1.5 0.601,2.596 1.805,3.288c1.203,0.692 3.044,1.039 5.523,1.039l2.532,-0l0,3.72l-26.941,0l-0,-3.72l2.101,-0c1.078,-0 1.994,-0.094 2.748,-0.282c0.755,-0.187 1.437,-0.54 2.048,-1.06c0.61,-0.519 1.194,-1.225 1.751,-2.12c0.557,-0.894 1.176,-2.048 1.859,-3.461l24.463,-52.611l8.621,0l24.948,54.818c0.431,0.923 0.871,1.687 1.32,2.293c0.449,0.605 0.979,1.089 1.59,1.449c0.61,0.361 1.311,0.613 2.101,0.757c0.79,0.145 1.724,0.217 2.802,0.217l1.455,-0l-0,3.72l-30.336,0l-0,-3.72l2.532,-0c4.419,-0 6.628,-1.414 6.628,-4.24c-0,-0.491 -0.081,-0.996 -0.243,-1.515c-0.161,-0.519 -0.386,-1.11 -0.673,-1.774l-4.419,-9.907l-28.989,-0Zm20.153,-19.946c-1.15,-2.625 -2.201,-5.083 -3.153,-7.377c-0.951,-2.293 -1.733,-4.506 -2.343,-6.641c-0.252,1.067 -0.548,2.099 -0.89,3.094c-0.341,0.995 -0.709,2.012 -1.104,3.05c-0.395,1.038 -0.844,2.127 -1.347,3.266c-0.503,1.14 -1.078,2.402 -1.724,3.786l-7.49,16.311l24.894,0l-6.843,-15.489Z" style="fill:#869ab8;fill-rule:nonzero;"/><path d="M387.282,70.262c1.868,2.365 3.682,4.139 5.442,5.322c1.761,1.182 3.808,1.774 6.143,1.774l0.323,-0l0,3.72l-1.562,0c-3.449,0 -6.278,-0.101 -8.487,-0.302c-2.209,-0.202 -4.086,-0.592 -5.631,-1.169c-1.544,-0.576 -2.864,-1.384 -3.96,-2.422c-1.096,-1.039 -2.272,-2.394 -3.529,-4.067l-14.926,-19.946l-9.16,0l-0,18.258c-0,1.298 0.242,2.344 0.727,3.137c0.485,0.793 1.141,1.392 1.967,1.796c0.826,0.403 1.787,0.67 2.883,0.8c1.095,0.13 2.254,0.195 3.475,0.195l1.455,-0l0,3.72l-32.114,0l-0,-3.72l1.401,-0c1.221,-0 2.38,-0.065 3.475,-0.195c1.096,-0.13 2.057,-0.397 2.883,-0.8c0.826,-0.404 1.482,-1.003 1.967,-1.796c0.485,-0.793 0.727,-1.839 0.727,-3.137l0,-43.871c0,-1.298 -0.242,-2.344 -0.727,-3.137c-0.485,-0.793 -1.141,-1.406 -1.967,-1.839c-0.826,-0.432 -1.787,-0.713 -2.883,-0.843c-1.095,-0.13 -2.254,-0.195 -3.475,-0.195l-1.401,0l-0,-3.721l29.689,0c9.556,0 16.668,1.421 21.338,4.262c4.67,2.841 7.005,7.117 7.005,12.828c-0,2.365 -0.476,4.435 -1.428,6.209c-0.952,1.774 -2.2,3.31 -3.745,4.608c-1.545,1.298 -3.287,2.379 -5.227,3.244c-1.939,0.866 -3.879,1.558 -5.819,2.077l15.141,19.21Zm-35.347,-21.243l7.759,-0c3.233,-0 5.927,-0.289 8.082,-0.866c2.156,-0.576 3.88,-1.442 5.173,-2.596c1.293,-1.153 2.218,-2.595 2.775,-4.326c0.557,-1.731 0.835,-3.75 0.835,-6.057c0,-2.365 -0.305,-4.377 -0.916,-6.036c-0.61,-1.658 -1.598,-3.014 -2.963,-4.067c-1.365,-1.053 -3.134,-1.817 -5.308,-2.293c-2.173,-0.476 -4.822,-0.714 -7.947,-0.714l-7.49,0l-0,26.955Z" style="fill:#869ab8;fill-rule:nonzero;"/><path d="M402.693,81.078l-0,-3.72l1.401,-0c1.257,-0 2.433,-0.072 3.529,-0.217c1.096,-0.144 2.057,-0.44 2.883,-0.887c0.826,-0.447 1.473,-1.089 1.94,-1.925c0.467,-0.836 0.7,-1.947 0.7,-3.331l0,-43.093c0,-1.384 -0.233,-2.495 -0.7,-3.331c-0.467,-0.837 -1.114,-1.479 -1.94,-1.926c-0.826,-0.447 -1.787,-0.742 -2.883,-0.887c-1.096,-0.144 -2.272,-0.216 -3.529,-0.216l-1.401,0l-0,-3.721l32.114,0l-0,3.721l-1.455,0c-1.221,0 -2.38,0.065 -3.475,0.195c-1.096,0.13 -2.057,0.411 -2.883,0.843c-0.826,0.433 -1.482,1.046 -1.967,1.839c-0.485,0.793 -0.727,1.839 -0.727,3.137l-0,49.106l21.769,0c1.652,0 3.062,-0.238 4.229,-0.714c1.168,-0.475 2.129,-1.096 2.883,-1.86c0.754,-0.764 1.338,-1.622 1.751,-2.574c0.413,-0.952 0.692,-1.904 0.835,-2.856l1.078,-6.619l5.766,-0l-0.755,19.036l-59.163,0Z" style="fill:#869ab8;fill-rule:nonzero;"/><path d="M471.447,81.078l0,-3.72l1.401,-0c1.258,-0 2.434,-0.072 3.53,-0.217c1.095,-0.144 2.056,-0.44 2.882,-0.887c0.827,-0.447 1.473,-1.089 1.94,-1.925c0.467,-0.836 0.701,-1.947 0.701,-3.331l-0,-43.093c-0,-1.384 -0.234,-2.495 -0.701,-3.331c-0.467,-0.837 -1.113,-1.479 -1.94,-1.926c-0.826,-0.447 -1.787,-0.742 -2.882,-0.887c-1.096,-0.144 -2.272,-0.216 -3.53,-0.216l-1.401,0l0,-3.721l32.115,0l-0,3.721l-1.455,0c-1.221,0 -2.389,0.072 -3.502,0.216c-1.114,0.145 -2.075,0.44 -2.883,0.887c-0.808,0.447 -1.455,1.089 -1.94,1.926c-0.485,0.836 -0.727,1.947 -0.727,3.331l-0,43.093c-0,1.384 0.242,2.495 0.727,3.331c0.485,0.836 1.132,1.478 1.94,1.925c0.808,0.447 1.769,0.743 2.883,0.887c1.113,0.145 2.281,0.217 3.502,0.217l1.455,-0l-0,3.72l-32.115,0Z" style="fill:#869ab8;fill-rule:nonzero;"/><path d="M570.538,81.078l-41.382,-51.053l0,40.973c0,1.384 0.243,2.495 0.728,3.331c0.485,0.836 1.131,1.478 1.939,1.925c0.809,0.447 1.77,0.743 2.883,0.887c1.114,0.145 2.281,0.217 3.503,0.217l1.454,-0l0,3.72l-27.695,0l-0,-3.72l1.4,-0c1.258,-0 2.434,-0.072 3.53,-0.217c1.095,-0.144 2.056,-0.44 2.883,-0.887c0.826,-0.447 1.472,-1.089 1.939,-1.925c0.467,-0.836 0.701,-1.947 0.701,-3.331l-0,-43.439c-0,-1.298 -0.243,-2.344 -0.728,-3.137c-0.485,-0.793 -1.14,-1.406 -1.966,-1.839c-0.827,-0.432 -1.787,-0.713 -2.883,-0.843c-1.096,-0.13 -2.254,-0.195 -3.476,-0.195l-1.4,0l-0,-3.721l20.206,0l39.496,48.977l-0,-39.242c-0,-1.298 -0.243,-2.344 -0.728,-3.137c-0.484,-0.793 -1.14,-1.406 -1.966,-1.839c-0.826,-0.432 -1.787,-0.713 -2.883,-0.843c-1.096,-0.13 -2.254,-0.195 -3.475,-0.195l-1.455,0l-0,-3.721l27.696,0l-0,3.721l-1.401,0c-1.258,0 -2.434,0.072 -3.53,0.216c-1.095,0.145 -2.056,0.44 -2.882,0.887c-0.827,0.447 -1.473,1.089 -1.94,1.926c-0.467,0.836 -0.701,1.947 -0.701,3.331l0,53.173l-7.867,0Z" style="fill:#869ab8;fill-rule:nonzero;"/><path d="M636.222,81.944c-6.394,-0 -11.971,-0.779 -16.731,-2.337c-4.76,-1.557 -8.711,-3.764 -11.854,-6.619c-3.143,-2.856 -5.487,-6.288 -7.032,-10.297c-1.545,-4.01 -2.317,-8.452 -2.317,-13.326c0,-4.788 0.817,-9.172 2.452,-13.153c1.634,-3.98 4.077,-7.398 7.328,-10.254c3.251,-2.855 7.283,-5.076 12.097,-6.663c4.813,-1.586 10.399,-2.379 16.757,-2.379c4.095,-0 7.661,0.252 10.696,0.757c3.035,0.505 5.568,1.204 7.598,2.098c2.029,0.894 3.547,1.947 4.553,3.159c1.006,1.211 1.508,2.523 1.508,3.937c0,0.952 -0.269,1.81 -0.808,2.574c-0.539,0.764 -1.266,1.413 -2.182,1.947c-0.916,0.534 -1.994,0.945 -3.233,1.233c-1.239,0.289 -2.577,0.433 -4.014,0.433c-0,-1.385 -0.252,-2.755 -0.755,-4.11c-0.503,-1.356 -1.329,-2.575 -2.478,-3.656c-1.15,-1.082 -2.659,-1.962 -4.527,-2.64c-1.867,-0.677 -4.149,-1.016 -6.843,-1.016c-4.67,-0 -8.648,0.613 -11.935,1.838c-3.287,1.226 -5.972,3.015 -8.055,5.365c-2.084,2.351 -3.592,5.25 -4.526,8.697c-0.934,3.447 -1.401,7.391 -1.401,11.833c-0,4.413 0.485,8.336 1.454,11.768c0.97,3.432 2.551,6.317 4.742,8.653c2.191,2.336 5.029,4.11 8.514,5.322c3.484,1.211 7.741,1.817 12.77,1.817c2.119,-0 4.176,-0.087 6.17,-0.26c1.993,-0.173 3.762,-0.447 5.307,-0.822l0,-14.277c0,-1.298 -0.242,-2.344 -0.727,-3.137c-0.485,-0.793 -1.141,-1.399 -1.967,-1.817c-0.826,-0.418 -1.787,-0.7 -2.883,-0.844c-1.095,-0.144 -2.254,-0.216 -3.475,-0.216l-0.431,-0l-0,-3.721l28.665,-0l0,3.721l-0.431,-0c-1.041,-0 -2.029,0.072 -2.963,0.216c-0.934,0.144 -1.742,0.44 -2.425,0.887c-0.682,0.447 -1.221,1.096 -1.616,1.947c-0.396,0.851 -0.593,1.969 -0.593,3.353l-0,15.922c-3.7,1.384 -7.508,2.408 -11.423,3.072c-3.916,0.663 -8.244,0.995 -12.986,0.995Z" style="fill:#869ab8;fill-rule:nonzero;"/><path d="M707.832,70.998c0,1.384 0.243,2.495 0.728,3.331c0.485,0.836 1.131,1.478 1.94,1.925c0.808,0.447 1.769,0.743 2.882,0.887c1.114,0.145 2.281,0.217 3.503,0.217l2.532,-0l0,3.72l-34.323,0l-0,-3.72l2.532,-0c1.222,-0 2.38,-0.065 3.476,-0.195c1.095,-0.13 2.056,-0.397 2.882,-0.8c0.827,-0.404 1.482,-1.003 1.967,-1.796c0.485,-0.793 0.728,-1.839 0.728,-3.137l-0,-49.193l-10.562,0c-1.616,0 -2.972,0.195 -4.068,0.584c-1.095,0.39 -1.993,0.916 -2.694,1.58c-0.7,0.663 -1.221,1.435 -1.562,2.314c-0.342,0.88 -0.584,1.81 -0.728,2.791l-0.593,3.807l-5.711,0l0.539,-15.489l62.127,0l0.539,15.489l-5.712,0l-0.539,-3.807c-0.143,-0.981 -0.395,-1.911 -0.754,-2.791c-0.359,-0.879 -0.88,-1.651 -1.563,-2.314c-0.682,-0.664 -1.58,-1.19 -2.694,-1.58c-1.114,-0.389 -2.497,-0.584 -4.149,-0.584l-10.723,0l0,48.761Z" style="fill:#869ab8;fill-rule:nonzero;"/><path d="M809.564,49.365c-0,4.874 -0.755,9.316 -2.264,13.326c-1.508,4.009 -3.735,7.441 -6.681,10.297c-2.946,2.855 -6.574,5.062 -10.884,6.619c-4.311,1.558 -9.25,2.337 -14.818,2.337c-5.856,-0 -10.956,-0.779 -15.303,-2.337c-4.347,-1.557 -7.957,-3.764 -10.831,-6.619c-2.873,-2.856 -5.029,-6.295 -6.465,-10.319c-1.437,-4.024 -2.156,-8.487 -2.156,-13.391c0,-4.903 0.719,-9.352 2.156,-13.347c1.436,-3.995 3.592,-7.406 6.465,-10.232c2.874,-2.827 6.502,-5.012 10.885,-6.555c4.382,-1.543 9.501,-2.315 15.357,-2.315c5.567,0 10.489,0.772 14.763,2.315c4.275,1.543 7.885,3.735 10.831,6.576c2.946,2.841 5.173,6.259 6.681,10.254c1.509,3.995 2.264,8.459 2.264,13.391Zm-57.17,-0c-0,4.384 0.404,8.3 1.212,11.746c0.808,3.447 2.11,6.36 3.907,8.74c1.796,2.38 4.122,4.197 6.977,5.452c2.856,1.254 6.332,1.882 10.427,1.882c4.095,-0 7.57,-0.628 10.426,-1.882c2.856,-1.255 5.173,-3.072 6.951,-5.452c1.778,-2.38 3.062,-5.293 3.853,-8.74c0.79,-3.446 1.185,-7.362 1.185,-11.746c0,-4.384 -0.395,-8.3 -1.185,-11.747c-0.791,-3.447 -2.075,-6.353 -3.853,-8.718c-1.778,-2.365 -4.077,-4.168 -6.897,-5.408c-2.82,-1.24 -6.277,-1.86 -10.372,-1.86c-4.096,-0 -7.58,0.62 -10.454,1.86c-2.874,1.24 -5.217,3.043 -7.032,5.408c-1.814,2.365 -3.125,5.271 -3.933,8.718c-0.808,3.447 -1.212,7.363 -1.212,11.747Z" style="fill:#869ab8;fill-rule:nonzero;"/><path d="M878.642,81.078l-41.383,-51.053l0,40.973c0,1.384 0.243,2.495 0.728,3.331c0.485,0.836 1.131,1.478 1.94,1.925c0.808,0.447 1.769,0.743 2.882,0.887c1.114,0.145 2.281,0.217 3.503,0.217l1.455,-0l-0,3.72l-27.696,0l-0,-3.72l1.401,-0c1.257,-0 2.433,-0.072 3.529,-0.217c1.096,-0.144 2.057,-0.44 2.883,-0.887c0.826,-0.447 1.473,-1.089 1.94,-1.925c0.467,-0.836 0.7,-1.947 0.7,-3.331l0,-43.439c0,-1.298 -0.242,-2.344 -0.727,-3.137c-0.485,-0.793 -1.141,-1.406 -1.967,-1.839c-0.826,-0.432 -1.787,-0.713 -2.883,-0.843c-1.095,-0.13 -2.254,-0.195 -3.475,-0.195l-1.401,0l-0,-3.721l20.206,0l39.496,48.977l0,-39.242c0,-1.298 -0.242,-2.344 -0.727,-3.137c-0.485,-0.793 -1.141,-1.406 -1.967,-1.839c-0.826,-0.432 -1.787,-0.713 -2.883,-0.843c-1.095,-0.13 -2.254,-0.195 -3.475,-0.195l-1.455,0l-0,-3.721l27.696,0l-0,3.721l-1.401,0c-1.257,0 -2.434,0.072 -3.529,0.216c-1.096,0.145 -2.057,0.44 -2.883,0.887c-0.826,0.447 -1.473,1.089 -1.94,1.926c-0.467,0.836 -0.7,1.947 -0.7,3.331l-0,53.173l-7.867,0Z" style="fill:#869ab8;fill-rule:nonzero;"/></g></g></svg>