<svg xmlns="http://www.w3.org/2000/svg" xmlns:xlink="http://www.w3.org/1999/xlink" viewBox="0 0 2761 991" >
    <g fill="currentColor" fill-rule="evenodd">
        <path d="M348.87 361.114c0 12.995 2.363 20.084 5.906 17.72 3.544-1.772 5.908-10.042 5.908-17.72s-2.364-15.948-5.908-17.718c-3.543-2.364-5.906 4.725-5.906 17.718zm20.673 9.45c-6.498 10.042.592 12.404 8.859 2.364 4.725-5.317 4.725-8.861 1.183-8.861s-8.27 2.955-10.042 6.497zm276.428-27.168c1.184 6.495 5.317 11.22 8.862 10.039 4.134-.589 7.087 5.317 7.087 13.587s2.953 14.765 5.906 14.765c3.544 0 5.908-9.45 5.908-20.673 0-15.948-1.772-19.491-9.45-16.538-5.317 1.773-11.815 0-15.36-4.725-4.133-6.497-4.725-5.317-2.953 3.545zm-1.772 29.532c4.136 5.315 8.862 7.678 10.042 6.498 4.134-4.136-4.133-15.359-11.223-15.359-3.544 0-3.544 3.544 1.181 8.861zM407.937 615.099c0 8.859 10.631 23.626 14.176 20.082 1.77-1.772-.592-8.27-5.317-14.765-4.725-5.909-8.27-8.862-8.859-5.317zm192.554 12.995c-3.545 8.268-2.953 8.859 2.953 3.542 4.136-4.133 5.908-8.859 4.136-10.631s-5.317 1.181-7.089 7.089zm1443.33 103.077h16.415c1.357 0 2.513-.182 3.47-.545s1.752-.852 2.389-1.469a6.77 6.77 0 0 0 1.496-2.152c.361-.818.609-1.686.748-2.598l.582-3.542h4.444l-.581 14.41h-45.625v-3.461h1.079a19.1 19.1 0 0 0 2.682-.181c.842-.122 1.586-.37 2.222-.746s1.143-.932 1.516-1.67.562-1.71.562-2.918v-40.492c0-1.288-.181-2.322-.542-3.1s-.857-1.374-1.494-1.79a5.63 5.63 0 0 0-2.224-.825c-.846-.134-1.753-.201-2.722-.201h-1.079v-3.463h42.883l.415 14.41h-4.404l-.416-3.542c-.111-.912-.325-1.778-.643-2.595s-.776-1.536-1.372-2.153a6.39 6.39 0 0 0-2.245-1.471c-.902-.363-1.986-.542-3.261-.542h-14.295v21.936h20.529v4.024h-20.529v24.676zm72.761-48.906c0-.483-.117-.878-.353-1.188-.25-.32-.579-.57-.955-.724-.403-.174-.88-.296-1.434-.363s-1.163-.099-1.827-.099h-.251v-3.463h18.618v3.463h-.749a8.51 8.51 0 0 0-2.264.281c-.679.186-1.337.517-1.974.987a13.5 13.5 0 0 0-1.976 1.832c-.678.75-1.419 1.69-2.222 2.816l-12.341 17.228 15.664 24.392c1.248 1.608 2.426 2.742 3.533 3.401s2.202.986 3.283.986h1.081v3.461h-22.98v-3.461h.458c3.38 0 5.068-.912 5.068-2.739 0-.298-.034-.595-.102-.885s-.201-.643-.395-1.046a15.05 15.05 0 0 0-.853-1.489l-1.434-2.255-8.434-13.122-9.433 13.525a13.31 13.31 0 0 0-.748 1.188l-.706 1.39c-.222.482-.403.972-.54 1.469s-.208.959-.208 1.387c0 .939.449 1.603 1.349 1.993s2.292.584 4.176.584h.251v3.461h-20.278v-3.461h.539c1.024 0 1.919-.101 2.68-.303s1.469-.529 2.12-.987c.712-.511 1.361-1.105 1.932-1.769.636-.726 1.344-1.624 2.12-2.697l14.211-19.722-14.045-22.098c-1.026-1.583-2.182-2.704-3.47-3.36s-2.57-.987-3.845-.987h-1.121v-3.463h23.062v3.463h-.248c-.97 0-1.775.06-2.411.181s-1.136.289-1.497.502-.609.47-.748.766a2.15 2.15 0 0 0-.206.925 5.46 5.46 0 0 0 .062.845c.042.268.132.584.271.947a10.27 10.27 0 0 0 .601 1.268l1.101 1.812 7.689 12.033 8.061-11.874c.636-.94 1.148-1.825 1.536-2.655s.582-1.626.582-2.376zm19.781 53.01v-3.461h1.081c.969 0 1.877-.067 2.722-.201s1.586-.41 2.222-.825 1.136-1.014 1.496-1.792.54-1.812.54-3.1v-40.41c0-1.208-.187-2.18-.562-2.918s-.877-1.31-1.516-1.713c-.677-.415-1.435-.682-2.222-.783a18.92 18.92 0 0 0-2.68-.181h-1.081v-3.463h23.892c3.575 0 6.677.396 9.309 1.188s4.807 1.932 6.525 3.421c1.701 1.466 3.02 3.324 3.843 5.414.845 2.12 1.268 4.521 1.268 7.206a21.22 21.22 0 0 1-1.184 7.044c-.79 2.252-2.085 4.246-3.887 5.976s-4.154 3.112-7.062 4.146-6.47 1.548-10.681 1.548h-5.359v13.928c0 1.208.186 2.18.559 2.918s.88 1.295 1.516 1.67 1.38.624 2.225.746 1.738.181 2.68.181h2.826v3.461h-26.47zm16.664-26.806h4.529c2.575 0 4.777-.264 6.607-.786s3.323-1.369 4.486-2.535 2.016-2.67 2.556-4.509.81-4.059.81-6.662c0-2.306-.234-4.312-.706-6.018s-1.233-3.117-2.284-4.245-2.419-1.966-4.094-2.516-3.719-.825-6.13-.825h-5.774v28.096zm34.737 26.806v-3.461h1.082a17.39 17.39 0 0 0 2.721-.201c.846-.134 1.586-.41 2.223-.825s1.136-1.014 1.496-1.792.542-1.812.542-3.1v-40.089c0-1.288-.182-2.322-.542-3.1s-.858-1.374-1.496-1.79c-.674-.43-1.431-.712-2.223-.825a17.39 17.39 0 0 0-2.721-.201h-1.082v-3.463h24.768v3.463h-1.121c-.898-.004-1.794.057-2.682.181a5.62 5.62 0 0 0-2.223.783c-.636.403-1.143.975-1.516 1.713s-.562 1.71-.562 2.918v45.685h16.789c1.272 0 2.361-.224 3.261-.667s1.64-1.019 2.225-1.73a8.05 8.05 0 0 0 1.349-2.393c.311-.86.527-1.751.644-2.657l.83-6.16h4.447l-.581 17.711h-45.628zm108.083-29.503c0 4.534-.582 8.667-1.745 12.396s-2.881 6.923-5.153 9.58-5.068 4.71-8.394 6.159-7.134 2.173-11.427 2.173c-4.516 0-8.449-.723-11.802-2.173s-6.134-3.502-8.352-6.159-3.877-5.856-4.986-9.6-1.663-7.894-1.663-12.458.554-8.7 1.663-12.416 2.769-6.89 4.986-9.52 5.014-4.661 8.395-6.098 7.327-2.152 11.841-2.152c4.296 0 8.091.718 11.387 2.152s6.08 3.475 8.352 6.118 3.99 5.824 5.153 9.54 1.745 7.869 1.745 12.458zm-44.089 0c0 4.079.311 7.72.935 10.927s1.628 5.918 3.013 8.131 3.179 3.905 5.381 5.07 4.882 1.753 8.041 1.753 5.839-.584 8.042-1.753c2.211-1.174 4.064-2.927 5.359-5.07 1.372-2.213 2.361-4.924 2.973-8.131s.912-6.848.912-10.927-.303-7.723-.912-10.93-1.601-5.908-2.973-8.108-3.145-3.878-5.32-5.034-4.839-1.73-7.999-1.73-5.844.577-8.061 1.73c-2.225 1.162-4.098 2.9-5.421 5.034-1.397 2.202-2.411 4.902-3.035 8.108s-.935 6.851-.935 10.93zm96.114 19.44c1.442 2.2 2.842 3.851 4.199 4.952a7.3 7.3 0 0 0 4.738 1.65h.248v3.461h-1.205c-2.66 0-4.84-.095-6.545-.281s-3.152-.55-4.343-1.087a8.84 8.84 0 0 1-3.055-2.254c-.842-.967-1.75-2.227-2.722-3.783l-11.508-18.556h-7.065v16.985c0 1.208.187 2.18.56 2.918s.88 1.295 1.518 1.67 1.378.624 2.223.746a18.75 18.75 0 0 0 2.679.181h1.124v3.461h-24.768v-3.461h1.082c.942 0 1.834-.062 2.679-.181s1.586-.37 2.222-.746 1.144-.932 1.519-1.67.559-1.71.559-2.918v-40.813c0-1.208-.186-2.18-.559-2.918s-.88-1.31-1.519-1.713a5.61 5.61 0 0 0-2.222-.783c-.845-.121-1.737-.181-2.679-.181h-1.082v-3.463h22.896c7.37 0 12.856 1.323 16.455 3.965s5.404 6.622 5.404 11.934c0 2.202-.368 4.126-1.101 5.777s-1.698 3.079-2.888 4.287c-1.186 1.202-2.545 2.219-4.032 3.018-1.434.779-2.936 1.425-4.487 1.931l11.675 17.872zm-27.258-19.763h5.983c2.494 0 4.572-.269 6.235-.806s2.99-1.339 3.989-2.413 1.71-2.416 2.14-4.025.644-3.489.644-5.635c0-2.202-.236-4.074-.708-5.615s-1.231-2.804-2.285-3.783-2.416-1.693-4.094-2.135-3.718-.664-6.127-.664h-5.777v25.076zm55.807 25.722h16.415c1.357 0 2.513-.182 3.47-.545a6.94 6.94 0 0 0 2.389-1.469 6.77 6.77 0 0 0 1.496-2.152c.361-.818.609-1.686.748-2.598l.582-3.542h4.444l-.581 14.41h-45.625v-3.461h1.079c.942 0 1.837-.062 2.679-.181s1.589-.37 2.225-.746 1.143-.932 1.516-1.67.562-1.71.562-2.918v-40.492c0-1.288-.181-2.322-.542-3.1s-.857-1.374-1.494-1.79a5.63 5.63 0 0 0-2.224-.825c-.845-.134-1.753-.201-2.722-.201h-1.079v-3.463h42.883l.415 14.41h-4.404l-.416-3.542c-.111-.912-.325-1.778-.643-2.595s-.776-1.536-1.372-2.153a6.39 6.39 0 0 0-2.245-1.471c-.902-.363-1.986-.542-3.261-.542h-14.295v21.936h20.529v4.024h-20.529v24.676z M1448.64 725.212c1.454 2.208 2.863 3.863 4.23 4.967 1.347 1.096 3.039 1.682 4.775 1.655h.251v3.473h-1.213c-2.682 0-4.879-.095-6.597-.284s-3.176-.551-4.377-1.088c-1.179-.522-2.23-1.294-3.08-2.262s-1.765-2.235-2.741-3.796l-11.604-18.613h-7.119v17.04c0 1.21.189 2.187.565 2.925s.887 1.3 1.528 1.678 1.39.624 2.242.746a19.09 19.09 0 0 0 2.702.181h1.131v3.473h-24.963v-3.473h1.088a19.07 19.07 0 0 0 2.702-.181c.788-.1 1.549-.354 2.24-.746.641-.375 1.153-.937 1.529-1.678s.566-1.715.566-2.925v-40.942c0-1.213-.189-2.188-.566-2.928s-.885-1.313-1.529-1.718-1.39-.666-2.24-.785-1.752-.182-2.702-.182h-1.088v-3.472h23.077c7.427 0 12.958 1.325 16.587 3.977s5.443 6.642 5.443 11.971c0 2.207-.368 4.139-1.108 5.794s-1.71 3.09-2.911 4.3a16.99 16.99 0 0 1-4.064 3.028c-1.506.808-3.015 1.454-4.522 1.939l11.768 17.926zm-27.475-19.825h6.031c2.513 0 4.608-.269 6.283-.806s3.016-1.347 4.02-2.423 1.725-2.424 2.157-4.037.649-3.5.649-5.655c0-2.207-.236-4.084-.711-5.633s-1.243-2.811-2.304-3.795-2.436-1.695-4.126-2.138-3.749-.666-6.177-.666h-5.822v25.153zm56.251 25.801h16.545c1.367 0 2.533-.181 3.498-.544s1.764-.855 2.406-1.474a6.78 6.78 0 0 0 1.509-2.16 10.22 10.22 0 0 0 .753-2.605l.586-3.552h4.482l-.587 14.454h-45.987v-3.473h1.088a19.07 19.07 0 0 0 2.702-.181c.788-.1 1.549-.354 2.24-.746.641-.375 1.151-.937 1.529-1.678s.566-1.715.566-2.925v-40.621c0-1.291-.181-2.327-.544-3.108s-.867-1.379-1.509-1.797-1.389-.693-2.242-.827a17.53 17.53 0 0 0-2.742-.202h-1.088v-3.472h43.223l.42 14.454h-4.439l-.42-3.555a10.67 10.67 0 0 0-.649-2.602c-.321-.82-.783-1.541-1.382-2.16-.641-.646-1.412-1.149-2.262-1.474-.907-.363-2.003-.545-3.288-.545h-14.408v22.004h20.691v4.039h-20.691v24.75zm87.748 4.119v-3.473h.293c.922 0 1.753-.059 2.493-.181a4.49 4.49 0 0 0 1.884-.726c.517-.363.928-.89 1.236-1.576s.487-1.593.544-2.724v-44.173l-19.644 52.853h-4.648l-19.896-52.692v43.284c0 1.292.139 2.329.418 3.109s.691 1.38 1.235 1.797 1.203.694 1.969.828 1.628.201 2.577.201h.251v3.473h-19.811v-3.473h1.089a19.07 19.07 0 0 0 2.702-.181c.788-.1 1.549-.354 2.24-.746.641-.375 1.151-.937 1.528-1.678s.567-1.715.567-2.925v-40.942c0-1.213-.189-2.188-.567-2.928-.343-.702-.871-1.296-1.528-1.718-.642-.403-1.39-.666-2.24-.785s-1.752-.182-2.702-.182h-1.089v-3.472h19.56l17.758 47.28 17.591-47.28h19.016v3.472h-1.089c-.977 0-1.891.067-2.742.202s-1.598.41-2.242.827-1.143 1.017-1.506 1.797-.547 1.817-.547 3.108v40.216c0 1.292.182 2.329.547 3.109a4.2 4.2 0 0 0 1.506 1.797c.642.418 1.39.694 2.242.828s1.765.201 2.742.201h1.089v3.473h-22.826zm46.157-4.119h16.544c1.367 0 2.533-.181 3.498-.544s1.765-.855 2.408-1.474 1.144-1.34 1.507-2.16.616-1.688.755-2.605l.587-3.552h4.482l-.587 14.454h-45.99v-3.473h1.088a19.07 19.07 0 0 0 2.702-.181c.853-.122 1.599-.37 2.243-.746s1.15-.937 1.528-1.678.564-1.715.564-2.925v-40.621c0-1.291-.181-2.327-.544-3.108s-.865-1.379-1.509-1.797-1.387-.693-2.239-.827a17.58 17.58 0 0 0-2.745-.202h-1.088v-3.472h43.226l.417 14.454h-4.439l-.42-3.555a10.57 10.57 0 0 0-.649-2.602c-.31-.806-.78-1.541-1.382-2.16-.641-.646-1.412-1.149-2.262-1.474-.907-.363-2.003-.545-3.286-.545h-14.409v22.004h20.69v4.039h-20.69v24.75zm87.747 4.119v-3.473h.293c.922 0 1.753-.059 2.493-.181.675-.096 1.32-.344 1.884-.726.517-.363.93-.89 1.236-1.576s.49-1.593.544-2.724v-44.173l-19.642 52.853h-4.65l-19.896-52.692v43.284c0 1.292.139 2.329.42 3.109s.691 1.38 1.236 1.797 1.2.694 1.968.828 1.626.201 2.575.201h.251v3.473h-19.81v-3.473h1.088a19.07 19.07 0 0 0 2.702-.181c.788-.1 1.549-.354 2.24-.746.662-.398 1.195-.982 1.531-1.678.375-.738.564-1.715.564-2.925v-40.942c0-1.213-.189-2.188-.564-2.928s-.887-1.313-1.531-1.718-1.387-.666-2.24-.785a19.53 19.53 0 0 0-2.702-.182h-1.088v-3.472h19.559l17.761 47.28 17.591-47.28h19.015v3.472h-1.088a17.58 17.58 0 0 0-2.745.202c-.852.134-1.598.41-2.239.827s-1.146 1.017-1.509 1.797-.544 1.817-.544 3.108v40.216c0 1.292.181 2.329.544 3.109s.865 1.38 1.509 1.797 1.387.694 2.239.828 1.768.201 2.745.201h1.088v3.473h-22.828zm74.389-44.253c0 1.857-.273 3.485-.818 4.884s-1.292 2.625-2.242 3.677c-.967 1.064-2.107 1.958-3.37 2.645-1.342.732-2.751 1.333-4.209 1.794v.323c1.954.324 3.741.875 5.359 1.656a13.74 13.74 0 0 1 4.169 3.05c1.158 1.253 2.058 2.732 2.702 4.442s.962 3.654.962 5.834c0 5.329-1.815 9.319-5.444 11.971s-9.16 3.977-16.587 3.977h-25.55v-3.473h1.091c.977 0 1.892-.067 2.742-.201s1.598-.41 2.242-.828 1.143-1.016 1.506-1.797.545-1.817.545-3.109v-40.537c0-1.213-.187-2.188-.565-2.928-.343-.702-.872-1.296-1.528-1.718-.642-.403-1.39-.666-2.243-.785a19.32 19.32 0 0 0-2.699-.182h-1.091v-3.472h22.995c7.427 0 12.958 1.19 16.587 3.572s5.446 6.117 5.446 11.205zm-28.232 40.134h8.337c2.428 0 4.481-.214 6.157-.646s3.042-1.124 4.104-2.078 1.829-2.2 2.304-3.736.711-3.406.711-5.613c0-2.153-.209-4.024-.629-5.613s-1.136-2.905-2.155-3.954-2.367-1.832-4.042-2.344-3.771-.766-6.284-.766h-8.503v24.75zm0-28.869h5.948c2.513 0 4.608-.216 6.284-.646s3.015-1.096 4.019-1.999 1.725-2.065 2.158-3.492.648-3.137.648-5.128c0-2.018-.236-3.709-.711-5.068s-1.242-2.456-2.304-3.291-2.436-1.427-4.126-1.775-3.748-.525-6.177-.525h-5.739v21.924zm56.084 28.869h16.545c1.367 0 2.533-.181 3.497-.544s1.765-.855 2.409-1.474 1.143-1.34 1.506-2.16.617-1.688.756-2.605l.587-3.552h4.481l-.586 14.454h-45.991v-3.473h1.089a19.08 19.08 0 0 0 2.702-.181c.788-.1 1.549-.354 2.24-.746.662-.398 1.194-.982 1.531-1.678.375-.738.564-1.715.564-2.925v-40.621c0-1.291-.181-2.327-.544-3.108s-.865-1.379-1.509-1.797a5.69 5.69 0 0 0-2.24-.827c-.85-.135-1.767-.202-2.744-.202h-1.089v-3.472h43.227l.417 14.454h-4.439l-.42-3.555a10.67 10.67 0 0 0-.649-2.602c-.31-.806-.78-1.541-1.382-2.16-.641-.646-1.412-1.149-2.262-1.474-.907-.363-2.004-.545-3.286-.545h-14.41v22.004H1822v4.039h-20.691v24.75zm80.922-5.976c1.451 2.208 2.861 3.863 4.23 4.967s2.958 1.655 4.775 1.655h.252v3.473h-1.216c-2.68 0-4.879-.095-6.597-.284s-3.177-.551-4.377-1.088a8.89 8.89 0 0 1-3.078-2.262c-.852-.97-1.767-2.235-2.744-3.796l-11.6-18.613h-7.122v17.04c0 1.21.189 2.187.564 2.925s.888 1.3 1.529 1.678 1.389.624 2.242.746a19.08 19.08 0 0 0 2.702.181h1.131v3.473h-24.964v-3.473h1.089a19.09 19.09 0 0 0 2.702-.181c.788-.1 1.549-.354 2.239-.746.644-.378 1.154-.937 1.529-1.678s.567-1.715.567-2.925v-40.942c0-1.213-.189-2.188-.567-2.928s-.885-1.313-1.529-1.718-1.387-.666-2.239-.785a19.53 19.53 0 0 0-2.702-.182h-1.089v-3.472h23.08c7.427 0 12.955 1.325 16.584 3.977s5.446 6.642 5.446 11.971c0 2.207-.37 4.139-1.111 5.794s-1.71 3.09-2.91 4.3-2.556 2.22-4.062 3.028-3.018 1.454-4.524 1.939l11.77 17.926zm-27.477-19.825h6.03c2.513 0 4.609-.269 6.284-.806s3.015-1.347 4.022-2.423 1.723-2.424 2.155-4.037.651-3.5.651-5.655c0-2.207-.238-4.084-.713-5.633s-1.243-2.811-2.304-3.795-2.436-1.695-4.124-2.138-3.751-.666-6.18-.666h-5.821v25.153z M991.425 735.369v-3.473h1.121c.91.005 1.818-.063 2.717-.203.845-.135 1.578-.41 2.2-.828.652-.451 1.169-1.072 1.494-1.795.373-.783.559-1.817.559-3.109V706.58h-27.633v19.381c0 1.292.186 2.326.559 3.109s.87 1.38 1.494 1.795 1.362.693 2.219.828c.893.139 1.794.207 2.697.203h1.121v3.473h-24.73v-3.473h1.079c.91.005 1.818-.063 2.717-.203.843-.135 1.583-.41 2.22-.828s1.133-1.014 1.494-1.795.539-1.817.539-3.109v-40.539c0-1.211-.186-2.188-.559-2.929s-.88-1.312-1.517-1.715-1.374-.666-2.219-.788a18.7 18.7 0 0 0-2.675-.181h-1.079v-3.473h24.73v3.473h-1.121c-.939 0-1.839.067-2.697.201s-1.598.41-2.219.828c-.652.452-1.168 1.074-1.494 1.797-.373.781-.559 1.817-.559 3.11v16.716h27.633v-16.716c0-1.293-.186-2.329-.559-3.11a4.38 4.38 0 0 0-1.494-1.797c-.622-.418-1.355-.694-2.2-.828a17.28 17.28 0 0 0-2.717-.201h-1.121v-3.473h24.73v3.473h-1.079c-.909-.005-1.818.063-2.716.201-.843.134-1.584.41-2.22.828a4.18 4.18 0 0 0-1.494 1.797c-.361.781-.539 1.817-.539 3.11v40.618c0 1.211.186 2.188.559 2.928s.88 1.298 1.516 1.676c.683.394 1.438.647 2.22.746.842.121 1.735.183 2.674.183h1.079v3.473h-24.73zm86.184-29.597c0 4.549-.579 8.695-1.743 12.436s-2.876 6.945-5.145 9.609-5.061 4.723-8.382 6.177-7.121 2.18-11.409 2.18c-4.509 0-8.439-.725-11.785-2.18s-6.127-3.512-8.342-6.177-3.872-5.876-4.978-9.629-1.661-7.922-1.661-12.498.554-8.727 1.661-12.456 2.766-6.91 4.978-9.55 5.009-4.676 8.382-6.117 7.318-2.16 11.827-2.16c4.288 0 8.078.721 11.37 2.16s6.072 3.487 8.339 6.139 3.985 5.839 5.145 9.568 1.743 7.894 1.743 12.498zm-44.024 0c0 4.091.311 7.745.932 10.962s1.626 5.936 3.01 8.155 3.174 3.918 5.372 5.089 4.877 1.757 8.031 1.757 5.829-.587 8.029-1.757c2.21-1.182 4.06-2.94 5.351-5.089 1.37-2.222 2.359-4.939 2.968-8.155s.913-6.871.913-10.962-.304-7.746-.913-10.962-1.598-5.931-2.968-8.138-3.139-3.888-5.311-5.046-4.833-1.738-7.987-1.738-5.836.58-8.051 1.738-4.017 2.839-5.414 5.046-2.406 4.919-3.03 8.138-.932 6.87-.932 10.962zm97.22 29.597l-31.866-47.646v38.238c0 1.292.186 2.326.559 3.109.325.723.842 1.344 1.494 1.795.67.435 1.428.718 2.219.828.893.139 1.794.207 2.697.203h1.121v3.473h-21.327v-3.473h1.079c.91.005 1.818-.063 2.717-.203.843-.135 1.583-.41 2.22-.828s1.133-1.014 1.494-1.795.539-1.817.539-3.109v-40.539c0-1.211-.186-2.188-.559-2.929s-.88-1.312-1.517-1.715-1.374-.666-2.219-.788a18.7 18.7 0 0 0-2.675-.181h-1.079v-3.473h15.561l30.415 45.707v-36.621c0-1.211-.187-2.188-.56-2.929s-.88-1.312-1.516-1.715-1.375-.666-2.22-.788-1.735-.181-2.677-.181h-1.118v-3.473h21.327v3.473h-1.079c-.909-.005-1.818.063-2.717.201-.845.134-1.583.41-2.22.828s-1.135 1.017-1.493 1.797-.54 1.817-.54 3.11v49.624h-6.06zm74.732-29.597c0 4.549-.581 8.695-1.742 12.436s-2.876 6.945-5.146 9.609-5.063 4.723-8.381 6.177-7.124 2.18-11.412 2.18c-4.509 0-8.436-.725-11.785-2.18s-6.127-3.512-8.339-6.177-3.873-5.876-4.979-9.629-1.66-7.922-1.66-12.498.554-8.727 1.66-12.456 2.767-6.91 4.979-9.55 5.006-4.676 8.382-6.117 7.317-2.16 11.826-2.16c4.288 0 8.076.721 11.37 2.16s6.07 3.487 8.339 6.139 3.985 5.839 5.146 9.568 1.742 7.894 1.742 12.498zm-44.026 0c0 4.091.313 7.745.934 10.962s1.626 5.936 3.008 8.155 3.174 3.918 5.374 5.089 4.877 1.757 8.029 1.757 5.831-.587 8.029-1.757a13.9 13.9 0 0 0 5.354-5.089c1.37-2.222 2.359-4.939 2.968-8.155s.912-6.871.912-10.962-.306-7.746-.912-10.962-1.598-5.931-2.968-8.138-3.14-3.888-5.312-5.046-4.835-1.738-7.987-1.738-5.838.58-8.051 1.738-4.017 2.839-5.414 5.046-2.408 4.919-3.03 8.138-.934 6.87-.934 10.962zm95.977 19.503c1.439 2.207 2.836 3.862 4.191 4.966s2.933 1.655 4.73 1.655h.251v3.473h-1.205c-2.655 0-4.832-.094-6.535-.283s-3.147-.552-4.335-1.092c-1.168-.523-2.209-1.294-3.05-2.259s-1.75-2.235-2.719-3.796l-11.494-18.615h-7.055v17.039c0 1.211.189 2.188.562 2.928a3.95 3.95 0 0 0 1.514 1.676c.636.378 1.377.626 2.22.746.887.125 1.781.186 2.677.183h1.121v3.473h-24.733v-3.473h1.079c.896.003 1.79-.058 2.677-.183.782-.099 1.537-.352 2.22-.746.636-.378 1.141-.935 1.516-1.676s.559-1.717.559-2.928v-40.941c0-1.211-.186-2.188-.559-2.929s-.88-1.312-1.516-1.715-1.375-.666-2.22-.788-1.735-.181-2.677-.181h-1.079v-3.473h22.864c7.36 0 12.836 1.325 16.433 3.977s5.393 6.642 5.393 11.972c0 2.207-.365 4.138-1.098 5.794s-1.695 3.089-2.884 4.3c-1.182 1.206-2.54 2.228-4.026 3.03-1.494.805-2.988 1.452-4.482 1.936l11.66 17.93zm-27.221-19.826h5.976c2.491 0 4.566-.269 6.224-.808s2.988-1.345 3.985-2.424 1.707-2.421 2.137-4.036.642-3.5.642-5.653c0-2.207-.234-4.086-.704-5.632s-1.233-2.814-2.284-3.796-2.414-1.695-4.087-2.14-3.713-.666-6.119-.666h-5.77v25.155z M931.197 561.117l-57.847-72.602v58.267c0 1.969.34 3.547 1.019 4.738s1.581 2.1 2.709 2.737 2.474 1.056 4.032 1.262 3.187.306 4.895.306h2.033v5.292h-38.715v-5.292h1.959c1.757 0 3.403-.102 4.934-.306s2.873-.626 4.029-1.262a6.78 6.78 0 0 0 2.712-2.737c.654-1.188.98-2.769.98-4.738v-61.774c0-1.847-.341-3.333-1.017-4.462a6.99 6.99 0 0 0-2.749-2.615c-1.154-.616-2.498-1.014-4.03-1.198a40.75 40.75 0 0 0-4.859-.278h-1.959v-5.292h28.245l55.21 69.651v-55.806c0-1.847-.338-3.333-1.017-4.462-.657-1.108-1.609-2.014-2.749-2.615-1.156-.614-2.498-1.014-4.029-1.198a40.02 40.02 0 0 0-4.857-.278h-2.036v-5.292h38.714v5.292h-1.958c-1.758 0-3.401.102-4.932.308-1.41.166-2.776.594-4.029 1.26-1.156.636-2.061 1.549-2.712 2.739s-.979 2.769-.979 4.738v75.617h-10.997zm61.158-30.087l-5.874 13.229a17.67 17.67 0 0 0-1.054 2.923c-.251.962-.378 1.795-.378 2.491 0 2.133.843 3.691 2.523 4.676s4.256 1.476 7.721 1.476h3.539v5.292h-37.658v-5.292h2.936c1.506 0 2.789-.132 3.843-.4s2.039-.786 2.861-1.506c.852-.739 1.67-1.743 2.448-3.015s1.646-2.911 2.598-4.922l34.195-74.819h12.051l34.874 77.956c.602 1.312 1.218 2.401 1.845 3.261a7.54 7.54 0 0 0 2.222 2.061 8.75 8.75 0 0 0 2.938 1.078c1.103.204 2.411.306 3.917.306h2.034v5.292h-42.406v-5.292h3.539c6.177 0 9.264-2.008 9.264-6.028a7.3 7.3 0 0 0-.338-2.155c-.226-.738-.539-1.578-.942-2.523l-6.177-14.089h-40.521zm28.17-28.364l-4.407-10.489c-1.268-3.085-2.362-6.239-3.276-9.446l-1.243 4.4-1.544 4.337-1.881 4.646-2.411 5.384-10.47 23.194h34.797l-9.565-22.026zm95.053 44.116c0 1.969.34 3.547 1.016 4.738a7.09 7.09 0 0 0 2.712 2.737c1.129.636 2.474 1.056 4.03 1.262a37.1 37.1 0 0 0 4.896.306h3.54v5.292h-47.979v-5.292h3.54a40.67 40.67 0 0 0 4.859-.276c1.532-.184 2.874-.564 4.03-1.138s2.07-1.424 2.749-2.553 1.017-2.615 1.017-4.462v-69.957h-14.763c-2.259 0-4.156.278-5.687.83s-2.787 1.303-3.766 2.247c-.964.921-1.711 2.045-2.185 3.291a18.51 18.51 0 0 0-1.017 3.97l-.827 5.414h-7.984l.753-22.028h86.842l.753 22.028h-7.984l-.753-5.414c-.199-1.395-.552-2.719-1.054-3.97a9.6 9.6 0 0 0-2.185-3.291c-.954-.942-2.207-1.692-3.765-2.247s-3.49-.83-5.8-.83h-14.988v69.343zm45.493 14.335v-5.292h1.959c1.757 0 3.402-.102 4.934-.306s2.873-.626 4.029-1.262a6.78 6.78 0 0 0 2.712-2.737c.654-1.188.979-2.769.979-4.738V485.5c0-1.969-.328-3.549-.979-4.738-.62-1.156-1.562-2.107-2.712-2.739-1.156-.634-2.498-1.056-4.029-1.26s-3.177-.308-4.934-.308h-1.959v-5.292h44.891v5.292h-2.033c-1.708 0-3.341.102-4.897.308s-2.901.626-4.029 1.26-2.033 1.549-2.712 2.739-1.017 2.769-1.017 4.738v61.282c0 1.969.339 3.547 1.017 4.738a7.09 7.09 0 0 0 2.712 2.737c1.131.636 2.473 1.056 4.029 1.262 1.624.21 3.26.312 4.897.306h2.033v5.292h-44.891zm156.439-45.1c0 6.932-1.054 13.249-3.164 18.951s-5.223 10.584-9.339 14.643-9.189 7.199-15.215 9.416-12.93 3.321-20.713 3.321c-8.185 0-15.314-1.107-21.389-3.321s-11.124-5.354-15.141-9.416-7.029-8.951-9.038-14.673-3.012-12.071-3.012-19.043 1.004-13.301 3.012-18.981 5.021-10.532 9.038-14.553 9.088-7.127 15.215-9.322 13.281-3.291 21.467-3.291c7.782 0 14.66 1.099 20.636 3.291s11.021 5.312 15.14 9.354 7.231 8.901 9.339 14.581 3.164 12.028 3.164 19.043zm-79.915 0c0 6.236.565 11.804 1.695 16.706s2.951 9.043 5.462 12.429 5.761 5.968 9.753 7.752 8.849 2.675 14.574 2.675 10.582-.892 14.574-2.675 7.23-4.369 9.716-7.752 4.281-7.527 5.387-12.429 1.655-10.47 1.655-16.706-.552-11.802-1.655-16.704-2.901-9.035-5.387-12.399-5.7-5.925-9.639-7.69-8.775-2.645-14.499-2.645-10.597.882-14.614 2.645-7.293 4.327-9.828 7.69-4.37 7.497-5.499 12.399-1.695 10.47-1.695 16.704zm176.474 45.1l-57.844-72.602v58.267c0 1.969.338 3.547 1.016 4.738a7.09 7.09 0 0 0 2.712 2.737c1.129.636 2.471 1.056 4.03 1.262a37.32 37.32 0 0 0 4.894.306h2.033v5.292h-38.712v-5.292h1.956c1.758 0 3.403-.102 4.934-.306a11.4 11.4 0 0 0 4.03-1.262c1.153-.637 2.058-1.549 2.712-2.737s.979-2.769.979-4.738v-61.774c0-1.847-.338-3.333-1.017-4.462-.657-1.108-1.609-2.014-2.749-2.615-1.156-.614-2.498-1.014-4.029-1.198s-3.152-.278-4.86-.278h-1.956v-5.292h28.242l55.21 69.651v-55.806c0-1.847-.338-3.333-1.017-4.462-.657-1.108-1.609-2.014-2.749-2.615-1.153-.614-2.498-1.014-4.029-1.198a40.02 40.02 0 0 0-4.857-.278h-2.033v-5.292h38.712v5.292h-1.956c-1.758 0-3.403.102-4.935.308a11.44 11.44 0 0 0-4.029 1.26 6.76 6.76 0 0 0-2.712 2.739c-.651 1.191-.979 2.769-.979 4.738v75.617h-10.997zm61.161-30.087l-5.877 13.229c-.436.942-.789 1.92-1.053 2.923-.252.962-.378 1.795-.378 2.491 0 2.133.842 3.691 2.523 4.676s4.255 1.476 7.72 1.476h3.54v5.292h-37.658v-5.292h2.938c1.506 0 2.786-.132 3.84-.4a6.94 6.94 0 0 0 2.861-1.506c.853-.739 1.671-1.743 2.449-3.015s1.645-2.911 2.6-4.922l34.193-74.819h12.053l34.872 77.956c.601 1.312 1.218 2.401 1.844 3.261a7.56 7.56 0 0 0 2.222 2.061c.855.514 1.835.872 2.938 1.078s2.411.306 3.918.306h2.033v5.292h-42.406v-5.292h3.54c6.177 0 9.264-2.008 9.264-6.028-.005-.731-.119-1.457-.338-2.155-.226-.738-.54-1.578-.942-2.523l-6.175-14.089h-40.521zm28.167-28.364l-4.404-10.489a88.55 88.55 0 0 1-3.279-9.446l-1.243 4.4-1.543 4.337-1.882 4.646-2.411 5.384-10.47 23.194h34.797l-9.565-22.026zm55.285 58.451v-5.292h1.958c1.758 0 3.403-.102 4.934-.306s2.874-.626 4.03-1.262a6.78 6.78 0 0 0 2.712-2.737c.654-1.188.979-2.769.979-4.738V485.5c0-1.969-.328-3.549-.979-4.738a6.76 6.76 0 0 0-2.712-2.739c-1.156-.636-2.498-1.056-4.03-1.26s-3.176-.308-4.934-.308h-1.958v-5.292h44.891v5.292h-2.033c-1.708 0-3.328.092-4.86.278s-2.873.584-4.029 1.198-2.071 1.487-2.749 2.615-1.017 2.615-1.017 4.462v69.833h30.43c2.309 0 4.28-.338 5.911-1.014s2.975-1.559 4.032-2.645a11.91 11.91 0 0 0 2.446-3.662c.562-1.298.955-2.663 1.168-4.061l1.506-9.413h8.059l-1.054 27.071h-82.701zm188.601-91.244c5.272 0 9.854.357 13.746 1.076s7.129 1.712 9.714 2.983 4.519 2.769 5.802 4.491 1.919 3.59 1.919 5.601c0 1.352-.338 2.572-1.017 3.661s-1.618 2.008-2.824 2.767-2.625 1.344-4.255 1.754-3.403.614-5.31.614c0-1.968-.315-3.915-.942-5.843a13.86 13.86 0 0 0-3.087-5.2c-1.429-1.539-3.291-2.789-5.575-3.754s-5.108-1.444-8.474-1.444c-5.824 0-10.77.87-14.837 2.615s-7.383 4.285-9.943 7.628-4.417 7.465-5.573 12.367-1.732 10.512-1.732 16.828c0 5.62.601 10.768 1.807 15.443s3.114 8.688 5.724 12.029 5.939 5.938 9.98 7.785 8.902 2.769 14.574 2.769c3.766 0 7.094-.298 9.98-.892s5.436-1.385 7.646-2.369c2.073-.905 4.032-2.051 5.836-3.416 1.683-1.292 3.177-2.634 4.482-4.029.84.439 1.564 1.071 2.11 1.844.552.781.828 1.805.828 3.078 0 1.598-.666 3.229-1.996 4.892s-3.353 3.166-6.062 4.521-6.152 2.471-10.321 3.353-9.112 1.323-14.837 1.323c-7.683 0-14.437-1.107-20.261-3.321s-10.708-5.354-14.651-9.416-6.915-8.941-8.923-14.643-3.013-12.019-3.013-18.951c0-6.808 1.054-13.043 3.162-18.705s5.235-10.519 9.378-14.581 9.302-7.218 15.479-9.475 13.331-3.383 21.466-3.383zm72.457 84.968h29.751c2.461 0 4.559-.276 6.289-.83s3.176-1.303 4.332-2.245c1.119-.901 2.042-2.022 2.712-3.293.651-1.251 1.104-2.573 1.355-3.968l1.054-5.413h8.058l-1.054 22.025h-82.698v-5.292h1.956a40.67 40.67 0 0 0 4.859-.276c1.531-.184 2.874-.564 4.03-1.138s2.07-1.424 2.749-2.553 1.016-2.615 1.016-4.462V485.5c0-1.969-.325-3.549-.979-4.738s-1.556-2.103-2.712-2.739a11.44 11.44 0 0 0-4.029-1.26c-1.531-.206-3.177-.308-4.934-.308h-1.956v-5.292h77.727l.753 22.028h-7.984l-.753-5.414c-.199-1.395-.589-2.719-1.166-3.97s-1.407-2.349-2.486-3.291-2.435-1.692-4.066-2.247-3.604-.83-5.914-.83h-25.91v33.534h37.208v6.152h-37.208v37.716zm157.79 6.276v-5.292h.527c1.658 0 3.151-.092 4.481-.276s2.461-.554 3.391-1.108 1.67-1.353 2.222-2.399.877-2.431.979-4.154v-67.31l-35.326 80.539h-8.36l-35.776-80.293v65.958c0 1.969.251 3.547.753 4.738s1.243 2.1 2.222 2.737 2.16 1.056 3.54 1.262 2.925.306 4.633.306h.45v5.292h-35.625v-5.292h1.959c1.708 0 3.326-.092 4.857-.276s2.876-.564 4.029-1.138a6.54 6.54 0 0 0 2.749-2.553c.679-1.128 1.017-2.615 1.017-4.462v-62.388c0-1.847-.338-3.333-1.017-4.462a6.99 6.99 0 0 0-2.749-2.615c-1.156-.616-2.498-1.014-4.029-1.198a40.02 40.02 0 0 0-4.857-.278h-1.959v-5.292h35.175l31.934 72.05 31.635-72.05h34.196v5.292h-1.959c-1.757 0-3.403.102-4.934.308-1.41.166-2.776.594-4.029 1.26-1.156.636-2.058 1.549-2.712 2.739s-.98 2.769-.98 4.738v61.282c0 1.969.326 3.547.98 4.738s1.556 2.1 2.712 2.737 2.498 1.056 4.029 1.262 3.177.306 4.934.306h1.959v5.292h-41.051zm83-6.276h29.751c2.461 0 4.559-.276 6.289-.83s3.176-1.303 4.332-2.245c1.119-.901 2.042-2.022 2.712-3.293.651-1.251 1.104-2.573 1.355-3.968l1.054-5.413h8.058l-1.053 22.025h-82.699v-5.292h1.956c1.624.005 3.247-.087 4.859-.276 1.532-.184 2.874-.564 4.03-1.138s2.07-1.424 2.749-2.553 1.017-2.615 1.017-4.462V485.5c0-1.969-.326-3.549-.98-4.738s-1.556-2.103-2.712-2.739c-1.253-.666-2.619-1.094-4.029-1.26-1.531-.206-3.177-.308-4.934-.308h-1.956v-5.292h77.727l.753 22.028h-7.984l-.753-5.414c-.199-1.395-.589-2.719-1.166-3.97s-1.407-2.349-2.485-3.291-2.436-1.692-4.067-2.247-3.604-.83-5.913-.83h-25.911v33.534h37.208v6.152h-37.208v37.716z M2175.47 546.782c0 1.969.338 3.547 1.017 4.738.633 1.145 1.572 2.093 2.712 2.737 1.131.636 2.473 1.056 4.029 1.262 1.624.21 3.259.312 4.897.306h3.539v5.292h-47.978v-5.292h3.539c1.708 0 3.326-.092 4.857-.276s2.876-.564 4.032-1.138 2.071-1.424 2.749-2.553 1.017-2.615 1.017-4.462v-69.957h-14.763c-2.259 0-4.156.278-5.687.83s-2.786 1.303-3.766 2.247c-.964.921-1.711 2.045-2.185 3.291-.484 1.282-.825 2.613-1.016 3.97l-.828 5.414h-7.984l.753-22.028h86.843l.753 22.028h-7.984l-.753-5.414c-.202-1.395-.552-2.719-1.054-3.97s-1.231-2.349-2.185-3.291-2.21-1.692-3.766-2.247-3.49-.83-5.799-.83h-14.989v69.343zm75.697 8.059h29.751c2.461 0 4.556-.276 6.289-.83s3.176-1.303 4.33-2.245 2.058-2.041 2.712-3.293 1.103-2.573 1.354-3.968l1.057-5.413h8.058l-1.054 22.025h-82.701v-5.292h1.959a40.74 40.74 0 0 0 4.857-.276c1.531-.184 2.876-.564 4.029-1.138a6.54 6.54 0 0 0 2.749-2.553c.679-1.128 1.017-2.615 1.017-4.462V485.5c0-1.969-.326-3.549-.979-4.738-.619-1.156-1.56-2.108-2.71-2.739-1.156-.634-2.498-1.056-4.032-1.26a37.4 37.4 0 0 0-4.931-.308h-1.959v-5.292h77.73l.753 22.028h-7.984l-.753-5.414c-.195-1.373-.589-2.71-1.168-3.97s-1.432-2.384-2.486-3.291c-1.079-.944-2.433-1.692-4.067-2.247s-3.601-.83-5.913-.83h-25.908v33.534h37.208v6.152h-37.208v37.716zm145.517-9.105c2.61 3.363 5.145 5.886 7.606 7.569s5.322 2.52 8.586 2.52h.452v5.292h-2.182c-4.823 0-8.777-.144-11.865-.43s-5.712-.84-7.869-1.66-4.005-1.971-5.538-3.448-3.175-3.403-4.932-5.782l-20.865-28.364h-12.804v25.963c0 1.847.338 3.334 1.017 4.462a6.57 6.57 0 0 0 2.749 2.553c1.154.574 2.498.954 4.029 1.138 1.613.189 3.236.281 4.86.276h2.033v5.292h-44.891v-5.292h1.958c1.708 0 3.326-.092 4.86-.276s2.873-.564 4.029-1.138 2.071-1.424 2.749-2.553 1.017-2.615 1.017-4.462v-62.388c0-1.847-.34-3.333-1.017-4.462-.657-1.108-1.609-2.014-2.749-2.615-1.153-.616-2.498-1.014-4.029-1.198a40.07 40.07 0 0 0-4.86-.278h-1.958v-5.292h41.501c13.358 0 23.298 2.02 29.828 6.062s9.791 10.119 9.791 18.243c0 3.363-.666 6.306-1.996 8.829-1.312 2.497-3.089 4.721-5.235 6.552-2.16 1.847-4.596 3.383-7.305 4.616s-5.424 2.215-8.136 2.953l21.166 27.318zm-49.411-30.211h10.845c4.522 0 8.288-.41 11.3-1.231s5.422-2.05 7.231-3.691 3.1-3.691 3.878-6.152 1.168-5.332 1.168-8.615c0-3.364-.427-6.225-1.28-8.584s-2.235-4.285-4.144-5.781-4.379-2.585-7.419-3.261-6.742-1.017-11.109-1.017h-10.47v38.332zm85.036 45.592v-5.292h3.539c1.624.005 3.247-.087 4.86-.276 1.531-.184 2.873-.564 4.029-1.138s2.071-1.424 2.749-2.553 1.017-2.615 1.017-4.462v-23.81l-28.546-40.485-2.411-3.047c-.753-.84-1.543-1.526-2.371-2.061s-1.745-.922-2.749-1.168-2.16-.37-3.465-.37h-1.959v-5.292h42.406v5.292h-5.725c-1.407 0-2.55.102-3.427.308s-1.569.492-2.071.862-.843.798-1.017 1.29-.265 1.015-.263 1.539c0 1.191.313 2.379.939 3.57l1.847 3.137 11.372 16.857c1.807 2.586 3.341 5.138 4.596 7.661l3.162 6.739 1.695-3.015 2.26-3.54 2.597-3.875 2.712-3.97 9.869-14.456c1.004-1.437 1.72-2.802 2.145-4.092s.641-2.451.641-3.477c0-1.847-.803-3.232-2.411-4.154s-3.89-1.384-6.853-1.384h-4.519v-5.292h37.658v5.292h-1.807c-1.104 0-2.145.154-3.125.462s-1.971.84-2.975 1.598-2.046 1.765-3.127 3.015-2.272 2.822-3.577 4.708l-25.911 37.348v23.196c0 1.969.328 3.547.98 4.738a6.75 6.75 0 0 0 2.712 2.737c1.155.636 2.498 1.056 4.029 1.262 1.611.209 3.235.311 4.859.306h3.615v5.292h-47.979zM924.099 333.229l-10.447 23.122a30.64 30.64 0 0 0-1.874 5.108c-.445 1.686-.669 3.137-.669 4.355 0 3.729 1.494 6.453 4.487 8.173s7.566 2.583 13.728 2.583h6.294v9.246h-66.967v-9.246h5.222c2.68 0 4.957-.234 6.831-.701s3.572-1.343 5.091-2.635 2.968-3.045 4.352-5.27 2.923-5.09 4.621-8.603l60.807-130.774h21.43l62.013 136.26c1.071 2.295 2.165 4.194 3.281 5.7s2.433 2.707 3.952 3.602 3.259 1.523 5.222 1.881 4.286.54 6.965.54h3.617v9.246h-75.406v-9.246h6.294c10.984 0 16.475-3.515 16.475-10.54 0-1.22-.201-2.475-.604-3.765a44.65 44.65 0 0 0-1.673-4.41l-10.984-24.626h-72.058zm50.094-49.579l-7.837-18.337c-2.364-5.7-4.308-11.201-5.824-16.508l-2.212 7.691-2.745 7.581-3.348 8.119-4.285 9.41-18.618 40.545h61.879l-17.01-38.501zm239.879 75.281c4.643 5.879 9.152 10.289 13.527 13.229s9.466 4.41 15.27 4.41h.803v9.246h-3.883c-8.573 0-15.605-.251-21.096-.75s-10.156-1.472-13.997-2.906-7.119-3.44-9.843-6.02-5.648-5.951-8.772-10.11l-37.102-49.579h-22.768v45.384c0 3.226.601 5.826 1.807 7.797a11.6 11.6 0 0 0 4.889 4.464c2.053 1.002 4.442 1.666 7.166 1.989 2.867.331 5.752.493 8.638.485h3.617v9.246h-79.826v-9.246h3.483a73.53 73.53 0 0 0 8.637-.485c2.725-.323 5.114-.987 7.167-1.989 2.028-.981 3.727-2.533 4.889-4.464 1.206-1.971 1.807-4.571 1.807-7.797v-109.05c0-3.227-.601-5.827-1.807-7.798a12.34 12.34 0 0 0-4.889-4.571c-2.053-1.076-4.442-1.772-7.167-2.095a73.1 73.1 0 0 0-8.637-.485h-3.483v-9.249h73.798c23.753 0 41.431 3.532 53.04 10.594s17.412 17.69 17.412 31.886c0 5.879-1.183 11.024-3.55 15.434a38.77 38.77 0 0 1-9.309 11.454c-3.84 3.226-8.17 5.913-12.992 8.063-4.677 2.102-9.514 3.828-14.465 5.163l37.636 47.75zm-87.861-52.803h19.286c8.036 0 14.733-.719 20.089-2.153s9.645-3.584 12.859-6.453 5.513-6.45 6.898-10.753 2.075-9.321 2.075-15.056c0-5.878-.758-10.879-2.277-15.003s-3.972-7.492-7.365-10.109-7.79-4.517-13.194-5.7-11.986-1.775-19.754-1.775h-18.617v67.002zm126.168 79.688v-9.246h3.483c3.124 0 6.047-.179 8.772-.54s5.113-1.093 7.166-2.204 3.661-2.707 4.822-4.785 1.74-4.84 1.74-8.28V253.645c0-3.44-.579-6.202-1.74-8.28a11.93 11.93 0 0 0-4.822-4.787c-2.053-1.111-4.442-1.845-7.166-2.205a67.01 67.01 0 0 0-8.772-.537h-3.483v-9.249h79.826v9.249h-3.617a73.12 73.12 0 0 0-8.638.485c-2.724.323-5.113 1.021-7.166 2.095-2.02 1.044-3.713 2.626-4.889 4.571-1.206 1.971-1.808 4.571-1.808 7.798v122.062h54.111c4.107 0 7.612-.591 10.512-1.775s5.292-2.724 7.167-4.623 3.325-4.032 4.352-6.398 1.72-4.733 2.076-7.099l2.679-16.453h14.333l-1.877 47.317h-147.061zm170.901 0v-9.246h3.483c3.127 0 6.05-.179 8.774-.54s5.111-1.093 7.164-2.204c2.037-1.094 3.712-2.757 4.822-4.785 1.161-2.078 1.743-4.84 1.743-8.28V253.645c0-3.44-.582-6.202-1.743-8.28a11.93 11.93 0 0 0-4.822-4.787c-2.056-1.111-4.442-1.845-7.164-2.205-2.91-.37-5.841-.549-8.774-.537h-3.483v-9.249h79.828v9.249h-3.617c-3.035 0-5.938.179-8.704.537s-5.158 1.094-7.167 2.205-3.616 2.707-4.822 4.787-1.807 4.84-1.807 8.28v107.116c0 3.44.601 6.202 1.807 8.28s2.814 3.673 4.822 4.785 4.397 1.846 7.167 2.204c2.886.368 5.794.548 8.704.54h3.617v9.246h-79.828zm246.31 0l-102.863-126.901v101.846c0 3.44.604 6.202 1.809 8.28s2.812 3.673 4.82 4.785 4.4 1.846 7.166 2.204 5.67.54 8.708.54h3.614v9.246h-68.841v-9.246h3.48c3.127 0 6.05-.179 8.774-.54s5.111-1.093 7.166-2.204 3.659-2.707 4.82-4.785 1.743-4.84 1.743-8.28V252.785c0-3.227-.604-5.827-1.81-7.798s-2.834-3.495-4.887-4.571-4.442-1.772-7.166-2.095a73.15 73.15 0 0 0-8.64-.485h-3.48v-9.249h50.226l98.174 121.741v-97.543c0-3.227-.604-5.827-1.809-7.798a12.34 12.34 0 0 0-4.887-4.571c-2.053-1.076-4.442-1.772-7.166-2.095s-5.603-.485-8.638-.485h-3.617v-9.249h68.844v9.249h-3.483c-2.933-.012-5.864.167-8.774.537-2.722.36-5.111 1.094-7.164 2.205a11.93 11.93 0 0 0-4.822 4.787c-1.161 2.081-1.742 4.84-1.742 8.28v132.171h-19.555zm163.27 2.153c-15.894 0-29.757-1.936-41.588-5.809s-21.653-9.356-29.466-16.453-13.639-15.63-17.479-25.595-5.76-21.009-5.76-33.124c0-11.902 2.031-22.799 6.095-32.694a67.79 67.79 0 0 1 18.215-25.489c8.081-7.099 18.104-12.617 30.07-16.562s25.849-5.913 41.653-5.913c10.178 0 19.042.626 26.586 1.881s13.841 2.993 18.887 5.215 8.816 4.84 11.317 7.853 3.749 6.271 3.749 9.786c0 2.366-.669 4.499-2.009 6.398s-3.147 3.512-5.424 4.84-4.956 2.349-8.036 3.064-6.406 1.077-9.977 1.077c-.01-3.49-.645-6.951-1.877-10.216-1.25-3.371-3.304-6.401-6.16-9.088s-6.609-4.877-11.252-6.562-10.314-2.526-17.01-2.526c-11.608 0-21.496 1.524-29.667 4.569s-14.844 7.494-20.022 13.336-8.929 13.05-11.25 21.618-3.483 18.371-3.483 29.413c0 10.969 1.206 20.721 3.615 29.251s6.341 15.703 11.787 21.509 12.5 10.216 21.163 13.229 19.242 4.516 31.742 4.516c5.119.006 10.236-.209 15.337-.646 4.954-.43 9.351-1.111 13.191-2.043v-35.488c0-3.227-.601-5.827-1.807-7.798a11.95 11.95 0 0 0-4.889-4.516c-2.053-1.039-4.442-1.74-7.166-2.098s-5.603-.537-8.638-.537h-1.071v-9.249h71.252v9.249h-1.071c-2.466-.009-4.928.17-7.366.537-2.321.358-4.33 1.093-6.027 2.205s-3.035 2.724-4.017 4.839-1.474 4.894-1.474 8.335v39.577a154.76 154.76 0 0 1-28.394 7.636c-9.732 1.65-20.492 2.473-32.279 2.473zm178-27.208c0 3.44.604 6.202 1.809 8.28 1.135 2.009 2.805 3.665 4.823 4.785 2.008 1.111 4.397 1.846 7.163 2.204s5.67.54 8.708.54h6.293v9.246h-85.316v-9.246h6.294a73.58 73.58 0 0 0 8.64-.485c2.722-.323 5.111-.987 7.164-1.989s3.684-2.493 4.889-4.464 1.81-4.571 1.81-7.797V239.556h-26.254c-4.017 0-7.387.485-10.112 1.452s-4.954 2.277-6.696 3.927-3.035 3.567-3.883 5.752a31.99 31.99 0 0 0-1.809 6.938l-1.474 9.463h-14.196l1.34-38.501h154.428l1.34 38.501h-14.199l-1.339-9.463c-.356-2.439-.982-4.751-1.874-6.938-.88-2.167-2.204-4.126-3.886-5.752-1.695-1.65-3.927-2.958-6.696-3.927s-6.207-1.452-10.313-1.452h-26.654v121.205zm252.874-53.773c0 12.115-1.877 23.157-5.628 33.124s-9.284 18.496-16.607 25.595-16.341 12.583-27.054 16.453-22.992 5.809-36.833 5.809c-14.556 0-27.233-1.936-38.038-5.809s-19.779-9.356-26.923-16.453-12.5-15.647-16.07-25.65-5.359-21.096-5.359-33.285 1.787-23.247 5.359-33.177 8.929-18.409 16.07-25.433 16.162-12.459 27.057-16.294 23.616-5.755 38.173-5.755c13.837 0 26.072 1.919 36.696 5.755s19.6 9.284 26.922 16.346 12.859 15.558 16.607 25.488 5.628 21.026 5.628 33.286zm-142.107 0c0 10.897 1.004 20.631 3.013 29.197s5.244 15.809 9.711 21.725 10.246 10.432 17.343 13.552 15.739 4.678 25.918 4.678 18.817-1.561 25.916-4.678 12.858-7.636 17.278-13.552 7.611-13.157 9.577-21.725 2.946-18.3 2.946-29.197-.982-20.631-2.946-29.2-5.157-15.791-9.577-21.67-10.134-10.36-17.144-13.442-15.602-4.624-25.781-4.624-18.842 1.541-25.986 4.624-12.968 7.564-17.479 13.442-7.768 13.102-9.776 21.67-3.013 18.303-3.013 29.2zm313.813 78.828l-102.865-126.901v101.846c0 3.44.604 6.202 1.81 8.28 1.134 2.009 2.804 3.665 4.822 4.785 2.008 1.111 4.397 1.846 7.164 2.204a67.84 67.84 0 0 0 8.707.54h3.617v9.246h-68.844v-9.246h3.482c3.125 0 6.048-.179 8.772-.54s5.114-1.093 7.167-2.204 3.661-2.707 4.822-4.785 1.74-4.84 1.74-8.28V252.785c0-3.227-.602-5.827-1.807-7.798s-2.836-3.495-4.89-4.571-4.441-1.772-7.166-2.095c-2.867-.332-5.751-.494-8.638-.485h-3.482v-9.249h50.226l98.175 121.741v-97.543c0-3.227-.602-5.827-1.808-7.798a12.34 12.34 0 0 0-4.889-4.571c-2.053-1.076-4.442-1.772-7.166-2.095a73.12 73.12 0 0 0-8.638-.485h-3.617v-9.249h68.844v9.249h-3.482c-3.125 0-6.051.179-8.772.537s-5.113 1.094-7.167 2.205a11.93 11.93 0 0 0-4.822 4.787c-1.161 2.078-1.74 4.84-1.74 8.28v132.171h-19.555z"/>
        <circle cx="1964.33" cy="705.792" r="8.859"/>
        <circle cx="1338.23" cy="705.792" r="8.859"/>
        <path d="M869.202 623.958h1612.04" fill="none" stroke="currentColor" stroke-width="4.75"/>
        <path d="M658.053 503.711l.398-1.244c6.613-20.93 36.164-21.133 43.196-.478l.587 1.722 2.149.005c9.989 0 18.465 6.135 21.591 15.618s-.046 19.484-8.118 25.421l-1.492 1.097.801 2.521c6.395 20.239-16.872 38.486-34.851 25.377l-2.11-1.497-2.051 1.443c-15.691 11.26-42.334-2.084-34.925-25.345l.792-2.496-1.463-1.076c-17.567-12.87-8.721-41.063 13.388-41.063l2.108-.005zm48.134 22.144a1.87 1.87 0 0 1-.679 2.12l-13.519 9.949 5.311 16.726c.534 1.691-1.406 3.22-2.926 2.112l-14.113-10.018-14.255 10.026c-1.312.941-3.539-.175-2.919-2.122l5.304-16.724-13.521-9.951c-1.466-1.074-.722-3.424 1.127-3.424l17.278-.042 5.041-15.763c.553-1.75 3.023-1.762 3.611-.035l5.383 15.798 17.073.042a1.87 1.87 0 0 1 1.804 1.306zm19.789-6.514l-.005-.014.005.014z M580.996 503.711l.398-1.244c6.614-20.93 36.164-21.133 43.197-.478l.586 1.722 2.149.005c9.99 0 18.466 6.135 21.591 15.618s-.046 19.484-8.117 25.421l-1.492 1.097.8 2.521c6.396 20.239-16.871 38.486-34.85 25.377l-2.11-1.497-2.052 1.443c-15.69 11.26-42.333-2.084-34.924-25.345l.791-2.496-1.462-1.076c-17.567-12.87-8.721-41.063 13.388-41.063l2.107-.005zm48.135 22.144c.261.791-.006 1.625-.68 2.12l-13.519 9.949 5.311 16.726c.535 1.691-1.406 3.22-2.926 2.112l-14.113-10.018-14.255 10.026c-1.311.941-3.538-.175-2.918-2.122l5.303-16.724-13.521-9.951c-1.465-1.074-.721-3.424 1.127-3.424l17.279-.042 5.04-15.763c.553-1.75 3.024-1.762 3.612-.035l5.383 15.798 17.072.042c.835 0 1.544.513 1.805 1.306zm19.789-6.514l-.005-.014.005.014z M424.398 503.711l.398-1.244c6.614-20.93 36.164-21.133 43.196-.478l.587 1.722 2.149.005c9.989 0 18.466 6.135 21.591 15.618s-.046 19.484-8.118 25.421l-1.491 1.097.8 2.521c6.395 20.239-16.871 38.486-34.851 25.377l-2.109-1.497-2.052 1.443c-15.69 11.26-42.333-2.084-34.924-25.345l.791-2.496-1.462-1.076c-17.567-12.87-8.722-41.063 13.387-41.063l2.108-.005zm48.134 22.144c.261.791-.005 1.625-.679 2.12l-13.519 9.949 5.311 16.726c.534 1.691-1.406 3.22-2.926 2.112l-14.113-10.018-14.255 10.026c-1.312.941-3.539-.175-2.918-2.122l5.303-16.724-13.521-9.951c-1.466-1.074-.722-3.424 1.127-3.424l17.279-.042 5.04-15.763c.553-1.75 3.023-1.762 3.611-.035l5.384 15.798 17.072.042a1.87 1.87 0 0 1 1.804 1.306zm19.789-6.514l-.004-.014.004.014z"/><use xlink:href="#B"/>
        <path d="M344.856 503.711l.398-1.244c6.614-20.93 36.164-21.133 43.196-.478l.587 1.722 2.149.005c9.989 0 18.465 6.135 21.591 15.618s-.046 19.484-8.118 25.421l-1.491 1.097.8 2.521c6.395 20.239-16.871 38.486-34.851 25.377l-2.109-1.497-2.052 1.443c-15.69 11.26-42.333-2.084-34.924-25.345l.791-2.496-1.462-1.076c-17.567-12.87-8.722-41.063 13.387-41.063l2.108-.005zm48.134 22.144c.261.791-.005 1.625-.679 2.12l-13.519 9.949 5.311 16.726c.534 1.691-1.406 3.22-2.926 2.112l-14.113-10.018-14.255 10.026c-1.312.941-3.539-.175-2.918-2.122l5.303-16.724-13.521-9.951c-1.466-1.074-.722-3.424 1.127-3.424l17.279-.042 5.04-15.763c.553-1.75 3.023-1.762 3.611-.035l5.384 15.798 17.072.042a1.87 1.87 0 0 1 1.804 1.306zm19.789-6.514l-.005-.014.005.014zm11.619-92.686l.398-1.244c6.614-20.93 36.164-21.133 43.196-.478l.587 1.721 2.149.006c9.989 0 18.466 6.135 21.591 15.618s-.046 19.484-8.118 25.42l-1.491 1.098.8 2.521c6.395 20.238-16.871 38.486-34.851 25.377l-2.109-1.498-2.052 1.444c-15.69 11.26-42.333-2.085-34.924-25.345l.791-2.496-1.462-1.076c-17.567-12.87-8.722-41.063 13.387-41.063l2.108-.005zm48.134 22.144c.261.791-.005 1.624-.679 2.12l-13.519 9.948 5.311 16.727c.534 1.691-1.406 3.22-2.926 2.112l-14.113-10.019-14.255 10.027c-1.312.941-3.539-.175-2.918-2.122l5.303-16.725-13.521-9.95c-1.466-1.074-.722-3.424 1.127-3.424l17.279-.043 5.04-15.762c.553-1.75 3.023-1.762 3.611-.035l5.384 15.797 17.072.043a1.87 1.87 0 0 1 1.804 1.306zm19.789-6.514l-.004-.015.004.015z"/><use xlink:href="#B" y="-79.542"/>
        <path d="M578.511 426.655l.398-1.244c6.613-20.93 36.164-21.133 43.196-.478l.587 1.721 2.149.006c9.989 0 18.465 6.135 21.59 15.618s-.045 19.484-8.117 25.42l-1.492 1.098.801 2.521c6.395 20.238-16.872 38.486-34.851 25.377l-2.11-1.498-2.052 1.444c-15.69 11.26-42.333-2.085-34.924-25.345l.792-2.496-1.463-1.076c-17.567-12.87-8.721-41.063 13.388-41.063l2.108-.005zm48.134 22.144a1.87 1.87 0 0 1-.679 2.12l-13.519 9.948 5.311 16.727c.534 1.691-1.407 3.22-2.926 2.112l-14.113-10.019-14.255 10.027c-1.312.941-3.539-.175-2.919-2.122l5.304-16.725-13.521-9.95c-1.466-1.074-.722-3.424 1.127-3.424l17.278-.043 5.041-15.762c.553-1.75 3.023-1.762 3.611-.035l5.383 15.797 17.073.043a1.87 1.87 0 0 1 1.804 1.306zm19.789-6.514l-.005-.015.005.015z"/><use xlink:href="#B" y="-151.627"/>
        <path d="M511.769 184.282c-9.154 19.062-94.205 23.211-104.102 24.675-67.076 9.922-148.799-3.778-148.799-3.778l-2.486 527.806 266.289 73.733 254.674-64.971.368-537.157s-72.791 11.593-122.489 6.331c-11.008-1.166-125.089-4.15-143.455-26.639zm-42.503 90.596c2.757 2.362-2.953 17.129 16.538 14.176 16.067-2.192 21.337 11.433 6.128 19.122-25.166 12.723-65.44 5.457-82.914 31.675-1.18 2.953 7.089 4.725 18.901 4.134 5.982-.206 12.303-.429 17.868 1.772 1.334.528 13.004 15.53 4.8 17.424-4.677 1.08-9.653.435-14.398-.295-24.764-3.538-20.563 14.776-36.621 33.669-18.902 21.854-18.902 25.398.591 13.584 23.627-14.765 19.491 2.953-7.089 29.532l-55.52 58.476c-9.097 10.424-19.363 19.785-29.533 29.165-5.461 5.036-12.373-3.217-8.27-6.719 10.453-8.922-8.242-29.902 2.682-28.573 57.782 7.031 35.471-44.576 3.224-65.341-4.229-2.724-.58-15.763 4.282-14.472 6.001 1.595 23.541 17.383 28.758 20.192 3.95 2.126 7.834 1.146 7.212-3.546-.506-3.826-9.007-12.64-9.539-13.397-12.794-18.246-25.8-33.758-22.341-56.981 1.388-9.323 14.936-3.385 18.577-9.616 3.781-6.473.605-15.692 4.651-22.003 7.032-10.968 14.85-.953 22.962-5.538 4.286-2.422 9.585-32.053 10.278-33.497 4.689-9.774 8.36-1.796 10.173 4.777 4.262 16.334 10.646 5.789 17.057-4.282 2.382-3.744 13.097-16.533 18.68-16.539 5.191-.006 1.477 10.313 1.477 15.504 0 0-2.166 19.099 0 19.493s12.992-17.129 12.992-17.129c27.171-34.849 43.711-41.347 38.394-14.767zm135.262 7.678c11.812 14.176 20.081 20.673 18.309 14.767-2.361-5.316-2.361-14.175 0-18.901 2.953-8.27 4.725-8.27 14.176.589 11.243 9.201 7.96 33.526 21.854 15.359 16.338-21.002 17.15.577 18.647 14.485.061.561.936 14.456 6.163 14.456 3.542.592 9.45 1.184 13.584 1.773 3.545 0 7.678 6.497 8.859 13.586 2.014 15.078 20.156 7.446 22.594 19.888 4.064 20.744-8.947 42.586-22.594 56.898-16.537 17.718-8.859 25.399 8.862 8.859 4.718-4.355 10.058-8.204 15.891-10.888 1.801-.828 5.033-.921 5.883.869 6.921 14.567-9.313 30.892-14.613 46.123-2.078 5.971 11.817 4.326 8.787 9.968-8.243 15.348-19.081-13.674-24.218-1.772-8.159 18.902 27.267 18.256 28.376 20.919 2.607 6.258-7.676 16.825-7.112 19.911.442 2.421 11.103 3.988 11.693 4.679 4.495 5.263 4.222 13.812-2.244 17.692-3.883 2.471-10.936-5.793-12.062-7.024-13.206-14.445-26.949-28.453-39.187-43.727-2.589-3.233-5.817-17.945-9.588-20.72-3.559-2.62-9.118-.882-12.857-3.239-13.232-8.345-35.34-26.966-39.122-44.603-2.708-12.635 34.521 2.412 19.493-13.587-5.059-5.341-9.812-11.052-13.733-17.277-7.472-11.862-4.694-22.208-21.116-18.753-12.404 2.364-14.768.592-12.995-8.27 1.18-7.087 8.27-12.403 19.492-14.176l17.721-3.542-20.084-10.042c-19.746-9.355-42.633-10.347-62.831-18.68-3.732-1.539-21.517-14.424-11.96-19.682 4.077-2.242 16.41.331 18.087.56 19.493 2.953 14.733-7.144 16.54-14.176 3.272-12.734 1.165-32.135 31.305 7.678zm-107.624 91.892c-.443-25.934 58.409-27.416 57.786.596-1.166 52.406-56.968 47.224-57.786-.596zm-78.305 75.8c1.9-26.516 53.794-28.016 55.247-.89 2.674 49.937-58.556 47.075-55.247.89zm79.126-2.513c7.157-28.275 51.788-28.729 56.375 1.608 6.84 45.229-67.955 44.144-56.375-1.608zm75.288 4.999c2.579-31.019 41.483-34.928 52.853-5.861 14.976 38.285-57.86 66.084-52.853 5.861zm-244.325 20.014c.395.475 6.172 6.127 2.082 6.568-.415.045-.84-.013-1.251-.088-1.861-.342-3.718-.715-5.556-1.163-4.095-.996-8.571-2.777-11.462-5.981-1.745-1.933-1.025-4.964.655-6.645.977-.978 2.879-1.072 4.088-.812 4.78 1.025 8.457 4.445 11.444 8.121zm90.715 57.763c4.533-32.752 51.578-32.835 56.09-.334 6.355 45.761-62.426 46.112-56.09.334zm154.829-5.326c.813-25.821 57.64-25.007 56.905 2.099-1.374 50.686-58.508 48.805-56.905-2.099zm77.789 1.758c2.321-30.125 52.605-28.105 55.803-1.051 5.839 49.387-59.661 51.128-55.803 1.051zm-313.276-1.078c3.492-26.973 55.461-26.061 57.248.527 3.34 49.67-63.651 48.924-57.248-.527zm157.059 2.751c1.596-28.173 56.578-30.082 60.191.714 5.128 43.726-62.825 45.778-60.191-.714zM329.28 594.425c7.972-40.538 130.885 4.941 145.35 38.196 0 0 5.417-21.515 24.661-20.746 19.019.759 12.631 42.429 26.925 40.067 17.167-2.837 10.156-38.438 30.811-38.541 11.201-.056 13.666 16.683 16.492 19.59 5.298-32.066 124.03-81.378 156.277-34.7 17.903 25.913-39.278 22.592-32.905 29.803 41.13 9.714-17.543 34.71-58.474 24.683-13.38 4.563 19.067 16.701 21.722 27.299 3.905 15.589-40.616 13.006-42.567 13.949-8.213 3.967 14.64 16.998 1.87 19.617-15.818 3.243-28.778 4.226-45.038-4.629-28.926-15.752-62.309-17.249-106.318 0-9.708 3.805-27.374 13.214-31.232 1.746-.857-2.547 3.843-11.688-.665-14.001-10.542-5.412-41.403 2.502-45.81-13.159-4.302-15.291 39.509-19.054 33.332-29.639-42.528 4.725-113.924-15.235-85.572-26.457 19.706-7.579-24.474-22.668-8.859-33.078zm50.797-250.44c-2.364 5.317-2.364 11.223-.591 12.995 1.475 2.215 4.421-3.117 4.651-3.489 2.095-3.397 3.568-7.408 3.692-11.426.047-1.523-.03-3.941-1.257-5.167-1.18-1.772-4.133 1.772-6.495 7.087z"/>
        <path id="B" d="M503.94 503.711l.398-1.244c6.614-20.93 36.164-21.133 43.196-.478l.587 1.722 2.149.005c9.989 0 18.466 6.135 21.591 15.618s-.046 19.484-8.118 25.421l-1.491 1.097.8 2.521c6.395 20.239-16.871 38.486-34.851 25.377l-2.109-1.497-2.052 1.443c-15.69 11.26-42.333-2.084-34.924-25.345l.791-2.496-1.462-1.076c-17.567-12.87-8.721-41.063 13.388-41.063l2.107-.005zm48.135 22.144c.261.791-.006 1.625-.68 2.12l-13.519 9.949 5.311 16.726c.534 1.691-1.406 3.22-2.926 2.112l-14.113-10.018-14.255 10.026c-1.312.941-3.539-.175-2.918-2.122l5.303-16.724-13.521-9.951c-1.466-1.074-.722-3.424 1.127-3.424l17.279-.042 5.04-15.763c.553-1.75 3.023-1.762 3.612-.035l5.383 15.798 17.072.042c.835 0 1.544.513 1.805 1.306zm19.788-6.514l-.004-.014.004.014z"/>
    </g>
</svg>