<svg xmlns="http://www.w3.org/2000/svg" viewBox="0 0 11505 4130"  fill-rule="evenodd" stroke-linejoin="round" stroke-miterlimit="2">
    <g fill="currentColor" fill-rule="nonzero">
        <path d="M10812.8 2396c-34.582 0-65.105-3.087-91.564-9.262s-48.597-14.773-66.41-25.8c-17.808-11.022-31.213-24.401-40.203-40.13-8.995-15.729-13.493-33.004-13.493-51.82 0-18.226 6.66-32.926 19.976-44.1s32.252-16.758 56.809-16.758c1.034 18.817 4.409 36.896 10.114 54.245 5.709 17.343 14.271 32.633 25.685 45.865s25.936 23.815 43.577 31.75c17.641 7.941 38.907 11.911 63.81 11.911 47.73 0 84.997-9.779 111.805-29.327s40.203-47.704 40.203-84.454c0-16.465-2.764-31.019-8.301-43.66-5.532-12.647-14.7-24.333-27.493-35.063-12.798-10.73-29.661-21.021-50.582-30.873-20.927-9.847-46.952-20.211-78.081-31.092-32.858-11.466-61.563-23.737-86.12-36.823s-44.962-27.639-61.218-43.661-28.36-33.887-36.316-53.58c-7.956-19.7-11.932-41.901-11.932-66.594 0-25.874 5.794-48.953 17.38-69.242s27.754-37.413 48.503-51.376c20.755-13.969 45.312-24.625 73.672-31.975s59.317-11.028 92.864-11.028c31.819 0 60.012 2.795 84.564 8.379 24.557 5.59 45.311 13.086 62.257 22.494s29.834 20.211 38.652 32.414 13.226 24.918 13.226 38.15c0 19.406-7.522 34.033-22.567 43.88s-35.365 14.773-60.957 14.773c0-14.11-1.99-28.005-5.965-41.676-3.981-13.671-10.636-25.874-19.976-36.603-9.335-10.73-21.616-19.48-36.833-26.24-15.217-6.765-34.07-10.144-56.548-10.144-20.41 0-38.652 2.423-54.736 7.276s-29.655 11.759-40.725 20.729-19.542 19.772-25.419 32.413-8.823 26.757-8.823 42.34c0 17.933 2.769 33.735 8.301 47.406 5.537 13.671 14.788 26.02 27.759 37.047s30.001 21.465 51.1 31.312 47.035 20.065 77.819 30.648c31.129 10.882 58.883 22.348 83.268 34.399 24.385 12.057 45.05 25.508 61.997 40.354s29.917 31.458 38.907 49.836c8.995 18.377 13.493 39.179 13.493 62.404 0 28.517-6.143 54.025-18.419 76.518s-29.834 41.525-52.657 57.107c-22.828 15.583-50.326 27.42-82.489 35.507-32.169 8.081-68.14 12.124-107.914 12.124zm-675.9-53.8h204.92c16.951 0 31.39-1.98 43.321-5.95s21.878-9.335 29.834-16.1 14.177-14.627 18.675-23.591c4.498-8.969 7.611-18.45 9.34-28.449l7.261-38.808h55.514l-7.266 157.886H9928.86v-37.931h13.488c11.759 0 22.912-.658 33.464-1.985 10.547-1.321 19.798-4.043 27.754-8.154 7.956-4.117 14.267-10.218 18.937-18.305s7.005-18.743 7.005-31.975v-443.66c0-14.115-2.252-25.43-6.749-33.96s-10.72-15.066-18.676-19.621-17.207-7.574-27.754-9.042c-10.547-1.473-21.877-2.205-33.981-2.205h-13.488v-37.93h535.402l5.187 157.885h-54.997l-5.187-38.808c-1.384-9.998-4.064-19.479-8.039-28.449-3.976-8.964-9.685-16.831-17.119-23.591s-16.779-12.129-28.015-16.099c-11.242-3.971-24.819-5.95-40.731-5.95H10136.9v240.348h256.286v44.105H10136.9V2342.2zm-646.99 44.99l-229.31-559.207c-3.803-9.413-7.951-17.202-12.449-23.377s-9.685-11.027-15.561-14.553c-5.882-3.526-12.626-6.028-20.238-7.496-7.605-1.473-16.601-2.205-26.975-2.205h-14.006v-37.93h292.081v37.93h-24.385c-21.444 0-37.439 3.453-47.986 10.364-10.547 6.906-15.823 17.861-15.823 32.853 0 4.999.778 10.145 2.335 15.436s3.719 11.32 6.483 18.08l116.731 293.277c10.72 26.756 19.888 52.703 27.493 77.84l20.238 70.344c5.532-21.757 12.103-44.841 19.714-69.242 7.606-24.4 17.291-50.718 29.05-78.942l117.249-287.102c2.769-7.35 5.015-14.402 6.744-21.167s2.596-12.642 2.596-17.641c0-15.583-5.793-26.83-17.379-33.736s-29.139-10.364-52.662-10.364h-24.38v-37.93h258.878v37.93h-20.232c-10.374 0-19.281.883-26.72 2.643-7.433 1.766-14.177 5.219-20.232 10.365s-11.67 12.276-16.862 21.391-10.72 21.021-16.602 35.721l-219.97 536.718h-77.82z M8821.73 2387.19v-37.931h13.488c12.103 0 23.434-.731 33.981-2.204 10.552-1.468 19.803-4.482 27.759-9.043 7.951-4.555 14.178-11.095 18.675-19.62 4.498-8.531 6.744-19.846 6.744-33.961V1845.18c0-14.115-2.246-25.43-6.744-33.96s-10.724-15.066-18.675-19.621c-7.956-4.56-17.207-7.574-27.759-9.042-10.547-1.473-21.878-2.205-33.981-2.205h-13.488v-37.93h309.204v37.93h-14.005c-11.764 0-23.001.732-33.725 2.205s-19.971 4.482-27.755 9.042-14.01 11.096-18.675 19.621c-4.67 8.53-7.005 19.845-7.005 33.96v439.251c0 14.115 2.335 25.43 7.005 33.961 4.665 8.525 10.892 15.065 18.675 19.62 7.784 4.561 17.035 7.575 27.755 9.043s21.961 2.204 33.725 2.204h14.005v37.931H8821.73zm-390.17 0v-37.931h14.005c12.109 0 23.435-.731 33.987-2.204 10.547-1.468 19.709-4.482 27.493-9.043 7.783-4.555 14.01-11.095 18.675-19.62 4.67-8.531 7.005-19.846 7.005-33.961v-211.685h-345.52v211.685c0 14.115 2.335 25.43 7.005 33.961 4.67 8.525 10.897 15.065 18.675 19.62 7.784 4.561 17.035 7.575 27.76 9.043 10.719 1.473 21.961 2.204 33.72 2.204h14.005v37.931h-309.204v-37.931h13.493c12.104 0 23.429-.731 33.981-2.204 10.547-1.468 19.798-4.482 27.754-9.043 7.956-4.555 14.178-11.095 18.675-19.62 4.498-8.531 6.744-19.846 6.744-33.961v-442.777c0-13.232-2.335-23.889-7-31.975-4.67-8.087-10.985-14.334-18.936-18.743-7.956-4.409-17.207-7.277-27.759-8.599-10.547-1.327-21.7-1.985-33.459-1.985h-13.493v-37.93h309.204v37.93h-14.005c-11.759 0-23.001.732-33.72 2.205-10.725 1.468-19.976 4.482-27.76 9.042-7.778 4.555-14.005 11.096-18.675 19.621s-7.005 19.845-7.005 33.96v182.578h345.52V1845.18c0-14.115-2.335-25.43-7.005-33.96s-10.892-15.066-18.675-19.621-16.946-7.574-27.493-9.042c-10.552-1.473-21.878-2.205-33.987-2.205h-14.005v-37.93h309.204v37.93h-13.488c-12.103 0-23.434.732-33.981 2.205s-19.803 4.482-27.754 9.042-14.183 11.096-18.68 19.621-6.744 19.845-6.744 33.96v443.66c0 13.232 2.335 23.889 7.005 31.975s10.98 14.188 18.936 18.305c7.956 4.111 17.208 6.833 27.755 8.154 10.552 1.327 21.705 1.985 33.463 1.985h13.488v37.931H8431.56zm-743.41-654.03c36.316 0 67.879 2.575 94.682 7.721s49.115 12.276 66.928 21.386c17.808 9.116 31.124 19.846 39.947 32.195 8.818 12.349 13.227 25.727 13.227 40.135 0 9.7-2.335 18.45-7.006 26.239-4.664 7.794-11.152 14.407-19.453 19.845s-18.069 9.628-29.311 12.569-23.434 4.409-36.577 4.409c0-14.11-2.158-28.078-6.483-41.895s-11.414-26.24-21.272-37.267-22.655-19.992-38.39-26.898c-15.739-6.911-35.193-10.364-58.366-10.364-40.119 0-74.188 6.248-102.204 18.743s-50.843 30.722-68.479 54.683-30.439 53.513-38.39 88.644c-7.956 35.135-11.937 75.343-11.937 120.618 0 40.281 4.153 77.177 12.454 110.693 8.301 33.521 21.444 62.258 39.43 86.219s40.897 42.559 68.74 55.791 61.302 19.845 100.386 19.845c25.942 0 48.854-2.131 68.741-6.394s37.439-9.925 52.656-16.977c15.222-7.058 28.622-15.217 40.208-24.479s21.877-18.889 30.868-28.888a41.61 41.61 0 0 1 14.527 13.232c3.808 5.584 5.71 12.934 5.71 22.05 0 11.466-4.587 23.152-13.749 35.062-9.168 11.905-23.09 22.714-41.765 32.414s-42.365 17.714-71.075 24.035c-28.705 6.321-62.775 9.481-102.205 9.481-52.917 0-99.435-7.935-139.554-23.815-40.12-15.875-73.756-38.369-100.909-67.476-27.149-29.102-47.642-64.092-61.474-104.958-13.838-40.871-20.755-86.146-20.755-135.835 0-48.806 7.267-93.496 21.789-134.07 14.527-40.573 36.06-75.411 64.593-104.518s64.07-51.748 106.613-67.915c42.543-16.173 91.824-24.26 147.855-24.26z M7197.79 2276.93c17.986 24.108 35.454 42.188 52.4 54.245 16.946 12.051 36.661 18.079 59.144 18.079h3.114v37.931h-15.045c-33.202 0-60.44-1.03-81.711-3.088s-39.346-6.028-54.218-11.91c-14.872-5.877-27.582-14.11-38.129-24.693-10.547-10.589-21.877-24.406-33.981-41.457l-143.708-203.311h-88.194v186.109c0 13.232 2.335 23.889 7 31.975 4.67 8.087 10.981 14.188 18.937 18.305 7.955 4.111 17.207 6.833 27.759 8.154 10.547 1.327 21.7 1.985 33.459 1.985h14.01v37.931h-309.204v-37.931h13.488c11.759 0 22.912-.658 33.464-1.985 10.547-1.321 19.798-4.043 27.754-8.154 7.956-4.117 14.266-10.218 18.936-18.305s7.006-18.743 7.006-31.975v-447.186c0-13.232-2.335-23.889-7.006-31.975s-10.98-14.334-18.936-18.743-17.207-7.277-27.754-8.599c-10.552-1.327-21.705-1.985-33.464-1.985h-13.488v-37.93h285.859c91.997 0 160.481 14.48 205.443 43.441s67.445 72.549 67.445 130.763c0 24.108-4.587 45.202-13.749 63.282-9.168 18.085-21.183 33.741-36.055 46.973-14.873 13.226-31.652 24.254-50.327 33.072s-37.35 15.88-56.031 21.172l145.782 195.81zm-340.328-216.538h74.706c31.129 0 57.065-2.941 77.82-8.823 20.749-5.877 37.35-14.7 49.804-26.459s21.355-26.464 26.72-44.1c5.359-17.64 8.039-38.222 8.039-61.745 0-24.108-2.941-44.617-8.818-61.521s-15.394-30.722-28.537-41.457c-13.144-10.73-30.173-18.524-51.1-23.371-20.927-4.853-46.435-7.277-76.524-7.277h-72.11v274.753z M6074.62 2171.53l-40.464 94.818c-3.113 7.052-5.537 14.036-7.266 20.947-1.729 6.906-2.591 12.861-2.591 17.861 0 15.29 5.793 26.458 17.379 33.516s29.311 10.583 53.174 10.583h24.385v37.931h-259.4v-37.931h20.232c10.379 0 19.197-.956 26.458-2.862 7.267-1.912 13.838-5.517 19.715-10.809s11.503-12.495 16.863-21.611c5.359-9.11 11.325-20.874 17.897-35.281l235.537-536.274h83.007l240.202 558.768c4.153 9.408 8.39 17.202 12.71 23.376 4.325 6.17 9.429 11.096 15.306 14.773 5.882 3.673 12.626 6.248 20.232 7.716 7.611 1.473 16.606 2.204 26.981 2.204h14.005v37.931h-292.081v-37.931h24.38c42.543 0 63.815-14.407 63.815-43.217 0-4.999-.779-10.144-2.336-15.436s-3.719-11.32-6.482-18.08l-42.543-100.992H6074.62zm194.029-203.312l-30.345-75.192c-9.168-23.371-16.69-45.938-22.573-67.695-2.418 10.876-5.27 21.391-8.556 31.531a1036.95 1036.95 0 0 1-10.636 31.092c-3.808 10.583-8.128 21.684-12.971 33.297l-16.601 38.588-72.115 166.264h239.685l-65.888-157.885z M5051.57 2387.62v-37.925h12.762c11.45 0 22.164-.736 32.142-2.204s18.727-4.487 26.255-9.043c7.522-4.555 13.409-11.1 17.667-19.626 4.252-8.525 6.378-19.845 6.378-33.96v-439.251c0-14.11-2.126-25.43-6.378-33.955-4.258-8.525-10.145-15.071-17.667-19.626-7.528-4.555-16.278-7.569-26.255-9.043-9.978-1.467-20.692-2.204-32.142-2.204h-12.762v-37.925h292.477v37.925H5330.8c-11.127 0-21.674.663-31.652 1.985s-18.732 4.19-26.255 8.599c-7.527 4.414-13.498 10.661-17.912 18.743-4.42 8.086-6.624 18.743-6.624 31.975v500.553h198.255c15.05 0 27.89-2.424 38.52-7.277 10.636-4.853 19.386-11.174 26.255-18.962a86.82 86.82 0 0 0 15.949-26.245c3.761-9.701 6.3-19.401 7.606-29.102l9.815-67.476h52.51l-6.869 194.044H5051.57zm-3689.82-215.65l-38.28 94.818c-2.947 7.057-5.235 14.041-6.87 20.947-1.635 6.911-2.455 12.866-2.455 17.86 0 15.291 5.48 26.464 16.439 33.522 10.96 7.052 27.729 10.583 50.301 10.583h23.063v37.925h-245.364V2349.7h19.141c9.81 0 18.152-.956 25.027-2.868 6.869-1.912 13.086-5.511 18.644-10.802 5.563-5.297 10.881-12.496 15.948-21.612 5.073-9.115 10.714-20.874 16.931-35.281l222.796-536.274h78.515l227.21 558.768c3.929 9.408 7.935 17.196 12.026 23.371s8.911 11.101 14.475 14.773c5.563 3.678 11.941 6.248 19.14 7.721 7.198 1.468 15.703 2.204 25.518 2.204h13.248v37.925H1590.92V2349.7h23.063c40.244 0 60.361-14.407 60.361-43.222 0-4.999-.736-10.144-2.209-15.436s-3.516-11.32-6.133-18.08l-40.239-100.992H1361.75zm183.534-203.307l-28.71-75.197c-8.672-23.371-15.786-45.938-21.345-67.696-2.293 10.882-4.994 21.392-8.097 31.537-3.108 10.139-6.461 20.503-10.061 31.092-3.599 10.584-7.689 21.679-12.27 33.297l-15.703 38.588-68.213 166.259h226.719l-62.32-157.88zM963.27 2387.62l-376.884-520.398v417.64c0 14.115 2.21 25.435 6.624 33.96 4.42 8.526 10.307 15.071 17.667 19.626s16.116 7.57 26.255 9.043c10.145 1.468 20.775 2.204 31.897 2.204h13.253v37.925H429.844v-37.925H442.6c11.451 0 22.165-.736 32.148-2.204 9.977-1.473 18.727-4.487 26.25-9.043s13.414-11.1 17.667-19.626 6.383-19.845 6.383-33.96v-442.777c0-13.232-2.21-23.889-6.629-31.975s-10.385-14.329-17.907-18.743c-7.528-4.409-16.278-7.277-26.255-8.599s-20.53-1.985-31.657-1.985h-12.756v-37.925h184.025l359.708 499.226v-399.999c0-13.232-2.21-23.889-6.624-31.975s-10.39-14.329-17.912-18.743c-7.528-4.409-16.278-7.277-26.255-8.599s-20.53-1.985-31.651-1.985h-13.253v-37.925h252.238v37.925h-12.757c-11.45 0-22.165.737-32.142 2.204-9.983 1.474-18.733 4.488-26.255 9.043-7.528 4.555-13.415 11.101-17.667 19.626s-6.378 19.845-6.378 33.955v542.009H963.27zm2516.97-323.26c0 49.684-6.869 94.964-20.608 135.83-13.744 40.866-34.028 75.855-60.852 104.963-26.83 29.107-59.871 51.595-99.128 67.476-39.262 15.875-84.245 23.815-134.952 23.815-53.325 0-99.786-7.94-139.367-23.815-39.586-15.881-72.465-38.369-98.642-67.476-26.171-29.108-45.802-64.17-58.888-105.182-13.086-41.018-19.626-86.512-19.626-136.494s6.54-95.335 19.626-136.055 32.717-75.484 58.888-104.299c26.177-28.814 59.218-51.084 99.128-66.813s86.532-23.596 139.863-23.596c50.707 0 95.528 7.867 134.461 23.596 38.928 15.729 71.807 38.072 98.637 67.033 26.824 28.961 47.108 63.798 60.852 104.518s20.608 86.22 20.608 136.499zm-520.67 0c0 44.69 3.683 84.6 11.043 119.735s19.219 64.828 35.58 89.083c16.355 24.254 37.538 42.778 63.548 55.571 26.009 12.788 57.66 19.182 94.959 19.182 37.292 0 68.949-6.394 94.958-19.182 26.005-12.793 47.109-31.317 63.303-55.571s27.89-53.952 35.088-89.083 10.793-75.045 10.793-119.735-3.594-84.605-10.793-119.736-18.894-64.759-35.088-88.867-37.131-42.486-62.817-55.128c-25.68-12.641-57.169-18.962-94.462-18.962-37.299 0-69.033 6.321-95.205 18.962s-47.521 31.02-64.039 55.128c-16.523 24.108-28.464 53.732-35.825 88.867s-11.043 75.046-11.043 119.736zm-498.58 323.26v-37.925h12.762c11.445 0 22.165-.736 32.142-2.204s18.728-4.487 26.255-9.043 13.41-11.1 17.662-19.626c4.257-8.525 6.384-19.845 6.384-33.96v-439.251c0-14.11-2.127-25.43-6.384-33.955-4.252-8.525-10.139-15.071-17.662-19.626s-16.277-7.569-26.255-9.043c-9.977-1.467-20.697-2.204-32.142-2.204h-12.762v-37.925h292.478v37.925h-13.248c-11.127 0-21.757.737-31.902 2.204-10.14 1.474-18.889 4.488-26.25 9.043s-13.253 11.101-17.667 19.626c-4.419 8.525-6.624 19.845-6.624 33.955v439.251c0 14.115 2.205 25.435 6.624 33.96s10.302 15.071 17.667 19.626 16.11 7.57 26.25 9.043c10.145 1.468 20.775 2.204 31.902 2.204h13.248v37.925H2460.99zm-296.4-102.75c0 14.115 2.204 25.435 6.624 33.96 4.414 8.526 10.301 15.071 17.667 19.626 7.36 4.556 16.11 7.57 26.249 9.043 10.145 1.468 20.776 2.204 31.902 2.204h23.064v37.925h-312.6v-37.925h23.068c11.122 0 21.674-.663 31.652-1.985s18.727-4.043 26.255-8.159c7.522-4.117 13.493-10.218 17.907-18.305 4.419-8.081 6.629-18.743 6.629-31.97v-501.436h-96.186c-14.721 0-27.07 1.985-37.048 5.956-9.983 3.964-18.158 9.335-24.536 16.094-6.384 6.765-11.127 14.627-14.235 23.596-3.108 8.964-5.313 18.451-6.624 28.444l-5.396 38.808h-52.019l4.905-157.88h565.82l4.905 157.88h-52.019l-4.905-38.808c-1.311-9.993-3.599-19.48-6.87-28.444-3.275-8.969-8.018-16.831-14.235-23.596-6.216-6.759-14.391-12.13-24.536-16.094-10.139-3.971-22.734-5.956-37.784-5.956h-97.654v497.022zm2343.25-112.9l-38.275 94.818c-2.946 7.057-5.234 14.041-6.869 20.947-1.64 6.911-2.455 12.866-2.455 17.86 0 15.291 5.48 26.464 16.439 33.522 10.96 7.052 27.728 10.583 50.301 10.583h23.063v37.925H4304.68V2349.7h19.135c9.816 0 18.158-.956 25.028-2.868s13.085-5.511 18.649-10.802c5.563-5.297 10.876-12.496 15.948-21.612s10.714-20.874 16.93-35.281l222.792-536.274h78.519l227.211 558.768c3.923 9.408 7.935 17.196 12.02 23.371 4.09 6.175 8.917 11.101 14.481 14.773 5.558 3.678 11.941 6.248 19.134 7.721 7.199 1.468 15.709 2.204 25.519 2.204h13.253v37.925h-276.284V2349.7h23.064c40.239 0 60.361-14.407 60.361-43.222 0-4.999-.737-10.144-2.21-15.436s-3.515-11.32-6.132-18.08l-40.24-100.992H4507.84zm183.535-203.307l-28.705-75.197c-8.672-23.371-15.787-45.938-21.35-67.696-2.288 10.882-4.989 21.392-8.097 31.537-3.108 10.139-6.462 20.503-10.061 31.092-3.594 10.584-7.684 21.679-12.266 33.297l-15.703 38.588-68.212 166.259H4753.7l-62.325-157.88zM4109.37 2387.62l-376.884-520.398v417.64c0 14.115 2.21 25.435 6.624 33.96 4.419 8.526 10.307 15.071 17.667 19.626s16.11 7.57 26.255 9.043c10.139 1.468 20.775 2.204 31.897 2.204h13.253v37.925h-252.238v-37.925h12.756c11.451 0 22.165-.736 32.142-2.204s18.733-4.487 26.255-9.043c7.528-4.555 13.415-11.1 17.667-19.626s6.379-19.845 6.379-33.96v-442.777c0-13.232-2.205-23.889-6.624-31.975s-10.385-14.329-17.913-18.743c-7.522-4.409-16.272-7.277-26.255-8.599-9.977-1.322-20.529-1.985-31.651-1.985h-12.756v-37.925h184.025l359.708 499.226v-399.999c0-13.232-2.21-23.889-6.629-31.975-4.414-8.082-10.385-14.329-17.907-18.743-7.528-4.409-16.278-7.277-26.255-8.599s-20.53-1.985-31.652-1.985h-13.253v-37.925h252.239v37.925h-12.762c-11.451 0-22.165.737-32.143 2.204-9.977 1.474-18.727 4.488-26.255 9.043-7.522 4.555-13.409 11.101-17.661 19.626-4.258 8.525-6.384 19.845-6.384 33.955v542.009h-71.645z"/>
    </g>
</svg>