<svg width="100%" height="100%" viewBox="0 0 2038 128" version="1.1" xmlns="http://www.w3.org/2000/svg" xmlns:xlink="http://www.w3.org/1999/xlink" xml:space="preserve" style="fill-rule:evenodd;clip-rule:evenodd;stroke-linejoin:round;stroke-miterlimit:2;"><g id="national-archives"><path d="M1080.58,84.002l-7.746,18.151c-0.596,1.35 -1.06,2.687 -1.391,4.01c-0.331,1.322 -0.496,2.462 -0.496,3.419c-0,2.927 1.109,5.065 3.327,6.416c2.218,1.351 5.611,2.026 10.179,2.026l4.668,0l0,7.261l-49.657,-0l0,-7.261l3.873,0c1.987,0 3.675,-0.183 5.065,-0.548c1.391,-0.366 2.649,-1.056 3.774,-2.069c1.126,-1.013 2.202,-2.392 3.228,-4.137c1.026,-1.744 2.168,-3.996 3.426,-6.754l45.089,-102.659l15.89,0l45.982,106.965c0.795,1.801 1.606,3.293 2.433,4.475c0.828,1.181 1.805,2.124 2.93,2.828c1.126,0.703 2.417,1.196 3.873,1.477c1.457,0.282 3.179,0.422 5.165,0.422l2.681,0l0,7.261l-55.913,-0l-0,-7.261l4.667,0c8.144,0 12.216,-2.758 12.216,-8.273c-0,-0.957 -0.149,-1.942 -0.447,-2.955c-0.298,-1.013 -0.712,-2.167 -1.241,-3.461l-8.144,-19.333l-53.431,-0Zm37.143,-38.92c-2.118,-5.121 -4.055,-9.92 -5.809,-14.394c-1.755,-4.474 -3.195,-8.794 -4.321,-12.959c-0.463,2.082 -1.009,4.095 -1.638,6.036c-0.629,1.942 -1.308,3.926 -2.036,5.952c-0.729,2.026 -1.556,4.151 -2.483,6.374c-0.927,2.223 -1.986,4.686 -3.178,7.387l-13.805,31.828l45.883,-0l-12.613,-30.224Z" style="fill:#869ab8;fill-rule:nonzero;"/><path d="M1295.59,104.179c3.443,4.615 6.787,8.076 10.031,10.384c3.244,2.307 7.018,3.461 11.322,3.461l0.596,0l-0,7.261l-2.88,-0c-6.356,-0 -11.57,-0.197 -15.642,-0.591c-4.072,-0.394 -7.532,-1.154 -10.379,-2.28c-2.847,-1.125 -5.28,-2.701 -7.299,-4.727c-2.019,-2.027 -4.188,-4.672 -6.505,-7.936l-27.51,-38.92l-16.883,0l-0,35.627c-0,2.533 0.447,4.573 1.34,6.121c0.894,1.548 2.102,2.716 3.625,3.504c1.523,0.787 3.294,1.308 5.314,1.561c2.019,0.254 4.154,0.38 6.405,0.38l2.682,0l-0,7.261l-59.191,-0l-0,-7.261l2.582,0c2.251,0 4.386,-0.126 6.406,-0.38c2.019,-0.253 3.79,-0.774 5.313,-1.561c1.523,-0.788 2.731,-1.956 3.625,-3.504c0.894,-1.548 1.341,-3.588 1.341,-6.121l-0,-85.605c-0,-2.533 -0.447,-4.573 -1.341,-6.121c-0.894,-1.548 -2.102,-2.744 -3.625,-3.588c-1.523,-0.844 -3.294,-1.393 -5.313,-1.646c-2.02,-0.254 -4.155,-0.38 -6.406,-0.38l-2.582,-0l-0,-7.261l54.722,0c17.611,0 30.721,2.772 39.328,8.316c8.607,5.544 12.911,13.888 12.911,25.032c-0,4.615 -0.878,8.653 -2.632,12.114c-1.755,3.462 -4.055,6.459 -6.902,8.992c-2.847,2.532 -6.059,4.643 -9.634,6.331c-3.575,1.689 -7.15,3.04 -10.726,4.053l27.907,37.484Zm-65.149,-41.452l14.301,-0c5.959,-0 10.924,-0.563 14.897,-1.689c3.972,-1.125 7.15,-2.814 9.534,-5.065c2.384,-2.251 4.088,-5.066 5.115,-8.442c1.026,-3.377 1.539,-7.317 1.539,-11.82c0,-4.615 -0.563,-8.541 -1.688,-11.777c-1.126,-3.236 -2.947,-5.881 -5.463,-7.936c-2.516,-2.054 -5.776,-3.546 -9.782,-4.474c-4.006,-0.929 -8.889,-1.393 -14.649,-1.393l-13.804,-0l-0,52.596Z" style="fill:#869ab8;fill-rule:nonzero;"/><path d="M1389.46,0.084c6.952,0 12.994,0.493 18.125,1.478c5.131,0.985 9.402,2.35 12.812,4.094c3.409,1.745 5.958,3.799 7.647,6.163c1.688,2.364 2.532,4.925 2.532,7.683c0,1.857 -0.447,3.532 -1.341,5.023c-0.893,1.492 -2.135,2.758 -3.724,3.799c-1.589,1.041 -3.459,1.843 -5.611,2.406c-2.152,0.563 -4.486,0.844 -7.002,0.844c0,-2.701 -0.413,-5.375 -1.241,-8.02c-0.828,-2.645 -2.185,-5.023 -4.072,-7.134c-1.887,-2.11 -4.337,-3.827 -7.349,-5.149c-3.013,-1.323 -6.737,-1.984 -11.173,-1.984c-7.68,-0 -14.202,1.196 -19.565,3.588c-5.363,2.392 -9.733,5.881 -13.109,10.468c-3.377,4.587 -5.827,10.244 -7.349,16.969c-1.523,6.726 -2.285,14.423 -2.285,23.09c0,7.711 0.795,14.774 2.384,21.19c1.589,6.417 4.105,11.918 7.548,16.505c3.443,4.587 7.829,8.147 13.159,10.68c5.33,2.533 11.735,3.799 19.217,3.799c4.966,-0 9.352,-0.408 13.159,-1.224c3.807,-0.816 7.167,-1.9 10.08,-3.25c2.914,-1.351 5.479,-2.913 7.697,-4.686c2.218,-1.773 4.188,-3.616 5.909,-5.53c1.126,0.619 2.053,1.464 2.781,2.533c0.729,1.069 1.093,2.476 1.093,4.221c-0,2.195 -0.878,4.432 -2.632,6.712c-1.755,2.279 -4.42,4.348 -7.995,6.205c-3.575,1.857 -8.11,3.391 -13.606,4.601c-5.495,1.21 -12.017,1.815 -19.565,1.815c-10.13,0 -19.035,-1.519 -26.715,-4.559c-7.68,-3.039 -14.119,-7.345 -19.317,-12.917c-5.197,-5.571 -9.12,-12.269 -11.768,-20.092c-2.649,-7.824 -3.973,-16.491 -3.973,-26.003c0,-9.343 1.391,-17.898 4.171,-25.665c2.781,-7.767 6.903,-14.436 12.365,-20.008c5.462,-5.572 12.265,-9.906 20.409,-13.001c8.144,-3.096 17.578,-4.644 28.304,-4.644Z" style="fill:#869ab8;fill-rule:nonzero;"/><path d="M1531.77,125.285l0,-7.261l2.681,0c2.318,0 4.486,-0.14 6.506,-0.422c2.019,-0.281 3.773,-0.858 5.263,-1.731c1.49,-0.872 2.682,-2.124 3.575,-3.756c0.894,-1.633 1.341,-3.799 1.341,-6.501l0,-40.523l-66.143,-0l0,40.523c0,2.702 0.447,4.868 1.341,6.501c0.894,1.632 2.086,2.884 3.575,3.756c1.49,0.873 3.261,1.45 5.314,1.731c2.052,0.282 4.204,0.422 6.455,0.422l2.681,0l0,7.261l-59.191,-0l0,-7.261l2.583,0c2.317,0 4.485,-0.14 6.505,-0.422c2.019,-0.281 3.79,-0.858 5.313,-1.731c1.523,-0.872 2.714,-2.124 3.575,-3.756c0.861,-1.633 1.291,-3.799 1.291,-6.501l0,-84.761c0,-2.533 -0.447,-4.573 -1.34,-6.121c-0.894,-1.548 -2.103,-2.744 -3.625,-3.588c-1.523,-0.844 -3.294,-1.393 -5.314,-1.646c-2.019,-0.254 -4.154,-0.38 -6.405,-0.38l-2.583,-0l0,-7.261l59.191,0l0,7.261l-2.681,-0c-2.251,-0 -4.403,0.14 -6.455,0.422c-2.053,0.281 -3.824,0.858 -5.314,1.731c-1.489,0.872 -2.681,2.124 -3.575,3.756c-0.894,1.633 -1.341,3.799 -1.341,6.501l0,34.951l66.143,0l0,-34.951c0,-2.702 -0.447,-4.868 -1.341,-6.501c-0.893,-1.632 -2.085,-2.884 -3.575,-3.756c-1.49,-0.873 -3.244,-1.45 -5.263,-1.731c-2.02,-0.282 -4.188,-0.422 -6.506,-0.422l-2.681,-0l0,-7.261l59.191,0l0,7.261l-2.582,-0c-2.317,-0 -4.486,0.14 -6.505,0.422c-2.02,0.281 -3.791,0.858 -5.313,1.731c-1.523,0.872 -2.715,2.124 -3.576,3.756c-0.86,1.633 -1.291,3.799 -1.291,6.501l0,84.93c0,2.533 0.447,4.573 1.341,6.121c0.894,1.548 2.102,2.716 3.625,3.504c1.523,0.787 3.294,1.308 5.313,1.561c2.02,0.254 4.155,0.38 6.406,0.38l2.582,0l0,7.261l-59.191,-0Z" style="fill:#869ab8;fill-rule:nonzero;"/><path d="M1606.46,125.285l0,-7.261l2.582,0c2.317,0 4.486,-0.14 6.505,-0.422c2.02,-0.281 3.791,-0.858 5.314,-1.731c1.522,-0.872 2.714,-2.124 3.575,-3.756c0.861,-1.633 1.291,-3.799 1.291,-6.501l-0,-84.086c-0,-2.702 -0.43,-4.868 -1.291,-6.501c-0.861,-1.632 -2.053,-2.884 -3.575,-3.756c-1.523,-0.873 -3.294,-1.45 -5.314,-1.731c-2.019,-0.282 -4.188,-0.422 -6.505,-0.422l-2.582,-0l0,-7.261l59.191,0l0,7.261l-2.681,-0c-2.252,-0 -4.403,0.14 -6.456,0.422c-2.052,0.281 -3.823,0.858 -5.313,1.731c-1.49,0.872 -2.682,2.124 -3.575,3.756c-0.894,1.633 -1.341,3.799 -1.341,6.501l-0,84.086c-0,2.702 0.447,4.868 1.341,6.501c0.893,1.632 2.085,2.884 3.575,3.756c1.49,0.873 3.261,1.45 5.313,1.731c2.053,0.282 4.204,0.422 6.456,0.422l2.681,0l0,7.261l-59.191,-0Z" style="fill:#869ab8;fill-rule:nonzero;"/><path d="M1734.37,125.285l-43.897,-107.049c-0.728,-1.802 -1.522,-3.293 -2.383,-4.475c-0.861,-1.182 -1.854,-2.111 -2.979,-2.786c-1.126,-0.675 -2.417,-1.154 -3.874,-1.435c-1.456,-0.282 -3.178,-0.422 -5.164,-0.422l-2.681,-0l-0,-7.261l55.913,0l0,7.261l-4.668,-0c-4.105,-0 -7.167,0.661 -9.186,1.984c-2.019,1.322 -3.029,3.419 -3.029,6.289c-0,0.957 0.149,1.942 0.447,2.955c0.298,1.013 0.712,2.167 1.241,3.461l22.346,56.142c2.052,5.122 3.807,10.089 5.263,14.901c1.457,4.812 2.748,9.301 3.874,13.466c1.059,-4.165 2.317,-8.584 3.774,-13.255c1.456,-4.671 3.31,-9.709 5.561,-15.112l22.445,-54.96c0.53,-1.407 0.96,-2.757 1.291,-4.052c0.331,-1.294 0.497,-2.42 0.497,-3.377c-0,-2.983 -1.109,-5.136 -3.327,-6.458c-2.218,-1.323 -5.578,-1.984 -10.081,-1.984l-4.667,-0l-0,-7.261l49.557,0l0,7.261l-3.873,-0c-1.986,-0 -3.691,0.169 -5.115,0.506c-1.423,0.338 -2.714,0.999 -3.873,1.984c-1.159,0.985 -2.234,2.35 -3.228,4.095c-0.993,1.745 -2.052,4.024 -3.178,6.838l-42.109,102.744l-14.897,-0Z" style="fill:#869ab8;fill-rule:nonzero;"/><path d="M1858.22,116.673l39.228,0c3.245,0 6.009,-0.379 8.293,-1.139c2.284,-0.76 4.188,-1.787 5.711,-3.082c1.523,-1.294 2.714,-2.8 3.575,-4.516c0.861,-1.717 1.457,-3.532 1.788,-5.446l1.39,-7.429l10.627,0l-1.391,30.224l-109.046,-0l-0,-7.261l2.582,0c2.251,0 4.386,-0.126 6.406,-0.38c2.019,-0.253 3.79,-0.774 5.313,-1.561c1.523,-0.788 2.731,-1.956 3.625,-3.504c0.894,-1.548 1.341,-3.588 1.341,-6.121l-0,-84.93c-0,-2.702 -0.431,-4.868 -1.292,-6.501c-0.86,-1.632 -2.052,-2.884 -3.575,-3.756c-1.523,-0.873 -3.294,-1.45 -5.313,-1.731c-2.019,-0.282 -4.188,-0.422 -6.505,-0.422l-2.582,-0l-0,-7.261l102.492,0l0.993,30.224l-10.528,-0l-0.993,-7.429c-0.265,-1.914 -0.778,-3.729 -1.539,-5.446c-0.761,-1.716 -1.854,-3.222 -3.277,-4.516c-1.424,-1.295 -3.212,-2.322 -5.363,-3.082c-2.152,-0.76 -4.751,-1.139 -7.797,-1.139l-34.163,-0l-0,46.01l49.061,0l-0,8.443l-49.061,-0l-0,51.751Z" style="fill:#869ab8;fill-rule:nonzero;"/><path d="M1987.62,126.973c-6.62,0 -12.463,-0.591 -17.528,-1.773c-5.065,-1.182 -9.303,-2.828 -12.713,-4.939c-3.409,-2.11 -5.975,-4.671 -7.696,-7.682c-1.722,-3.011 -2.583,-6.318 -2.583,-9.92c0,-3.489 1.275,-6.303 3.824,-8.442c2.549,-2.139 6.174,-3.208 10.875,-3.208c0.198,3.602 0.844,7.063 1.936,10.384c1.093,3.32 2.732,6.247 4.917,8.78c2.184,2.533 4.965,4.559 8.342,6.078c3.377,1.52 7.448,2.28 12.215,2.28c9.137,-0 16.271,-1.872 21.403,-5.614c5.131,-3.743 7.696,-9.132 7.696,-16.167c0,-3.152 -0.529,-5.938 -1.589,-8.358c-1.059,-2.421 -2.814,-4.658 -5.263,-6.712c-2.45,-2.054 -5.678,-4.024 -9.683,-5.91c-4.006,-1.885 -8.988,-3.869 -14.947,-5.952c-6.29,-2.195 -11.785,-4.544 -16.486,-7.049c-4.701,-2.505 -8.607,-5.291 -11.719,-8.358c-3.112,-3.067 -5.429,-6.487 -6.952,-10.257c-1.523,-3.771 -2.284,-8.021 -2.284,-12.748c-0,-4.953 1.109,-9.371 3.327,-13.255c2.218,-3.883 5.313,-7.162 9.285,-9.835c3.973,-2.674 8.674,-4.714 14.103,-6.121c5.429,-1.407 11.355,-2.111 17.777,-2.111c6.091,0 11.488,0.535 16.188,1.604c4.701,1.07 8.674,2.505 11.918,4.306c3.244,1.801 5.711,3.869 7.399,6.205c1.688,2.336 2.532,4.77 2.532,7.303c0,3.715 -1.44,6.515 -4.32,8.4c-2.88,1.885 -6.77,2.828 -11.669,2.828c-0,-2.701 -0.381,-5.361 -1.142,-7.978c-0.762,-2.617 -2.036,-4.953 -3.824,-7.007c-1.787,-2.054 -4.138,-3.729 -7.051,-5.023c-2.913,-1.295 -6.522,-1.942 -10.825,-1.942c-3.907,0 -7.399,0.464 -10.478,1.393c-3.079,0.929 -5.677,2.251 -7.796,3.968c-2.119,1.717 -3.741,3.785 -4.866,6.205c-1.126,2.42 -1.689,5.122 -1.689,8.105c0,3.433 0.53,6.458 1.589,9.075c1.06,2.617 2.831,4.981 5.314,7.092c2.482,2.11 5.743,4.109 9.782,5.994c4.039,1.885 9.004,3.841 14.897,5.867c5.959,2.083 11.272,4.278 15.94,6.585c4.668,2.308 8.624,4.883 11.868,7.725c3.244,2.842 5.727,6.022 7.448,9.54c1.722,3.518 2.583,7.5 2.583,11.946c-0,5.459 -1.176,10.342 -3.526,14.648c-2.35,4.305 -5.711,7.949 -10.08,10.932c-4.37,2.983 -9.634,5.249 -15.791,6.797c-6.158,1.547 -13.044,2.321 -20.658,2.321Z" style="fill:#869ab8;fill-rule:nonzero;"/><path d="M102.114,125.369l-72.147,-99.62l0,79.949c0,2.702 0.423,4.869 1.268,6.501c0.846,1.632 1.973,2.885 3.382,3.757c1.409,0.872 3.085,1.449 5.026,1.731c1.942,0.281 3.977,0.422 6.106,0.422l2.537,-0l-0,7.26l-48.286,0l-0,-7.26l2.442,-0c2.192,-0 4.243,-0.141 6.154,-0.422c1.91,-0.282 3.585,-0.859 5.025,-1.731c1.441,-0.872 2.568,-2.125 3.382,-3.757c0.815,-1.632 1.222,-3.799 1.222,-6.501l-0,-84.761c-0,-2.533 -0.423,-4.573 -1.269,-6.121c-0.845,-1.547 -1.988,-2.743 -3.428,-3.588c-1.441,-0.844 -3.116,-1.393 -5.026,-1.646c-1.91,-0.253 -3.93,-0.38 -6.06,-0.38l-2.442,0l-0,-7.26l35.228,-0l68.859,95.567l-0,-76.572c-0,-2.533 -0.423,-4.573 -1.268,-6.121c-0.846,-1.547 -1.989,-2.743 -3.429,-3.588c-1.441,-0.844 -3.116,-1.393 -5.026,-1.646c-1.91,-0.253 -3.93,-0.38 -6.059,-0.38l-2.537,0l0,-7.26l48.286,-0l0,7.26l-2.442,0c-2.192,0 -4.243,0.141 -6.153,0.422c-1.911,0.282 -3.586,0.859 -5.026,1.731c-1.441,0.872 -2.568,2.125 -3.382,3.757c-0.814,1.632 -1.221,3.799 -1.221,6.5l-0,103.757l-13.716,0Z" style="fill:#869ab8;fill-rule:nonzero;"/><path d="M178.395,84.086l-7.328,18.151c-0.564,1.351 -1.002,2.688 -1.315,4.01c-0.313,1.323 -0.47,2.463 -0.47,3.419c0,2.927 1.049,5.066 3.147,6.417c2.098,1.35 5.308,2.026 9.629,2.026l4.415,-0l0,7.26l-46.97,0l-0,-7.26l3.664,-0c1.878,-0 3.475,-0.183 4.791,-0.549c1.315,-0.366 2.505,-1.055 3.569,-2.068c1.065,-1.014 2.083,-2.392 3.053,-4.137c0.971,-1.745 2.051,-3.996 3.241,-6.754l42.65,-102.659l15.03,-0l43.495,106.965c0.752,1.801 1.519,3.292 2.302,4.474c0.783,1.182 1.706,2.125 2.771,2.828c1.065,0.704 2.286,1.196 3.664,1.478c1.378,0.281 3.006,0.422 4.885,0.422l2.536,-0l0,7.26l-52.889,0l0,-7.26l4.415,-0c7.704,-0 11.555,-2.758 11.555,-8.274c0,-0.957 -0.141,-1.942 -0.423,-2.955c-0.281,-1.013 -0.673,-2.167 -1.174,-3.461l-7.703,-19.333l-50.54,-0Zm35.134,-38.919c-2.005,-5.122 -3.836,-9.92 -5.496,-14.395c-1.66,-4.474 -3.022,-8.794 -4.086,-12.959c-0.439,2.083 -0.956,4.095 -1.55,6.037c-0.595,1.941 -1.237,3.925 -1.926,5.952c-0.689,2.026 -1.472,4.15 -2.349,6.374c-0.877,2.223 -1.879,4.685 -3.006,7.387l-13.058,31.827l43.401,0l-11.93,-30.223Z" style="fill:#869ab8;fill-rule:nonzero;"/><path d="M332.083,105.698c-0,2.702 0.422,4.869 1.268,6.501c0.845,1.632 1.972,2.885 3.382,3.757c1.409,0.872 3.084,1.449 5.025,1.731c1.942,0.281 3.977,0.422 6.107,0.422l4.415,-0l-0,7.26l-59.841,0l0,-7.26l4.416,-0c2.129,-0 4.149,-0.127 6.059,-0.38c1.91,-0.253 3.585,-0.774 5.026,-1.562c1.44,-0.788 2.583,-1.956 3.428,-3.504c0.846,-1.547 1.269,-3.588 1.269,-6.12l-0,-95.99l-18.413,-0c-2.818,-0 -5.182,0.38 -7.092,1.14c-1.911,0.759 -3.476,1.787 -4.697,3.081c-1.222,1.295 -2.13,2.8 -2.725,4.517c-0.595,1.716 -1.017,3.532 -1.268,5.445l-1.033,7.429l-9.958,0l0.939,-30.223l108.315,-0l0.939,30.223l-9.958,0l-0.939,-7.429c-0.251,-1.913 -0.689,-3.729 -1.315,-5.445c-0.627,-1.717 -1.535,-3.222 -2.725,-4.517c-1.19,-1.294 -2.755,-2.322 -4.697,-3.081c-1.941,-0.76 -4.352,-1.14 -7.233,-1.14l-18.694,-0l-0,95.145Z" style="fill:#869ab8;fill-rule:nonzero;"/><path d="M388.823,125.369l0,-7.26l2.443,-0c2.191,-0 4.243,-0.141 6.153,-0.422c1.91,-0.282 3.585,-0.859 5.026,-1.731c1.44,-0.872 2.567,-2.125 3.381,-3.757c0.815,-1.632 1.222,-3.799 1.222,-6.501l-0,-84.086c-0,-2.701 -0.407,-4.868 -1.222,-6.5c-0.814,-1.632 -1.941,-2.885 -3.381,-3.757c-1.441,-0.872 -3.116,-1.449 -5.026,-1.731c-1.91,-0.281 -3.962,-0.422 -6.153,-0.422l-2.443,0l0,-7.26l55.989,-0l0,7.26l-2.536,0c-2.13,0 -4.165,0.141 -6.107,0.422c-1.941,0.282 -3.616,0.859 -5.025,1.731c-1.41,0.872 -2.537,2.125 -3.382,3.757c-0.846,1.632 -1.268,3.799 -1.268,6.5l-0,84.086c-0,2.702 0.422,4.869 1.268,6.501c0.845,1.632 1.972,2.885 3.382,3.757c1.409,0.872 3.084,1.449 5.025,1.731c1.942,0.281 3.977,0.422 6.107,0.422l2.536,-0l0,7.26l-55.989,0Z" style="fill:#869ab8;fill-rule:nonzero;"/><path d="M583.939,63.487c0,9.511 -1.315,18.179 -3.945,26.002c-2.631,7.823 -6.514,14.521 -11.649,20.093c-5.136,5.572 -11.461,9.877 -18.976,12.917c-7.516,3.039 -16.127,4.559 -25.834,4.559c-10.208,-0 -19.102,-1.52 -26.679,-4.559c-7.578,-3.04 -13.872,-7.345 -18.883,-12.917c-5.01,-5.572 -8.768,-12.284 -11.273,-20.135c-2.505,-7.852 -3.757,-16.561 -3.757,-26.129c-0,-9.568 1.252,-18.25 3.757,-26.045c2.505,-7.795 6.263,-14.45 11.273,-19.966c5.011,-5.516 11.336,-9.779 18.976,-12.79c7.641,-3.011 16.565,-4.517 26.774,-4.517c9.707,-0 18.287,1.506 25.74,4.517c7.452,3.011 13.746,7.288 18.882,12.832c5.135,5.544 9.018,12.213 11.649,20.008c2.63,7.796 3.945,16.505 3.945,26.13Zm-99.672,-0c0,8.555 0.705,16.195 2.114,22.921c1.409,6.725 3.679,12.41 6.811,17.053c3.131,4.643 7.186,8.189 12.165,10.638c4.979,2.448 11.038,3.672 18.178,3.672c7.139,-0 13.199,-1.224 18.178,-3.672c4.978,-2.449 9.018,-5.995 12.118,-10.638c3.1,-4.643 5.339,-10.328 6.717,-17.053c1.378,-6.726 2.066,-14.366 2.066,-22.921c0,-8.555 -0.688,-16.196 -2.066,-22.921c-1.378,-6.726 -3.617,-12.397 -6.717,-17.012c-3.1,-4.615 -7.108,-8.133 -12.025,-10.553c-4.916,-2.42 -10.944,-3.63 -18.083,-3.63c-7.14,0 -13.215,1.21 -18.225,3.63c-5.01,2.42 -9.097,5.938 -12.259,10.553c-3.163,4.615 -5.449,10.286 -6.858,17.012c-1.409,6.725 -2.114,14.366 -2.114,22.921Z" style="fill:#869ab8;fill-rule:nonzero;"/><path d="M704.372,125.369l-72.147,-99.62l-0,79.949c-0,2.702 0.423,4.869 1.268,6.501c0.846,1.632 1.973,2.885 3.382,3.757c1.409,0.872 3.084,1.449 5.026,1.731c1.941,0.281 3.977,0.422 6.106,0.422l2.537,-0l-0,7.26l-48.286,0l-0,-7.26l2.442,-0c2.192,-0 4.243,-0.141 6.153,-0.422c1.91,-0.282 3.586,-0.859 5.026,-1.731c1.441,-0.872 2.568,-2.125 3.382,-3.757c0.814,-1.632 1.221,-3.799 1.221,-6.501l0,-84.761c0,-2.533 -0.422,-4.573 -1.268,-6.121c-0.845,-1.547 -1.988,-2.743 -3.429,-3.588c-1.44,-0.844 -3.115,-1.393 -5.026,-1.646c-1.91,-0.253 -3.93,-0.38 -6.059,-0.38l-2.442,0l-0,-7.26l35.228,-0l68.859,95.567l-0,-76.572c-0,-2.533 -0.423,-4.573 -1.269,-6.121c-0.845,-1.547 -1.988,-2.743 -3.428,-3.588c-1.441,-0.844 -3.116,-1.393 -5.026,-1.646c-1.91,-0.253 -3.93,-0.38 -6.059,-0.38l-2.537,0l0,-7.26l48.286,-0l-0,7.26l-2.443,0c-2.192,0 -4.243,0.141 -6.153,0.422c-1.91,0.282 -3.585,0.859 -5.026,1.731c-1.44,0.872 -2.567,2.125 -3.381,3.757c-0.815,1.632 -1.222,3.799 -1.222,6.5l0,103.757l-13.715,0Z" style="fill:#869ab8;fill-rule:nonzero;"/><path d="M780.652,84.086l-7.327,18.151c-0.564,1.351 -1.002,2.688 -1.315,4.01c-0.314,1.323 -0.47,2.463 -0.47,3.419c-0,2.927 1.049,5.066 3.147,6.417c2.098,1.35 5.308,2.026 9.629,2.026l4.415,-0l0,7.26l-46.97,0l-0,-7.26l3.663,-0c1.879,-0 3.476,-0.183 4.791,-0.549c1.315,-0.366 2.505,-1.055 3.57,-2.068c1.065,-1.014 2.082,-2.392 3.053,-4.137c0.971,-1.745 2.051,-3.996 3.241,-6.754l42.649,-102.659l15.031,-0l43.495,106.965c0.751,1.801 1.519,3.292 2.301,4.474c0.783,1.182 1.707,2.125 2.772,2.828c1.064,0.704 2.286,1.196 3.663,1.478c1.378,0.281 3.007,0.422 4.885,0.422l2.537,-0l-0,7.26l-52.889,0l-0,-7.26l4.415,-0c7.703,-0 11.555,-2.758 11.555,-8.274c-0,-0.957 -0.141,-1.942 -0.423,-2.955c-0.282,-1.013 -0.673,-2.167 -1.174,-3.461l-7.703,-19.333l-50.541,-0Zm35.134,-38.919c-2.004,-5.122 -3.836,-9.92 -5.495,-14.395c-1.66,-4.474 -3.022,-8.794 -4.087,-12.959c-0.438,2.083 -0.955,4.095 -1.55,6.037c-0.595,1.941 -1.237,3.925 -1.926,5.952c-0.688,2.026 -1.471,4.15 -2.348,6.374c-0.877,2.223 -1.879,4.685 -3.006,7.387l-13.058,31.827l43.401,0l-11.931,-30.223Z" style="fill:#869ab8;fill-rule:nonzero;"/><path d="M884.739,125.369l0,-7.26l2.443,-0c2.192,-0 4.243,-0.141 6.153,-0.422c1.91,-0.282 3.585,-0.859 5.026,-1.731c1.44,-0.872 2.567,-2.125 3.382,-3.757c0.814,-1.632 1.221,-3.799 1.221,-6.501l-0,-84.086c-0,-2.701 -0.407,-4.868 -1.221,-6.5c-0.815,-1.632 -1.942,-2.885 -3.382,-3.757c-1.441,-0.872 -3.116,-1.449 -5.026,-1.731c-1.91,-0.281 -3.961,-0.422 -6.153,-0.422l-2.443,0l0,-7.26l55.989,-0l0,7.26l-2.536,0c-2.13,0 -4.149,0.127 -6.059,0.38c-1.911,0.253 -3.586,0.802 -5.026,1.646c-1.441,0.845 -2.584,2.041 -3.429,3.588c-0.846,1.548 -1.268,3.588 -1.268,6.121l-0,95.821l37.952,-0c2.881,-0 5.339,-0.464 7.374,-1.393c2.036,-0.929 3.711,-2.139 5.026,-3.63c1.315,-1.492 2.333,-3.166 3.053,-5.024c0.72,-1.857 1.206,-3.714 1.456,-5.571l1.879,-12.917l10.052,-0l-1.315,37.146l-103.148,0Z" style="fill:#869ab8;fill-rule:nonzero;"/></g></svg>