<svg width="100%" height="100%" viewBox="0 0 2948 252" version="1.1" xmlns="http://www.w3.org/2000/svg" xmlns:xlink="http://www.w3.org/1999/xlink" xml:space="preserve" style="fill-rule:evenodd;clip-rule:evenodd;stroke-linejoin:round;stroke-miterlimit:2;"><path d="M-0,239.229l2.418,-0c5.599,-0 10.583,-0.785 14.952,-2.354c4.368,-1.57 8.037,-4.2 11.007,-7.89c2.969,-3.69 5.238,-8.61 6.807,-14.761c1.57,-6.15 2.355,-13.806 2.355,-22.968l-0,-159.698c-0,-3.818 -0.573,-6.893 -1.718,-9.226c-1.146,-2.333 -2.694,-4.135 -4.645,-5.408c-1.951,-1.272 -4.22,-2.099 -6.808,-2.481c-2.587,-0.382 -5.323,-0.573 -8.207,-0.573l-3.309,0l0,-10.943l75.841,-0l-0,10.943l-3.436,0c-2.884,0 -5.641,0.212 -8.271,0.636c-2.63,0.425 -4.899,1.294 -6.808,2.609c-1.909,1.315 -3.436,3.202 -4.581,5.663c-1.145,2.46 -1.718,5.726 -1.718,9.798l0,158.425c0,11.707 -1.527,21.442 -4.581,29.204c-3.054,7.762 -7.253,13.955 -12.597,18.578c-5.345,4.624 -11.644,7.911 -18.897,9.862c-7.253,1.951 -15.037,2.927 -23.35,2.927l-4.454,-0l-0,-12.343Z" style="fill:#869ab8;fill-rule:nonzero;"/><path d="M156.898,175.986l50.264,-0c4.157,-0 7.699,-0.573 10.625,-1.718c2.927,-1.145 5.366,-2.693 7.317,-4.645c1.951,-1.951 3.478,-4.22 4.581,-6.807c1.103,-2.588 1.866,-5.324 2.291,-8.208l1.781,-11.198l13.616,0l-1.782,45.555l-139.72,0l0,-10.943l3.309,-0c2.884,-0 5.62,-0.191 8.208,-0.573c2.587,-0.382 4.856,-1.166 6.807,-2.354c1.952,-1.188 3.5,-2.948 4.645,-5.281c1.145,-2.333 1.718,-5.408 1.718,-9.225l-0,-128.013c-0,-4.072 -0.552,-7.338 -1.654,-9.798c-1.103,-2.461 -2.63,-4.348 -4.581,-5.663c-1.952,-1.315 -4.221,-2.184 -6.808,-2.609c-2.588,-0.424 -5.366,-0.636 -8.335,-0.636l-3.309,0l0,-10.943l131.322,-0l1.272,45.555l-13.488,0l-1.273,-11.198c-0.339,-2.884 -0.996,-5.62 -1.972,-8.208c-0.976,-2.587 -2.375,-4.856 -4.199,-6.807c-1.824,-1.952 -4.115,-3.5 -6.872,-4.645c-2.757,-1.145 -6.086,-1.718 -9.989,-1.718l-43.774,0l0,69.351l62.862,0l-0,12.725l-62.862,0l0,78.004Z" style="fill:#869ab8;fill-rule:nonzero;"/><path d="M319.269,15.906l-0,75.332l62.861,-0l-0,12.725l-62.861,-0l-0,55.353c-0,4.072 0.572,7.338 1.718,9.798c1.145,2.461 2.672,4.348 4.58,5.663c1.909,1.315 4.179,2.184 6.808,2.609c2.63,0.424 5.387,0.636 8.272,0.636l8.652,-0l0,10.943l-81.057,0l-0,-10.943l3.308,-0c2.884,-0 5.62,-0.191 8.208,-0.573c2.587,-0.382 4.856,-1.166 6.808,-2.354c1.951,-1.188 3.499,-2.948 4.644,-5.281c1.145,-2.333 1.718,-5.408 1.718,-9.225l0,-129.031c0,-3.818 -0.573,-6.893 -1.718,-9.226c-1.145,-2.333 -2.693,-4.135 -4.644,-5.408c-1.952,-1.272 -4.221,-2.099 -6.808,-2.481c-2.588,-0.382 -5.324,-0.573 -8.208,-0.573l-3.308,0l-0,-10.943l131.321,-0l1.272,45.555l-13.488,0l-1.272,-11.198c-0.34,-2.969 -1.018,-5.747 -2.036,-8.335c-1.018,-2.587 -2.482,-4.835 -4.391,-6.744c-1.908,-1.909 -4.305,-3.436 -7.189,-4.581c-2.884,-1.145 -6.363,-1.718 -10.435,-1.718l-42.755,0Z" style="fill:#869ab8;fill-rule:nonzero;"/><path d="M472.986,15.906l-0,75.332l62.861,-0l0,12.725l-62.861,-0l-0,55.353c-0,4.072 0.572,7.338 1.718,9.798c1.145,2.461 2.672,4.348 4.581,5.663c1.908,1.315 4.178,2.184 6.808,2.609c2.629,0.424 5.386,0.636 8.271,0.636l8.653,-0l-0,10.943l-81.058,0l-0,-10.943l3.308,-0c2.885,-0 5.621,-0.191 8.208,-0.573c2.587,-0.382 4.857,-1.166 6.808,-2.354c1.951,-1.188 3.499,-2.948 4.644,-5.281c1.146,-2.333 1.718,-5.408 1.718,-9.225l0,-129.031c0,-3.818 -0.572,-6.893 -1.718,-9.226c-1.145,-2.333 -2.693,-4.135 -4.644,-5.408c-1.951,-1.272 -4.221,-2.099 -6.808,-2.481c-2.587,-0.382 -5.323,-0.573 -8.208,-0.573l-3.308,0l-0,-10.943l131.321,-0l1.273,45.555l-13.489,0l-1.272,-11.198c-0.34,-2.969 -1.018,-5.747 -2.036,-8.335c-1.018,-2.587 -2.482,-4.835 -4.39,-6.744c-1.909,-1.909 -4.306,-3.436 -7.19,-4.581c-2.884,-1.145 -6.362,-1.718 -10.434,-1.718l-42.756,0Z" style="fill:#869ab8;fill-rule:nonzero;"/><path d="M626.703,175.986l50.264,-0c4.156,-0 7.698,-0.573 10.625,-1.718c2.927,-1.145 5.366,-2.693 7.317,-4.645c1.951,-1.951 3.478,-4.22 4.581,-6.807c1.103,-2.588 1.866,-5.324 2.29,-8.208l1.782,-11.198l13.615,0l-1.781,45.555l-139.72,0l0,-10.943l3.309,-0c2.884,-0 5.62,-0.191 8.207,-0.573c2.588,-0.382 4.857,-1.166 6.808,-2.354c1.951,-1.188 3.499,-2.948 4.645,-5.281c1.145,-2.333 1.717,-5.408 1.717,-9.225l0,-128.013c0,-4.072 -0.551,-7.338 -1.654,-9.798c-1.103,-2.461 -2.63,-4.348 -4.581,-5.663c-1.951,-1.315 -4.22,-2.184 -6.808,-2.609c-2.587,-0.424 -5.365,-0.636 -8.334,-0.636l-3.309,0l0,-10.943l131.321,-0l1.273,45.555l-13.489,0l-1.272,-11.198c-0.339,-2.884 -0.997,-5.62 -1.972,-8.208c-0.976,-2.587 -2.376,-4.856 -4.2,-6.807c-1.824,-1.952 -4.114,-3.5 -6.871,-4.645c-2.757,-1.145 -6.087,-1.718 -9.989,-1.718l-43.774,0l0,69.351l62.861,0l0,12.725l-62.861,0l0,78.004Z" style="fill:#869ab8;fill-rule:nonzero;"/><path d="M872.549,157.153c4.411,6.956 8.695,12.173 12.852,15.652c4.157,3.478 8.992,5.217 14.506,5.217l0.764,-0l-0,10.943l-3.69,0c-8.144,0 -14.825,-0.297 -20.042,-0.89c-5.217,-0.594 -9.65,-1.74 -13.298,-3.436c-3.647,-1.697 -6.765,-4.072 -9.352,-7.126c-2.588,-3.054 -5.366,-7.041 -8.335,-11.962l-35.248,-58.662l-21.633,0l0,53.7c0,3.817 0.573,6.892 1.718,9.225c1.145,2.333 2.694,4.093 4.645,5.281c1.951,1.188 4.22,1.972 6.808,2.354c2.587,0.382 5.323,0.573 8.207,0.573l3.436,-0l-0,10.943l-75.841,0l0,-10.943l3.309,-0c2.884,-0 5.62,-0.191 8.207,-0.573c2.588,-0.382 4.857,-1.166 6.808,-2.354c1.951,-1.188 3.5,-2.948 4.645,-5.281c1.145,-2.333 1.718,-5.408 1.718,-9.225l-0,-129.031c-0,-3.818 -0.573,-6.893 -1.718,-9.226c-1.145,-2.333 -2.694,-4.135 -4.645,-5.408c-1.951,-1.272 -4.22,-2.099 -6.808,-2.481c-2.587,-0.382 -5.323,-0.573 -8.207,-0.573l-3.309,0l0,-10.943l70.115,-0c22.565,-0 39.362,4.178 50.39,12.534c11.029,8.356 16.543,20.932 16.543,37.729c-0,6.957 -1.124,13.043 -3.372,18.261c-2.248,5.217 -5.196,9.734 -8.844,13.552c-3.648,3.817 -7.762,6.998 -12.343,9.543c-4.581,2.545 -9.162,4.581 -13.743,6.108l35.757,56.499Zm-83.476,-62.479l18.324,-0c7.635,-0 13.998,-0.849 19.088,-2.545c5.09,-1.697 9.162,-4.242 12.216,-7.635c3.053,-3.394 5.238,-7.635 6.553,-12.725c1.315,-5.09 1.972,-11.029 1.972,-17.815c0,-6.957 -0.721,-12.874 -2.163,-17.752c-1.442,-4.877 -3.775,-8.865 -6.999,-11.961c-3.223,-3.096 -7.401,-5.344 -12.534,-6.744c-5.132,-1.4 -11.389,-2.1 -18.769,-2.1l-17.688,0l0,79.277Z" style="fill:#869ab8;fill-rule:nonzero;"/><path d="M963.405,191.51c-8.483,0 -15.97,-0.89 -22.46,-2.672c-6.489,-1.781 -11.919,-4.263 -16.288,-7.444c-4.368,-3.181 -7.656,-7.041 -9.861,-11.58c-2.206,-4.538 -3.309,-9.522 -3.309,-14.952c0,-5.259 1.633,-9.501 4.899,-12.724c3.266,-3.224 7.911,-4.836 13.934,-4.836c0.255,5.429 1.082,10.647 2.481,15.652c1.4,5.005 3.5,9.416 6.299,13.234c2.8,3.817 6.363,6.871 10.689,9.162c4.327,2.29 9.544,3.435 15.652,3.435c11.707,0 20.848,-2.82 27.422,-8.462c6.575,-5.641 9.862,-13.764 9.862,-24.368c-0,-4.751 -0.679,-8.95 -2.036,-12.598c-1.357,-3.647 -3.605,-7.02 -6.744,-10.116c-3.139,-3.096 -7.275,-6.066 -12.407,-8.907c-5.132,-2.842 -11.516,-5.833 -19.151,-8.972c-8.059,-3.308 -15.1,-6.85 -21.124,-10.625c-6.023,-3.775 -11.028,-7.974 -15.015,-12.598c-3.987,-4.623 -6.956,-9.777 -8.907,-15.46c-1.952,-5.684 -2.927,-12.089 -2.927,-19.215c-0,-7.465 1.421,-14.125 4.263,-19.978c2.842,-5.854 6.808,-10.795 11.898,-14.825c5.09,-4.029 11.113,-7.104 18.069,-9.225c6.956,-2.121 14.549,-3.182 22.778,-3.182c7.804,0 14.718,0.806 20.741,2.418c6.023,1.612 11.113,3.775 15.27,6.49c4.157,2.715 7.317,5.832 9.48,9.353c2.163,3.52 3.245,7.189 3.245,11.007c0,5.599 -1.845,9.819 -5.535,12.661c-3.69,2.842 -8.674,4.263 -14.952,4.263c-0,-4.072 -0.488,-8.08 -1.463,-12.025c-0.976,-3.945 -2.609,-7.465 -4.9,-10.562c-2.29,-3.096 -5.302,-5.62 -9.034,-7.571c-3.733,-1.951 -8.356,-2.927 -13.87,-2.927c-5.006,0 -9.48,0.7 -13.425,2.1c-3.945,1.4 -7.275,3.393 -9.989,5.981c-2.715,2.587 -4.793,5.705 -6.236,9.352c-1.442,3.648 -2.163,7.72 -2.163,12.216c0,5.175 0.679,9.735 2.036,13.68c1.358,3.944 3.627,7.507 6.808,10.689c3.181,3.181 7.359,6.192 12.534,9.034c5.175,2.842 11.537,5.79 19.088,8.844c7.635,3.139 14.442,6.447 20.423,9.926c5.981,3.478 11.05,7.359 15.206,11.643c4.157,4.284 7.338,9.077 9.544,14.379c2.206,5.302 3.309,11.304 3.309,18.006c-0,8.229 -1.506,15.588 -4.518,22.078c-3.011,6.489 -7.317,11.982 -12.916,16.478c-5.599,4.496 -12.343,7.911 -20.232,10.244c-7.89,2.333 -16.712,3.499 -26.468,3.499Z" style="fill:#869ab8;fill-rule:nonzero;"/><path d="M1219.3,95.692c0,14.336 -1.781,27.401 -5.344,39.192c-3.563,11.792 -8.823,21.887 -15.779,30.286c-6.956,8.398 -15.524,14.888 -25.704,19.469c-10.18,4.581 -21.845,6.871 -34.994,6.871c-13.828,0 -25.874,-2.29 -36.139,-6.871c-10.265,-4.581 -18.79,-11.071 -25.577,-19.469c-6.787,-8.399 -11.877,-18.515 -15.27,-30.349c-3.393,-11.834 -5.09,-24.962 -5.09,-39.384c0,-14.422 1.697,-27.507 5.09,-39.256c3.393,-11.75 8.483,-21.781 15.27,-30.095c6.787,-8.314 15.355,-14.74 25.704,-19.278c10.35,-4.539 22.439,-6.808 36.267,-6.808c13.149,-0 24.771,2.269 34.866,6.808c10.095,4.538 18.621,10.986 25.577,19.342c6.956,8.356 12.216,18.408 15.779,30.158c3.563,11.749 5.344,24.877 5.344,39.384Zm-135.011,-0c-0,12.894 0.954,24.41 2.863,34.548c1.909,10.137 4.984,18.705 9.225,25.704c4.242,6.999 9.735,12.343 16.479,16.034c6.744,3.69 14.952,5.535 24.623,5.535c9.671,-0 17.879,-1.845 24.623,-5.535c6.744,-3.691 12.216,-9.035 16.415,-16.034c4.199,-6.999 7.232,-15.567 9.098,-25.704c1.867,-10.138 2.8,-21.654 2.8,-34.548c-0,-12.895 -0.933,-24.411 -2.8,-34.549c-1.866,-10.137 -4.899,-18.684 -9.098,-25.64c-4.199,-6.957 -9.629,-12.259 -16.288,-15.907c-6.659,-3.647 -14.825,-5.471 -24.495,-5.471c-9.671,-0 -17.9,1.824 -24.687,5.471c-6.787,3.648 -12.322,8.95 -16.606,15.907c-4.284,6.956 -7.38,15.503 -9.289,25.64c-1.909,10.138 -2.863,21.654 -2.863,34.549Z" style="fill:#869ab8;fill-rule:nonzero;"/><path d="M1382.44,188.965l-97.727,-150.154l-0,120.505c-0,4.072 0.572,7.338 1.717,9.798c1.146,2.461 2.673,4.348 4.581,5.663c1.909,1.315 4.178,2.184 6.808,2.609c2.63,0.424 5.387,0.636 8.271,0.636l3.436,-0l0,10.943l-65.406,0l-0,-10.943l3.308,-0c2.97,-0 5.748,-0.212 8.335,-0.636c2.588,-0.425 4.857,-1.294 6.808,-2.609c1.951,-1.315 3.478,-3.202 4.581,-5.663c1.103,-2.46 1.654,-5.726 1.654,-9.798l0,-127.758c0,-3.818 -0.572,-6.893 -1.718,-9.226c-1.145,-2.333 -2.693,-4.135 -4.644,-5.408c-1.951,-1.272 -4.221,-2.099 -6.808,-2.481c-2.587,-0.382 -5.323,-0.573 -8.208,-0.573l-3.308,0l-0,-10.943l47.718,-0l93.274,144.046l0,-115.415c0,-3.818 -0.572,-6.893 -1.718,-9.226c-1.145,-2.333 -2.693,-4.135 -4.644,-5.408c-1.951,-1.272 -4.221,-2.099 -6.808,-2.481c-2.587,-0.382 -5.323,-0.573 -8.208,-0.573l-3.435,0l-0,-10.943l65.406,-0l-0,10.943l-3.309,0c-2.969,0 -5.747,0.212 -8.335,0.636c-2.587,0.425 -4.856,1.294 -6.807,2.609c-1.952,1.315 -3.479,3.202 -4.581,5.663c-1.103,2.46 -1.655,5.726 -1.655,9.798l0,156.389l-18.578,0Z" style="fill:#869ab8;fill-rule:nonzero;"/><path d="M1665.95,188.965l-0,-10.943l0.89,-0c2.8,-0 5.324,-0.191 7.572,-0.573c2.248,-0.382 4.156,-1.145 5.726,-2.29c1.569,-1.146 2.821,-2.8 3.754,-4.963c0.933,-2.163 1.484,-5.026 1.654,-8.589l-0,-139.211l-59.68,166.569l-14.125,0l-60.443,-166.06l-0,136.411c-0,4.072 0.424,7.338 1.272,9.798c0.849,2.461 2.1,4.348 3.754,5.663c1.655,1.315 3.648,2.184 5.981,2.609c2.333,0.424 4.942,0.636 7.826,0.636l0.763,-0l0,10.943l-60.189,0l0,-10.943l3.309,-0c2.884,-0 5.62,-0.191 8.207,-0.573c2.588,-0.382 4.857,-1.166 6.808,-2.354c1.951,-1.188 3.5,-2.948 4.645,-5.281c1.145,-2.333 1.718,-5.408 1.718,-9.225l-0,-129.031c-0,-3.818 -0.573,-6.893 -1.718,-9.226c-1.145,-2.333 -2.694,-4.135 -4.645,-5.408c-1.951,-1.272 -4.22,-2.099 -6.808,-2.481c-2.587,-0.382 -5.323,-0.573 -8.207,-0.573l-3.309,0l0,-10.943l59.426,-0l53.954,149.009l53.444,-149.009l57.771,-0l0,10.943l-3.308,0c-2.969,0 -5.747,0.212 -8.335,0.636c-2.587,0.425 -4.857,1.294 -6.808,2.609c-1.951,1.315 -3.478,3.202 -4.581,5.663c-1.102,2.46 -1.654,5.726 -1.654,9.798l0,126.74c0,4.072 0.552,7.338 1.654,9.798c1.103,2.461 2.63,4.348 4.581,5.663c1.951,1.315 4.221,2.184 6.808,2.609c2.588,0.424 5.366,0.636 8.335,0.636l3.308,-0l0,10.943l-69.35,0Z" style="fill:#869ab8;fill-rule:nonzero;"/><path d="M1806.18,175.986l50.264,-0c4.157,-0 7.698,-0.573 10.625,-1.718c2.927,-1.145 5.366,-2.693 7.317,-4.645c1.951,-1.951 3.478,-4.22 4.581,-6.807c1.103,-2.588 1.866,-5.324 2.29,-8.208l1.782,-11.198l13.616,0l-1.782,45.555l-139.72,0l0,-10.943l3.309,-0c2.884,-0 5.62,-0.191 8.207,-0.573c2.588,-0.382 4.857,-1.166 6.808,-2.354c1.951,-1.188 3.5,-2.948 4.645,-5.281c1.145,-2.333 1.718,-5.408 1.718,-9.225l-0,-128.013c-0,-4.072 -0.552,-7.338 -1.654,-9.798c-1.103,-2.461 -2.63,-4.348 -4.581,-5.663c-1.952,-1.315 -4.221,-2.184 -6.808,-2.609c-2.588,-0.424 -5.366,-0.636 -8.335,-0.636l-3.309,0l0,-10.943l131.322,-0l1.272,45.555l-13.488,0l-1.273,-11.198c-0.339,-2.884 -0.996,-5.62 -1.972,-8.208c-0.976,-2.587 -2.375,-4.856 -4.199,-6.807c-1.824,-1.952 -4.115,-3.5 -6.872,-4.645c-2.757,-1.145 -6.087,-1.718 -9.989,-1.718l-43.774,0l0,69.351l62.862,0l-0,12.725l-62.862,0l0,78.004Z" style="fill:#869ab8;fill-rule:nonzero;"/><path d="M2072.76,188.965l-0,-10.943l0.891,-0c2.799,-0 5.323,-0.191 7.571,-0.573c2.248,-0.382 4.157,-1.145 5.726,-2.29c1.569,-1.146 2.821,-2.8 3.754,-4.963c0.933,-2.163 1.485,-5.026 1.654,-8.589l0,-139.211l-59.68,166.569l-14.124,0l-60.444,-166.06l0,136.411c0,4.072 0.424,7.338 1.273,9.798c0.848,2.461 2.099,4.348 3.753,5.663c1.655,1.315 3.648,2.184 5.981,2.609c2.333,0.424 4.942,0.636 7.826,0.636l0.764,-0l-0,10.943l-60.189,0l-0,-10.943l3.308,-0c2.884,-0 5.62,-0.191 8.208,-0.573c2.587,-0.382 4.856,-1.166 6.807,-2.354c1.952,-1.188 3.5,-2.948 4.645,-5.281c1.145,-2.333 1.718,-5.408 1.718,-9.225l-0,-129.031c-0,-3.818 -0.573,-6.893 -1.718,-9.226c-1.145,-2.333 -2.693,-4.135 -4.645,-5.408c-1.951,-1.272 -4.22,-2.099 -6.807,-2.481c-2.588,-0.382 -5.324,-0.573 -8.208,-0.573l-3.308,0l-0,-10.943l59.425,-0l53.954,149.009l53.444,-149.009l57.772,-0l-0,10.943l-3.309,0c-2.969,0 -5.747,0.212 -8.335,0.636c-2.587,0.425 -4.856,1.294 -6.807,2.609c-1.952,1.315 -3.479,3.202 -4.581,5.663c-1.103,2.46 -1.655,5.726 -1.655,9.798l0,126.74c0,4.072 0.552,7.338 1.655,9.798c1.102,2.461 2.629,4.348 4.581,5.663c1.951,1.315 4.22,2.184 6.807,2.609c2.588,0.424 5.366,0.636 8.335,0.636l3.309,-0l-0,10.943l-69.351,0Z" style="fill:#869ab8;fill-rule:nonzero;"/><path d="M2330.57,95.692c-0,14.336 -1.782,27.401 -5.344,39.192c-3.563,11.792 -8.823,21.887 -15.779,30.286c-6.957,8.398 -15.525,14.888 -25.705,19.469c-10.18,4.581 -21.844,6.871 -34.993,6.871c-13.828,0 -25.874,-2.29 -36.139,-6.871c-10.265,-4.581 -18.791,-11.071 -25.577,-19.469c-6.787,-8.399 -11.877,-18.515 -15.27,-30.349c-3.394,-11.834 -5.09,-24.962 -5.09,-39.384c-0,-14.422 1.696,-27.507 5.09,-39.256c3.393,-11.75 8.483,-21.781 15.27,-30.095c6.786,-8.314 15.354,-14.74 25.704,-19.278c10.35,-4.539 22.438,-6.808 36.266,-6.808c13.149,-0 24.771,2.269 34.866,6.808c10.096,4.538 18.621,10.986 25.578,19.342c6.956,8.356 12.216,18.408 15.779,30.158c3.562,11.749 5.344,24.877 5.344,39.384Zm-135.012,-0c0,12.894 0.955,24.41 2.864,34.548c1.908,10.137 4.983,18.705 9.225,25.704c4.242,6.999 9.735,12.343 16.479,16.034c6.744,3.69 14.952,5.535 24.623,5.535c9.671,-0 17.878,-1.845 24.622,-5.535c6.745,-3.691 12.216,-9.035 16.416,-16.034c4.199,-6.999 7.232,-15.567 9.098,-25.704c1.866,-10.138 2.799,-21.654 2.799,-34.548c0,-12.895 -0.933,-24.411 -2.799,-34.549c-1.866,-10.137 -4.899,-18.684 -9.098,-25.64c-4.2,-6.957 -9.629,-12.259 -16.288,-15.907c-6.66,-3.647 -14.825,-5.471 -24.496,-5.471c-9.671,-0 -17.9,1.824 -24.686,5.471c-6.787,3.648 -12.322,8.95 -16.606,15.907c-4.284,6.956 -7.381,15.503 -9.289,25.64c-1.909,10.138 -2.864,21.654 -2.864,34.549Z" style="fill:#869ab8;fill-rule:nonzero;"/><path d="M2489.89,157.153c4.411,6.956 8.696,12.173 12.852,15.652c4.157,3.478 8.993,5.217 14.507,5.217l0.763,-0l0,10.943l-3.69,0c-8.144,0 -14.824,-0.297 -20.042,-0.89c-5.217,-0.594 -9.649,-1.74 -13.297,-3.436c-3.648,-1.697 -6.766,-4.072 -9.353,-7.126c-2.588,-3.054 -5.366,-7.041 -8.335,-11.962l-35.248,-58.662l-21.632,0l-0,53.7c-0,3.817 0.572,6.892 1.717,9.225c1.146,2.333 2.694,4.093 4.645,5.281c1.951,1.188 4.221,1.972 6.808,2.354c2.587,0.382 5.323,0.573 8.207,0.573l3.436,-0l0,10.943l-75.84,0l-0,-10.943l3.308,-0c2.884,-0 5.62,-0.191 8.208,-0.573c2.587,-0.382 4.856,-1.166 6.808,-2.354c1.951,-1.188 3.499,-2.948 4.644,-5.281c1.145,-2.333 1.718,-5.408 1.718,-9.225l-0,-129.031c-0,-3.818 -0.573,-6.893 -1.718,-9.226c-1.145,-2.333 -2.693,-4.135 -4.644,-5.408c-1.952,-1.272 -4.221,-2.099 -6.808,-2.481c-2.588,-0.382 -5.324,-0.573 -8.208,-0.573l-3.308,0l-0,-10.943l70.114,-0c22.566,-0 39.362,4.178 50.391,12.534c11.028,8.356 16.542,20.932 16.542,37.729c0,6.957 -1.124,13.043 -3.372,18.261c-2.248,5.217 -5.196,9.734 -8.844,13.552c-3.648,3.817 -7.762,6.998 -12.343,9.543c-4.581,2.545 -9.162,4.581 -13.743,6.108l35.757,56.499Zm-83.475,-62.479l18.324,-0c7.634,-0 13.997,-0.849 19.087,-2.545c5.09,-1.697 9.162,-4.242 12.216,-7.635c3.054,-3.394 5.238,-7.635 6.553,-12.725c1.315,-5.09 1.973,-11.029 1.973,-17.815c-0,-6.957 -0.722,-12.874 -2.164,-17.752c-1.442,-4.877 -3.775,-8.865 -6.998,-11.961c-3.224,-3.096 -7.402,-5.344 -12.534,-6.744c-5.133,-1.4 -11.389,-2.1 -18.77,-2.1l-17.687,0l-0,79.277Z" style="fill:#869ab8;fill-rule:nonzero;"/><path d="M2526.28,188.965l0,-10.943l3.309,-0c2.969,-0 5.747,-0.212 8.335,-0.636c2.587,-0.425 4.856,-1.294 6.808,-2.609c1.951,-1.315 3.478,-3.202 4.581,-5.663c1.102,-2.46 1.654,-5.726 1.654,-9.798l-0,-126.74c-0,-4.072 -0.552,-7.338 -1.654,-9.798c-1.103,-2.461 -2.63,-4.348 -4.581,-5.663c-1.952,-1.315 -4.221,-2.184 -6.808,-2.609c-2.588,-0.424 -5.366,-0.636 -8.335,-0.636l-3.309,0l0,-10.943l75.841,-0l0,10.943l-3.436,0c-2.884,0 -5.641,0.212 -8.271,0.636c-2.63,0.425 -4.899,1.294 -6.808,2.609c-1.908,1.315 -3.435,3.202 -4.581,5.663c-1.145,2.46 -1.718,5.726 -1.718,9.798l0,126.74c0,4.072 0.573,7.338 1.718,9.798c1.146,2.461 2.673,4.348 4.581,5.663c1.909,1.315 4.178,2.184 6.808,2.609c2.63,0.424 5.387,0.636 8.271,0.636l3.436,-0l0,10.943l-75.841,0Z" style="fill:#869ab8;fill-rule:nonzero;"/><path d="M2664.73,126.74l-9.926,27.359c-0.763,2.036 -1.357,4.051 -1.781,6.044c-0.424,1.994 -0.636,3.712 -0.636,5.154c-0,4.411 1.421,7.635 4.262,9.671c2.842,2.036 7.19,3.054 13.044,3.054l5.98,-0l0,10.943l-63.624,0l-0,-10.943l4.962,-0c2.545,-0 4.709,-0.276 6.49,-0.827c1.781,-0.552 3.393,-1.591 4.835,-3.118c1.443,-1.527 2.821,-3.605 4.136,-6.235c1.315,-2.63 2.778,-6.023 4.39,-10.18l57.771,-154.735l20.36,-0l58.917,161.225c1.018,2.714 2.057,4.962 3.117,6.744c1.061,1.781 2.312,3.202 3.754,4.263c1.442,1.06 3.097,1.802 4.963,2.227c1.866,0.424 4.072,0.636 6.617,0.636l3.436,-0l-0,10.943l-71.642,0l0,-10.943l5.981,-0c10.434,-0 15.652,-4.157 15.652,-12.471c-0,-1.442 -0.191,-2.926 -0.573,-4.453c-0.382,-1.527 -0.912,-3.266 -1.591,-5.218l-10.434,-29.14l-68.46,0Zm47.591,-58.662c-2.715,-7.719 -5.196,-14.951 -7.444,-21.696c-2.248,-6.744 -4.093,-13.255 -5.535,-19.532c-0.594,3.138 -1.294,6.171 -2.1,9.098c-0.806,2.927 -1.675,5.917 -2.609,8.971c-0.933,3.054 -1.993,6.256 -3.181,9.607c-1.188,3.351 -2.545,7.063 -4.072,11.135l-17.687,47.973l58.789,-0l-16.161,-45.556Z" style="fill:#869ab8;fill-rule:nonzero;"/><path d="M2805.72,188.965l0,-10.943l3.309,-0c2.969,-0 5.747,-0.212 8.334,-0.636c2.588,-0.425 4.857,-1.294 6.808,-2.609c1.951,-1.315 3.478,-3.202 4.581,-5.663c1.103,-2.46 1.654,-5.726 1.654,-9.798l0,-126.74c0,-4.072 -0.551,-7.338 -1.654,-9.798c-1.103,-2.461 -2.63,-4.348 -4.581,-5.663c-1.951,-1.315 -4.22,-2.184 -6.808,-2.609c-2.587,-0.424 -5.365,-0.636 -8.334,-0.636l-3.309,0l0,-10.943l75.841,-0l-0,10.943l-3.436,0c-2.884,0 -5.62,0.191 -8.208,0.573c-2.587,0.382 -4.856,1.209 -6.807,2.481c-1.952,1.273 -3.5,3.075 -4.645,5.408c-1.145,2.333 -1.718,5.408 -1.718,9.226l0,144.428l51.409,-0c3.902,-0 7.232,-0.7 9.989,-2.1c2.757,-1.399 5.026,-3.223 6.808,-5.471c1.781,-2.249 3.16,-4.772 4.135,-7.572c0.976,-2.799 1.633,-5.599 1.973,-8.398l2.545,-19.469l13.615,-0l-1.781,55.989l-139.72,0Z" style="fill:#869ab8;fill-rule:nonzero;"/></svg>