<svg width="100%" height="100%" viewBox="0 0 199742 71705" version="1.1" xmlns="http://www.w3.org/2000/svg" xmlns:xlink="http://www.w3.org/1999/xlink" xml:space="preserve" style="fill:currentColor;fill-rule:evenodd;clip-rule:evenodd;stroke-linejoin:round;stroke-miterlimit:2;"><path d="M15592.4,30487.1l-83.226,-437.994l83.226,-1417.04c0,-51.529 -41.613,-107.352 -124.84,-167.468c-83.226,-60.117 -184.948,-115.94 -305.164,-167.468c-120.217,-51.529 -240.433,-94.469 -360.649,-128.822c-120.217,-34.352 -217.315,-51.528 -291.294,-51.528l-776.782,-0c-73.98,-0 -184.949,12.882 -332.907,38.646l-915.494,206.115c-147.959,25.764 -249.68,38.646 -305.165,38.646c-258.927,-0 -411.509,-55.823 -457.747,-167.468c-46.237,-111.645 -69.355,-218.997 -69.355,-322.054c-0,-171.762 92.474,-352.112 277.422,-541.05c184.948,-188.938 397.639,-352.112 638.072,-489.522c240.432,-137.41 476.241,-253.349 707.427,-347.818c231.185,-94.469 383.767,-141.704 457.747,-141.704l1081.95,0c184.948,0 332.907,17.177 443.875,51.529c110.969,34.352 208.067,68.705 291.294,103.057c83.227,34.353 157.206,68.705 221.938,103.057c64.732,34.353 152.582,51.529 263.551,51.529c73.979,-0 286.67,-21.47 638.071,-64.411c351.402,-42.94 739.793,-94.469 1165.17,-154.586c425.381,-60.116 836.891,-111.645 1234.53,-154.585c397.638,-42.941 698.179,-64.411 901.622,-64.411l554.845,-0c110.969,-0 263.551,17.176 457.747,51.528c194.196,34.353 291.293,163.174 291.293,386.465c0,309.172 -147.958,506.698 -443.875,592.579c-295.918,85.881 -619.577,176.056 -970.979,270.525c-351.401,94.469 -675.061,244.761 -970.978,450.875c-295.917,206.115 -443.876,575.403 -443.876,1107.87c-18.494,51.529 -36.989,111.646 -55.484,180.351c-18.495,51.528 -27.742,111.645 -27.742,180.35l-0,206.114c73.979,206.115 18.495,472.346 -166.454,798.694c-92.474,395.052 -138.711,704.224 -138.711,927.515c55.485,34.352 110.969,77.292 166.454,128.821c73.979,68.705 147.958,171.762 221.937,309.172l0,283.407c0,85.881 9.248,163.174 27.743,231.879c-0,68.705 9.247,137.409 27.742,206.114c36.99,309.172 46.237,588.285 27.742,837.34c-18.495,249.055 -41.613,489.522 -69.355,721.401c-27.743,231.878 -46.237,459.463 -55.485,682.754c-9.247,223.29 4.624,455.169 41.613,695.636l-83.226,1288.21l83.226,412.229l-166.453,798.693c36.99,291.996 0,751.459 -110.969,1378.39c-110.969,626.932 -263.551,1292.51 -457.747,1996.73c-194.195,704.224 -411.51,1369.8 -651.942,1996.73c-240.433,626.931 -453.123,1077.81 -638.072,1352.62c-332.907,395.053 -767.535,708.519 -1303.88,940.398c-536.35,231.878 -1031.09,403.64 -1484.21,515.286c-453.123,111.645 -786.03,184.644 -998.721,218.996c-212.69,34.353 -152.582,51.529 180.325,51.529l-554.845,-0c-55.484,-0 -175.701,12.882 -360.649,38.646c-184.948,25.765 -388.391,51.529 -610.329,77.293c-221.938,25.764 -443.876,47.235 -665.814,64.411c-221.938,17.176 -397.638,25.764 -527.102,25.764c-203.443,0 -453.123,-17.176 -749.041,-51.528c-295.917,-34.353 -582.587,-103.058 -860.009,-206.115c-277.422,-103.057 -513.231,-253.349 -707.427,-450.875c-194.196,-197.526 -291.293,-459.464 -291.293,-785.811c-0,-103.058 83.226,-257.643 249.68,-463.758c166.453,-206.114 351.401,-412.229 554.844,-618.343c221.938,-240.467 490.113,-498.11 804.525,-772.929c55.485,-85.881 115.593,-141.704 180.325,-167.468c64.732,-25.765 124.84,-55.823 180.324,-90.175c73.98,-17.176 138.712,-34.353 194.196,-51.529c110.969,0 226.562,12.882 346.778,38.647c120.216,25.764 254.304,115.939 402.262,270.525c277.423,171.762 503.984,343.524 679.685,515.286c175.701,171.762 360.649,322.054 554.845,450.875c194.195,128.822 411.51,236.173 651.942,322.054c240.433,85.881 564.092,128.821 970.979,128.821c110.968,-85.881 221.937,-171.762 332.906,-257.643c92.474,-85.881 198.82,-163.173 319.036,-231.878c120.216,-68.705 235.809,-145.998 346.778,-231.879c332.907,-309.172 596.458,-656.99 790.654,-1043.45c194.195,-386.465 342.154,-790.106 443.875,-1210.92c101.722,-420.817 166.454,-841.634 194.196,-1262.45c27.742,-420.817 41.613,-820.164 41.613,-1198.04c55.485,-51.528 101.722,-145.997 138.712,-283.407c36.989,-137.41 55.484,-291.995 55.484,-463.757c0,-171.762 -9.247,-343.524 -27.742,-515.286c-18.495,-171.762 -46.237,-326.348 -83.227,-463.758l0,-5874.26l-221.938,-1210.92Z" style="fill-rule:nonzero;"/><path d="M26522.8,28632c388.391,-0 716.674,64.41 984.849,193.232c268.175,128.822 485.489,304.878 651.943,528.168c166.453,223.291 286.669,480.934 360.649,772.929c73.979,291.996 101.721,601.167 83.226,927.515c0,463.758 -184.948,837.34 -554.844,1120.75c-369.897,283.408 -749.041,528.169 -1137.43,734.283c-351.402,223.291 -725.922,420.817 -1123.56,592.579c-397.639,171.762 -767.536,360.7 -1109.69,566.815c-342.154,206.114 -628.824,446.581 -860.009,721.4c-231.185,274.82 -356.025,626.932 -374.52,1056.34l-0,1082.1c-36.99,291.996 27.742,579.697 194.195,863.105c166.454,283.407 379.144,425.111 638.072,425.111c18.495,17.176 92.474,-8.588 221.938,-77.293c129.463,-68.705 272.798,-150.292 430.004,-244.761c157.206,-94.469 314.412,-193.232 471.618,-296.29c157.206,-103.057 272.799,-180.35 346.778,-231.878c277.423,-120.234 494.737,-218.997 651.943,-296.29c157.206,-77.293 272.798,-98.763 346.778,-64.411c129.463,0 240.432,17.177 332.907,51.529c92.474,34.352 138.711,163.174 138.711,386.465c-36.99,377.876 -212.691,742.87 -527.103,1094.98c-314.412,352.113 -656.566,678.46 -1026.46,979.044c-369.897,300.584 -730.546,562.521 -1081.95,785.811c-351.401,223.291 -582.587,386.465 -693.555,489.522c-314.412,257.643 -605.706,395.053 -873.881,412.229c-268.175,17.176 -540.973,25.764 -818.396,25.764c-166.453,-17.176 -337.53,-85.881 -513.231,-206.114c-175.701,-120.234 -332.907,-261.937 -471.618,-425.111c-138.711,-163.174 -245.057,-330.642 -319.036,-502.404c-73.979,-171.762 -101.721,-317.76 -83.227,-437.993l0,-437.994c0,-120.233 -36.989,-249.054 -110.969,-386.464c-36.989,-68.705 -73.979,-128.822 -110.968,-180.35l83.226,-515.286l0,-412.229c0,-68.705 18.495,-253.349 55.485,-553.933c36.989,-300.583 83.226,-626.931 138.711,-979.043l249.68,-1636.03c73.979,-51.529 110.969,-103.058 110.969,-154.586c-0,-51.529 -9.247,-103.057 -27.742,-154.586c-18.495,-51.529 -27.743,-115.939 -27.743,-193.232c0,-77.293 36.99,-167.468 110.969,-270.526c0,-206.114 46.237,-420.817 138.712,-644.107c55.484,-120.234 110.969,-240.467 166.453,-360.7l388.391,-850.222c36.99,-377.877 231.186,-768.635 582.587,-1172.28c351.402,-403.641 762.912,-768.635 1234.53,-1094.98c471.618,-326.348 957.107,-588.285 1456.47,-785.811c499.36,-197.527 924.741,-279.114 1276.14,-244.761Zm-1248.4,1932.32c-92.474,0 -184.948,64.411 -277.422,193.233c-92.474,128.821 -184.948,270.525 -277.422,425.111c-92.475,188.938 -184.949,386.464 -277.423,592.579l-166.453,605.461c-18.495,94.469 -9.248,171.762 27.742,231.879c36.99,60.116 110.969,90.175 221.938,90.175c92.474,17.176 231.185,-0 416.133,-51.529c184.949,-51.529 374.521,-128.821 568.716,-231.879c194.196,-103.057 369.897,-227.584 527.103,-373.582c157.206,-145.998 245.056,-304.878 263.551,-476.64l-0,-437.993c-0,-85.881 -27.742,-163.174 -83.227,-231.879c-55.484,-68.704 -120.216,-120.233 -194.195,-154.585c-73.98,-51.529 -166.454,-94.469 -277.423,-128.822l-471.618,-51.529Z" style="fill-rule:nonzero;"/><path d="M30850.6,32574c110.969,-480.933 78.603,-820.163 -97.097,-1017.69c-175.701,-197.526 -402.263,-296.289 -679.685,-296.289c-147.959,-0 -328.283,-4.294 -540.974,-12.882c-212.69,-8.589 -365.272,-47.235 -457.747,-115.94c-92.474,-68.705 -175.7,-137.409 -249.68,-206.114c-147.958,-137.41 -221.938,-257.643 -221.938,-360.701c0,-257.643 138.712,-472.345 416.134,-644.107c277.422,-171.762 587.211,-334.936 929.365,-489.522c342.154,-154.586 665.813,-322.054 970.978,-502.404c305.165,-180.35 485.489,-399.346 540.974,-656.99c129.463,-618.343 268.175,-1228.1 416.133,-1829.27c147.959,-601.167 309.788,-1185.16 485.489,-1751.97c175.701,-566.814 369.897,-1099.28 582.587,-1597.39c212.691,-498.109 466.995,-944.691 762.912,-1339.74c425.381,-583.991 952.483,-1017.69 1581.31,-1301.1c628.824,-283.407 1183.67,-425.111 1664.53,-425.111c480.866,0 869.257,60.117 1165.17,180.35c295.917,120.234 527.102,253.349 693.556,399.347c166.453,145.998 295.917,279.113 388.391,399.347c92.474,120.233 166.454,180.35 221.938,180.35c147.959,-0 305.165,-8.588 471.618,-25.764c166.453,-17.177 286.67,-85.881 360.649,-206.115c221.938,-274.819 485.489,-583.991 790.654,-927.515c305.164,-343.524 642.695,-669.872 1012.59,-979.043c369.897,-309.172 776.783,-571.109 1220.66,-785.811c443.875,-214.703 924.741,-322.054 1442.6,-322.054c240.433,-0 531.726,12.882 873.88,38.646c342.155,25.765 568.716,38.647 679.685,38.647c129.464,68.704 332.907,137.409 610.329,206.114c277.423,68.705 554.845,167.468 832.267,296.29c277.423,128.821 517.855,309.171 721.298,541.05c203.443,231.879 305.165,553.932 305.165,966.161l0,927.515c0,240.467 -120.216,450.876 -360.649,631.226c-240.433,180.35 -508.608,330.642 -804.525,450.875c-332.907,154.586 -712.051,274.819 -1137.43,360.7c-55.485,0 -208.067,-47.234 -457.747,-141.703c-249.68,-94.47 -513.232,-201.821 -790.654,-322.054c-277.422,-120.234 -536.35,-227.585 -776.783,-322.054c-240.432,-94.469 -388.391,-141.704 -443.875,-141.704c-499.361,0 -980.226,184.645 -1442.6,553.933c-462.37,369.288 -869.256,858.81 -1220.66,1468.57c-351.402,609.755 -633.448,1305.39 -846.138,2086.91c-212.691,781.517 -328.283,1584.5 -346.778,2408.96c-0,103.057 18.495,244.761 55.484,425.111c36.99,180.35 166.454,270.525 388.392,270.525l2247.12,0c129.464,103.058 217.314,201.821 263.551,296.29c46.237,94.469 73.979,188.938 83.227,283.407c9.247,94.469 23.118,188.938 41.613,283.408c18.495,94.469 64.732,193.232 138.711,296.289c0,326.348 -78.603,575.403 -235.809,747.165c-157.206,171.762 -365.273,296.289 -624.2,373.582c-258.928,77.293 -554.845,115.94 -887.752,115.94c-332.906,-0 -675.061,-8.589 -1026.46,-25.765c-499.361,103.057 -827.644,193.233 -984.85,270.525c-157.206,77.293 -235.809,227.585 -235.809,450.876c0,68.705 -36.989,201.82 -110.969,399.346c-73.979,197.527 -152.582,407.935 -235.809,631.226c-83.226,223.291 -161.829,446.581 -235.809,669.872c-73.979,223.29 -110.969,395.052 -110.969,515.286c55.485,412.229 46.238,858.81 -27.742,1339.74c-73.979,480.933 -166.453,983.337 -277.422,1507.21c-110.969,523.875 -217.314,1056.34 -319.036,1597.39c-101.721,541.051 -152.582,1069.22 -152.582,1584.51c-0,51.529 9.247,141.704 27.742,270.525c18.495,128.822 41.614,266.231 69.356,412.229c27.742,145.998 55.484,287.701 83.226,425.111c27.743,137.41 41.614,240.467 41.614,309.172c-0,51.528 -27.742,309.171 -83.227,772.929l-360.649,3014.42c-55.484,463.758 -83.227,729.989 -83.227,798.694c0,291.995 152.583,455.169 457.747,489.521c305.165,34.353 638.072,51.529 998.721,51.529c360.649,0 693.556,47.235 998.72,141.704c305.165,94.469 457.747,347.818 457.747,760.047c0,154.585 -92.474,300.583 -277.422,437.993c-184.949,137.409 -393.015,257.643 -624.201,360.7c-231.185,103.057 -457.747,184.644 -679.684,244.761c-221.938,60.117 -360.649,90.175 -416.134,90.175c-73.979,-0 -180.324,8.588 -319.036,25.764c-138.711,17.177 -277.422,34.353 -416.133,51.529c-138.711,17.176 -268.175,34.352 -388.391,51.529c-120.217,17.176 -208.067,25.764 -263.552,25.764c-203.443,-0 -471.618,55.822 -804.524,167.468c-332.907,111.645 -670.438,236.173 -1012.59,373.582c-342.154,137.41 -651.943,261.937 -929.365,373.583c-277.422,111.645 -443.876,167.468 -499.36,167.468c-314.412,-0 -559.469,17.176 -735.169,51.528c-175.701,34.353 -356.026,72.999 -540.974,115.94c-184.948,42.94 -397.639,81.587 -638.071,115.939c-240.433,34.352 -573.34,51.529 -998.721,51.529c-92.474,-34.353 -175.701,-85.881 -249.68,-154.586c-55.484,-51.529 -106.345,-107.352 -152.582,-167.468c-46.237,-60.117 -69.356,-115.94 -69.356,-167.468c0,-463.758 180.325,-854.516 540.974,-1172.28c360.649,-317.76 767.535,-592.579 1220.66,-824.458c453.123,-231.879 892.375,-437.993 1317.76,-618.343c425.381,-180.35 712.051,-356.406 860.01,-528.168c166.453,-463.758 277.422,-953.28 332.906,-1468.57c55.485,-515.286 106.346,-1043.45 152.583,-1584.5c46.237,-541.051 115.592,-1086.39 208.066,-1636.03c92.475,-549.638 268.175,-1090.69 527.103,-1623.15l-0,-1133.63c-0,-51.529 13.871,-145.998 41.613,-283.407l166.454,-811.576c27.742,-128.821 41.613,-218.997 41.613,-270.525c0,-583.991 50.861,-1073.51 152.582,-1468.57c101.722,-395.053 217.314,-777.224 346.778,-1146.51c129.464,-369.288 245.057,-760.047 346.778,-1172.28c101.722,-412.229 152.582,-944.691 152.582,-1597.39c0,-171.762 -4.623,-300.583 -13.871,-386.464c-9.247,-85.881 -27.742,-150.292 -55.484,-193.232c-27.742,-42.941 -60.108,-85.881 -97.098,-128.822c-36.99,-42.94 -83.227,-115.939 -138.711,-218.996c-0,-103.058 -55.485,-184.645 -166.454,-244.761c-110.968,-60.117 -235.809,-103.058 -374.52,-128.822c-138.711,-25.764 -272.798,-42.94 -402.262,-51.528c-129.464,-8.589 -203.443,-12.883 -221.938,-12.883c-240.433,0 -480.865,-8.588 -721.298,-25.764c-240.433,-17.176 -517.855,-25.764 -832.267,-25.764c-369.897,-0 -628.824,107.351 -776.783,322.054c-147.958,214.702 -221.938,485.227 -221.938,811.575c-55.484,463.758 -115.592,1004.81 -180.324,1623.15c-64.732,618.344 -120.216,1215.22 -166.454,1790.62c-46.237,575.403 -87.85,1077.81 -124.84,1507.21c-36.989,429.405 -55.484,678.46 -55.484,747.165c-0,395.053 -50.861,790.105 -152.582,1185.16c-101.722,395.053 -217.315,790.105 -346.778,1185.16c-129.464,395.052 -245.057,781.517 -346.778,1159.39c-101.722,377.877 -152.583,747.165 -152.583,1107.87c0,601.167 -110.968,1167.98 -332.906,1700.44c-221.938,532.462 -480.866,1030.57 -776.783,1494.33c-295.917,463.758 -596.458,875.986 -901.623,1236.69c-305.164,360.7 -540.973,652.695 -707.427,875.986c-36.989,51.529 -138.711,158.88 -305.164,322.054c-166.454,163.174 -346.778,334.936 -540.974,515.286c-194.195,180.35 -383.767,347.818 -568.716,502.404c-184.948,154.586 -305.164,257.643 -360.649,309.171c-258.927,257.644 -559.468,489.522 -901.622,695.637c-342.154,206.114 -707.427,309.171 -1095.82,309.171c-314.412,0 -577.964,38.647 -790.654,115.94c-212.691,77.293 -439.252,158.88 -679.685,244.761c-240.433,85.881 -522.479,154.585 -846.138,206.114c-323.66,51.529 -735.169,51.529 -1234.53,0c-110.969,-51.529 -249.68,-94.469 -416.133,-128.822c-166.454,-34.352 -337.531,-64.41 -513.231,-90.175c-175.701,-25.764 -332.907,-42.94 -471.618,-51.528c-138.712,-8.588 -235.809,-12.882 -291.294,-12.882c-110.969,-0 -268.175,-60.117 -471.618,-180.35c-203.443,-120.234 -480.865,-249.055 -832.267,-386.465c-147.959,-51.529 -254.304,-141.704 -319.036,-270.525c-64.732,-128.822 -106.345,-270.525 -124.84,-425.111c-18.495,-154.586 -27.742,-300.584 -27.742,-437.993l0,-309.172c0,-343.524 120.216,-661.284 360.649,-953.279c240.433,-291.996 527.103,-549.639 860.009,-772.929c332.907,-223.291 665.814,-395.053 998.721,-515.286c332.907,-120.234 601.082,-180.351 804.525,-180.351c480.865,0 841.514,64.411 1081.95,193.233c240.433,128.821 466.994,261.937 679.685,399.346c212.69,137.41 462.37,257.643 749.04,360.701c286.67,103.057 707.427,137.409 1262.27,103.057c406.886,-171.762 804.524,-360.7 1192.92,-566.815c314.412,-171.762 642.695,-369.288 984.849,-592.579c342.154,-223.29 614.953,-455.169 818.396,-695.636c110.969,-171.762 240.433,-334.936 388.391,-489.522c147.959,-154.586 286.67,-300.583 416.134,-437.993c129.464,-137.409 235.809,-279.113 319.036,-425.111c83.226,-145.998 124.84,-313.466 124.84,-502.404c55.484,-360.7 147.958,-777.223 277.422,-1249.57c129.464,-472.345 263.551,-953.279 402.262,-1442.8c138.711,-489.521 263.552,-970.455 374.52,-1442.8c110.969,-472.345 166.454,-888.868 166.454,-1249.57l83.227,-1983.85c-55.485,-51.528 -55.485,-150.291 -0,-296.289c55.484,-145.998 115.592,-304.878 180.324,-476.64c64.732,-171.762 120.216,-334.936 166.454,-489.522c46.237,-154.585 32.365,-266.231 -41.614,-334.935l388.391,-1983.85Zm6242,-8811.39c-351.401,0 -730.545,30.059 -1137.43,90.175c-406.886,60.117 -749.041,218.997 -1026.46,476.64c-203.443,188.938 -374.52,442.287 -513.231,760.047c-138.712,317.76 -249.68,652.696 -332.907,1004.81c-83.227,352.112 -143.335,708.518 -180.325,1069.22c-36.989,360.701 -55.484,678.46 -55.484,953.28c-0,120.233 64.732,270.525 194.195,450.875c129.464,180.35 323.66,270.525 582.587,270.525l1470.34,0c221.938,-34.352 434.628,-77.293 638.071,-128.821c166.454,-34.353 319.036,-81.587 457.747,-141.704c138.711,-60.117 208.067,-133.116 208.067,-218.997c-0,-103.057 46.237,-343.524 138.711,-721.4c92.474,-377.877 189.572,-777.223 291.294,-1198.04c101.721,-420.817 198.819,-811.576 291.293,-1172.28c92.474,-360.7 138.711,-575.403 138.711,-644.108c0,-223.29 -124.84,-420.817 -374.52,-592.579c-249.68,-171.762 -513.231,-257.643 -790.654,-257.643Z" style="fill-rule:nonzero;"/><path d="M47329.5,28632c388.391,-0 716.674,64.41 984.849,193.232c268.175,128.822 485.489,304.878 651.943,528.168c166.453,223.291 286.67,480.934 360.649,772.929c73.979,291.996 101.721,601.167 83.227,927.515c-0,463.758 -184.949,837.34 -554.845,1120.75c-369.897,283.408 -749.04,528.169 -1137.43,734.283c-351.401,223.291 -725.921,420.817 -1123.56,592.579c-397.639,171.762 -767.535,360.7 -1109.69,566.815c-342.154,206.114 -628.824,446.581 -860.009,721.4c-231.185,274.82 -356.025,626.932 -374.52,1056.34l-0,1082.1c-36.99,291.996 27.742,579.697 194.196,863.105c166.453,283.407 379.143,425.111 638.071,425.111c18.495,17.176 92.474,-8.588 221.938,-77.293c129.464,-68.705 272.799,-150.292 430.005,-244.761c157.206,-94.469 314.412,-193.232 471.618,-296.29c157.206,-103.057 272.798,-180.35 346.777,-231.878c277.423,-120.234 494.737,-218.997 651.943,-296.29c157.206,-77.293 272.799,-98.763 346.778,-64.411c129.464,0 240.433,17.177 332.907,51.529c92.474,34.352 138.711,163.174 138.711,386.465c-36.99,377.876 -212.691,742.87 -527.103,1094.98c-314.412,352.113 -656.566,678.46 -1026.46,979.044c-369.897,300.584 -730.546,562.521 -1081.95,785.811c-351.402,223.291 -582.587,386.465 -693.556,489.522c-314.412,257.643 -605.706,395.053 -873.881,412.229c-268.175,17.176 -540.973,25.764 -818.396,25.764c-166.453,-17.176 -337.53,-85.881 -513.231,-206.114c-175.701,-120.234 -332.907,-261.937 -471.618,-425.111c-138.711,-163.174 -245.056,-330.642 -319.036,-502.404c-73.979,-171.762 -101.721,-317.76 -83.226,-437.993l-0,-437.994c-0,-120.233 -36.99,-249.054 -110.969,-386.464c-36.99,-68.705 -73.98,-128.822 -110.969,-180.35l83.226,-515.286l0,-412.229c0,-68.705 18.495,-253.349 55.485,-553.933c36.99,-300.583 83.227,-626.931 138.711,-979.043l249.68,-1636.03c73.98,-51.529 110.969,-103.058 110.969,-154.586c0,-51.529 -9.247,-103.057 -27.742,-154.586c-18.495,-51.529 -27.742,-115.939 -27.742,-193.232c-0,-77.293 36.989,-167.468 110.969,-270.526c-0,-206.114 46.237,-420.817 138.711,-644.107c55.484,-120.234 110.969,-240.467 166.453,-360.7l388.392,-850.222c36.989,-377.877 231.185,-768.635 582.586,-1172.28c351.402,-403.641 762.912,-768.635 1234.53,-1094.98c471.618,-326.348 957.107,-588.285 1456.47,-785.811c499.36,-197.527 924.741,-279.114 1276.14,-244.761Zm-1248.4,1932.32c-92.474,0 -184.948,64.411 -277.422,193.233c-92.474,128.821 -184.948,270.525 -277.422,425.111c-92.474,188.938 -184.948,386.464 -277.423,592.579l-166.453,605.461c-18.495,94.469 -9.247,171.762 27.742,231.879c36.99,60.116 110.969,90.175 221.938,90.175c92.474,17.176 231.185,-0 416.134,-51.529c184.948,-51.529 374.52,-128.821 568.715,-231.879c194.196,-103.057 369.897,-227.584 527.103,-373.582c157.206,-145.998 245.056,-304.878 263.551,-476.64l0,-437.993c0,-85.881 -27.742,-163.174 -83.227,-231.879c-55.484,-68.704 -120.216,-120.233 -194.195,-154.585c-73.979,-51.529 -166.454,-94.469 -277.423,-128.822l-471.618,-51.529Z" style="fill-rule:nonzero;"/><path d="M53738,28477.4c203.443,-34.352 337.531,-8.588 402.263,77.293c64.732,85.881 217.314,180.35 457.747,283.407c203.443,103.057 379.143,223.291 527.102,360.7c147.959,137.41 221.938,300.584 221.938,489.522c-18.495,85.881 -36.99,180.35 -55.485,283.408c-36.989,223.29 -18.494,437.993 55.485,644.107c-0,154.586 -32.366,339.23 -97.098,553.933c-64.732,214.702 -78.603,390.758 -41.613,528.168c36.989,68.705 92.474,137.409 166.453,206.114c55.485,51.529 115.593,98.763 180.325,141.704c64.732,42.94 124.84,47.235 180.324,12.882c184.948,-34.352 383.768,-197.526 596.458,-489.522c212.691,-291.995 420.757,-618.343 624.201,-979.043c203.443,-360.7 406.886,-712.813 610.329,-1056.34c203.443,-343.524 388.391,-575.402 554.844,-695.636l860.01,-206.114c110.969,-34.353 235.809,-42.941 374.52,-25.765c138.711,17.177 245.056,25.765 319.036,25.765c351.401,188.938 573.339,450.875 665.813,785.811c92.474,334.936 157.206,596.873 194.196,785.811c18.495,240.467 -69.356,558.227 -263.551,953.279c-194.196,395.053 -439.252,721.401 -735.17,979.044c-129.463,68.705 -249.68,124.527 -360.649,167.468c-110.969,42.94 -221.938,81.587 -332.906,115.939c-92.475,0 -161.83,-4.294 -208.067,-12.882c-46.237,-8.588 -106.345,-30.058 -180.325,-64.411c-92.474,-34.352 -180.324,-55.822 -263.551,-64.41c-83.227,-8.588 -180.325,-12.882 -291.293,-12.882c-240.433,-0 -466.995,85.881 -679.685,257.643c-212.691,171.762 -420.757,352.112 -624.201,541.05c-314.411,360.7 -559.468,768.635 -735.169,1223.8c-175.701,455.17 -263.551,880.281 -263.551,1275.33c-129.464,120.234 -282.046,270.526 -457.747,450.876c-175.701,180.35 -309.788,390.758 -402.262,631.225c-110.969,240.467 -161.83,489.522 -152.583,747.165c9.248,257.643 -41.613,506.698 -152.582,747.165c18.495,206.114 18.495,442.287 0,708.518c-18.495,266.231 -50.861,545.345 -97.098,837.34c-46.237,291.995 -106.345,571.109 -180.324,837.34c-73.979,266.231 -157.206,502.404 -249.68,708.518c-129.464,85.881 -286.67,163.174 -471.618,231.879c-184.949,68.705 -379.144,120.233 -582.587,154.586c-221.938,51.528 -462.371,85.881 -721.298,103.057c-92.474,-0 -212.691,-68.705 -360.649,-206.114c-73.98,-68.705 -138.712,-137.41 -194.196,-206.115l-388.391,-721.4c-18.495,-120.234 -0,-326.348 55.484,-618.344c55.485,-291.995 120.217,-588.285 194.196,-888.868c73.979,-300.584 143.335,-571.109 208.067,-811.576c64.731,-240.467 97.097,-377.876 97.097,-412.229c406.886,-566.814 675.061,-1163.69 804.525,-1790.62c129.464,-626.931 268.175,-1249.57 416.134,-1867.91l-221.938,-1700.44c-92.474,-223.29 -208.067,-334.936 -346.778,-334.936c-138.711,0 -282.046,17.177 -430.005,51.529c-295.917,51.529 -508.607,124.527 -638.071,218.997c-129.464,94.469 -240.433,193.232 -332.907,296.289c-92.474,103.057 -194.196,201.82 -305.165,296.289c-110.968,94.47 -305.164,158.88 -582.586,193.233c-147.959,-0 -240.433,-85.881 -277.423,-257.643c-36.989,-171.762 -73.979,-326.348 -110.969,-463.758c-36.989,-154.586 -9.247,-304.877 83.227,-450.875c92.474,-145.998 217.314,-283.407 374.52,-412.229c157.206,-128.821 337.531,-257.643 540.974,-386.464c203.443,-128.822 388.391,-261.938 554.844,-399.347c221.938,-223.291 416.134,-468.052 582.587,-734.283c166.454,-266.231 332.907,-515.286 499.361,-747.165c166.453,-231.878 356.025,-429.405 568.715,-592.579c212.691,-163.174 485.489,-261.937 818.396,-296.289Z" style="fill-rule:nonzero;"/><path d="M66471.7,28400.1c277.422,-0 527.103,120.233 749.04,360.7c221.938,240.467 332.907,480.934 332.907,721.401c0,188.938 -147.958,347.818 -443.875,476.639c-295.918,128.822 -628.824,249.055 -998.721,360.701c-369.896,111.645 -735.169,218.996 -1095.82,322.053c-360.649,103.058 -596.458,214.703 -707.427,334.936c-166.454,154.586 -286.67,330.642 -360.649,528.169c-73.98,197.526 -110.969,399.346 -110.969,605.461c-0,206.114 36.989,403.64 110.969,592.579c73.979,188.938 166.453,360.7 277.422,515.286c129.464,240.467 282.046,493.816 457.747,760.047c175.701,266.231 337.531,571.108 485.489,914.632c147.959,343.525 272.799,729.989 374.52,1159.39c101.722,429.405 152.583,910.339 152.583,1442.8c-0,463.758 -166.454,931.809 -499.361,1404.15c-332.906,472.345 -758.287,888.868 -1276.14,1249.57c-406.887,206.115 -721.299,373.583 -943.236,502.404c-221.938,128.822 -416.134,231.879 -582.587,309.172c-166.454,77.293 -328.284,128.822 -485.49,154.586c-157.206,25.764 -356.025,38.646 -596.458,38.646l-998.72,0c-92.474,0 -212.69,8.588 -360.649,25.765l-1026.46,180.35l-776.782,-0c-517.855,-0 -776.783,-231.879 -776.783,-695.637c0,-120.233 83.227,-309.171 249.68,-566.814c166.454,-257.643 374.52,-506.698 624.2,-747.165c249.681,-240.467 513.232,-455.169 790.654,-644.108c277.423,-188.938 517.855,-283.407 721.298,-283.407c55.485,0 147.959,38.647 277.423,115.939c129.463,77.293 282.046,158.88 457.747,244.761c175.7,85.881 374.52,167.468 596.458,244.761c221.937,77.293 471.618,115.94 749.04,115.94c184.948,-0 356.025,-51.529 513.231,-154.586c157.206,-103.057 291.294,-227.585 402.263,-373.583c110.969,-145.997 194.195,-300.583 249.68,-463.757c55.484,-163.174 83.226,-304.878 83.226,-425.111c0,-291.996 -120.216,-648.402 -360.649,-1069.22c-240.432,-420.817 -508.607,-850.222 -804.524,-1288.21c-295.918,-437.993 -564.093,-854.516 -804.525,-1249.57c-240.433,-395.052 -360.649,-721.4 -360.649,-979.043l-0,-283.407c73.979,-291.996 184.948,-592.579 332.907,-901.751c147.958,-309.172 314.412,-592.579 499.36,-850.222c184.948,-257.643 388.391,-485.228 610.329,-682.754c221.938,-197.526 462.371,-322.054 721.298,-373.583c129.464,-68.704 263.551,-180.35 402.262,-334.936c138.712,-154.585 263.552,-300.583 374.521,-437.993c147.958,-137.409 282.046,-270.525 402.262,-399.346c120.216,-128.822 245.056,-210.409 374.52,-244.761c147.959,-120.234 379.144,-188.938 693.556,-206.115c314.412,-17.176 545.597,-25.764 693.556,-25.764l610.329,-0Z" style="fill-rule:nonzero;"/><path d="M72103.3,28632c258.927,-0 577.963,8.588 957.107,25.764c379.144,17.176 698.18,77.293 957.107,180.35c277.422,0 457.747,103.057 540.974,309.172c83.226,206.114 189.572,437.993 319.035,695.636c73.98,68.705 161.83,163.174 263.552,283.407c101.721,120.234 194.195,244.761 277.422,373.583c83.227,128.821 152.582,261.937 208.067,399.346c55.484,137.41 83.226,257.643 83.226,360.701l-221.938,2293.02c0,480.933 -110.968,1013.4 -332.906,1597.39c-221.938,583.99 -545.598,1107.87 -970.979,1571.62c-147.958,137.41 -254.303,287.701 -319.035,450.875c-64.732,163.174 -129.464,330.642 -194.196,502.404c-64.732,171.762 -138.711,347.818 -221.938,528.169c-83.226,180.35 -198.819,356.406 -346.778,528.168c-110.969,120.233 -235.809,266.231 -374.52,437.993c-138.711,171.762 -286.67,347.818 -443.876,528.168c-157.206,180.35 -323.659,343.524 -499.36,489.522c-175.701,145.998 -356.025,253.349 -540.973,322.054c-277.423,137.409 -508.608,257.643 -693.556,360.7c-184.949,103.057 -351.402,188.938 -499.361,257.643c-147.958,68.705 -300.54,115.939 -457.746,141.704c-157.206,25.764 -328.284,38.646 -513.232,38.646c-277.422,0 -536.35,-60.117 -776.782,-180.35c-240.433,-120.233 -448.5,-279.113 -624.201,-476.64c-175.7,-197.526 -319.035,-420.817 -430.004,-669.872c-110.969,-249.054 -166.454,-502.403 -166.454,-760.047l0,-1726.21c0,-103.057 -36.989,-197.526 -110.969,-283.407c-73.979,-85.881 -110.969,-326.348 -110.969,-721.401c-18.494,-498.11 110.969,-1099.28 388.392,-1803.5c277.422,-704.224 605.705,-1395.57 984.849,-2074.03c379.144,-678.46 758.288,-1279.63 1137.43,-1803.5c379.144,-523.874 670.437,-845.928 873.88,-966.161c203.443,-120.233 374.52,-253.349 513.231,-399.347c138.712,-145.997 272.799,-279.113 402.263,-399.346c129.464,-120.234 263.551,-218.997 402.262,-296.29c138.711,-77.293 319.036,-115.939 540.974,-115.939Zm138.711,2937.13c-295.917,0 -596.458,115.94 -901.623,347.818c-305.164,231.879 -587.21,498.11 -846.138,798.694c-258.927,300.583 -490.113,601.167 -693.556,901.75c-203.443,300.584 -342.154,519.581 -416.133,656.99l-277.423,979.044c-73.979,240.467 -134.087,472.345 -180.324,695.636c-46.237,223.291 -69.356,360.7 -69.356,412.229l0,489.522c73.98,51.528 138.712,154.585 194.196,309.171c55.484,154.586 124.84,309.172 208.067,463.758c83.226,154.585 180.324,291.995 291.293,412.229c110.969,120.233 268.175,180.35 471.618,180.35c369.897,-154.586 712.051,-309.172 1026.46,-463.758c258.927,-137.409 513.231,-283.407 762.911,-437.993c249.68,-154.586 420.758,-309.172 513.232,-463.757c110.969,-240.467 235.809,-523.875 374.52,-850.222c138.711,-326.348 272.799,-635.52 402.262,-927.515c-36.989,-137.41 4.624,-274.82 124.84,-412.229c120.217,-137.41 180.325,-266.231 180.325,-386.465l-0,-721.4c-0,-85.881 -23.119,-236.173 -69.356,-450.876c-46.237,-214.702 -120.216,-437.993 -221.938,-669.871c-101.721,-231.879 -226.561,-433.7 -374.52,-605.462c-147.958,-171.762 -314.412,-257.643 -499.36,-257.643Z" style="fill-rule:nonzero;"/><path d="M80342.8,28915.4c203.443,0 360.649,60.117 471.618,180.35c110.969,120.234 212.69,249.055 305.164,386.465c55.485,120.233 73.979,283.407 55.485,489.522c-18.495,206.114 -50.861,412.228 -97.098,618.343c-46.237,206.114 -92.474,403.641 -138.711,592.579c-46.237,188.938 -69.356,317.76 -69.356,386.464l83.227,412.229l305.164,515.286c73.98,0 217.315,-98.763 430.005,-296.289c212.69,-197.527 462.371,-442.287 749.04,-734.283c286.67,-291.995 587.211,-605.461 901.623,-940.397c314.412,-334.936 619.577,-648.402 915.494,-940.397c295.917,-291.995 564.092,-536.756 804.525,-734.283c240.432,-197.526 416.133,-296.289 527.102,-296.289c147.959,-0 272.799,85.881 374.52,257.643c101.722,171.762 198.82,352.112 291.294,541.05c92.474,223.291 175.7,480.934 249.68,772.929c18.495,240.467 -0,575.403 -55.485,1004.81c-55.484,429.405 -143.335,897.457 -263.551,1404.15c-120.216,506.698 -249.68,1021.98 -388.391,1545.86c-138.711,523.874 -268.175,1004.81 -388.392,1442.8c-120.216,437.993 -221.937,802.987 -305.164,1094.98c-83.227,291.995 -124.84,446.581 -124.84,463.757c-0,68.705 -9.248,150.292 -27.742,244.761c-18.495,94.469 -27.743,180.35 -27.743,257.643c0,77.293 23.119,141.704 69.356,193.232c46.237,51.529 143.335,77.293 291.293,77.293c110.969,-68.704 221.938,-137.409 332.907,-206.114c92.474,-68.705 194.196,-137.41 305.165,-206.114c110.969,-68.705 231.185,-145.998 360.649,-231.879c314.412,-188.938 605.705,-364.994 873.88,-528.168c268.175,-163.174 439.252,-244.761 513.232,-244.761c110.969,-0 231.185,55.822 360.649,167.468c129.463,111.645 194.195,218.996 194.195,322.053c0,34.353 -60.108,128.822 -180.324,283.408c-120.217,154.586 -263.551,317.76 -430.005,489.522c-166.453,171.762 -332.907,326.347 -499.36,463.757c-166.453,137.41 -286.67,206.114 -360.649,206.114c-0,137.41 -50.861,266.232 -152.582,386.465c-101.722,120.233 -208.067,180.35 -319.036,180.35c-295.917,291.996 -545.597,575.403 -749.04,850.222c-203.444,274.819 -406.887,528.168 -610.33,760.047c-203.443,231.879 -425.381,416.523 -665.813,553.933c-240.433,137.409 -545.598,206.114 -915.494,206.114c-129.464,0 -263.551,-42.94 -402.262,-128.821c-138.712,-85.881 -263.552,-193.233 -374.521,-322.054c-110.969,-128.822 -198.819,-266.231 -263.551,-412.229c-64.732,-145.998 -97.098,-270.525 -97.098,-373.582l-83.226,-927.515c110.969,-463.758 254.303,-961.868 430.004,-1494.33c175.701,-532.462 337.531,-1030.57 485.489,-1494.33c147.959,-395.052 268.175,-772.929 360.649,-1133.63c92.475,-360.7 157.206,-704.224 194.196,-1030.57l0,-283.407c-73.979,-480.934 -258.927,-721.401 -554.845,-721.401c-443.875,0 -795.277,90.175 -1054.2,270.525c-258.927,180.35 -471.618,412.229 -638.071,695.636c-166.453,283.408 -309.788,588.285 -430.005,914.633c-120.216,326.348 -254.303,635.52 -402.262,927.515c-92.474,103.057 -152.582,201.821 -180.325,296.29c-27.742,94.469 -23.118,210.408 13.872,347.818c-36.99,206.114 -78.603,412.229 -124.84,618.343c-46.238,206.114 -106.346,403.641 -180.325,592.579c-203.443,549.638 -397.639,1094.98 -582.587,1636.03c-184.948,541.051 -351.402,1043.45 -499.36,1507.21c92.474,137.41 78.603,218.997 -41.613,244.761c-120.217,25.764 -235.809,38.646 -346.778,38.646c-110.969,0 -268.175,-4.294 -471.618,-12.882c-203.443,-8.588 -402.263,-38.646 -596.458,-90.175c-194.196,-51.528 -369.897,-128.821 -527.103,-231.879c-157.206,-103.057 -245.056,-249.055 -263.551,-437.993c-36.99,-291.995 -0,-596.873 110.969,-914.633c110.969,-317.759 235.809,-614.049 374.52,-888.868c138.711,-274.819 272.799,-515.286 402.262,-721.401c129.464,-206.114 194.196,-343.524 194.196,-412.228l-0,-927.515l-138.711,-437.993c-0,-103.058 36.989,-236.173 110.969,-399.347c73.979,-163.174 152.582,-326.348 235.809,-489.522c83.226,-163.174 161.829,-313.466 235.809,-450.875c73.979,-137.41 110.969,-240.467 110.969,-309.172l-0,-360.7l-83.227,-1004.81c-0,-103.057 -13.871,-210.408 -41.613,-322.054c-27.743,-111.645 -115.593,-167.468 -263.552,-167.468c-110.969,0 -235.809,25.765 -374.52,77.293c-138.711,51.529 -277.422,107.351 -416.133,167.468c-138.711,60.117 -268.175,115.94 -388.392,167.468c-120.216,51.529 -217.314,77.293 -291.293,77.293l-221.938,0c-129.464,-68.705 -161.83,-201.82 -97.098,-399.347c64.732,-197.526 97.098,-347.818 97.098,-450.875c462.371,-601.167 910.87,-1129.34 1345.5,-1584.51c434.629,-455.169 957.108,-863.104 1567.44,-1223.8c129.463,-68.705 305.164,-154.586 527.102,-257.643c221.938,-103.057 434.629,-154.586 638.072,-154.586Z" style="fill-rule:nonzero;"/><path d="M115492,25823.7c628.824,-0 1044.96,163.174 1248.4,489.521c203.443,326.348 305.164,669.872 305.164,1030.57c0,51.528 -41.613,128.821 -124.84,231.878c-83.226,103.057 -184.948,206.115 -305.164,309.172c-120.217,103.057 -240.433,193.232 -360.649,270.525c-120.217,77.293 -217.314,115.939 -291.294,115.939l-471.618,0c-129.463,0 -240.432,8.589 -332.907,25.765c-240.432,34.352 -406.886,94.469 -499.36,180.35c-277.422,-0 -485.489,55.823 -624.2,167.468c-138.711,111.645 -245.056,253.349 -319.036,425.111c-73.979,171.762 -115.592,360.7 -124.84,566.815c-9.247,206.114 -13.871,395.052 -13.871,566.814l0,3581.24c0,188.939 27.742,334.936 83.227,437.994c55.484,103.057 101.721,197.526 138.711,283.407c92.474,103.057 143.335,206.114 152.582,309.172c9.248,103.057 13.871,214.702 13.871,334.936l-83.226,850.222c-0,240.466 36.989,476.639 110.969,708.518c73.979,231.879 110.969,399.347 110.969,502.404l332.906,721.4l0,721.401c0,309.171 161.83,523.874 485.489,644.107c323.66,120.234 675.061,218.997 1054.2,296.29c379.144,77.293 730.546,163.174 1054.2,257.643c323.66,94.469 485.489,270.525 485.489,528.168c0,515.286 -258.927,772.929 -776.782,772.929l-998.721,0c-129.463,0 -268.175,4.294 -416.133,12.882c-147.959,8.589 -295.917,55.823 -443.876,141.704l-2302.61,-154.586l-1303.88,0c-55.485,0 -184.949,8.588 -388.392,25.765l-1303.88,103.057c-203.443,17.176 -332.907,25.764 -388.391,25.764c-277.422,0 -476.242,-17.176 -596.458,-51.529c-120.216,-34.352 -180.325,-163.173 -180.325,-386.464c0,-240.467 69.356,-502.404 208.067,-785.811c138.711,-283.408 402.263,-425.111 790.654,-425.111l1609.05,-0c129.464,-0 235.809,-38.647 319.036,-115.94c83.227,-77.293 138.711,-171.762 166.454,-283.407c27.742,-111.645 46.237,-223.291 55.484,-334.936c9.247,-111.645 13.871,-201.82 13.871,-270.525c0,-223.291 -50.861,-489.522 -152.582,-798.694c-101.722,-309.171 -152.582,-523.874 -152.582,-644.107l-0,-2421.85c-0,-68.705 -13.872,-184.644 -41.614,-347.818c-27.742,-163.174 -69.355,-326.348 -124.84,-489.522c-55.484,-163.174 -115.593,-304.877 -180.324,-425.111c-64.732,-120.233 -134.088,-180.35 -208.067,-180.35c-36.99,0 -115.593,72.999 -235.809,218.997c-120.216,145.998 -258.928,334.936 -416.134,566.815c-157.206,231.878 -332.906,489.521 -527.102,772.929c-194.196,283.407 -379.144,562.52 -554.845,837.34c-175.701,274.819 -337.53,523.874 -485.489,747.164c-147.959,223.291 -258.927,395.053 -332.907,515.286c-147.958,103.058 -272.798,240.467 -374.52,412.229c-101.721,171.762 -189.572,347.818 -263.551,528.168c-73.979,180.351 -138.711,360.701 -194.196,541.051c-55.484,180.35 -110.969,330.642 -166.453,450.875c-147.959,240.467 -291.294,450.875 -430.005,631.226c-138.711,180.35 -254.304,330.641 -346.778,450.875c-147.958,291.995 -249.68,459.463 -305.164,502.404c-55.485,42.94 -157.206,64.411 -305.165,64.411c-221.938,-0 -365.273,-68.705 -430.005,-206.115c-64.731,-137.409 -180.324,-334.936 -346.778,-592.579l-221.937,-1571.62c-129.464,-309.172 -277.423,-626.932 -443.876,-953.28c-166.454,-326.347 -319.036,-656.989 -457.747,-991.925c-138.711,-334.936 -254.304,-665.578 -346.778,-991.926c-92.474,-326.348 -138.711,-635.519 -138.711,-927.515l-0,-283.407c-0,-68.705 -27.742,-184.644 -83.227,-347.818c-55.484,-163.174 -120.216,-326.348 -194.196,-489.522c-73.979,-163.174 -157.206,-304.878 -249.68,-425.111c-92.474,-120.234 -175.7,-180.35 -249.68,-180.35c-55.484,-0 -129.464,77.293 -221.938,231.879c-92.474,154.585 -180.324,334.935 -263.551,541.05c-83.227,206.114 -152.582,416.523 -208.067,631.225c-55.484,214.703 -83.226,373.583 -83.226,476.64l-0,1777.74c-73.98,446.581 -147.959,850.222 -221.938,1210.92c-55.485,309.172 -106.345,609.755 -152.582,901.751c-46.238,291.995 -69.356,472.345 -69.356,541.05c-0,480.934 92.474,807.282 277.422,979.044c184.949,171.762 388.392,283.407 610.329,334.936c221.938,51.528 425.381,103.057 610.33,154.585c184.948,51.529 277.422,206.115 277.422,463.758c-0,188.938 -41.613,330.642 -124.84,425.111c-83.227,94.469 -180.325,163.174 -291.294,206.114c-110.969,42.941 -221.937,68.705 -332.906,77.293c-110.969,8.588 -194.196,12.882 -249.681,12.882l-1081.95,0l-2635.51,-437.993l-998.72,0c-55.485,34.353 -120.217,60.117 -194.196,77.293c-110.969,51.529 -231.185,77.293 -360.649,77.293l-527.103,0c-55.484,0 -138.711,-8.588 -249.68,-25.764c-110.969,-17.176 -221.938,-47.235 -332.907,-90.175c-110.968,-42.941 -208.066,-90.175 -291.293,-141.704c-83.227,-51.529 -124.84,-111.645 -124.84,-180.35c-0,-171.762 69.356,-322.054 208.067,-450.875c138.711,-128.822 295.917,-236.173 471.618,-322.054c175.701,-85.881 346.778,-145.998 513.231,-180.35c166.453,-34.353 277.422,-51.529 332.907,-51.529l554.845,0c55.484,0 166.453,-8.588 332.906,-25.764l1220.66,-180.35c129.463,-120.234 258.927,-330.642 388.391,-631.226c129.464,-300.583 240.433,-609.755 332.907,-927.515c92.474,-317.759 171.077,-609.755 235.809,-875.986c64.732,-266.231 97.098,-433.699 97.098,-502.404l-0,-1210.92c55.484,-51.529 101.721,-133.116 138.711,-244.761c36.989,-111.645 64.732,-227.585 83.227,-347.818c18.494,-137.41 27.742,-274.819 27.742,-412.229l-0,-1159.39c-0,-68.705 13.871,-171.762 41.613,-309.171c27.742,-137.41 60.108,-274.82 97.098,-412.229c55.484,-154.586 110.969,-317.76 166.453,-489.522l0,-721.4c36.99,-103.058 73.98,-206.115 110.969,-309.172c36.99,-85.881 64.732,-180.35 83.227,-283.407c18.495,-103.058 27.742,-214.703 27.742,-334.936l0,-566.815c0,-51.529 -27.742,-167.468 -83.226,-347.818c-55.485,-180.35 -120.217,-364.994 -194.196,-553.933c-73.979,-223.29 -157.206,-472.345 -249.68,-747.165c-92.474,-120.233 -221.938,-231.878 -388.392,-334.935c-166.453,-103.058 -323.659,-206.115 -471.618,-309.172c-110.968,-85.881 -245.056,-167.468 -402.262,-244.761c-157.206,-77.293 -282.046,-193.232 -374.52,-347.818l-0,-283.407c-0,-103.058 46.237,-180.351 138.711,-231.879c92.474,-51.529 203.443,-94.469 332.907,-128.822c129.464,-34.352 286.67,-51.528 471.618,-51.528l693.556,-0c184.948,-0 319.035,-12.882 402.262,-38.647c83.227,-25.764 143.335,-60.116 180.325,-103.057c36.989,-42.94 64.732,-77.293 83.226,-103.057c18.495,-25.764 55.485,-38.647 110.969,-38.647l1830.99,0l776.782,283.408c184.949,446.581 383.768,991.925 596.458,1636.03c212.691,644.108 430.005,1326.86 651.943,2048.26c221.938,721.401 439.252,1438.51 651.943,2151.32c212.69,712.813 416.133,1352.63 610.329,1919.44c194.195,566.815 365.272,1026.28 513.231,1378.39c147.959,352.112 268.175,528.169 360.649,528.169c36.99,-85.881 83.227,-163.174 138.711,-231.879c36.99,-68.705 87.851,-141.704 152.583,-218.997c64.731,-77.293 124.84,-141.703 180.324,-193.232c277.422,-875.986 651.943,-1786.33 1123.56,-2731.02c471.618,-944.691 892.375,-1846.44 1262.27,-2705.25c0,-360.7 115.593,-674.166 346.778,-940.397c231.186,-266.231 476.242,-579.697 735.169,-940.397c55.485,-120.234 92.475,-279.114 110.969,-476.64c18.495,-197.526 50.861,-395.053 97.098,-592.579c46.237,-197.526 124.84,-382.17 235.809,-553.932c110.969,-171.762 295.917,-291.996 554.845,-360.701l1081.95,0l388.391,206.115c258.928,-0 499.361,-21.47 721.298,-64.411c221.938,-42.94 434.629,-90.175 638.072,-141.704c203.443,-68.704 416.133,-145.997 638.071,-231.878Z" style="fill-rule:nonzero;"/><path d="M124342,28632c388.391,-0 716.675,64.41 984.85,193.232c268.174,128.822 485.489,304.878 651.942,528.168c166.453,223.291 286.67,480.934 360.649,772.929c73.979,291.996 101.722,601.167 83.227,927.515c-0,463.758 -184.948,837.34 -554.845,1120.75c-369.896,283.408 -749.04,528.169 -1137.43,734.283c-351.401,223.291 -725.921,420.817 -1123.56,592.579c-397.639,171.762 -767.535,360.7 -1109.69,566.815c-342.155,206.114 -628.824,446.581 -860.01,721.4c-231.185,274.82 -356.025,626.932 -374.52,1056.34l0,1082.1c-36.99,291.996 27.742,579.697 194.196,863.105c166.453,283.407 379.144,425.111 638.071,425.111c18.495,17.176 92.474,-8.588 221.938,-77.293c129.464,-68.705 272.799,-150.292 430.005,-244.761c157.206,-94.469 314.412,-193.232 471.618,-296.29c157.206,-103.057 272.798,-180.35 346.778,-231.878c277.422,-120.234 494.736,-218.997 651.942,-296.29c157.206,-77.293 272.799,-98.763 346.778,-64.411c129.464,0 240.433,17.177 332.907,51.529c92.474,34.352 138.711,163.174 138.711,386.465c-36.99,377.876 -212.69,742.87 -527.102,1094.98c-314.412,352.113 -656.567,678.46 -1026.46,979.044c-369.897,300.584 -730.546,562.521 -1081.95,785.811c-351.402,223.291 -582.587,386.465 -693.556,489.522c-314.412,257.643 -605.706,395.053 -873.881,412.229c-268.174,17.176 -540.973,25.764 -818.395,25.764c-166.454,-17.176 -337.531,-85.881 -513.232,-206.114c-175.701,-120.234 -332.907,-261.937 -471.618,-425.111c-138.711,-163.174 -245.056,-330.642 -319.035,-502.404c-73.98,-171.762 -101.722,-317.76 -83.227,-437.993l-0,-437.994c-0,-120.233 -36.99,-249.054 -110.969,-386.464c-36.99,-68.705 -73.979,-128.822 -110.969,-180.35l83.227,-515.286l-0,-412.229c-0,-68.705 18.494,-253.349 55.484,-553.933c36.99,-300.583 83.227,-626.931 138.711,-979.043l249.68,-1636.03c73.98,-51.529 110.969,-103.058 110.969,-154.586c0,-51.529 -9.247,-103.057 -27.742,-154.586c-18.495,-51.529 -27.742,-115.939 -27.742,-193.232c-0,-77.293 36.99,-167.468 110.969,-270.526c-0,-206.114 46.237,-420.817 138.711,-644.107c55.484,-120.234 110.969,-240.467 166.453,-360.7l388.392,-850.222c36.989,-377.877 231.185,-768.635 582.587,-1172.28c351.401,-403.641 762.911,-768.635 1234.53,-1094.98c471.618,-326.348 957.107,-588.285 1456.47,-785.811c499.361,-197.527 924.742,-279.114 1276.14,-244.761Zm-1248.4,1932.32c-92.474,0 -184.949,64.411 -277.423,193.233c-92.474,128.821 -184.948,270.525 -277.422,425.111c-92.474,188.938 -184.948,386.464 -277.422,592.579l-166.454,605.461c-18.495,94.469 -9.247,171.762 27.742,231.879c36.99,60.116 110.969,90.175 221.938,90.175c92.474,17.176 231.186,-0 416.134,-51.529c184.948,-51.529 374.52,-128.821 568.716,-231.879c194.195,-103.057 369.896,-227.584 527.102,-373.582c157.206,-145.998 245.057,-304.878 263.551,-476.64l0,-437.993c0,-85.881 -27.742,-163.174 -83.226,-231.879c-55.485,-68.704 -120.217,-120.233 -194.196,-154.585c-73.979,-51.529 -166.453,-94.469 -277.422,-128.822l-471.618,-51.529Z" style="fill-rule:nonzero;"/><path d="M131056,28915.4c277.422,0 448.5,90.175 513.231,270.525c64.732,180.35 83.227,395.053 55.485,644.108c-27.742,249.055 -69.356,502.404 -124.84,760.047c-55.485,257.643 -73.979,463.757 -55.485,618.343l0,721.401c0,51.528 9.248,141.703 27.743,270.525c18.494,128.821 64.731,240.467 138.711,334.936c73.979,94.469 180.324,150.291 319.035,167.468c138.712,17.176 337.531,-51.529 596.459,-206.115c92.474,-68.705 231.185,-210.408 416.133,-425.111c184.948,-214.702 383.768,-455.169 596.458,-721.4c212.691,-266.231 434.628,-549.639 665.814,-850.222c231.185,-300.584 448.499,-571.109 651.942,-811.576c203.443,-240.467 388.392,-442.287 554.845,-605.461c166.453,-163.174 286.67,-244.761 360.649,-244.761c277.422,0 522.479,64.411 735.169,193.232c212.691,128.822 397.639,287.702 554.845,476.64c157.206,188.938 277.422,382.171 360.649,579.697c83.227,197.526 124.84,356.406 124.84,476.639l-166.453,644.108c-0,51.529 -9.248,145.998 -27.743,283.407c-18.494,137.41 -13.871,261.938 13.872,373.583c27.742,111.645 78.603,184.644 152.582,218.996c73.979,34.353 212.69,-17.176 416.133,-154.585c110.969,-85.881 305.165,-283.408 582.587,-592.579c277.423,-309.172 582.587,-626.932 915.494,-953.28c332.907,-326.347 675.061,-618.343 1026.46,-875.986c351.401,-257.643 665.813,-386.465 943.236,-386.465c369.896,0 642.695,107.352 818.396,322.054c175.7,214.703 263.551,442.288 263.551,682.754c-0,51.529 -18.495,150.292 -55.485,296.29c-36.989,145.998 -83.226,300.583 -138.711,463.757c-55.484,163.174 -101.721,322.054 -138.711,476.64c-36.99,154.586 -55.484,266.231 -55.484,334.936l-0,515.286c-0,257.643 -83.227,622.637 -249.681,1094.98c-166.453,472.345 -346.777,974.749 -540.973,1507.21c-194.196,532.462 -369.897,1047.75 -527.103,1545.86c-157.206,498.11 -235.809,901.75 -235.809,1210.92c0,85.881 -9.247,193.232 -27.742,322.054c-18.495,128.821 -18.495,240.467 0,334.936c18.495,94.469 73.979,150.292 166.454,167.468c92.474,17.176 249.68,-42.941 471.618,-180.35c92.474,-51.529 240.432,-145.998 443.875,-283.408c203.443,-137.409 406.886,-253.349 610.33,-347.818c203.443,-94.469 379.143,-137.409 527.102,-128.821c147.959,8.588 212.69,141.703 194.196,399.346c-332.907,377.877 -647.319,721.401 -943.236,1030.57c-258.928,274.819 -517.855,545.344 -776.783,811.575c-258.927,266.231 -453.123,468.052 -582.587,605.461c-277.422,188.938 -499.36,369.289 -665.814,541.051c-166.453,171.762 -319.035,330.642 -457.746,476.639c-138.712,145.998 -291.294,261.937 -457.747,347.818c-166.454,85.881 -388.392,128.822 -665.814,128.822c-203.443,-0 -369.896,-55.823 -499.36,-167.468c-129.464,-111.645 -240.433,-236.173 -332.907,-373.583c-92.474,-137.409 -157.206,-279.113 -194.196,-425.111c-36.989,-145.997 -55.484,-253.349 -55.484,-322.053c-0,-480.934 69.356,-940.397 208.067,-1378.39c138.711,-437.993 300.541,-854.516 485.489,-1249.57c184.948,-395.053 360.649,-785.812 527.102,-1172.28c166.454,-386.465 277.423,-768.635 332.907,-1146.51c0,-68.704 9.247,-154.585 27.742,-257.643c18.495,-103.057 46.237,-206.114 83.227,-309.171c36.99,-120.234 73.979,-240.467 110.969,-360.701c-0,-120.233 -9.247,-283.407 -27.742,-489.521c-18.495,-206.115 -60.108,-399.347 -124.84,-579.697c-64.732,-180.35 -152.583,-326.348 -263.552,-437.993c-110.969,-111.646 -249.68,-133.116 -416.133,-64.411c-369.897,120.233 -693.556,407.935 -970.978,863.104c-277.423,455.169 -536.35,987.632 -776.783,1597.39c-240.433,609.755 -462.37,1253.86 -665.814,1932.32c-203.443,678.46 -406.886,1301.1 -610.329,1867.91c-203.443,566.814 -411.51,1039.16 -624.2,1417.04c-212.69,377.877 -439.252,566.815 -679.685,566.815c-129.464,0 -282.046,-25.764 -457.747,-77.293c-175.7,-51.528 -346.778,-115.939 -513.231,-193.232c-166.453,-77.293 -305.165,-158.88 -416.133,-244.761c-110.969,-85.881 -166.454,-154.586 -166.454,-206.114c-18.495,-429.405 36.99,-850.222 166.454,-1262.45c129.463,-412.229 272.798,-798.694 430.004,-1159.39c157.206,-360.7 305.165,-691.342 443.876,-991.926c138.711,-300.583 208.067,-571.108 208.067,-811.575l-0,-206.115c-0,-326.347 129.463,-781.517 388.391,-1365.51c73.979,-223.29 166.453,-437.993 277.422,-644.107c110.969,-206.115 147.959,-377.877 110.969,-515.286c0,-206.115 -101.721,-373.583 -305.164,-502.404c-203.443,-128.822 -360.649,-150.292 -471.618,-64.411c-314.412,85.881 -601.082,261.937 -860.01,528.168c-258.927,266.231 -485.489,549.639 -679.684,850.222c-194.196,300.584 -360.649,583.991 -499.361,850.222c-138.711,266.231 -235.809,450.876 -291.293,553.933c-258.928,360.7 -453.123,712.812 -582.587,1056.34c-129.464,343.524 -268.175,661.284 -416.134,953.279c0,34.353 -46.237,231.879 -138.711,592.579c-92.474,360.701 -231.185,747.165 -416.133,1159.39c-184.948,412.229 -420.757,785.811 -707.427,1120.75c-286.67,334.936 -633.448,502.404 -1040.33,502.404c-110.969,0 -217.314,-38.646 -319.036,-115.939c-101.721,-77.293 -184.948,-171.762 -249.68,-283.408c-64.732,-111.645 -115.592,-223.29 -152.582,-334.935c-36.99,-111.646 -55.485,-201.821 -55.485,-270.526c0,-103.057 -41.613,-227.584 -124.84,-373.582c-83.226,-145.998 -69.355,-330.642 41.614,-553.933c73.979,-137.409 203.443,-463.757 388.391,-979.043c184.948,-515.286 374.52,-1077.81 568.716,-1687.56c194.195,-609.755 360.649,-1198.04 499.36,-1764.86c138.711,-566.814 198.819,-979.043 180.325,-1236.69c-0,-103.058 36.989,-206.115 110.969,-309.172c73.979,-103.057 110.968,-214.703 110.968,-334.936c0,-240.467 -23.118,-429.405 -69.355,-566.815c-46.237,-137.409 -198.819,-206.114 -457.747,-206.114c-110.969,-0 -217.314,34.352 -319.036,103.057c-101.721,68.705 -208.066,150.292 -319.035,244.761c-110.969,94.469 -235.809,176.056 -374.521,244.761c-138.711,68.705 -319.035,103.057 -540.973,103.057c-129.464,0 -249.68,-34.352 -360.649,-103.057c-55.485,-34.352 -92.474,-68.705 -110.969,-103.057c-0,-240.467 78.603,-468.052 235.809,-682.754c157.206,-214.703 337.53,-322.054 540.973,-322.054c240.433,-240.467 490.113,-476.64 749.041,-708.518c258.927,-231.879 527.102,-399.347 804.525,-502.404c55.484,-51.529 180.324,-163.174 374.52,-334.936c194.195,-171.762 411.51,-347.818 651.942,-528.169c240.433,-180.35 480.866,-343.524 721.298,-489.521c240.433,-145.998 425.381,-218.997 554.845,-218.997Z" style="fill-rule:nonzero;"/><path d="M148811,28632c258.928,-0 577.964,8.588 957.108,25.764c379.143,17.176 698.179,77.293 957.107,180.35c277.422,0 457.747,103.057 540.973,309.172c83.227,206.114 189.572,437.993 319.036,695.636c73.979,68.705 161.83,163.174 263.551,283.407c101.722,120.234 194.196,244.761 277.422,373.583c83.227,128.821 152.583,261.937 208.067,399.346c55.485,137.41 83.227,257.643 83.227,360.701l-221.938,2293.02c0,480.933 -110.969,1013.4 -332.907,1597.39c-221.938,583.99 -545.597,1107.87 -970.978,1571.62c-147.959,137.41 -254.304,287.701 -319.036,450.875c-64.732,163.174 -129.463,330.642 -194.195,502.404c-64.732,171.762 -138.711,347.818 -221.938,528.169c-83.227,180.35 -198.82,356.406 -346.778,528.168c-110.969,120.233 -235.809,266.231 -374.52,437.993c-138.711,171.762 -286.67,347.818 -443.876,528.168c-157.206,180.35 -323.659,343.524 -499.36,489.522c-175.701,145.998 -356.026,253.349 -540.974,322.054c-277.422,137.409 -508.608,257.643 -693.556,360.7c-184.948,103.057 -351.401,188.938 -499.36,257.643c-147.959,68.705 -300.541,115.939 -457.747,141.704c-157.206,25.764 -328.283,38.646 -513.231,38.646c-277.423,0 -536.35,-60.117 -776.783,-180.35c-240.432,-120.233 -448.499,-279.113 -624.2,-476.64c-175.701,-197.526 -319.036,-420.817 -430.005,-669.872c-110.969,-249.054 -166.453,-502.403 -166.453,-760.047l-0,-1726.21c-0,-103.057 -36.99,-197.526 -110.969,-283.407c-73.979,-85.881 -110.969,-326.348 -110.969,-721.401c-18.495,-498.11 110.969,-1099.28 388.391,-1803.5c277.423,-704.224 605.706,-1395.57 984.85,-2074.03c379.144,-678.46 758.287,-1279.63 1137.43,-1803.5c379.144,-523.874 670.438,-845.928 873.881,-966.161c203.443,-120.233 374.52,-253.349 513.231,-399.347c138.711,-145.997 272.799,-279.113 402.262,-399.346c129.464,-120.234 263.552,-218.997 402.263,-296.29c138.711,-77.293 319.036,-115.939 540.973,-115.939Zm138.712,2937.13c-295.918,0 -596.458,115.94 -901.623,347.818c-305.165,231.879 -587.211,498.11 -846.138,798.694c-258.928,300.583 -490.113,601.167 -693.556,901.75c-203.443,300.584 -342.154,519.581 -416.134,656.99l-277.422,979.044c-73.979,240.467 -134.087,472.345 -180.324,695.636c-46.238,223.291 -69.356,360.7 -69.356,412.229l-0,489.522c73.979,51.528 138.711,154.585 194.196,309.171c55.484,154.586 124.84,309.172 208.066,463.758c83.227,154.585 180.325,291.995 291.294,412.229c110.969,120.233 268.175,180.35 471.618,180.35c369.896,-154.586 712.05,-309.172 1026.46,-463.758c258.928,-137.409 513.232,-283.407 762.912,-437.993c249.68,-154.586 420.757,-309.172 513.231,-463.757c110.969,-240.467 235.809,-523.875 374.52,-850.222c138.712,-326.348 272.799,-635.52 402.263,-927.515c-36.99,-137.41 4.624,-274.82 124.84,-412.229c120.216,-137.41 180.324,-266.231 180.324,-386.465l0,-721.4c0,-85.881 -23.118,-236.173 -69.355,-450.876c-46.237,-214.702 -120.216,-437.993 -221.938,-669.871c-101.722,-231.879 -226.562,-433.7 -374.52,-605.462c-147.959,-171.762 -314.412,-257.643 -499.36,-257.643Z" style="fill-rule:nonzero;"/><path d="M157050,28477.4c203.443,-34.352 337.531,-8.588 402.263,77.293c64.731,85.881 217.314,180.35 457.746,283.407c203.444,103.057 379.144,223.291 527.103,360.7c147.959,137.41 221.938,300.584 221.938,489.522c-18.495,85.881 -36.99,180.35 -55.485,283.408c-36.989,223.29 -18.494,437.993 55.485,644.107c-0,154.586 -32.366,339.23 -97.098,553.933c-64.732,214.702 -78.603,390.758 -41.613,528.168c36.989,68.705 92.474,137.409 166.453,206.114c55.485,51.529 115.593,98.763 180.325,141.704c64.731,42.94 124.84,47.235 180.324,12.882c184.948,-34.352 383.768,-197.526 596.458,-489.522c212.691,-291.995 420.757,-618.343 624.2,-979.043c203.444,-360.7 406.887,-712.813 610.33,-1056.34c203.443,-343.524 388.391,-575.402 554.844,-695.636l860.01,-206.114c110.969,-34.353 235.809,-42.941 374.52,-25.765c138.711,17.177 245.056,25.765 319.035,25.765c351.402,188.938 573.34,450.875 665.814,785.811c92.474,334.936 157.206,596.873 194.196,785.811c18.495,240.467 -69.356,558.227 -263.551,953.279c-194.196,395.053 -439.253,721.401 -735.17,979.044c-129.463,68.705 -249.68,124.527 -360.649,167.468c-110.969,42.94 -221.938,81.587 -332.907,115.939c-92.474,0 -161.829,-4.294 -208.066,-12.882c-46.237,-8.588 -106.346,-30.058 -180.325,-64.411c-92.474,-34.352 -180.324,-55.822 -263.551,-64.41c-83.227,-8.588 -180.325,-12.882 -291.294,-12.882c-240.432,-0 -466.994,85.881 -679.684,257.643c-212.691,171.762 -420.758,352.112 -624.201,541.05c-314.412,360.7 -559.468,768.635 -735.169,1223.8c-175.701,455.17 -263.551,880.281 -263.551,1275.33c-129.464,120.234 -282.046,270.526 -457.747,450.876c-175.701,180.35 -309.788,390.758 -402.262,631.225c-110.969,240.467 -161.83,489.522 -152.583,747.165c9.248,257.643 -41.613,506.698 -152.582,747.165c18.495,206.114 18.495,442.287 0,708.518c-18.495,266.231 -50.861,545.345 -97.098,837.34c-46.237,291.995 -106.345,571.109 -180.324,837.34c-73.98,266.231 -157.206,502.404 -249.68,708.518c-129.464,85.881 -286.67,163.174 -471.618,231.879c-184.949,68.705 -379.144,120.233 -582.587,154.586c-221.938,51.528 -462.371,85.881 -721.298,103.057c-92.475,-0 -212.691,-68.705 -360.649,-206.114c-73.98,-68.705 -138.712,-137.41 -194.196,-206.115l-388.391,-721.4c-18.495,-120.234 -0,-326.348 55.484,-618.344c55.485,-291.995 120.216,-588.285 194.196,-888.868c73.979,-300.584 143.335,-571.109 208.066,-811.576c64.732,-240.467 97.098,-377.876 97.098,-412.229c406.886,-566.814 675.061,-1163.69 804.525,-1790.62c129.464,-626.931 268.175,-1249.57 416.134,-1867.91l-221.938,-1700.44c-92.474,-223.29 -208.067,-334.936 -346.778,-334.936c-138.711,0 -282.046,17.177 -430.005,51.529c-295.917,51.529 -508.607,124.527 -638.071,218.997c-129.464,94.469 -240.433,193.232 -332.907,296.289c-92.474,103.057 -194.196,201.82 -305.165,296.289c-110.969,94.47 -305.164,158.88 -582.587,193.233c-147.958,-0 -240.432,-85.881 -277.422,-257.643c-36.99,-171.762 -73.979,-326.348 -110.969,-463.758c-36.99,-154.586 -9.247,-304.877 83.227,-450.875c92.474,-145.998 217.314,-283.407 374.52,-412.229c157.206,-128.821 337.531,-257.643 540.974,-386.464c203.443,-128.822 388.391,-261.938 554.844,-399.347c221.938,-223.291 416.134,-468.052 582.587,-734.283c166.454,-266.231 332.907,-515.286 499.36,-747.165c166.454,-231.878 356.026,-429.405 568.716,-592.579c212.691,-163.174 485.489,-261.937 818.396,-296.289Z" style="fill-rule:nonzero;"/><path d="M166954,28477.4c314.412,-0 573.34,107.351 776.783,322.054c203.443,214.702 305.164,442.287 305.164,682.754l-249.68,721.4c110.969,103.057 184.948,249.055 221.938,437.993c18.495,85.881 27.742,180.351 27.742,283.408c0,343.524 -41.613,661.284 -124.84,953.279c-83.227,291.995 -124.84,618.343 -124.84,979.044l0,206.114c0,85.881 -9.247,184.644 -27.742,296.289c-18.495,111.646 -46.237,218.997 -83.227,322.054c-36.989,120.234 -73.979,249.055 -110.969,386.465l0,283.407c0,188.938 -32.366,343.524 -97.098,463.758c-64.731,120.233 -134.087,274.819 -208.066,463.757c-36.99,137.41 -97.098,279.113 -180.325,425.111c-83.227,145.998 -124.84,313.466 -124.84,502.404c0,68.705 18.495,158.88 55.485,270.525c36.989,111.645 92.474,223.291 166.453,334.936c73.979,111.645 161.83,206.115 263.551,283.407c101.722,77.293 217.314,115.94 346.778,115.94c147.959,-0 282.046,-42.941 402.263,-128.822c120.216,-85.881 217.314,-180.35 291.293,-283.407c92.474,-85.881 189.572,-158.88 291.293,-218.997c101.722,-60.116 217.315,-90.175 346.778,-90.175l527.103,0c110.969,0 175.701,51.529 194.196,154.586c18.494,103.057 27.742,223.291 27.742,360.7c-0,51.529 -83.227,154.586 -249.68,309.172c-166.454,154.586 -351.402,322.054 -554.845,502.404c-203.443,180.35 -406.886,352.112 -610.329,515.286c-203.443,163.174 -342.154,270.525 -416.134,322.054c-55.484,120.233 -175.701,326.348 -360.649,618.343c-184.948,291.996 -388.391,588.285 -610.329,888.869c-221.938,300.583 -457.747,566.814 -707.427,798.693c-249.68,231.879 -466.994,347.818 -651.943,347.818c-129.463,0 -272.798,-38.646 -430.004,-115.939c-157.206,-77.293 -300.541,-180.35 -430.005,-309.172c-129.464,-128.821 -235.809,-261.937 -319.035,-399.347c-83.227,-137.409 -124.841,-274.819 -124.841,-412.228l0,-412.229c0,-137.41 -9.247,-257.643 -27.742,-360.701c-18.495,-103.057 -83.226,-154.585 -194.195,-154.585l-0,-489.522l221.937,-721.401l0,-1210.92c0,-257.643 36.99,-463.757 110.969,-618.343c73.98,-154.586 110.969,-352.112 110.969,-592.579l0,-231.879c0,-120.233 41.614,-291.995 124.84,-515.286c83.227,-223.291 171.078,-463.757 263.552,-721.401c92.474,-257.643 180.324,-510.992 263.551,-760.046c83.227,-249.055 124.84,-468.052 124.84,-656.99c-0,-137.41 -60.108,-287.702 -180.325,-450.876c-120.216,-163.173 -319.035,-244.76 -596.458,-244.76c-110.969,-0 -208.066,34.352 -291.293,103.057c-83.227,68.705 -319.036,103.057 -707.427,103.057c-36.99,-17.176 -73.979,-60.117 -110.969,-128.822c-73.979,-103.057 -110.969,-231.878 -110.969,-386.464l-0,-412.229c-0,-154.586 161.83,-382.17 485.489,-682.754c323.66,-300.583 693.556,-601.167 1109.69,-901.751c416.133,-300.583 818.395,-566.814 1206.79,-798.693c388.391,-231.879 638.071,-347.818 749.04,-347.818Zm83.227,-6080.38c73.979,0 171.077,-12.882 291.293,-38.646l749.041,-154.586c120.216,-25.764 208.066,-38.646 263.551,-38.646c258.927,85.881 425.381,231.878 499.36,437.993c73.979,206.114 184.948,420.817 332.907,644.107c-0,137.41 13.871,274.82 41.613,412.229c27.742,137.41 41.614,266.231 41.614,386.465c-0,103.057 -36.99,227.584 -110.969,373.582c-73.98,145.998 -110.969,330.642 -110.969,553.933c-36.99,120.233 -87.851,266.231 -152.583,437.993c-64.731,171.762 -147.958,330.642 -249.68,476.639c-101.721,145.998 -221.938,266.232 -360.649,360.701c-138.711,94.469 -300.541,124.527 -485.489,90.175c-258.927,-0 -540.973,-81.587 -846.138,-244.761c-305.165,-163.174 -531.726,-373.583 -679.685,-631.226c-129.464,-103.057 -175.701,-257.643 -138.711,-463.757c36.99,-206.115 55.484,-386.465 55.484,-541.05c0,-463.758 83.227,-841.634 249.681,-1133.63c166.453,-291.995 369.896,-601.167 610.329,-927.515Z" style="fill-rule:nonzero;"/><path d="M178356,28400.1c388.391,-0 665.813,103.057 832.267,309.172c166.453,206.114 249.68,489.521 249.68,850.222c-0,68.704 -27.742,218.996 -83.227,450.875c-55.484,231.879 -124.84,489.522 -208.067,772.929c-83.226,283.407 -171.077,571.109 -263.551,863.104c-92.474,291.996 -166.453,523.874 -221.938,695.636c0,137.41 -9.247,279.114 -27.742,425.111c-18.495,145.998 -83.227,339.23 -194.196,579.697c-147.958,103.057 -221.938,270.525 -221.938,502.404l0,502.404l-83.226,1365.51l-0,1004.81c-0,51.529 4.623,141.704 13.871,270.525c9.247,128.822 27.742,257.643 55.484,386.465c27.743,128.821 78.603,240.467 152.583,334.936c73.979,94.469 175.7,141.703 305.164,141.703l388.391,-566.814c110.969,-85.881 240.433,-193.233 388.392,-322.054c147.958,-128.822 295.917,-253.349 443.876,-373.582c166.453,-137.41 332.906,-283.408 499.36,-437.994c110.969,0 203.443,42.941 277.422,128.822c73.979,85.881 110.969,180.35 110.969,283.407l-110.969,206.115c-73.979,137.409 -147.958,240.466 -221.938,309.171c-129.464,343.524 -295.917,639.814 -499.36,888.869c-203.443,249.055 -425.381,489.522 -665.814,721.4c-240.432,231.879 -485.489,468.052 -735.169,708.519c-249.68,240.466 -485.489,515.286 -707.427,824.457l-610.329,798.694c-0,154.586 -50.861,313.465 -152.582,476.639c-101.722,163.174 -221.938,291.996 -360.649,386.465c-138.712,94.469 -286.67,137.41 -443.876,128.821c-157.206,-8.588 -282.046,-107.351 -374.52,-296.289c-110.969,-309.172 -166.454,-614.049 -166.454,-914.633c0,-300.583 27.743,-592.579 83.227,-875.986c55.484,-283.407 110.969,-553.933 166.453,-811.576c55.485,-257.643 83.227,-506.698 83.227,-747.165l0,-1442.8c0,-85.881 -64.732,-145.997 -194.196,-180.35c-73.979,-17.176 -138.711,-25.764 -194.195,-25.764c-55.485,0 -194.196,150.292 -416.134,450.875c-221.938,300.584 -476.241,644.108 -762.911,1030.57c-286.67,386.464 -577.963,777.223 -873.881,1172.28c-295.917,395.053 -536.349,678.46 -721.298,850.222c-55.484,68.705 -143.335,167.468 -263.551,296.29c-120.216,128.821 -249.68,253.349 -388.391,373.582c-138.711,120.234 -291.294,227.585 -457.747,322.054c-166.453,94.469 -314.412,141.704 -443.876,141.704c-258.927,-0 -471.618,-85.881 -638.071,-257.643c-166.454,-171.762 -295.917,-373.583 -388.392,-605.461c-92.474,-231.879 -161.829,-463.758 -208.066,-695.637c-46.237,-231.878 -69.356,-399.346 -69.356,-502.404l-83.227,-1855.03l388.392,-3014.42c-0,-51.529 27.742,-171.762 83.226,-360.7c55.485,-188.938 129.464,-395.053 221.938,-618.344c92.474,-223.29 198.82,-442.287 319.036,-656.989c120.216,-214.703 245.056,-390.759 374.52,-528.168c536.35,-463.758 1054.2,-1030.57 1553.57,-1700.44c240.433,-309.171 471.618,-532.462 693.556,-669.871c221.938,-137.41 443.876,-244.761 665.814,-322.054c221.938,-77.293 443.876,-137.41 665.813,-180.35c221.938,-42.941 471.618,-133.116 749.041,-270.526c110.969,0 254.304,-55.822 430.004,-167.467c175.701,-111.646 337.531,-218.997 485.49,-322.054l1248.4,-0l527.103,-231.879Zm-3551.01,2859.84c-332.907,257.643 -647.319,553.932 -943.236,888.868c-295.918,334.936 -554.845,674.166 -776.783,1017.69c-221.938,343.524 -397.639,665.578 -527.102,966.162c-129.464,300.583 -194.196,536.756 -194.196,708.518c-0,85.881 -9.248,244.761 -27.742,476.64c-18.495,231.878 -9.248,472.345 27.742,721.4c36.99,249.055 106.345,472.346 208.067,669.872c101.721,197.526 282.046,296.289 540.973,296.289c240.433,0 522.479,-197.526 846.138,-592.579c323.66,-395.052 628.824,-841.634 915.494,-1339.74c286.67,-498.11 527.103,-961.868 721.298,-1391.27c194.196,-429.405 291.294,-687.048 291.294,-772.929c-0,-68.705 9.247,-236.173 27.742,-502.404c18.495,-266.231 4.624,-523.874 -41.613,-772.929c-46.237,-249.055 -147.959,-429.405 -305.165,-541.05c-157.206,-111.646 -411.51,-55.823 -762.911,167.468Z" style="fill-rule:nonzero;"/><path d="M190563,18300.5c536.35,-0 873.88,154.586 1012.59,463.757c138.711,309.172 208.066,661.284 208.066,1056.34l0,489.522c0,240.467 -83.226,498.11 -249.68,772.929c-166.453,274.819 -369.896,528.168 -610.329,760.047c-240.433,231.878 -494.736,429.405 -762.911,592.579c-268.175,163.174 -494.737,244.761 -679.685,244.761c-240.433,-0 -443.876,-34.353 -610.329,-103.058c-166.454,-68.704 -323.66,-103.057 -471.618,-103.057c-388.392,0 -790.654,111.645 -1206.79,334.936c-416.133,223.291 -679.684,583.991 -790.653,1082.1c-147.959,257.643 -217.314,485.228 -208.067,682.754c9.247,197.526 -23.119,399.347 -97.098,605.461c-166.453,360.7 -337.53,828.752 -513.231,1404.15c-175.701,575.402 -263.551,1112.16 -263.551,1610.27c-0,51.528 -13.872,137.409 -41.614,257.643c-27.742,120.233 -60.108,249.055 -97.098,386.464c-36.989,154.586 -73.979,317.76 -110.969,489.522l0,798.693l-388.391,2086.91c36.99,240.467 32.366,519.58 -13.871,837.34c-46.237,317.76 -115.593,682.754 -208.067,1094.98c-92.474,412.229 -184.948,858.81 -277.422,1339.74c-92.474,480.934 -157.206,987.632 -194.196,1520.09c0,103.058 23.119,270.526 69.356,502.404c46.237,231.879 134.087,347.818 263.551,347.818c166.454,0 346.778,-51.528 540.974,-154.585c194.195,-103.058 383.767,-231.879 568.716,-386.465l1109.69,-953.279c351.402,-326.348 712.051,-622.638 1081.95,-888.869c369.897,-266.231 730.546,-399.346 1081.95,-399.346l166.454,206.114c-0,188.938 -55.485,407.935 -166.454,656.99c-110.969,249.055 -249.68,502.404 -416.133,760.047c-166.454,257.643 -351.402,498.11 -554.845,721.4c-203.443,223.291 -397.639,395.053 -582.587,515.286c-369.896,240.467 -670.437,532.463 -901.623,875.987c-231.185,343.524 -540.973,695.636 -929.364,1056.34c-129.464,257.643 -328.284,468.052 -596.458,631.226c-268.175,163.173 -531.727,313.465 -790.654,450.875c-277.423,103.057 -614.953,236.173 -1012.59,399.347c-397.638,163.173 -735.169,244.76 -1012.59,244.76c-203.443,0 -346.778,-30.058 -430.005,-90.175c-83.227,-60.116 -134.087,-150.291 -152.582,-270.525c-18.495,-120.233 -13.871,-274.819 13.871,-463.757c27.742,-188.939 41.613,-420.817 41.613,-695.636l0,-1648.92c0,-240.467 50.861,-480.934 152.583,-721.4c101.721,-240.467 152.582,-472.346 152.582,-695.637l-0,-515.286c-0,137.41 18.495,72.999 55.484,-193.232c36.99,-266.231 83.227,-661.284 138.711,-1185.16c55.485,-523.874 101.722,-1146.51 138.712,-1867.91c36.989,-721.4 55.484,-1477.15 55.484,-2267.26c0,-103.057 50.861,-253.349 152.582,-450.875c101.722,-197.526 152.583,-356.406 152.583,-476.64l-0,-927.515c110.969,-498.109 194.195,-987.631 249.68,-1468.57c55.484,-480.933 110.969,-953.279 166.453,-1417.04c55.485,-463.757 129.464,-931.808 221.938,-1404.15c92.474,-472.346 240.433,-948.985 443.876,-1429.92c147.958,-463.757 388.391,-910.339 721.298,-1339.74c332.907,-429.405 628.824,-893.162 887.751,-1391.27c129.464,-223.291 272.799,-429.405 430.005,-618.343c157.206,-188.939 356.025,-343.524 596.458,-463.758c258.928,-395.052 614.953,-708.518 1068.08,-940.397c453.123,-231.879 892.375,-347.818 1317.76,-347.818l2080.67,-0Z" style="fill-rule:nonzero;"/></svg>