<svg width="100%" height="100%" viewBox="0 0 47938 17209" xmlns="http://www.w3.org/2000/svg" xmlns:xlink="http://www.w3.org/1999/xlink">
<g fill="currentColor">
    <path d="M1733.83,6711.41c147.21,9.423 286.195,16.491 416.953,21.203c130.758,4.712 247.228,7.068 349.41,7.068c105.645,-0 223.847,-2.356 354.605,-7.068c130.758,-4.712 281.866,-11.78 453.323,-21.203l0,254.441l-83.131,-5.654c-145.479,-0 -244.197,47.118 -296.154,141.356c-51.956,94.238 -77.935,307.214 -77.935,638.931c0,49.003 0.866,137.586 2.598,265.749c1.732,128.164 2.598,232.767 2.598,313.811l5.196,1984.64l15.587,2.827c223.414,15.078 392.274,22.617 506.579,22.617c434.705,0 719.602,-49.003 854.689,-147.01c135.088,-98.007 245.929,-284.598 332.524,-559.771l239.001,79.159c-53.688,171.513 -101.748,343.967 -144.18,517.364c-42.431,173.397 -79.234,348.679 -110.408,525.846c-306.545,-11.309 -591.442,-19.79 -854.69,-25.444c-263.248,-5.655 -503.981,-8.482 -722.2,-8.482c-216.486,0 -434.272,2.827 -653.357,8.482c-219.084,5.654 -436.87,14.135 -653.357,25.444l0,-248.787l72.74,-0c93.522,-0 165.396,-10.366 215.621,-31.099c50.225,-20.732 86.594,-54.657 109.109,-101.776c48.493,-103.662 74.471,-490.978 77.935,-1161.95c1.732,-86.699 2.598,-152.665 2.598,-197.899l5.196,-616.313c-0,-82.93 0.866,-191.774 2.598,-326.534c1.731,-134.759 2.597,-228.526 2.597,-281.299c0,-339.255 -25.545,-560.713 -76.636,-664.374c-51.091,-103.662 -147.644,-155.492 -289.659,-155.492l-59.75,-0l-0,-248.787Z" style="fill-rule:nonzero;"/><path d="M5638.38,6431.52l236.403,175.282c58.885,43.349 102.615,88.583 131.191,135.702c28.576,47.119 42.864,98.007 42.864,152.665c0,56.542 -11.257,105.075 -33.771,145.597c-22.515,40.522 -62.349,82.458 -119.501,125.807l-251.991,186.59l-233.805,-169.627c-62.349,-43.35 -108.677,-88.584 -138.985,-135.702c-30.308,-47.119 -45.462,-96.123 -45.462,-147.011c-0,-56.542 12.123,-106.488 36.37,-149.838c24.246,-43.349 68.409,-89.525 132.49,-138.529l244.197,-180.936Zm363.697,1419.22c-10.391,407.106 -18.618,762.381 -24.679,1065.83c-6.062,303.445 -9.093,552.232 -9.093,746.361l0,330.774c0,220.516 20.35,361.401 61.05,422.656c40.699,61.254 118.201,91.881 232.506,91.881l85.729,-5.654l0,243.133c-159.334,-11.309 -298.752,-19.79 -418.252,-25.444c-119.501,-5.655 -218.219,-8.482 -296.154,-8.482c-65.812,0 -154.572,2.827 -266.279,8.482c-111.707,5.654 -244.63,14.135 -398.768,25.444l-0,-243.133l54.554,-0c221.683,-0 333.39,-222.401 335.122,-667.202l-0,-166.8l5.195,-602.178l0,-248.787c0,-211.092 -15.587,-346.794 -46.761,-407.106c-31.174,-60.313 -91.79,-90.469 -181.849,-90.469c-12.123,0 -39.833,1.885 -83.13,5.655c-19.051,1.884 -33.772,3.769 -44.164,5.654l-38.967,-226.17c183.58,-26.387 360.234,-60.312 529.959,-101.777c169.726,-41.464 337.72,-92.352 503.981,-152.664Z" style="fill-rule:nonzero;"/><path d="M7669.9,7850.74l-41.565,463.648c207.827,-162.088 385.346,-279.885 532.557,-353.391c147.211,-73.505 277.969,-110.257 392.274,-110.257c271.908,-0 476.704,86.227 614.39,258.682c137.685,172.454 206.528,427.367 206.528,764.737c0,64.082 -1.732,212.506 -5.196,445.273c-3.463,232.766 -5.195,433.964 -5.195,603.591c-0,277.058 18.618,443.859 55.853,500.401c37.236,56.543 112.14,84.814 224.713,84.814l54.555,0l-5.196,237.479c-154.138,-11.309 -285.762,-19.79 -394.871,-25.444c-109.11,-5.655 -197.436,-8.482 -264.98,-8.482c-72.74,0 -162.365,2.827 -268.877,8.482c-106.511,5.654 -229.909,14.135 -370.192,25.444l-0,-237.479l31.174,0c214.755,0 324.73,-235.594 329.926,-706.781l-0,-630.45c-0,-326.061 -34.638,-545.635 -103.914,-658.72c-69.276,-113.085 -187.044,-169.628 -353.306,-169.628c-90.059,0 -187.045,20.262 -290.958,60.784c-103.914,40.522 -218.219,103.19 -342.915,188.004c-6.928,169.627 -12.124,345.851 -15.587,528.672c-3.464,182.821 -5.196,378.835 -5.196,588.042l-0,231.825c-0,254.441 18.618,412.76 55.853,474.957c37.236,62.197 111.275,93.295 222.116,93.295l41.565,0l0,237.479c-145.479,-11.309 -272.773,-19.79 -381.882,-25.444c-109.11,-5.655 -201.766,-8.482 -277.969,-8.482c-74.472,0 -166.262,2.827 -275.371,8.482c-109.11,5.654 -235.538,14.135 -379.285,25.444l-0,-237.479l59.75,0c214.755,0 323.864,-236.536 327.328,-709.608c0,-56.543 0.866,-99.892 2.598,-130.048l5.196,-585.215l-0,-248.788c-0,-212.976 -15.154,-351.034 -45.463,-414.174c-30.308,-63.139 -86.161,-94.708 -167.56,-94.708c-15.587,-0 -50.225,2.827 -103.914,8.481c-10.391,1.885 -18.185,2.827 -23.381,2.827l-15.587,-220.516c143.748,-24.501 295.288,-58.427 454.623,-101.776c159.334,-43.349 335.121,-98.007 527.361,-163.973Z" style="fill-rule:nonzero;"/><path d="M12130.4,10092.6l142.882,277.058c-193.973,156.434 -379.285,273.76 -555.938,351.977c-176.654,78.217 -344.647,117.326 -503.982,117.326c-356.77,0 -649.027,-132.875 -876.771,-398.625c-227.744,-265.75 -341.616,-607.832 -341.616,-1026.25c0,-439.147 142.015,-808.558 426.046,-1108.23c284.031,-299.676 637.337,-449.513 1059.92,-449.513c237.27,-0 416.954,38.166 539.052,114.498c122.099,76.333 183.148,188.947 183.148,337.842c-0,84.814 -28.576,161.146 -85.729,228.997c-57.152,67.851 -122.098,101.777 -194.838,101.777c-62.348,-0 -161.066,-58.899 -296.154,-176.696c-135.088,-117.797 -261.516,-176.695 -379.285,-176.695c-181.848,-0 -326.895,81.987 -435.138,245.96c-108.243,163.973 -162.365,384.489 -162.365,661.548c-0,354.333 74.904,632.333 224.713,834.002c149.809,201.668 355.471,302.502 616.987,302.502c98.718,0 200.467,-19.79 305.247,-59.369c104.779,-39.58 216.054,-98.95 333.822,-178.109Z" style="fill-rule:nonzero;"/><path d="M13922.9,8226.75c-213.023,0 -377.986,86.228 -494.889,258.682c-116.903,172.455 -175.354,416.059 -175.354,730.813c-0,382.604 66.678,686.049 200.033,910.334c133.356,224.286 312.607,336.428 537.754,336.428c214.754,0 384.047,-90.468 507.877,-271.404c123.831,-180.936 185.746,-428.781 185.746,-743.534c0,-375.066 -68.843,-672.385 -206.528,-891.958c-137.686,-219.574 -322.566,-329.361 -554.639,-329.361Zm51.957,-370.353c406.995,-0 740.384,136.173 1000.17,408.52c259.784,272.346 389.676,616.784 389.676,1033.31c0,437.262 -135.52,802.433 -406.562,1095.51c-271.041,293.078 -609.193,439.618 -1014.46,439.618c-405.263,-0 -736.055,-137.587 -992.375,-412.761c-256.32,-275.173 -384.48,-627.622 -384.48,-1057.35c-0,-422.184 137.252,-778.873 411.757,-1070.07c274.506,-291.194 606.596,-436.791 996.273,-436.791Z" style="fill-rule:nonzero;"/><path d="M16694.8,6369.32c-12.123,350.564 -20.783,685.107 -25.978,1003.63c-5.196,318.523 -7.794,622.91 -7.794,913.162l0,1255.24c0,288.367 4.33,489.564 12.989,603.592c8.66,114.027 21.649,191.773 38.968,233.237c17.319,41.465 49.359,72.563 96.12,93.296c46.761,20.732 107.378,31.098 181.849,31.098l59.75,-0l0,243.133c-166.262,-11.309 -310.442,-19.79 -432.54,-25.444c-122.099,-5.655 -222.982,-8.482 -302.649,-8.482c-72.739,0 -164.53,2.827 -275.371,8.482c-110.841,5.654 -240.733,14.135 -389.676,25.444l-0,-243.133l80.533,5.654c214.755,0 322.132,-292.136 322.132,-876.409c1.732,-94.237 2.598,-166.8 2.598,-217.689l5.196,-1292l-0,-763.324c-0,-211.093 -15.154,-351.507 -45.462,-421.242c-30.309,-69.736 -86.162,-104.604 -167.561,-104.604c-22.515,0 -46.761,1.414 -72.74,4.241c-25.978,2.827 -51.091,7.068 -75.337,12.722l-28.576,-226.17c185.312,-32.041 362.399,-68.794 531.258,-110.258c168.86,-41.465 332.957,-89.526 492.291,-144.184Z" style="fill-rule:nonzero;"/><path d="M18367.8,7850.74l-41.566,463.648c207.828,-162.088 385.347,-279.885 532.558,-353.391c147.211,-73.505 277.969,-110.257 392.274,-110.257c271.907,-0 476.703,86.227 614.389,258.682c137.686,172.454 206.528,427.367 206.528,764.737c0,64.082 -1.731,212.506 -5.195,445.273c-3.464,232.766 -5.196,433.964 -5.196,603.591c0,277.058 18.618,443.859 55.854,500.401c37.235,56.543 112.14,84.814 224.713,84.814l54.555,0l-5.196,237.479c-154.139,-11.309 -285.763,-19.79 -394.872,-25.444c-109.109,-5.655 -197.436,-8.482 -264.98,-8.482c-72.739,0 -162.365,2.827 -268.876,8.482c-106.512,5.654 -229.909,14.135 -370.193,25.444l0,-237.479l31.174,0c214.755,0 324.731,-235.594 329.926,-706.781l0,-630.45c0,-326.061 -34.638,-545.635 -103.913,-658.72c-69.276,-113.085 -187.045,-169.628 -353.307,-169.628c-90.058,0 -187.044,20.262 -290.958,60.784c-103.914,40.522 -218.219,103.19 -342.915,188.004c-6.928,169.627 -12.123,345.851 -15.587,528.672c-3.464,182.821 -5.196,378.835 -5.196,588.042l0,231.825c0,254.441 18.618,412.76 55.854,474.957c37.236,62.197 111.274,93.295 222.115,93.295l41.566,0l-0,237.479c-145.479,-11.309 -272.774,-19.79 -381.883,-25.444c-109.109,-5.655 -201.766,-8.482 -277.969,-8.482c-74.471,0 -166.262,2.827 -275.371,8.482c-109.109,5.654 -235.538,14.135 -379.285,25.444l0,-237.479l59.751,0c214.754,0 323.864,-236.536 327.327,-709.608c0,-56.543 0.866,-99.892 2.598,-130.048l5.196,-585.215l0,-248.788c0,-212.976 -15.154,-351.034 -45.462,-414.174c-30.308,-63.139 -86.162,-94.708 -167.561,-94.708c-15.587,-0 -50.225,2.827 -103.914,8.481c-10.391,1.885 -18.184,2.827 -23.38,2.827l-15.587,-220.516c143.747,-24.501 295.288,-58.427 454.622,-101.776c159.334,-43.349 335.121,-98.007 527.362,-163.973Z" style="fill-rule:nonzero;"/><path d="M24641.6,9490.47l680.634,-1668.01c143.747,-354.333 239.002,-604.534 285.763,-750.602c46.761,-146.068 70.141,-256.797 70.141,-332.187l0,-28.271c17.319,-0 43.298,0.942 77.936,2.827c264.979,13.193 455.488,19.79 571.525,19.79c64.08,-0 196.57,-4.712 397.469,-14.136c83.131,-3.77 147.211,-6.597 192.241,-8.481l-0,254.441c-178.386,-0 -296.587,24.502 -354.606,73.505c-58.018,49.004 -87.027,151.723 -87.027,308.157c-0,75.39 3.463,201.197 10.391,377.421c6.928,176.225 16.453,368.94 28.576,578.148l36.37,686.991c29.442,501.344 51.091,833.531 64.946,996.562c13.855,163.031 27.71,270.933 41.565,323.706c13.856,58.428 49.359,103.191 106.512,134.289c57.152,31.098 131.624,46.647 223.414,46.647l64.946,0l-2.598,254.442c-147.211,-9.424 -290.092,-16.492 -428.643,-21.204c-138.552,-4.711 -266.712,-7.067 -384.481,-7.067c-67.544,-0 -156.736,1.884 -267.577,5.654c-110.842,3.769 -277.103,11.308 -498.786,22.617l0,-254.442l80.533,0c142.016,0 240.3,-26.386 294.855,-79.159c54.555,-52.773 81.832,-146.068 81.832,-279.886c0,-45.234 -0.433,-91.881 -1.299,-139.942c-0.866,-48.061 -3.897,-109.787 -9.092,-185.177l-106.512,-2256.05l-940.418,2315.42c-90.059,222.4 -153.273,391.557 -189.643,507.469c-36.369,115.912 -64.08,226.641 -83.13,332.187l-280.567,0c-15.587,-77.275 -37.236,-160.204 -64.946,-248.787c-27.711,-88.583 -70.142,-206.38 -127.295,-353.391l-950.809,-2485.04c-50.225,610.659 -88.76,1123.31 -115.604,1537.96c-26.845,414.645 -40.267,695.473 -40.267,842.483c0,201.669 25.113,334.073 75.338,397.212c50.224,63.139 149.808,94.708 298.751,94.708l72.74,0l-0,254.442c-169.726,-11.309 -307.844,-18.848 -414.356,-22.617c-106.511,-3.77 -198.735,-5.654 -276.67,-5.654c-41.565,-0 -100.883,1.413 -177.952,4.24c-77.069,2.827 -231.641,10.838 -463.715,24.031l-2.597,-254.442c3.463,0 9.525,0.943 18.184,2.828c45.03,5.654 76.204,8.481 93.523,8.481c228.61,-0 368.027,-346.794 418.252,-1040.38c13.855,-188.476 25.113,-337.371 33.772,-446.686l59.75,-678.511c20.783,-267.634 37.236,-490.977 49.359,-670.029c12.124,-179.051 18.185,-293.078 18.185,-342.082c0,-139.472 -24.679,-234.18 -74.038,-284.126c-49.359,-49.946 -145.046,-74.919 -287.062,-74.919l-67.544,-0l0,-254.441c110.842,7.539 217.786,13.193 320.834,16.962c103.048,3.77 197.869,5.655 284.463,5.655c69.276,-0 214.755,-4.712 436.438,-14.136c90.058,-3.77 161.066,-6.597 213.023,-8.481l-0,22.617c-0,147.01 202.631,735.995 607.895,1766.95c162.798,414.645 291.824,744.476 387.078,989.494Z" style="fill-rule:nonzero;"/><path d="M29743.8,9238.86l-1083.3,2.827c-185.313,-0 -323.864,1.413 -415.655,4.24c-91.79,2.827 -176.653,8.953 -254.588,18.377c-0,337.37 76.636,602.178 229.909,794.422c153.272,192.245 364.997,288.367 635.172,288.367c129.892,0 258.485,-22.146 385.779,-66.437c127.295,-44.292 255.888,-111.672 385.78,-202.14l116.903,243.133c-200.9,173.397 -398.336,302.974 -592.308,388.73c-193.972,85.756 -386.212,128.634 -576.721,128.634c-361.966,0 -658.986,-131.461 -891.059,-394.384c-232.074,-262.923 -348.111,-600.764 -348.111,-1013.52c-0,-448.571 125.562,-823.165 376.687,-1123.78c251.125,-300.617 559.402,-450.926 924.831,-450.926c327.328,-0 592.308,125.807 794.94,377.421c202.631,251.614 306.545,586.629 311.741,1005.04Zm-615.689,-344.91c-36.369,-220.516 -102.614,-392.499 -198.735,-515.95c-96.12,-123.452 -210.858,-185.177 -344.213,-185.177c-159.335,-0 -290.959,66.908 -394.872,200.726c-103.914,133.817 -168.86,321.35 -194.838,562.598l163.664,-0c213.023,-0 398.335,-5.183 555.938,-15.549c157.602,-10.366 295.288,-25.916 413.056,-46.648Z" style="fill-rule:nonzero;"/><path d="M31099.8,7856.39c-6.928,60.312 -14.721,159.261 -23.381,296.848c-3.464,64.082 -6.062,111.2 -7.793,141.356c211.291,-158.319 387.078,-270.933 527.361,-337.841c140.284,-66.909 269.31,-100.363 387.079,-100.363c159.334,-0 295.288,39.108 407.861,117.326c112.573,78.217 203.497,197.427 272.773,357.631c211.291,-169.628 392.274,-291.194 542.949,-364.699c150.675,-73.506 290.958,-110.258 420.85,-110.258c242.465,-0 429.943,88.583 562.433,265.75c132.489,177.166 198.734,430.665 198.734,760.497l0,243.132l-10.391,709.609c0,13.193 -0.866,51.36 -2.598,114.499c-1.732,63.139 -2.598,120.153 -2.598,171.041c0,160.204 19.484,264.807 58.452,313.811c38.967,49.003 114.738,73.505 227.311,73.505l64.946,0l-0,237.479c-138.552,-11.309 -263.681,-19.79 -375.388,-25.444c-111.707,-5.655 -209.992,-8.482 -294.855,-8.482c-60.616,0 -142.448,2.827 -245.496,8.482c-103.048,5.654 -225.579,14.135 -367.595,25.444l2.598,-237.479c8.66,1.885 19.051,3.299 31.174,4.241c12.124,0.942 29.443,1.413 51.957,1.413c105.646,0 176.22,-38.166 211.724,-114.498c35.504,-76.333 53.256,-268.106 53.256,-575.32l-0,-316.638c-0,-65.967 1.299,-153.136 3.897,-261.51c2.598,-108.373 3.897,-183.292 3.897,-224.756c-0,-233.709 -37.236,-405.222 -111.708,-514.537c-74.471,-109.316 -190.508,-163.974 -348.11,-163.974c-74.472,0 -161.932,20.262 -262.382,60.784c-100.45,40.522 -213.023,101.305 -337.72,182.349l-10.391,1303.31c0,86.698 -1.732,171.512 -5.196,254.441l0,16.963c0,145.126 16.453,239.363 49.359,282.712c32.906,43.35 97.852,65.024 194.838,65.024l64.946,0l0,237.479c-136.819,-11.309 -261.083,-19.79 -372.79,-25.444c-111.707,-5.655 -210.858,-8.482 -297.453,-8.482c-48.493,0 -119.5,2.827 -213.023,8.482c-93.522,5.654 -208.693,14.135 -345.512,25.444l-0,-237.479c10.391,1.885 21.648,3.299 33.772,4.241c12.123,0.942 28.576,1.413 49.359,1.413c98.717,0 165.395,-39.579 200.033,-118.739c34.638,-79.159 51.957,-255.384 51.957,-528.672l0,-856.62c0,-233.709 -35.937,-403.336 -107.81,-508.882c-71.874,-105.546 -184.88,-158.32 -339.019,-158.32c-77.935,0 -167.127,19.319 -267.577,57.957c-100.45,38.637 -212.157,96.593 -335.122,173.868c-1.732,62.197 -3.463,151.722 -5.195,268.577c-10.392,537.154 -15.587,906.565 -15.587,1108.23c-0,260.096 16.886,417.944 50.657,473.544c33.772,55.6 103.481,83.4 209.127,83.4l75.337,0l0,237.479c-148.943,-11.309 -280.134,-19.79 -393.573,-25.444c-113.439,-5.655 -209.126,-8.482 -287.061,-8.482c-76.204,0 -226.012,7.539 -449.427,22.617c-76.203,5.655 -133.356,9.424 -171.457,11.309l-2.598,-237.479l64.946,0c213.023,0 320.4,-231.824 322.132,-695.473c1.732,-56.542 2.598,-100.834 2.598,-132.875l0,-845.311c0,-214.861 -15.154,-354.333 -45.462,-418.414c-30.308,-64.082 -86.162,-96.123 -167.561,-96.123c-12.123,0 -28.576,1.414 -49.359,4.241c-20.783,2.827 -45.029,7.068 -72.739,12.722l-23.381,-220.516c124.696,-26.386 258.918,-58.898 402.665,-97.535c143.748,-38.638 332.524,-92.824 566.33,-162.56Z" style="fill-rule:nonzero;"/><path d="M36373.4,8226.75c-213.023,0 -377.986,86.228 -494.889,258.682c-116.903,172.455 -175.354,416.059 -175.354,730.813c-0,382.604 66.678,686.049 200.034,910.334c133.356,224.286 312.607,336.428 537.753,336.428c214.755,0 384.047,-90.468 507.878,-271.404c123.83,-180.936 185.745,-428.781 185.745,-743.534c0,-375.066 -68.842,-672.385 -206.528,-891.958c-137.686,-219.574 -322.565,-329.361 -554.639,-329.361Zm51.957,-370.353c406.995,-0 740.385,136.173 1000.17,408.52c259.784,272.346 389.676,616.784 389.676,1033.31c-0,437.262 -135.521,802.433 -406.562,1095.51c-271.042,293.078 -609.194,439.618 -1014.46,439.618c-405.263,-0 -736.055,-137.587 -992.376,-412.761c-256.32,-275.173 -384.48,-627.622 -384.48,-1057.35c-0,-422.184 137.253,-778.873 411.758,-1070.07c274.505,-291.194 606.596,-436.791 996.272,-436.791Z" style="fill-rule:nonzero;"/><path d="M39122,7833.78c-12.123,177.166 -21.649,328.889 -28.576,455.167c-6.928,126.278 -11.258,236.536 -12.99,330.774c154.139,-280.828 286.629,-473.544 397.47,-578.147c110.841,-104.604 232.074,-156.906 363.698,-156.906c91.79,0 171.457,36.753 239.001,110.258c67.544,73.505 101.316,162.089 101.316,265.75c-0,96.122 -21.216,172.455 -63.647,228.997c-42.432,56.543 -99.151,84.814 -170.159,84.814c-39.833,-0 -95.254,-15.549 -166.262,-46.648c-71.007,-31.098 -127.294,-46.647 -168.859,-46.647c-77.935,-0 -155.871,32.04 -233.806,96.122c-77.935,64.081 -168.86,171.512 -272.773,322.292l-5.196,559.771l0,313.811c0,326.062 26.844,531.029 80.533,614.9c53.689,83.872 158.468,125.807 314.339,125.807l106.511,-5.654l0,237.479l-7.793,-0c-386.212,-26.387 -637.337,-39.58 -753.374,-39.58c-91.79,0 -324.73,12.251 -698.819,36.753l-51.957,-0l-0,-240.306l70.142,-0c129.892,-0 218.218,-34.868 264.979,-104.604c46.762,-69.735 70.142,-235.594 70.142,-497.574l0,-955.569c0,-282.712 -16.02,-457.523 -48.06,-524.432c-32.04,-66.908 -92.223,-100.363 -180.55,-100.363c-10.391,0 -29.442,2.356 -57.152,7.068c-27.711,4.712 -50.225,8.01 -67.544,9.895l-20.783,-226.17c164.53,-28.271 329.06,-65.024 493.59,-110.258c164.53,-45.234 333.389,-100.834 506.579,-166.8Z" style="fill-rule:nonzero;"/><path d="M41062.5,6431.52l236.404,175.282c58.884,43.349 102.614,88.583 131.191,135.702c28.576,47.119 42.864,98.007 42.864,152.665c-0,56.542 -11.257,105.075 -33.772,145.597c-22.515,40.522 -62.348,82.458 -119.501,125.807l-251.99,186.59l-233.806,-169.627c-62.348,-43.35 -108.676,-88.584 -138.984,-135.702c-30.309,-47.119 -45.463,-96.123 -45.463,-147.011c0,-56.542 12.124,-106.488 36.37,-149.838c24.247,-43.349 68.41,-89.525 132.49,-138.529l244.197,-180.936Zm363.698,1419.22c-10.392,407.106 -18.618,762.381 -24.68,1065.83c-6.061,303.445 -9.092,552.232 -9.092,746.361l-0,330.774c-0,220.516 20.35,361.401 61.049,422.656c40.7,61.254 118.202,91.881 232.507,91.881l85.729,-5.654l-0,243.133c-159.335,-11.309 -298.752,-19.79 -418.253,-25.444c-119.5,-5.655 -218.218,-8.482 -296.154,-8.482c-65.812,0 -154.571,2.827 -266.278,8.482c-111.707,5.654 -244.63,14.135 -398.769,25.444l0,-243.133l54.555,-0c221.682,-0 333.389,-222.401 335.121,-667.202l0,-166.8l5.196,-602.178l-0,-248.787c-0,-211.092 -15.587,-346.794 -46.761,-407.106c-31.174,-60.313 -91.791,-90.469 -181.849,-90.469c-12.123,0 -39.834,1.885 -83.131,5.655c-19.051,1.884 -33.772,3.769 -44.163,5.654l-38.968,-226.17c183.581,-26.387 360.234,-60.312 529.96,-101.777c169.725,-41.464 337.719,-92.352 503.981,-152.664Z" style="fill-rule:nonzero;"/><path d="M43621.4,9397.18c-38.101,11.308 -93.522,28.271 -166.261,50.888c-495.322,148.895 -742.983,325.119 -742.983,528.672c0,113.086 33.772,207.794 101.316,284.127c67.544,76.332 152.407,114.498 254.588,114.498c65.812,0 140.717,-17.905 224.714,-53.715c83.996,-35.81 193.539,-97.065 328.626,-183.763l0,-740.707Zm1036.54,867.927l96.12,214.862c-157.602,113.085 -299.185,197.428 -424.747,253.028c-125.562,55.6 -237.702,83.4 -336.42,83.4c-119.501,0 -210.858,-33.454 -274.072,-100.363c-63.215,-66.909 -100.017,-168.214 -110.409,-303.916c-188.776,143.241 -348.11,246.431 -478.002,309.57c-129.893,63.139 -246.795,94.709 -350.709,94.709c-181.849,0 -336.853,-76.804 -465.014,-230.411c-128.16,-153.607 -192.24,-337.841 -192.24,-552.703c0,-361.872 371.491,-636.103 1114.47,-822.694c161.066,-41.464 287.494,-74.447 379.285,-98.949c1.732,-47.119 3.031,-92.824 3.897,-137.116c0.866,-44.291 1.298,-87.17 1.298,-128.634c0,-201.668 -35.936,-348.679 -107.81,-441.032c-71.874,-92.353 -186.611,-138.529 -344.214,-138.529c-102.182,0 -190.075,22.617 -263.681,67.851c-73.605,45.234 -113.006,98.007 -118.201,158.319c-1.732,9.424 -2.598,21.675 -2.598,36.753c-10.392,188.475 -119.501,282.712 -327.328,282.712c-77.936,0 -137.686,-14.135 -179.251,-42.406c-41.566,-28.272 -62.349,-69.736 -62.349,-124.394c0,-150.78 127.728,-319.936 383.182,-507.469c255.454,-187.533 523.465,-281.299 804.032,-281.299c273.639,-0 481.466,77.746 623.482,233.238c142.015,155.492 213.023,383.075 213.023,682.751c-0,90.468 -6.495,277.529 -19.484,561.184c-12.989,283.655 -19.484,522.547 -19.484,716.677c0,114.97 13.855,197.899 41.566,248.787c27.71,50.888 71.007,76.332 129.892,76.332c32.906,0 73.605,-9.423 122.098,-28.271c48.493,-18.847 103.048,-46.176 163.664,-81.987Z" style="fill-rule:nonzero;"/><path d="M45910.1,6369.32c-12.123,350.564 -20.782,685.107 -25.978,1003.63c-5.196,318.523 -7.793,622.91 -7.793,913.162l-0,1255.24c-0,288.367 4.329,489.564 12.989,603.592c8.659,114.027 21.648,191.773 38.967,233.237c17.319,41.465 49.359,72.563 96.12,93.296c46.762,20.732 107.378,31.098 181.849,31.098l59.751,-0l-0,243.133c-166.262,-11.309 -310.442,-19.79 -432.541,-25.444c-122.098,-5.655 -222.981,-8.482 -302.648,-8.482c-72.74,0 -164.53,2.827 -275.371,8.482c-110.842,5.654 -240.734,14.135 -389.677,25.444l0,-243.133l80.533,5.654c214.755,0 322.133,-292.136 322.133,-876.409c1.732,-94.237 2.598,-166.8 2.598,-217.689l5.195,-1292l0,-763.324c0,-211.093 -15.154,-351.507 -45.462,-421.242c-30.308,-69.736 -86.162,-104.604 -167.561,-104.604c-22.514,0 -46.761,1.414 -72.739,4.241c-25.979,2.827 -51.091,7.068 -75.338,12.722l-28.576,-226.17c185.313,-32.041 362.399,-68.794 531.259,-110.258c168.859,-41.465 332.956,-89.526 492.29,-144.184Z" style="fill-rule:nonzero;"/>
</g>
</svg>