<svg width="100%" height="100%" viewBox="0 0 3547 483" version="1.1" xmlns="http://www.w3.org/2000/svg" xmlns:xlink="http://www.w3.org/1999/xlink" xml:space="preserve" style="fill-rule:evenodd;clip-rule:evenodd;stroke-linejoin:round;stroke-miterlimit:2;"><g><path d="M216.432,17.109c-26.005,26.005 -20.53,90.333 8.212,105.388c35.586,19.162 80.753,4.107 88.965,-27.373c5.474,-19.162 -0,-26.005 -19.162,-26.005c-17.793,-0 -23.268,6.843 -16.424,21.899c5.475,16.424 1.368,20.53 -17.793,16.424c-34.217,-5.475 -43.798,-75.278 -13.687,-87.596c12.318,-5.475 31.48,-1.369 42.429,8.212c16.425,13.687 20.531,12.318 20.531,-5.475c-0,-26.005 -68.435,-30.111 -93.071,-5.474Z" style="fill:#869ab8;fill-rule:nonzero;"/><path d="M391.624,63.644l-0,61.591l50.641,-4.106c30.111,-2.738 52.01,-12.318 56.116,-24.637c5.475,-16.424 2.738,-17.793 -12.318,-4.106c-26.005,24.637 -53.379,21.899 -53.379,-6.843c0,-19.162 2.738,-20.53 13.687,-2.737c10.95,16.424 13.687,13.686 13.687,-10.95c0,-17.793 -5.475,-27.374 -13.687,-23.268c-6.843,4.106 -13.687,-1.368 -13.687,-12.318c0,-26.005 15.056,-28.742 38.324,-5.475c12.318,12.319 16.424,10.95 16.424,-6.843c-0,-17.793 -12.318,-23.268 -47.904,-23.268c-47.904,0 -47.904,0 -47.904,62.96Z" style="fill:#869ab8;fill-rule:nonzero;"/><path d="M585.977,17.109c-26.005,26.005 -20.53,90.333 10.95,106.757c54.747,30.111 113.601,-36.954 82.121,-95.808c-16.424,-30.111 -67.066,-36.954 -93.071,-10.949Zm69.803,27.373c9.581,35.586 -13.686,83.49 -35.585,75.278c-9.581,-2.737 -17.793,-27.374 -20.531,-54.747c-4.106,-42.43 0,-50.642 21.899,-50.642c16.424,0 30.111,12.318 34.217,30.111Z" style="fill:#869ab8;fill-rule:nonzero;"/><path d="M761.169,60.907c0,45.166 5.475,62.959 19.162,62.959c12.318,0 17.793,-10.949 12.318,-31.48l-6.843,-30.111l27.373,30.111c30.111,34.218 72.541,46.536 46.536,13.687c-8.212,-9.581 -13.687,-35.586 -12.318,-58.853c2.737,-35.586 -1.369,-39.692 -41.061,-43.798c-45.167,-4.106 -45.167,-4.106 -45.167,57.485Zm65.697,-21.899c2.738,9.58 -4.106,16.424 -16.424,16.424c-12.318,-0 -21.899,-9.581 -21.899,-21.899c0,-23.268 30.111,-19.162 38.323,5.475Z" style="fill:#869ab8;fill-rule:nonzero;"/><path d="M947.311,22.583c-30.111,28.743 -27.374,68.435 6.843,91.702c34.217,24.637 76.647,15.056 84.859,-19.161c5.474,-19.162 -0,-26.005 -19.162,-26.005c-16.424,-0 -21.899,6.843 -17.793,20.53c5.475,12.318 0,20.53 -12.318,20.53c-24.636,0 -39.692,-35.586 -30.111,-69.803c9.581,-30.111 34.217,-34.217 58.853,-9.581c12.319,12.319 16.425,10.95 16.425,-6.843c-0,-30.111 -58.854,-31.48 -87.596,-1.369Z" style="fill:#869ab8;fill-rule:nonzero;"/><path d="M1123.87,62.275l0,62.96l46.536,-4.106c27.373,-2.738 49.272,-12.318 53.378,-24.637c5.475,-16.424 2.738,-17.793 -12.318,-4.106c-24.636,24.637 -53.379,21.899 -53.379,-4.106c0,-10.949 6.844,-16.424 13.687,-12.318c8.212,4.106 13.687,-1.369 13.687,-13.687c0,-12.318 -5.475,-17.793 -13.687,-13.687c-6.843,4.106 -13.687,-1.368 -13.687,-12.318c0,-26.005 15.056,-28.742 38.324,-5.475c12.318,12.319 16.424,10.95 16.424,-6.843c-0,-17.793 -12.318,-23.268 -43.798,-23.268c-43.798,0 -45.167,1.369 -45.167,61.591Z" style="fill:#869ab8;fill-rule:nonzero;"/><path d="M1414.03,63.644c10.949,34.217 26.005,57.485 32.848,50.641c15.056,-15.055 -17.793,-113.601 -38.323,-113.601c-12.318,0 -10.949,16.425 5.475,62.96Z" style="fill:#869ab8;fill-rule:nonzero;"/><path d="M1464.67,36.27c-1.368,19.162 1.369,31.48 5.475,26.005c4.106,-4.106 15.056,9.581 24.636,30.111l16.425,38.324l12.318,-34.218c28.742,-71.171 32.848,-95.808 19.161,-95.808c-8.212,0 -13.686,4.106 -13.686,9.581c1.368,6.844 1.368,21.899 -0,35.586c-1.369,32.848 -28.743,15.056 -28.743,-19.162c0,-39.692 -34.217,-31.479 -35.586,9.581Z" style="fill:#869ab8;fill-rule:nonzero;"/><path d="M1639.87,37.639c-6.843,21.899 -17.793,49.273 -23.267,61.591c-5.475,15.055 -4.106,24.636 5.474,24.636c8.212,0 15.056,-9.581 15.056,-20.53c-0,-10.95 9.581,-20.53 20.53,-20.53c10.95,-0 20.53,9.58 20.53,20.53c0,10.949 9.581,20.53 20.531,20.53c16.424,0 16.424,-9.581 -4.106,-61.591c-12.318,-34.217 -26.005,-61.591 -31.48,-61.591c-5.475,0 -16.424,16.425 -23.268,36.955Z" style="fill:#869ab8;fill-rule:nonzero;"/><path d="M1791.79,22.583c-5.475,13.687 5.474,32.849 30.111,52.01c28.742,23.268 34.217,34.218 20.53,42.43c-10.95,6.843 -24.636,1.368 -36.955,-13.687c-15.055,-21.899 -17.793,-21.899 -17.793,-4.106c0,24.636 31.48,41.06 60.223,30.111c35.586,-13.687 34.217,-45.167 -2.738,-72.54c-20.53,-15.056 -32.848,-31.48 -27.373,-36.955c5.474,-5.475 19.161,-1.369 31.479,8.212c16.425,13.687 20.531,13.687 20.531,-5.475c-0,-28.742 -65.697,-30.111 -78.015,0Z" style="fill:#869ab8;fill-rule:nonzero;"/><path d="M1949.19,62.275c4.107,39.692 12.319,61.591 23.268,61.591c10.95,0 15.056,-10.949 10.95,-27.374c-5.475,-20.53 -0,-27.373 21.899,-27.373c19.161,-0 28.742,8.212 28.742,27.373c0,15.056 8.212,27.374 17.793,27.374c10.95,0 16.424,-21.899 16.424,-61.591c0,-47.904 -5.474,-61.591 -23.267,-61.591c-15.056,0 -20.531,8.212 -15.056,27.374c5.475,21.899 0,27.374 -23.268,27.374c-23.267,-0 -28.742,-5.475 -23.267,-27.374c5.474,-19.162 -0,-27.374 -16.425,-27.374c-17.793,0 -20.53,10.95 -17.793,61.591Z" style="fill:#869ab8;fill-rule:nonzero;"/><path d="M2154.49,62.275c2.737,34.217 12.318,61.591 21.899,61.591c8.212,0 15.055,-24.636 15.055,-61.591c0,-45.166 -5.475,-61.591 -20.53,-61.591c-16.424,0 -19.162,13.687 -16.424,61.591Z" style="fill:#869ab8;fill-rule:nonzero;"/><path d="M2277.67,62.275c2.738,34.217 9.581,61.591 15.056,61.591c5.475,0 8.212,-20.53 5.475,-45.167l-5.475,-43.797l38.323,45.166c20.53,24.637 42.429,43.798 49.273,43.798c5.475,0 9.581,-27.374 9.581,-61.591c-0,-34.217 -5.475,-61.591 -10.95,-61.591c-6.843,0 -9.581,20.531 -5.475,43.798l5.475,45.167l-36.954,-45.167c-50.642,-61.591 -69.803,-57.485 -64.329,17.793Z" style="fill:#869ab8;fill-rule:nonzero;"/><path d="M2474.76,17.109c-26.005,26.005 -20.53,90.333 8.212,105.388c35.586,19.162 80.753,4.107 88.965,-27.373c5.475,-19.162 0,-26.005 -19.162,-26.005c-17.793,-0 -23.267,6.843 -16.424,21.899c5.475,16.424 1.369,20.53 -17.793,16.424c-34.217,-5.475 -43.798,-75.278 -13.687,-87.596c12.319,-5.475 31.48,-1.369 42.43,8.212c16.424,13.687 20.53,12.318 20.53,-5.475c-0,-26.005 -68.434,-30.111 -93.071,-5.474Z" style="fill:#869ab8;fill-rule:nonzero;"/><path d="M2636.27,22.583c0,19.162 4.106,19.162 20.531,5.475c17.793,-15.055 20.53,-9.581 20.53,39.692c-0,36.955 5.475,56.116 17.793,56.116c12.318,0 15.055,-17.793 10.949,-57.485c-4.106,-52.01 -2.737,-56.116 17.793,-39.692c19.162,15.056 21.899,15.056 21.899,-4.106c0,-16.424 -13.687,-21.899 -54.747,-21.899c-41.061,0 -54.748,5.475 -54.748,21.899Z" style="fill:#869ab8;fill-rule:nonzero;"/><path d="M2822.41,22.583c-28.743,28.743 -27.374,54.748 5.474,87.596c34.218,34.217 47.905,34.217 83.49,-1.368c19.162,-19.162 24.637,-36.955 17.793,-57.485c-16.424,-53.379 -68.434,-67.066 -106.757,-28.743Zm71.171,42.43c-2.737,35.585 -10.949,52.01 -24.636,52.01c-13.687,-0 -21.899,-16.425 -24.636,-52.01c-4.106,-43.798 -0,-50.642 24.636,-50.642c24.636,0 28.743,6.844 24.636,50.642Z" style="fill:#869ab8;fill-rule:nonzero;"/><path d="M2998.97,62.275c0,34.217 4.106,61.591 10.95,61.591c5.475,0 9.581,-20.53 9.581,-43.798l-0,-45.166l31.479,43.797c16.425,24.637 34.218,45.167 38.324,45.167c5.474,0 12.318,-27.374 15.055,-61.591c2.738,-39.692 -1.368,-61.591 -10.949,-61.591c-9.581,0 -12.318,15.056 -9.581,36.955l5.475,38.323l-31.48,-38.323c-45.167,-52.01 -58.854,-46.535 -58.854,24.636Z" style="fill:#869ab8;fill-rule:nonzero;"/><path d="M3187.85,26.689c0,15.056 6.844,23.268 12.318,20.531c15.056,-9.581 13.687,-46.536 -1.368,-46.536c-8.212,0 -12.319,12.319 -10.95,26.005Z" style="fill:#869ab8;fill-rule:nonzero;"/><path d="M3269.97,22.583c-5.474,15.056 4.106,31.48 27.374,49.273c20.53,15.056 34.217,32.849 28.743,39.692c-4.107,6.843 -0,12.318 6.843,12.318c27.374,0 15.055,-50.641 -15.056,-72.54c-17.793,-10.95 -27.373,-24.637 -21.899,-30.111c5.475,-5.475 19.162,-2.738 31.48,6.843c16.424,13.687 20.53,13.687 20.53,-5.475c0,-30.111 -67.065,-30.111 -78.015,0Z" style="fill:#869ab8;fill-rule:nonzero;"/><path d="M3265.87,99.23c0,12.318 9.581,26.005 21.899,30.111c20.531,8.212 20.531,5.475 4.106,-15.056c-9.58,-13.687 -20.53,-27.373 -21.899,-30.111c-2.737,-2.737 -4.106,4.106 -4.106,15.056Z" style="fill:#869ab8;fill-rule:nonzero;"/><path d="M446.371,229.255c-67.065,24.636 -98.545,109.495 -68.434,183.404c47.904,116.338 232.677,78.015 232.677,-47.904c-0,-106.758 -73.909,-168.348 -164.243,-135.5Zm79.384,34.217c21.899,21.899 20.53,150.556 -1.369,180.667c-23.267,32.848 -72.54,19.162 -83.489,-23.268c-12.319,-46.535 -9.581,-117.707 5.474,-147.818c16.425,-28.742 54.748,-34.217 79.384,-9.581Z" style="fill:#869ab8;fill-rule:nonzero;"/><path d="M3045.51,259.366c-31.48,31.48 -39.692,52.01 -39.692,97.177c-0,117.707 123.182,166.98 208.04,82.121c36.955,-38.323 41.061,-49.273 34.217,-99.914c-15.055,-113.601 -124.55,-156.03 -202.565,-79.384Zm124.55,13.687c20.531,39.692 16.424,127.288 -8.212,162.874c-43.798,62.959 -87.596,21.899 -87.596,-84.859c0,-32.848 4.106,-69.803 8.212,-82.121c12.318,-30.111 69.803,-27.374 87.596,4.106Z" style="fill:#869ab8;fill-rule:nonzero;"/><path d="M4.285,242.942c23.268,8.212 24.637,197.091 1.369,220.359c-12.318,12.318 -5.475,16.424 30.111,16.424c35.586,-0 42.43,-4.106 30.111,-16.424c-9.58,-9.581 -16.424,-52.011 -15.055,-98.546l-0,-83.49l36.954,91.702c20.531,49.273 41.061,94.44 45.167,99.914c5.475,4.106 27.374,-36.954 47.904,-91.702l39.692,-99.914l4.106,79.384c2.737,47.904 -2.737,87.596 -12.318,99.914c-13.687,16.424 -5.475,19.162 50.641,19.162c52.01,-1.369 61.591,-4.106 43.798,-15.056c-20.53,-10.949 -24.636,-32.848 -24.636,-114.969c-0,-67.066 5.475,-102.652 17.793,-106.758c8.212,-4.106 -6.844,-8.212 -34.217,-8.212c-49.273,-1.369 -52.01,1.368 -75.278,67.065c-13.687,36.955 -27.374,68.435 -31.48,68.435c-4.106,-0 -19.162,-31.48 -32.848,-68.435c-24.637,-67.065 -26.006,-68.434 -82.122,-67.065c-30.111,-0 -47.904,4.106 -39.692,8.212Z" style="fill:#869ab8;fill-rule:nonzero;"/><path d="M676.311,242.942c10.949,4.106 16.424,38.323 16.424,98.545c-0,108.127 21.899,138.238 98.545,138.238c71.172,-0 93.071,-32.849 93.071,-139.606c0,-60.223 5.475,-93.071 17.793,-97.177c8.212,-4.106 -1.369,-6.844 -24.636,-6.844c-21.899,0 -32.849,2.738 -23.268,6.844c20.53,8.212 23.268,145.081 2.737,183.404c-16.424,28.742 -68.434,34.217 -93.07,9.581c-21.899,-21.899 -21.899,-184.773 1.368,-192.985c8.212,-4.106 -10.949,-6.844 -45.166,-6.844c-34.218,0 -53.379,2.738 -43.798,6.844Z" style="fill:#869ab8;fill-rule:nonzero;"/><path d="M977.422,336.013c2.737,67.065 -1.369,110.863 -10.95,124.55c-15.055,16.424 -9.581,19.162 27.374,19.162c36.955,-0 41.061,-2.738 28.742,-19.162c-9.58,-10.949 -15.055,-50.641 -12.318,-91.702l4.106,-72.54l73.909,91.702c41.061,50.641 79.384,91.702 86.228,91.702c5.474,-0 10.949,-52.01 10.949,-114.97c0,-79.384 5.475,-117.707 17.793,-121.813c8.212,-4.106 -1.369,-8.212 -24.636,-8.212c-27.374,-0 -34.217,2.737 -23.268,10.949c12.318,6.844 16.424,32.849 13.687,76.647l-4.106,67.065l-60.222,-78.015c-45.167,-60.222 -68.435,-78.015 -95.808,-78.015l-35.586,0l4.106,102.652Z" style="fill:#869ab8;fill-rule:nonzero;"/><path d="M1262.11,268.947c-13.687,50.641 -0,57.485 34.217,15.056c15.055,-20.531 34.217,-36.955 41.06,-36.955c19.162,-0 15.056,197.091 -4.106,216.253c-12.318,12.318 -1.368,16.424 52.01,16.424c52.011,-1.369 61.591,-4.106 43.798,-15.056c-20.53,-10.949 -24.636,-32.848 -24.636,-114.969c0,-56.117 4.106,-102.652 9.581,-102.652c5.475,-0 27.374,16.424 49.273,36.955l39.692,38.323l-5.475,-41.061l-4.106,-41.06l-110.864,-4.107c-110.864,-4.106 -112.232,-4.106 -120.444,32.849Z" style="fill:#869ab8;fill-rule:nonzero;"/><path d="M1860.23,252.523c9.581,10.949 36.954,65.697 58.853,123.182c21.899,57.484 42.43,104.02 47.904,104.02c4.106,-0 28.743,-47.904 53.379,-106.758c23.268,-57.485 50.642,-113.601 57.485,-123.182c10.95,-12.318 5.475,-16.424 -21.899,-16.424c-21.899,0 -34.217,5.475 -28.742,13.687c5.474,8.212 -1.369,46.535 -15.056,84.859l-23.268,69.803l-24.636,-67.066c-15.056,-36.955 -23.268,-75.278 -19.162,-84.859c4.106,-10.949 -10.949,-16.424 -49.272,-16.424c-47.904,0 -52.01,2.737 -35.586,19.162Z" style="fill:#869ab8;fill-rule:nonzero;"/><path d="M2154.49,242.942c23.267,8.212 23.267,197.091 -0,220.359c-13.687,13.686 4.106,16.424 91.702,13.686c108.126,-4.106 109.495,-4.106 113.601,-42.429c5.474,-43.798 -10.95,-47.904 -35.586,-9.581c-9.581,15.056 -31.48,27.374 -50.642,27.374c-28.742,0 -34.217,-6.843 -34.217,-41.061c0,-43.798 12.318,-50.641 38.323,-24.636c12.319,12.318 16.425,4.106 16.425,-38.323c-1.369,-42.429 -4.106,-49.273 -15.056,-30.111c-21.899,39.692 -39.692,28.742 -39.692,-23.268c0,-38.323 5.475,-47.904 26.005,-47.904c15.056,-0 39.692,16.424 54.748,36.955l27.373,38.323l1.369,-45.167l0,-43.798l-105.389,1.369c-58.853,-0 -98.545,4.106 -88.964,8.212Z" style="fill:#869ab8;fill-rule:nonzero;"/><path d="M2428.23,242.942c10.949,4.106 16.424,41.061 16.424,113.601c0,72.54 -5.475,109.495 -16.424,113.601c-9.581,4.106 13.687,6.843 50.641,6.843c38.324,0 60.223,-2.737 52.01,-6.843c-20.53,-8.212 -24.636,-99.914 -4.106,-99.914c8.212,-0 24.637,21.899 36.955,47.904c20.53,43.798 75.278,76.646 94.439,57.485c4.106,-4.106 -9.581,-32.849 -28.742,-65.697c-32.849,-50.642 -34.217,-58.854 -15.056,-69.803c26.005,-15.056 28.743,-67.066 5.475,-90.334c-9.581,-9.58 -54.747,-16.424 -112.232,-15.055c-53.379,-0 -88.965,4.106 -79.384,8.212Zm139.606,24.636c21.899,26.005 4.106,75.278 -28.742,75.278c-20.531,0 -26.006,-9.581 -26.006,-47.904c0,-50.641 24.637,-64.328 54.748,-27.374Z" style="fill:#869ab8;fill-rule:nonzero;"/><path d="M2729.34,336.013c2.737,67.065 -1.369,110.863 -10.949,124.55c-15.056,16.424 -9.581,19.162 27.373,19.162c36.955,-0 41.061,-2.738 28.743,-19.162c-9.581,-10.949 -15.056,-50.641 -12.318,-91.702l4.106,-72.54l73.909,91.702c41.06,50.641 79.384,91.702 86.227,91.702c5.475,-0 10.949,-52.01 10.949,-114.97c0,-79.384 5.475,-117.707 17.793,-121.813c8.212,-4.106 -1.368,-8.212 -24.636,-8.212c-27.374,-0 -34.217,2.737 -23.268,10.949c12.319,6.844 16.425,32.849 13.687,76.647l-4.106,67.065l-60.222,-78.015c-45.167,-60.222 -68.434,-78.015 -95.808,-78.015l-35.586,0l4.106,102.652Z" style="fill:#869ab8;fill-rule:nonzero;"/><path d="M3304.19,242.942c21.899,8.212 23.267,197.091 -0,220.359c-12.319,12.318 -6.844,16.424 28.742,16.424c38.323,-0 42.429,-2.738 30.111,-19.162c-9.581,-10.949 -15.056,-49.273 -12.318,-88.965l4.106,-68.434l72.54,87.596c39.692,49.273 78.015,88.965 86.228,88.965c6.843,-0 12.318,-52.01 12.318,-114.97c-0,-79.384 5.475,-117.707 17.793,-121.813c8.212,-4.106 -5.475,-8.212 -31.48,-8.212c-30.111,-0 -41.061,2.737 -30.111,10.949c12.318,6.844 16.424,31.48 13.687,69.803l-4.106,60.223l-54.748,-71.172c-47.904,-62.96 -58.853,-71.172 -102.651,-69.803c-26.005,-0 -39.692,4.106 -30.111,8.212Z" style="fill:#869ab8;fill-rule:nonzero;"/><path d="M1674.08,307.27c-5.474,12.318 -19.161,21.899 -31.479,21.899c-17.793,0 -19.162,4.106 -5.475,20.531c9.581,10.949 13.687,30.111 8.212,41.06c-5.475,17.793 -2.737,19.162 15.056,8.212c15.055,-8.212 32.848,-8.212 47.904,0c19.161,9.581 21.899,8.212 16.424,-8.212c-5.475,-10.949 -1.369,-30.111 8.212,-41.06c13.687,-16.425 13.687,-20.531 -4.106,-20.531c-12.318,0 -27.374,-9.581 -34.217,-21.899c-10.95,-20.53 -13.687,-20.53 -20.531,0Z" style="fill:#869ab8;fill-rule:nonzero;"/></g></svg>