<svg width="100%" height="100%" viewBox="0 0 3541 289" version="1.1" xmlns="http://www.w3.org/2000/svg" xmlns:xlink="http://www.w3.org/1999/xlink" xml:space="preserve" style="fill-rule:evenodd;clip-rule:evenodd;stroke-linejoin:round;stroke-miterlimit:2;"><path d="M193.542,239.136c6.348,10.01 12.513,17.517 18.494,22.522c5.982,5.005 12.94,7.507 20.874,7.507l1.099,0l-0,15.747l-5.31,0c-11.719,0 -21.332,-0.427 -28.839,-1.282c-7.508,-0.854 -13.886,-2.502 -19.135,-4.943c-5.249,-2.442 -9.735,-5.86 -13.458,-10.254c-3.723,-4.395 -7.721,-10.132 -11.994,-17.212l-50.72,-84.412l-31.128,0l0,77.271c0,5.493 0.824,9.918 2.472,13.275c1.648,3.357 3.876,5.89 6.684,7.599c2.807,1.709 6.073,2.838 9.796,3.387c3.723,0.549 7.66,0.824 11.81,0.824l4.944,0l-0,15.747l-109.131,0l0,-15.747l4.761,0c4.15,0 8.087,-0.275 11.81,-0.824c3.723,-0.549 6.989,-1.678 9.796,-3.387c2.808,-1.709 5.036,-4.242 6.684,-7.599c1.647,-3.357 2.471,-7.782 2.471,-13.275l0,-185.669c0,-5.494 -0.824,-9.919 -2.471,-13.276c-1.648,-3.356 -3.876,-5.95 -6.684,-7.781c-2.807,-1.832 -6.073,-3.022 -9.796,-3.571c-3.723,-0.549 -7.66,-0.824 -11.81,-0.824l-4.761,-0l0,-15.747l100.891,-0c32.471,-0 56.641,6.012 72.51,18.036c15.869,12.024 23.804,30.121 23.804,54.291c-0,10.009 -1.618,18.768 -4.853,26.275c-3.235,7.508 -7.477,14.008 -12.726,19.501c-5.249,5.493 -11.169,10.071 -17.761,13.733c-6.592,3.662 -13.183,6.592 -19.775,8.789l51.452,81.299Zm-120.117,-89.905l26.367,-0c10.987,-0 20.142,-1.221 27.466,-3.662c7.325,-2.442 13.184,-6.104 17.578,-10.986c4.395,-4.883 7.538,-10.987 9.43,-18.311c1.892,-7.324 2.838,-15.869 2.838,-25.635c0,-10.01 -1.037,-18.524 -3.112,-25.543c-2.075,-7.019 -5.432,-12.756 -10.071,-17.212c-4.639,-4.455 -10.651,-7.69 -18.036,-9.705c-7.385,-2.014 -16.388,-3.021 -27.008,-3.021l-25.452,0l0,114.075Z" style="fill:#869ab8;fill-rule:nonzero;"/><path d="M427.368,184.021c0,35.278 -7.477,61.523 -22.43,78.735c-14.954,17.212 -36.835,25.818 -65.644,25.818c-13.549,0 -25.695,-2.136 -36.438,-6.408c-10.742,-4.273 -19.866,-10.743 -27.374,-19.41c-7.507,-8.667 -13.244,-19.561 -17.212,-32.684c-3.967,-13.123 -5.951,-28.473 -5.951,-46.051c0,-35.034 7.416,-61.096 22.248,-78.186c14.831,-17.09 36.773,-25.635 65.826,-25.635c13.55,0 25.696,2.106 36.438,6.317c10.742,4.212 19.867,10.62 27.374,19.226c7.508,8.606 13.245,19.41 17.212,32.41c3.968,13.001 5.951,28.29 5.951,45.868Zm-138.794,-0c0,13.916 0.916,26.184 2.747,36.804c1.831,10.62 4.791,19.501 8.88,26.642c4.09,7.141 9.4,12.543 15.931,16.205c6.53,3.662 14.495,5.493 23.895,5.493c9.399,0 17.334,-1.831 23.804,-5.493c6.469,-3.662 11.718,-9.064 15.747,-16.205c4.028,-7.141 6.927,-16.022 8.697,-26.642c1.77,-10.62 2.655,-22.888 2.655,-36.804c0,-13.916 -0.915,-26.123 -2.746,-36.621c-1.831,-10.498 -4.761,-19.257 -8.789,-26.276c-4.029,-7.019 -9.308,-12.298 -15.839,-15.838c-6.531,-3.54 -14.496,-5.31 -23.895,-5.31c-9.4,-0 -17.334,1.77 -23.804,5.31c-6.47,3.54 -11.719,8.819 -15.747,15.838c-4.028,7.019 -6.958,15.778 -8.789,26.276c-1.831,10.498 -2.747,22.705 -2.747,36.621Z" style="fill:#869ab8;fill-rule:nonzero;"/><path d="M643.799,184.021c-0,35.278 -7.477,61.523 -22.431,78.735c-14.953,17.212 -36.834,25.818 -65.643,25.818c-13.55,0 -25.696,-2.136 -36.438,-6.408c-10.742,-4.273 -19.867,-10.743 -27.374,-19.41c-7.507,-8.667 -13.245,-19.561 -17.212,-32.684c-3.967,-13.123 -5.951,-28.473 -5.951,-46.051c0,-35.034 7.416,-61.096 22.247,-78.186c14.832,-17.09 36.774,-25.635 65.827,-25.635c13.55,0 25.696,2.106 36.438,6.317c10.742,4.212 19.867,10.62 27.374,19.226c7.507,8.606 13.245,19.41 17.212,32.41c3.967,13.001 5.951,28.29 5.951,45.868Zm-138.794,-0c-0,13.916 0.915,26.184 2.746,36.804c1.832,10.62 4.792,19.501 8.881,26.642c4.089,7.141 9.399,12.543 15.93,16.205c6.531,3.662 14.496,5.493 23.896,5.493c9.399,0 17.334,-1.831 23.803,-5.493c6.47,-3.662 11.719,-9.064 15.747,-16.205c4.029,-7.141 6.928,-16.022 8.698,-26.642c1.77,-10.62 2.655,-22.888 2.655,-36.804c-0,-13.916 -0.916,-26.123 -2.747,-36.621c-1.831,-10.498 -4.76,-19.257 -8.789,-26.276c-4.028,-7.019 -9.308,-12.298 -15.838,-15.838c-6.531,-3.54 -14.496,-5.31 -23.896,-5.31c-9.399,-0 -17.334,1.77 -23.803,5.31c-6.47,3.54 -11.719,8.819 -15.747,15.838c-4.029,7.019 -6.958,15.778 -8.79,26.276c-1.831,10.498 -2.746,22.705 -2.746,36.621Z" style="fill:#869ab8;fill-rule:nonzero;"/><path d="M743.225,288.574c-9.399,0 -17.914,-0.824 -25.543,-2.472c-7.63,-1.648 -14.13,-4.15 -19.501,-7.507c-5.371,-3.357 -9.521,-7.507 -12.451,-12.451c-2.93,-4.944 -4.395,-10.712 -4.395,-17.304c0,-5.005 0.824,-9.185 2.472,-12.542c1.648,-3.357 3.662,-6.012 6.043,-7.965c2.38,-1.954 4.944,-3.327 7.69,-4.12c2.747,-0.794 5.219,-1.191 7.416,-1.191c0,6.592 0.671,12.757 2.014,18.494c1.343,5.737 3.601,10.773 6.775,15.106c3.174,4.334 7.355,7.752 12.543,10.254c5.188,2.503 11.566,3.754 19.134,3.754c6.714,-0 12.635,-0.824 17.762,-2.472c5.127,-1.648 9.43,-3.967 12.909,-6.958c3.479,-2.991 6.134,-6.592 7.965,-10.803c1.831,-4.212 2.746,-8.82 2.746,-13.825c0,-4.638 -0.702,-8.636 -2.106,-11.993c-1.403,-3.357 -3.845,-6.5 -7.324,-9.43c-3.479,-2.93 -8.209,-5.92 -14.19,-8.972c-5.982,-3.052 -13.489,-6.531 -22.522,-10.437c-9.644,-4.273 -18.036,-8.393 -25.177,-12.36c-7.141,-3.967 -13.031,-8.27 -17.67,-12.909c-4.639,-4.638 -8.118,-9.918 -10.437,-15.838c-2.319,-5.921 -3.479,-12.97 -3.479,-21.149c-0,-8.545 1.678,-16.113 5.035,-22.705c3.357,-6.592 8.149,-12.116 14.374,-16.571c6.226,-4.456 13.672,-7.843 22.339,-10.163c8.667,-2.319 18.311,-3.479 28.931,-3.479c8.911,0 16.784,0.916 23.62,2.747c6.836,1.831 12.573,4.303 17.212,7.416c4.639,3.113 8.118,6.775 10.437,10.986c2.32,4.212 3.479,8.637 3.479,13.275c0,6.836 -2.35,12.299 -7.049,16.388c-4.7,4.09 -11.383,6.134 -20.05,6.134c-0,-12.573 -2.594,-22.339 -7.782,-29.297c-5.188,-6.958 -13.337,-10.437 -24.445,-10.437c-6.348,0 -11.78,0.733 -16.296,2.198c-4.517,1.464 -8.21,3.54 -11.078,6.225c-2.869,2.686 -4.975,5.86 -6.317,9.522c-1.343,3.662 -2.015,7.69 -2.015,12.085c0,4.76 0.855,8.88 2.564,12.359c1.709,3.479 4.425,6.684 8.148,9.613c3.723,2.93 8.545,5.768 14.465,8.515c5.921,2.746 13.031,5.829 21.332,9.247c9.888,4.15 18.372,8.239 25.452,12.268c7.08,4.028 12.909,8.422 17.486,13.183c4.578,4.761 7.966,10.132 10.163,16.113c2.197,5.982 3.296,12.879 3.296,20.691c-0,9.766 -1.77,18.311 -5.31,25.635c-3.54,7.324 -8.545,13.458 -15.015,18.402c-6.47,4.944 -14.252,8.637 -23.346,11.078c-9.094,2.442 -19.196,3.662 -30.304,3.662Z" style="fill:#869ab8;fill-rule:nonzero;"/><path d="M936.768,100.342c-13.916,-0 -24.628,5.646 -32.135,16.937c-7.508,11.292 -11.933,27.802 -13.276,49.53l86.243,0c0,-9.888 -0.732,-18.921 -2.197,-27.1c-1.465,-8.178 -3.784,-15.197 -6.958,-21.057c-3.174,-5.859 -7.355,-10.376 -12.543,-13.549c-5.188,-3.174 -11.566,-4.761 -19.134,-4.761Zm4.577,188.232c-13.55,0 -25.726,-2.289 -36.529,-6.866c-10.804,-4.578 -19.928,-11.261 -27.375,-20.05c-7.446,-8.789 -13.153,-19.562 -17.12,-32.318c-3.967,-12.757 -5.951,-27.253 -5.951,-43.488c0,-35.034 7.202,-61.401 21.607,-79.102c14.404,-17.7 34.912,-26.55 61.523,-26.55c12.085,0 22.949,1.892 32.593,5.676c9.643,3.785 17.822,9.43 24.536,16.938c6.714,7.507 11.871,16.845 15.472,28.015c3.601,11.169 5.402,24.139 5.402,38.91l-0,17.212l-124.878,-0c0.244,13.672 1.617,25.421 4.12,35.247c2.502,9.827 6.103,17.914 10.803,24.262c4.7,6.348 10.468,11.017 17.304,14.008c6.835,2.99 14.709,4.486 23.62,4.486c6.47,-0 12.482,-0.733 18.036,-2.198c5.554,-1.464 10.59,-3.418 15.106,-5.859c4.517,-2.441 8.515,-5.219 11.994,-8.331c3.479,-3.113 6.317,-6.379 8.514,-9.796c1.709,0.732 3.326,2.258 4.852,4.577c1.526,2.32 2.289,5.066 2.289,8.24c0,3.784 -1.343,7.843 -4.028,12.176c-2.686,4.334 -6.775,8.332 -12.268,11.994c-5.493,3.662 -12.36,6.714 -20.6,9.155c-8.239,2.442 -17.913,3.662 -29.022,3.662Z" style="fill:#869ab8;fill-rule:nonzero;"/><path d="M1035.83,99.609l-0,-15.747l93.75,0l-0,15.747l-4.761,0c-7.568,0 -13.214,1.465 -16.937,4.395c-3.724,2.93 -5.585,7.507 -5.585,13.733c-0,2.075 0.244,4.181 0.732,6.317c0.489,2.136 1.221,4.608 2.198,7.416l25.451,70.862c1.587,4.394 3.235,9.246 4.944,14.556c1.709,5.31 3.327,10.529 4.852,15.656c1.526,5.127 2.9,9.979 4.12,14.557c1.221,4.577 2.075,8.453 2.564,11.627l1.281,0c0.611,-2.686 1.618,-6.012 3.022,-9.979c1.404,-3.968 2.99,-8.301 4.76,-13.001l10.895,-28.473l26.917,-73.059c1.22,-3.051 2.105,-5.981 2.655,-8.789c0.549,-2.807 0.824,-5.249 0.824,-7.324c-0,-6.47 -2.045,-11.169 -6.134,-14.099c-4.09,-2.93 -10.285,-4.395 -18.585,-4.395l-2.747,0l-0,-15.747l80.383,0l0,15.747l-4.577,0c-3.662,0 -6.775,0.397 -9.339,1.191c-2.563,0.793 -4.883,2.288 -6.958,4.486c-2.075,2.197 -4.059,5.188 -5.951,8.972c-1.892,3.784 -3.998,8.667 -6.317,14.648l-59.143,156.006l-34.241,0l-60.241,-165.344c-1.465,-3.906 -2.991,-7.141 -4.578,-9.705c-1.587,-2.563 -3.418,-4.608 -5.493,-6.134c-2.075,-1.526 -4.456,-2.594 -7.141,-3.204c-2.686,-0.61 -5.86,-0.916 -9.522,-0.916l-1.098,0Z" style="fill:#869ab8;fill-rule:nonzero;"/><path d="M1354.61,100.342c-13.916,-0 -24.627,5.646 -32.135,16.937c-7.507,11.292 -11.932,27.802 -13.275,49.53l86.243,0c-0,-9.888 -0.733,-18.921 -2.197,-27.1c-1.465,-8.178 -3.785,-15.197 -6.958,-21.057c-3.174,-5.859 -7.355,-10.376 -12.543,-13.549c-5.188,-3.174 -11.566,-4.761 -19.135,-4.761Zm4.578,188.232c-13.55,0 -25.726,-2.289 -36.53,-6.866c-10.803,-4.578 -19.928,-11.261 -27.374,-20.05c-7.446,-8.789 -13.153,-19.562 -17.12,-32.318c-3.968,-12.757 -5.951,-27.253 -5.951,-43.488c-0,-35.034 7.202,-61.401 21.606,-79.102c14.405,-17.7 34.912,-26.55 61.524,-26.55c12.085,0 22.949,1.892 32.592,5.676c9.644,3.785 17.823,9.43 24.537,16.938c6.713,7.507 11.871,16.845 15.472,28.015c3.601,11.169 5.402,24.139 5.402,38.91l-0,17.212l-124.878,-0c0.244,13.672 1.617,25.421 4.12,35.247c2.502,9.827 6.103,17.914 10.803,24.262c4.699,6.348 10.467,11.017 17.303,14.008c6.836,2.99 14.71,4.486 23.621,4.486c6.47,-0 12.482,-0.733 18.036,-2.198c5.554,-1.464 10.589,-3.418 15.106,-5.859c4.517,-2.441 8.514,-5.219 11.993,-8.331c3.479,-3.113 6.317,-6.379 8.515,-9.796c1.709,0.732 3.326,2.258 4.852,4.577c1.526,2.32 2.289,5.066 2.289,8.24c-0,3.784 -1.343,7.843 -4.028,12.176c-2.686,4.334 -6.775,8.332 -12.269,11.994c-5.493,3.662 -12.359,6.714 -20.599,9.155c-8.24,2.442 -17.914,3.662 -29.022,3.662Z" style="fill:#869ab8;fill-rule:nonzero;"/><path d="M1461.91,269.165c4.273,0 8.27,-0.305 11.993,-0.915c3.724,-0.611 6.958,-1.862 9.705,-3.754c2.747,-1.892 4.944,-4.608 6.592,-8.148c1.648,-3.54 2.472,-8.24 2.472,-14.099l-0,-201.05c-0,-5.493 -0.824,-9.918 -2.472,-13.275c-1.648,-3.357 -3.876,-5.951 -6.683,-7.782c-2.808,-1.831 -6.073,-3.022 -9.797,-3.571c-3.723,-0.549 -7.66,-0.824 -11.81,-0.824l-4.761,0l0,-15.747l70.862,0l0,242.249c0,5.859 0.794,10.559 2.381,14.099c1.586,3.54 3.784,6.256 6.591,8.148c2.808,1.892 6.073,3.143 9.796,3.754c3.724,0.61 7.721,0.915 11.994,0.915l4.761,0l-0,15.747l-106.385,0l0,-15.747l4.761,0Z" style="fill:#869ab8;fill-rule:nonzero;"/><path d="M1667.91,268.799c4.516,-0 8.667,-0.244 12.451,-0.733c3.784,-0.488 7.629,-1.098 11.536,-1.831l-0,16.48c-1.587,0.732 -3.663,1.465 -6.226,2.197c-2.564,0.733 -5.341,1.373 -8.331,1.923c-2.991,0.549 -6.134,0.976 -9.43,1.281c-3.296,0.306 -6.409,0.458 -9.339,0.458c-9.521,0 -17.7,-1.007 -24.536,-3.021c-6.836,-2.014 -12.451,-5.28 -16.846,-9.796c-4.394,-4.517 -7.659,-10.498 -9.796,-17.945c-2.136,-7.446 -3.204,-16.54 -3.204,-27.282l0,-125.244l-28.564,-0l-0,-15.015c4.516,-0 9.491,-0.916 14.923,-2.747c5.432,-1.831 10.223,-4.882 14.373,-9.155c4.273,-4.639 7.721,-10.162 10.346,-16.571c2.624,-6.409 4.913,-14.435 6.866,-24.078l17.212,-0l0,46.142l49.073,0l-0,21.424l-49.073,-0l0,126.342c0,12.818 2.594,22.217 7.782,28.199c5.188,5.981 12.116,8.972 20.783,8.972Z" style="fill:#869ab8;fill-rule:nonzero;"/><path d="M2035.58,284.912l0,-15.747l1.282,0c4.029,0 7.66,-0.275 10.895,-0.824c3.235,-0.549 5.981,-1.648 8.24,-3.296c2.258,-1.648 4.059,-4.028 5.401,-7.141c1.343,-3.113 2.137,-7.233 2.381,-12.36l-0,-200.317l-85.877,239.685l-20.324,0l-86.976,-238.953l0,196.29c0,5.859 0.611,10.559 1.832,14.099c1.22,3.54 3.021,6.256 5.401,8.148c2.381,1.892 5.249,3.143 8.606,3.754c3.357,0.61 7.111,0.915 11.261,0.915l1.099,0l-0,15.747l-86.609,0l-0,-15.747l4.761,0c4.15,0 8.087,-0.275 11.81,-0.824c3.723,-0.549 6.988,-1.678 9.796,-3.387c2.808,-1.709 5.035,-4.242 6.683,-7.599c1.648,-3.357 2.472,-7.782 2.472,-13.275l0,-185.669c0,-5.494 -0.824,-9.919 -2.472,-13.276c-1.648,-3.356 -3.875,-5.95 -6.683,-7.781c-2.808,-1.832 -6.073,-3.022 -9.796,-3.571c-3.723,-0.549 -7.66,-0.824 -11.81,-0.824l-4.761,-0l-0,-15.747l85.51,-0l77.637,214.416l76.904,-214.416l83.13,-0l-0,15.747l-4.761,-0c-4.272,-0 -8.27,0.305 -11.993,0.916c-3.723,0.61 -6.989,1.861 -9.796,3.753c-2.808,1.892 -5.005,4.608 -6.592,8.148c-1.587,3.54 -2.38,8.24 -2.38,14.099l-0,182.374c-0,5.859 0.793,10.559 2.38,14.099c1.587,3.54 3.784,6.256 6.592,8.148c2.807,1.892 6.073,3.143 9.796,3.754c3.723,0.61 7.721,0.915 11.993,0.915l4.761,0l-0,15.747l-99.793,0Z" style="fill:#869ab8;fill-rule:nonzero;"/><path d="M2252.75,100.342c-13.916,-0 -24.628,5.646 -32.135,16.937c-7.508,11.292 -11.933,27.802 -13.276,49.53l86.243,0c0,-9.888 -0.732,-18.921 -2.197,-27.1c-1.465,-8.178 -3.784,-15.197 -6.958,-21.057c-3.174,-5.859 -7.355,-10.376 -12.543,-13.549c-5.188,-3.174 -11.566,-4.761 -19.134,-4.761Zm4.577,188.232c-13.55,0 -25.726,-2.289 -36.529,-6.866c-10.804,-4.578 -19.928,-11.261 -27.375,-20.05c-7.446,-8.789 -13.153,-19.562 -17.12,-32.318c-3.967,-12.757 -5.951,-27.253 -5.951,-43.488c0,-35.034 7.202,-61.401 21.607,-79.102c14.404,-17.7 34.912,-26.55 61.523,-26.55c12.085,0 22.949,1.892 32.593,5.676c9.643,3.785 17.822,9.43 24.536,16.938c6.714,7.507 11.871,16.845 15.472,28.015c3.601,11.169 5.402,24.139 5.402,38.91l-0,17.212l-124.878,-0c0.244,13.672 1.617,25.421 4.12,35.247c2.502,9.827 6.103,17.914 10.803,24.262c4.7,6.348 10.468,11.017 17.304,14.008c6.836,2.99 14.709,4.486 23.62,4.486c6.47,-0 12.482,-0.733 18.036,-2.198c5.554,-1.464 10.59,-3.418 15.106,-5.859c4.517,-2.441 8.515,-5.219 11.994,-8.331c3.479,-3.113 6.317,-6.379 8.514,-9.796c1.709,0.732 3.326,2.258 4.852,4.577c1.526,2.32 2.289,5.066 2.289,8.24c0,3.784 -1.343,7.843 -4.028,12.176c-2.686,4.334 -6.775,8.332 -12.268,11.994c-5.493,3.662 -12.36,6.714 -20.6,9.155c-8.239,2.442 -17.913,3.662 -29.022,3.662Z" style="fill:#869ab8;fill-rule:nonzero;"/><path d="M2461.67,269.165l-0,15.747l-100.891,0l-0,-15.747l4.944,0c4.272,0 8.178,-0.305 11.718,-0.915c3.54,-0.611 6.592,-1.862 9.156,-3.754c2.563,-1.892 4.547,-4.608 5.951,-8.148c1.403,-3.54 2.105,-8.24 2.105,-14.099l0,-117.005c0,-5.493 -0.732,-9.918 -2.197,-13.275c-1.465,-3.357 -3.479,-5.951 -6.042,-7.782c-2.564,-1.831 -5.616,-3.052 -9.156,-3.662c-3.54,-0.61 -7.385,-0.916 -11.535,-0.916l-1.099,0l0,-15.747l58.777,0l4.944,30.396l1.831,-0c3.784,-6.958 7.751,-12.665 11.902,-17.121c4.15,-4.455 8.575,-7.934 13.275,-10.437c4.699,-2.502 9.643,-4.211 14.831,-5.127c5.188,-0.915 10.712,-1.373 16.571,-1.373c6.104,0 11.902,0.611 17.395,1.831c5.494,1.221 10.59,3.174 15.29,5.86c4.699,2.685 8.911,6.195 12.634,10.528c3.723,4.334 6.744,9.613 9.064,15.839l3.112,-0c3.785,-6.958 7.874,-12.665 12.269,-17.121c4.394,-4.455 9.063,-7.934 14.007,-10.437c4.944,-2.502 10.132,-4.211 15.564,-5.127c5.432,-0.915 11.078,-1.373 16.937,-1.373c9.522,0 18.067,1.435 25.635,4.303c7.568,2.869 13.977,7.263 19.226,13.184c5.249,5.92 9.278,13.519 12.085,22.796c2.808,9.278 4.212,20.325 4.212,33.142l-0,88.624c-0,5.859 0.732,10.559 2.197,14.099c1.465,3.54 3.479,6.256 6.042,8.148c2.564,1.892 5.616,3.143 9.156,3.754c3.54,0.61 7.385,0.915 11.535,0.915l1.099,0l-0,15.747l-65.186,0l0,-129.455c0,-8.179 -0.702,-15.442 -2.105,-21.79c-1.404,-6.348 -3.663,-11.719 -6.775,-16.113c-3.113,-4.395 -7.172,-7.721 -12.177,-9.98c-5.005,-2.258 -11.108,-3.387 -18.31,-3.387c-7.813,0 -14.374,1.495 -19.684,4.486c-5.31,2.991 -9.613,7.05 -12.909,12.177c-3.296,5.127 -5.646,11.047 -7.05,17.761c-1.403,6.714 -2.105,13.855 -2.105,21.423l-0,82.215c-0,5.859 0.732,10.559 2.197,14.099c1.465,3.54 3.479,6.256 6.042,8.148c2.564,1.892 5.616,3.143 9.156,3.754c3.54,0.61 7.385,0.915 11.535,0.915l1.099,0l-0,15.747l-65.186,0l0,-129.455c0,-8.179 -0.702,-15.442 -2.105,-21.79c-1.404,-6.348 -3.662,-11.719 -6.775,-16.113c-3.113,-4.395 -7.172,-7.721 -12.177,-9.98c-5.005,-2.258 -11.108,-3.387 -18.31,-3.387c-8.179,0 -15.045,1.648 -20.6,4.944c-5.554,3.296 -10.04,7.751 -13.458,13.367c-3.418,5.615 -5.859,12.085 -7.324,19.409c-1.465,7.324 -2.197,15.014 -2.197,23.071l-0,79.102c-0,5.493 0.824,9.918 2.471,13.275c1.648,3.357 3.876,5.89 6.684,7.599c2.807,1.709 6.073,2.838 9.796,3.387c3.723,0.549 7.66,0.824 11.81,0.824l1.099,0Z" style="fill:#869ab8;fill-rule:nonzero;"/><path d="M2900.39,184.021c-0,35.278 -7.477,61.523 -22.431,78.735c-14.953,17.212 -36.835,25.818 -65.643,25.818c-13.55,0 -25.696,-2.136 -36.438,-6.408c-10.742,-4.273 -19.867,-10.743 -27.374,-19.41c-7.508,-8.667 -13.245,-19.561 -17.212,-32.684c-3.968,-13.123 -5.951,-28.473 -5.951,-46.051c-0,-35.034 7.416,-61.096 22.247,-78.186c14.832,-17.09 36.774,-25.635 65.827,-25.635c13.549,0 25.695,2.106 36.438,6.317c10.742,4.212 19.866,10.62 27.374,19.226c7.507,8.606 13.244,19.41 17.212,32.41c3.967,13.001 5.951,28.29 5.951,45.868Zm-138.794,-0c-0,13.916 0.915,26.184 2.746,36.804c1.831,10.62 4.792,19.501 8.881,26.642c4.089,7.141 9.399,12.543 15.93,16.205c6.531,3.662 14.496,5.493 23.895,5.493c9.4,0 17.334,-1.831 23.804,-5.493c6.47,-3.662 11.719,-9.064 15.747,-16.205c4.028,-7.141 6.928,-16.022 8.698,-26.642c1.77,-10.62 2.655,-22.888 2.655,-36.804c-0,-13.916 -0.916,-26.123 -2.747,-36.621c-1.831,-10.498 -4.761,-19.257 -8.789,-26.276c-4.028,-7.019 -9.308,-12.298 -15.839,-15.838c-6.53,-3.54 -14.495,-5.31 -23.895,-5.31c-9.399,-0 -17.334,1.77 -23.804,5.31c-6.469,3.54 -11.718,8.819 -15.747,15.838c-4.028,7.019 -6.958,15.778 -8.789,26.276c-1.831,10.498 -2.746,22.705 -2.746,36.621Z" style="fill:#869ab8;fill-rule:nonzero;"/><path d="M3041.75,284.912l-108.215,0l-0,-15.747l1.098,0c4.273,0 8.271,-0.305 11.994,-0.915c3.723,-0.611 6.958,-1.862 9.704,-3.754c2.747,-1.892 4.944,-4.608 6.592,-8.148c1.648,-3.54 2.472,-8.24 2.472,-14.099l0,-117.005c0,-5.493 -0.824,-9.918 -2.472,-13.275c-1.648,-3.357 -3.876,-5.951 -6.683,-7.782c-2.808,-1.831 -6.073,-3.052 -9.796,-3.662c-3.723,-0.61 -7.66,-0.916 -11.811,-0.916l-1.098,0l-0,-15.747l57.678,0l7.141,37.171l1.831,-0c2.442,-5.616 4.944,-10.895 7.507,-15.839c2.564,-4.944 5.707,-9.277 9.43,-13c3.724,-3.724 8.332,-6.653 13.825,-8.789c5.493,-2.137 12.39,-3.205 20.691,-3.205c13.672,0 23.834,2.381 30.487,7.141c6.653,4.761 9.979,11.475 9.979,20.142c0,3.906 -0.641,7.507 -1.923,10.803c-1.281,3.296 -3.326,6.134 -6.134,8.515c-2.807,2.38 -6.408,4.211 -10.803,5.493c-4.394,1.281 -9.765,1.922 -16.113,1.922c-0,-10.376 -1.465,-17.852 -4.395,-22.43c-2.929,-4.578 -8.056,-6.867 -15.38,-6.867c-4.639,0 -8.79,1.313 -12.452,3.937c-3.662,2.625 -6.866,6.104 -9.613,10.437c-2.746,4.334 -5.066,9.308 -6.958,14.923c-1.892,5.616 -3.418,11.383 -4.577,17.304c-1.16,5.92 -1.984,11.81 -2.472,17.669c-0.489,5.86 -0.733,11.17 -0.733,15.931l0,58.96c0,5.493 0.824,9.918 2.472,13.275c1.648,3.357 3.876,5.89 6.684,7.599c2.807,1.709 6.073,2.838 9.796,3.387c3.723,0.549 7.66,0.824 11.81,0.824l10.437,0l0,15.747Z" style="fill:#869ab8;fill-rule:nonzero;"/><path d="M3111.33,269.165c4.151,0 8.087,-0.275 11.81,-0.824c3.724,-0.549 6.989,-1.678 9.797,-3.387c2.807,-1.709 5.035,-4.242 6.683,-7.599c1.648,-3.357 2.472,-7.782 2.472,-13.275l-0,-118.836c-0,-5.493 -0.824,-9.918 -2.472,-13.275c-1.648,-3.357 -3.876,-5.951 -6.683,-7.782c-2.808,-1.831 -6.073,-3.052 -9.797,-3.662c-3.723,-0.61 -7.659,-0.916 -11.81,-0.916l-1.099,0l0,-15.747l67.017,0l0,158.387c0,5.859 0.824,10.559 2.472,14.099c1.648,3.54 3.845,6.256 6.592,8.148c2.746,1.892 6.012,3.143 9.796,3.754c3.784,0.61 7.751,0.915 11.902,0.915l4.944,0l-0,15.747l-106.568,0l0,-15.747l4.944,0Zm25.452,-246.094c-0,-4.394 0.549,-8.056 1.648,-10.986c1.098,-2.93 2.624,-5.31 4.577,-7.141c1.953,-1.831 4.212,-3.113 6.775,-3.845c2.564,-0.733 5.371,-1.099 8.423,-1.099c2.93,-0 5.676,0.366 8.24,1.099c2.563,0.732 4.791,2.014 6.683,3.845c1.892,1.831 3.418,4.211 4.578,7.141c1.16,2.93 1.739,6.592 1.739,10.986c0,4.395 -0.579,8.057 -1.739,10.987c-1.16,2.929 -2.686,5.31 -4.578,7.141c-1.892,1.831 -4.12,3.143 -6.683,3.936c-2.564,0.794 -5.31,1.191 -8.24,1.191c-3.052,-0 -5.859,-0.397 -8.423,-1.191c-2.563,-0.793 -4.822,-2.105 -6.775,-3.936c-1.953,-1.831 -3.479,-4.212 -4.577,-7.141c-1.099,-2.93 -1.648,-6.592 -1.648,-10.987Z" style="fill:#869ab8;fill-rule:nonzero;"/><path d="M3272.83,230.53c0,11.719 2.472,20.477 7.416,26.275c4.944,5.799 12.604,8.698 22.98,8.698c7.568,-0 14.434,-1.221 20.599,-3.662c6.165,-2.442 11.414,-5.921 15.747,-10.437c4.334,-4.517 7.66,-10.01 9.979,-16.48c2.32,-6.469 3.479,-13.672 3.479,-21.606l0,-30.396l-23.986,1.099c-10.621,0.488 -19.501,1.801 -26.642,3.937c-7.141,2.136 -12.909,5.127 -17.304,8.972c-4.394,3.845 -7.538,8.575 -9.43,14.191c-1.892,5.615 -2.838,12.085 -2.838,19.409Zm45.41,-131.653c-7.202,-0 -13.031,1.007 -17.486,3.021c-4.456,2.014 -7.935,4.852 -10.437,8.515c-2.503,3.662 -4.181,7.995 -5.036,13c-0.854,5.005 -1.281,10.437 -1.281,16.296c-10.376,0 -18.28,-1.77 -23.713,-5.31c-5.432,-3.54 -8.148,-9.643 -8.148,-18.31c0,-6.47 1.77,-11.963 5.31,-16.48c3.54,-4.516 8.393,-8.209 14.557,-11.078c6.165,-2.868 13.336,-4.974 21.515,-6.317c8.179,-1.342 16.907,-2.014 26.184,-2.014c11.475,0 21.485,1.129 30.029,3.388c8.545,2.258 15.686,5.951 21.424,11.078c5.737,5.126 10.04,11.81 12.909,20.05c2.868,8.239 4.303,18.341 4.303,30.304l-0,97.229c-0,5.249 0.427,9.582 1.281,13c0.855,3.418 2.198,6.165 4.029,8.24c1.831,2.075 4.242,3.54 7.232,4.394c2.991,0.855 6.562,1.282 10.712,1.282l1.099,0l-0,15.747l-50.72,0l-5.86,-32.226l-3.113,-0c-3.906,5.249 -7.69,10.07 -11.352,14.465c-3.662,4.394 -7.691,8.179 -12.085,11.352c-4.395,3.174 -9.369,5.646 -14.923,7.416c-5.554,1.77 -12.238,2.655 -20.05,2.655c-8.301,0 -16.022,-1.19 -23.163,-3.57c-7.141,-2.381 -13.306,-6.043 -18.494,-10.987c-5.188,-4.944 -9.247,-11.169 -12.176,-18.676c-2.93,-7.508 -4.395,-16.388 -4.395,-26.642c0,-19.898 7.08,-34.668 21.24,-44.312c14.161,-9.643 35.584,-14.892 64.27,-15.747l31.128,-1.098l0,-22.522c0,-6.714 -0.366,-12.909 -1.098,-18.586c-0.733,-5.676 -2.32,-10.559 -4.761,-14.648c-2.441,-4.089 -5.951,-7.263 -10.529,-9.522c-4.577,-2.258 -10.711,-3.387 -18.402,-3.387Z" style="fill:#869ab8;fill-rule:nonzero;"/><path d="M3438.54,269.165c4.272,0 8.27,-0.305 11.993,-0.915c3.723,-0.611 6.958,-1.862 9.705,-3.754c2.746,-1.892 4.943,-4.608 6.591,-8.148c1.648,-3.54 2.472,-8.24 2.472,-14.099l0,-201.05c0,-5.493 -0.824,-9.918 -2.472,-13.275c-1.648,-3.357 -3.875,-5.951 -6.683,-7.782c-2.808,-1.831 -6.073,-3.022 -9.796,-3.571c-3.723,-0.549 -7.66,-0.824 -11.81,-0.824l-4.761,0l-0,-15.747l70.862,0l-0,242.249c-0,5.859 0.793,10.559 2.38,14.099c1.587,3.54 3.784,6.256 6.592,8.148c2.807,1.892 6.073,3.143 9.796,3.754c3.723,0.61 7.721,0.915 11.993,0.915l4.761,0l0,15.747l-106.384,0l-0,-15.747l4.761,0Z" style="fill:#869ab8;fill-rule:nonzero;"/></svg>