<?xml version="1.0" encoding="UTF-8" standalone="no"?><!DOCTYPE svg PUBLIC "-//W3C//DTD SVG 1.1//EN" "http://www.w3.org/Graphics/SVG/1.1/DTD/svg11.dtd"><svg width="100%" height="100%" viewBox="0 0 3076 421" version="1.1" xmlns="http://www.w3.org/2000/svg" xmlns:xlink="http://www.w3.org/1999/xlink" xml:space="preserve" xmlns:serif="http://www.serif.com/" style="fill-rule:evenodd;clip-rule:evenodd;stroke-linejoin:round;stroke-miterlimit:2;"><g id="si-logo"><g><path d="M728.532,138.014c-9.05,-32.807 -22.625,-66.745 -66.744,-66.745c-0.991,-0.055 -1.983,-0.082 -2.975,-0.082c-29.416,-0 -53.622,24.206 -53.622,53.622c0,0.631 0.012,1.262 0.034,1.892c-0,37.332 23.756,54.301 64.482,74.664c40.725,20.362 87.673,44.119 87.673,100.682c-0,53.169 -45.251,95.026 -111.995,95.026c-16.878,-0.33 -33.629,-2.995 -49.776,-7.919c-8.47,-2.95 -16.778,-6.349 -24.888,-10.181c-6.241,-25.692 -10.776,-51.768 -13.575,-78.057l14.707,-3.394c7.919,30.544 30.544,81.451 82.582,81.451c38.463,-0 61.088,-23.757 61.088,-61.089c-0,-37.331 -28.282,-55.431 -65.613,-75.794c-32.807,-16.969 -83.714,-42.988 -83.714,-99.551c0,-48.644 38.463,-90.501 104.076,-90.501c21.561,0.613 42.911,4.425 63.351,11.313c2.263,18.1 4.525,38.463 9.05,70.138l-14.141,4.525Z" style="fill:#869ab8;fill-rule:nonzero;"/><path d="M1067.91,390.285l-0,-13.575c29.413,-3.394 35.069,-4.525 35.069,-40.725l-0,-84.845c-0,-36.2 -12.444,-58.826 -44.119,-58.826c-21.244,2.049 -41.184,11.221 -56.563,26.019c1.076,7.111 1.455,14.31 1.131,21.494l-0,98.42c-0,31.676 4.525,35.069 32.807,38.463l-0,13.575l-108.602,0l0,-13.575c31.676,-3.394 36.201,-5.656 36.201,-38.463l-0,-87.107c-0,-37.332 -13.575,-57.694 -44.119,-57.694c-20.363,-0 -39.595,13.575 -55.432,26.019l-0,118.782c-0,32.807 4.525,36.201 28.281,38.463l0,13.575l-106.338,0l-0,-13.575c32.806,-3.394 38.463,-5.656 38.463,-38.463l-0,-105.207c-0,-32.807 -1.132,-35.069 -30.544,-39.594l-0,-11.313c24.064,-4.156 47.589,-10.986 70.138,-20.363l-0,40.726c10.181,-6.788 21.494,-15.838 37.331,-26.019c12.329,-8.509 26.881,-13.229 41.857,-13.575c25.786,0.465 48.58,17.333 56.563,41.856c14.707,-11.312 29.413,-20.362 41.857,-28.281c11.229,-8.163 24.597,-12.881 38.463,-13.575c39.594,-0 64.482,28.281 64.482,76.925l-0,97.289c-0,33.938 4.525,36.2 32.806,38.463l0,13.575l-109.732,-0l-0,1.131Z" style="fill:#869ab8;fill-rule:nonzero;"/><path d="M1203.66,390.285l0,-13.575c31.676,-3.394 35.069,-5.656 35.069,-40.725l0,-104.076c0,-31.676 -1.131,-32.807 -31.675,-38.463l0,-12.444c24.404,-3.709 48.312,-10.16 71.269,-19.232l0,174.215c0,33.938 3.394,37.331 36.201,40.725l-0,13.575l-110.864,0Zm26.019,-296.39c0.182,-14.204 11.815,-25.838 26.019,-26.019c0.088,-0.001 0.176,-0.002 0.264,-0.002c13.529,0 24.661,11.133 24.661,24.662c0,0.453 -0.012,0.906 -0.037,1.359c-0.172,13.996 -11.464,25.539 -25.453,26.019c-13.705,-1.148 -24.607,-12.292 -25.454,-26.019Z" style="fill:#869ab8;fill-rule:nonzero;"/><path d="M1433.31,389.154c-6.629,3.699 -13.943,6.008 -21.494,6.788c-31.675,-0 -49.775,-20.363 -49.775,-59.957l-0,-147.064l-35.069,-0l-2.263,-4.525l13.575,-14.707l23.757,0l-0,-37.331l32.806,-32.807l6.788,1.131l-0,69.007l57.694,0c1.745,2.315 2.689,5.136 2.689,8.034c-0,4.517 -2.293,8.739 -6.082,11.198l-53.735,-0l-0,130.095c-0,40.725 16.969,48.644 29.412,48.644c11.157,-0.264 22.063,-3.38 31.676,-9.05l4.525,13.575l-34.504,16.969Z" style="fill:#869ab8;fill-rule:nonzero;"/><path d="M1626.75,390.285l0,-13.575c29.413,-3.394 32.807,-5.656 32.807,-38.463l-0,-83.713c-0,-41.857 -15.838,-62.22 -49.776,-62.22c-20.391,0.292 -39.57,9.882 -52.038,26.019l0,119.914c0,32.807 2.263,36.201 32.807,38.463l-0,13.575l-107.47,0l-0,-13.575c30.544,-2.262 35.069,-5.656 35.069,-38.463l-0,-240.959c-0,-31.675 -1.131,-33.937 -33.938,-37.331l0,-11.313c25.331,-4.031 50.299,-10.084 74.663,-18.1l0,169.689c18.101,-18.1 45.251,-37.331 72.401,-37.331c40.725,-0 70.138,26.019 70.138,85.976l0,88.238c0,32.807 3.394,36.2 32.807,38.463l-0,13.575l-107.47,-0l0,1.131Z" style="fill:#869ab8;fill-rule:nonzero;"/><path d="M1888.64,228.515c-9.05,-29.413 -27.15,-49.776 -52.038,-49.776c-0.066,-0 -0.133,-0 -0.2,-0c-17.935,-0 -32.693,14.758 -32.693,32.693c-0,0.793 0.029,1.586 0.086,2.376c0,22.626 20.363,33.938 42.988,44.12c38.463,15.837 63.351,33.937 63.351,69.007c0,46.381 -42.988,70.138 -83.713,70.138c-20.542,0.61 -40.754,-5.335 -57.695,-16.969c-5.075,-19.588 -7.734,-39.723 -7.918,-59.957l13.575,-2.263c9.05,32.807 31.675,62.22 62.219,62.22c0.227,0.004 0.454,0.006 0.682,0.006c19.318,0 35.276,-15.759 35.518,-35.075c0,-22.625 -14.706,-33.938 -39.594,-46.382c-30.544,-14.706 -63.35,-30.544 -63.35,-70.138c-0,-35.069 30.544,-65.613 76.925,-65.613c15.545,-0.125 30.95,2.956 45.251,9.05c4.964,17.831 8.743,35.97 11.312,54.3l-14.706,2.263Z" style="fill:#869ab8;fill-rule:nonzero;"/><path d="M2168.63,276.028c0,81.451 -59.957,119.914 -109.732,119.914c-0.385,0.004 -0.77,0.006 -1.155,0.006c-60.197,-0 -109.732,-49.535 -109.732,-109.733c-0,-0.756 0.008,-1.512 0.023,-2.268c0,-83.714 64.482,-121.045 110.864,-121.045c60.253,0.099 109.778,49.705 109.778,109.958c-0,1.056 -0.015,2.112 -0.046,3.168Zm-173.083,-7.919c0,63.351 28.282,110.864 69.007,110.864c31.676,-0 57.695,-23.757 57.695,-92.764c-0,-58.825 -23.757,-107.47 -67.876,-107.47c-31.675,1.132 -58.826,32.807 -58.826,89.37Z" style="fill:#869ab8;fill-rule:nonzero;"/><path d="M2341.15,391.416l-0,-14.706c29.412,-3.394 32.806,-6.787 32.806,-41.857l0,-84.844c0,-35.069 -12.444,-57.695 -46.381,-57.695c-20.935,1.969 -40.543,11.172 -55.432,26.019l-0,118.783c-0,33.938 3.393,36.2 32.806,39.594l0,13.575l-109.732,0l-0,-13.575c33.938,-3.394 37.332,-5.656 37.332,-39.594l-0,-105.207c-0,-32.807 -3.394,-33.938 -30.545,-38.463l0,-11.313c24.1,-4.004 47.642,-10.839 70.139,-20.363l-0,40.726c10.181,-7.919 21.494,-14.707 33.938,-23.757c12.24,-8.835 26.779,-13.943 41.856,-14.706c39.594,-0 65.613,28.281 65.613,76.926l0,97.288c0,33.938 2.263,36.201 31.676,39.594l-0,13.575l-104.076,0Z" style="fill:#869ab8;fill-rule:nonzero;"/><path d="M2474.07,390.285l-0,-13.575c31.675,-3.394 35.069,-5.656 35.069,-40.725l-0,-104.076c-0,-31.676 -1.131,-32.807 -31.675,-38.463l-0,-12.444c24.404,-3.709 48.312,-10.16 71.269,-19.232l0,174.215c0,33.938 3.394,37.331 36.201,40.725l-0,13.575l-110.864,0Zm27.15,-296.39c0.182,-14.204 11.815,-25.838 26.019,-26.019c0.088,-0.001 0.176,-0.002 0.264,-0.002c13.529,0 24.661,11.133 24.661,24.662c0,0.453 -0.012,0.906 -0.037,1.359c-0.182,14.204 -11.815,25.837 -26.019,26.019c-13.659,-1.03 -24.466,-12.328 -24.888,-26.019Z" style="fill:#869ab8;fill-rule:nonzero;"/><path d="M2771.03,395.942c-8.639,-0.601 -16.908,-3.751 -23.756,-9.051c-5.647,-6.614 -9.882,-14.314 -12.444,-22.625c-20.363,13.575 -44.12,32.807 -59.957,32.807c-0.004,-0 -0.007,-0 -0.011,-0c-33.512,-0 -61.088,-27.576 -61.088,-61.088c0,-0.377 0.004,-0.755 0.011,-1.132c-0,-24.887 13.575,-40.725 40.725,-49.775c30.544,-10.181 66.745,-23.757 78.057,-32.807l0,-9.05c0,-36.2 -16.969,-57.694 -42.988,-57.694c-8.691,-0.221 -17.026,3.529 -22.625,10.181c-7.761,9.414 -12.842,20.749 -14.706,32.807c-1.478,6.826 -7.73,11.635 -14.707,11.312c-11.561,-1.077 -20.957,-10.003 -22.625,-21.494c-0,-7.918 6.788,-13.575 15.838,-20.362c22.988,-16.086 48.652,-27.961 75.794,-35.069c15.061,-0.189 29.774,4.582 41.857,13.575c18.1,14.706 22.625,35.069 22.625,62.219l0,93.895c0,22.625 9.05,30.544 18.1,30.544c6.448,-0.127 12.728,-2.09 18.1,-5.656l4.525,13.575l-40.725,24.888Zm-36.2,-126.702c-10.182,5.657 -35.069,15.838 -45.251,21.494c-19.231,9.05 -30.544,19.232 -30.544,37.332c-0.023,0.529 -0.034,1.059 -0.034,1.589c-0,19.988 16.25,36.524 36.235,36.874c15.175,-1.461 29.471,-7.816 40.725,-18.1l-0,-79.189l-1.131,0Z" style="fill:#869ab8;fill-rule:nonzero;"/><path d="M2971.82,391.416l-0,-14.706c29.413,-3.394 32.807,-6.787 32.807,-41.857l-0,-84.844c-0,-35.069 -12.444,-57.695 -46.382,-57.695c-20.935,1.969 -40.543,11.172 -55.432,26.019l-0,118.783c-0,33.938 3.394,36.2 32.807,39.594l-0,13.575l-109.733,0l0,-13.575c33.938,-3.394 37.332,-5.656 37.332,-39.594l-0,-105.207c-0,-32.807 -3.394,-33.938 -30.544,-38.463l-0,-11.313c24.099,-4.004 47.641,-10.839 70.138,-20.363l-0,40.726c10.181,-7.919 21.494,-14.707 33.938,-23.757c12.241,-8.835 26.78,-13.943 41.857,-14.706c39.594,-0 65.613,28.281 65.613,76.926l-0,97.288c-0,33.938 2.262,36.201 31.675,39.594l0,13.575l-104.076,0Z" style="fill:#869ab8;fill-rule:nonzero;"/></g><circle cx="210.415" cy="210.415" r="210.415" style="fill:#869ab8;"/><path d="M337.116,252.271c-7.166,-14.119 -21.506,-23.244 -37.332,-23.756l90.501,-19.232l-90.501,-19.231c12.488,-11.013 28.601,-17.056 45.251,-16.969c20.362,0 37.331,-24.888 26.019,-42.988c-0,0 -3.394,29.413 -40.726,19.232c-15.077,-5.025 -31.766,-1.072 -42.988,10.181l51.473,-78.057l-78.057,50.907c1.362,-16.647 8.579,-32.284 20.362,-44.12c13.576,-14.706 9.051,-44.119 -12.443,-49.775c-0,-0 18.1,22.625 -14.707,42.988c-14.119,7.166 -23.244,21.506 -23.756,37.331l-19.232,-90.5l-19.231,90.5c-11.013,-12.487 -17.056,-28.6 -16.969,-45.25c-0,-20.363 -24.888,-37.332 -42.988,-26.019c-0,-0 29.413,3.394 19.231,40.725c-5.024,15.077 -1.071,31.767 10.182,42.988l-78.623,-50.906l41.857,63.35l9.05,14.707c-16.447,-1.492 -31.863,-8.699 -43.554,-20.363c-14.706,-13.575 -44.119,-9.05 -49.775,12.444c-0,-0 22.625,-18.1 42.988,14.706c7.166,14.119 21.506,23.245 37.331,23.757l-90.501,19.231l90.501,19.232c-12.808,10.469 -28.716,16.435 -45.25,16.968c-20.363,0 -37.332,24.888 -26.019,42.988c-0,0 3.394,-29.412 40.725,-19.231c15.077,5.024 31.767,1.072 42.988,-10.181l-50.907,78.057l78.058,-50.907c-1.362,16.646 -8.579,32.283 -20.363,44.119c-13.575,14.706 -9.05,44.119 12.444,49.776c-0,-0 -18.101,-22.626 14.706,-42.988c14.119,-7.167 23.245,-21.507 23.757,-37.332l19.231,90.501l19.231,-90.501c11.014,12.487 17.056,28.601 16.969,45.25c0,20.363 24.888,37.332 42.988,26.02c0,-0 -29.412,-3.394 -19.231,-40.726c5.024,-15.077 1.072,-31.766 -10.181,-42.988l78.057,50.907l-27.151,-40.725l-23.756,-36.201c16.646,1.362 32.283,8.579 44.119,20.363c14.706,13.575 44.119,9.05 49.775,-12.444c-1.696,-0 -24.322,18.1 -43.553,-15.838Z" style="fill:#fff;fill-rule:nonzero;"/></g></svg>