<svg width="100%" height="100%" viewBox="0 0 47938 17209" version="1.1" xmlns="http://www.w3.org/2000/svg" xmlns:xlink="http://www.w3.org/1999/xlink" xml:space="preserve" style="fill:currentColor;fill-rule:evenodd;clip-rule:evenodd;stroke-linejoin:round;stroke-miterlimit:2;">
    <g transform="matrix(4.16667,0,0,4.16667,0,0)">
        <g transform="matrix(4.88539,0,0,4.88539,-1855.15,-10435.6)">
            <g transform="matrix(288,0,0,288,449,2642)">
                <path d="M0.236,-0L0.366,-0L0.366,-0.59L0.598,-0.59L0.598,-0.7L0.004,-0.7L0.004,-0.59L0.236,-0.59L0.236,-0Z" style="fill-rule:nonzero;"/>
            </g>
            <g transform="matrix(288,0,0,288,622.376,2642)">
                <path d="M0.385,-0.54C0.311,-0.54 0.248,-0.516 0.207,-0.472L0.207,-0.742L0.082,-0.742L0.082,-0L0.207,-0L0.207,-0.27C0.207,-0.377 0.267,-0.431 0.356,-0.431C0.436,-0.431 0.483,-0.385 0.483,-0.29L0.483,-0L0.608,-0L0.608,-0.306C0.608,-0.467 0.513,-0.54 0.385,-0.54Z" style="fill-rule:nonzero;"/>
            </g>
            <g transform="matrix(288,0,0,288,821.096,2642)">
                <path d="M0.584,-0.264C0.584,-0.431 0.47,-0.54 0.314,-0.54C0.155,-0.54 0.038,-0.426 0.038,-0.267C0.038,-0.108 0.154,0.007 0.333,0.007C0.425,0.007 0.5,-0.023 0.548,-0.08L0.481,-0.157C0.443,-0.118 0.396,-0.099 0.336,-0.099C0.243,-0.099 0.178,-0.149 0.163,-0.227L0.582,-0.227C0.583,-0.239 0.584,-0.254 0.584,-0.264ZM0.314,-0.44C0.396,-0.44 0.455,-0.387 0.465,-0.31L0.162,-0.31C0.174,-0.388 0.233,-0.44 0.314,-0.44Z" style="fill-rule:nonzero;"/>
            </g>
            <g transform="matrix(288,0,0,288,1079.72,2642)">
                <path d="M0.395,0.01C0.586,0.01 0.701,-0.101 0.701,-0.305L0.701,-0.7L0.573,-0.7L0.573,-0.31C0.573,-0.166 0.509,-0.104 0.396,-0.104C0.283,-0.104 0.218,-0.166 0.218,-0.31L0.218,-0.7L0.088,-0.7L0.088,-0.305C0.088,-0.101 0.203,0.01 0.395,0.01Z" style="fill-rule:nonzero;"/>
            </g>
            <g transform="matrix(288,0,0,288,1304.65,2642)">
                <path d="M0.122,0.007C0.167,0.007 0.204,-0.028 0.204,-0.076C0.204,-0.126 0.167,-0.159 0.122,-0.159C0.077,-0.159 0.04,-0.126 0.04,-0.076C0.04,-0.028 0.077,0.007 0.122,0.007Z" style="fill-rule:nonzero;"/>
            </g>
            <g transform="matrix(288,0,0,288,1377.8,2642)">
                <path d="M0.311,0.01C0.503,0.01 0.594,-0.086 0.594,-0.198C0.594,-0.455 0.179,-0.358 0.179,-0.507C0.179,-0.56 0.223,-0.602 0.331,-0.602C0.392,-0.602 0.461,-0.584 0.524,-0.547L0.565,-0.648C0.504,-0.688 0.416,-0.71 0.332,-0.71C0.14,-0.71 0.05,-0.614 0.05,-0.501C0.05,-0.241 0.466,-0.34 0.466,-0.189C0.466,-0.137 0.42,-0.098 0.311,-0.098C0.225,-0.098 0.136,-0.13 0.08,-0.175L0.035,-0.074C0.093,-0.024 0.202,0.01 0.311,0.01Z" style="fill-rule:nonzero;"/>
            </g>
            <g transform="matrix(288,0,0,288,1638.44,2642)">
                <path d="M0.418,0.01C0.533,0.01 0.631,-0.031 0.696,-0.107L0.612,-0.187C0.561,-0.131 0.498,-0.104 0.425,-0.104C0.28,-0.104 0.175,-0.206 0.175,-0.35C0.175,-0.494 0.28,-0.596 0.425,-0.596C0.498,-0.596 0.561,-0.569 0.612,-0.514L0.696,-0.593C0.631,-0.669 0.533,-0.71 0.419,-0.71C0.204,-0.71 0.044,-0.559 0.044,-0.35C0.044,-0.141 0.204,0.01 0.418,0.01Z" style="fill-rule:nonzero;"/>
            </g>
            <g transform="matrix(288,0,0,288,1846.38,2642)">
                <path d="M0.286,-0.54C0.2,-0.54 0.117,-0.518 0.06,-0.474L0.109,-0.383C0.149,-0.416 0.211,-0.436 0.271,-0.436C0.36,-0.436 0.404,-0.393 0.404,-0.32L0.404,-0.312L0.266,-0.312C0.104,-0.312 0.044,-0.242 0.044,-0.153C0.044,-0.06 0.121,0.007 0.243,0.007C0.323,0.007 0.381,-0.019 0.411,-0.065L0.411,-0L0.529,-0L0.529,-0.313C0.529,-0.467 0.44,-0.54 0.286,-0.54ZM0.269,-0.084C0.205,-0.084 0.167,-0.113 0.167,-0.158C0.167,-0.197 0.19,-0.229 0.275,-0.229L0.404,-0.229L0.404,-0.167C0.383,-0.112 0.33,-0.084 0.269,-0.084Z" style="fill-rule:nonzero;"/>
            </g>
            <g transform="matrix(288,0,0,288,2021.19,2642)">
                <path d="M0.378,-0.54C0.305,-0.54 0.243,-0.515 0.201,-0.464L0.201,-0.534L0.082,-0.534L0.082,0.194L0.207,0.194L0.207,-0.065C0.25,-0.016 0.31,0.007 0.378,0.007C0.534,0.007 0.649,-0.101 0.649,-0.267C0.649,-0.432 0.534,-0.54 0.378,-0.54ZM0.364,-0.1C0.274,-0.1 0.205,-0.165 0.205,-0.267C0.205,-0.369 0.274,-0.434 0.364,-0.434C0.454,-0.434 0.522,-0.369 0.522,-0.267C0.522,-0.165 0.454,-0.1 0.364,-0.1Z" style="fill-rule:nonzero;"/>
            </g>
            <g transform="matrix(288,0,0,288,2218.76,2642)">
                <path d="M0.145,-0.622C0.192,-0.622 0.225,-0.656 0.225,-0.7C0.225,-0.741 0.191,-0.772 0.145,-0.772C0.099,-0.772 0.065,-0.739 0.065,-0.697C0.065,-0.655 0.099,-0.622 0.145,-0.622ZM0.082,-0L0.207,-0L0.207,-0.534L0.082,-0.534L0.082,-0Z" style="fill-rule:nonzero;"/>
            </g>
            <g transform="matrix(288,0,0,288,2301.99,2642)">
                <path d="M0.368,-0.118C0.349,-0.103 0.324,-0.096 0.298,-0.096C0.25,-0.096 0.224,-0.124 0.224,-0.176L0.224,-0.43L0.367,-0.43L0.367,-0.53L0.224,-0.53L0.224,-0.652L0.099,-0.652L0.099,-0.53L0.011,-0.53L0.011,-0.43L0.099,-0.43L0.099,-0.173C0.099,-0.055 0.166,0.007 0.283,0.007C0.328,0.007 0.373,-0.005 0.403,-0.029L0.368,-0.118Z" style="fill-rule:nonzero;"/>
            </g>
            <g transform="matrix(288,0,0,288,2418.92,2642)">
                <path d="M0.322,0.007C0.488,0.007 0.607,-0.107 0.607,-0.267C0.607,-0.427 0.488,-0.54 0.322,-0.54C0.158,-0.54 0.038,-0.427 0.038,-0.267C0.038,-0.107 0.158,0.007 0.322,0.007ZM0.322,-0.1C0.232,-0.1 0.164,-0.165 0.164,-0.267C0.164,-0.369 0.232,-0.434 0.322,-0.434C0.413,-0.434 0.481,-0.369 0.481,-0.267C0.481,-0.165 0.413,-0.1 0.322,-0.1Z" style="fill-rule:nonzero;"/>
            </g>
            <g transform="matrix(288,0,0,288,2604.68,2642)">
                <rect x="0.082" y="-0.742" width="0.125" height="0.742" style="fill-rule:nonzero;"/>
            </g>
        </g>
    </g>
</svg>
