<svg viewBox="0 0 361 98" height="98" width="361" xmlns="http://www.w3.org/2000/svg" fill-rule="evenodd" clip-rule="evenodd" stroke-linejoin="round" stroke-miterlimit="2"><g fill="#0f3f72" fill-rule="nonzero"><path d="M294.819 82.813l-1.833 7.505-1.509-.469.97-4.104c.216-.704-.107-1.173-.754-1.173h-14.821c-.646 0-1.131.469-1.347 1.173l-.862 3.518c-.755 3.166.593 5.276 3.503 5.276h25.868c2.964 0 5.389-2.11 6.144-5.276l1.886-7.622c.539-2.111-.377-3.518-2.371-3.518h-15.359l1.886-7.505 1.509.469-.431 1.759c-.485 2.111.323 3.518 2.317 3.518h12.665c.646 0 1.185-.469 1.401-1.173l.862-3.518c.755-3.166-.593-5.277-3.557-5.277h-25.868c-2.964 0-5.389 2.111-6.144 5.277l-1.886 7.622c-.539 2.111.377 3.518 2.371 3.518h15.36zm-34.708-9.967c-.485 2.111.323 3.518 2.317 3.518h12.665c.646 0 1.185-.469 1.401-1.173l.862-3.518c.755-3.166-.593-5.277-3.557-5.277h-29.641c-.646 0-1.185.47-1.401 1.173l-6.251 25.798c-.216.703.107 1.172.754 1.172h14.767c.646 0 1.185-.469 1.401-1.172l5.551-22.69 1.563.469-.431 1.7zm-37.564-5.277c.162-.704-.107-1.173-.754-1.173h-14.82c-.647 0-1.186.469-1.402 1.173l-5.281 21.694c-.755 3.166.593 5.276 3.503 5.276h29.641c.646 0 1.185-.469 1.401-1.172l6.305-25.798c.216-.704-.107-1.173-.754-1.173h-14.821c-.646 0-1.239.469-1.401 1.173l-5.551 22.69-1.563-.469 5.497-22.221zm-19.563 4.104c.755-3.166-.593-5.276-3.557-5.276h-25.868c-2.964 0-5.389 2.11-6.144 5.276l-4.311 17.59c-.755 3.166.593 5.276 3.503 5.276h25.868c2.964 0 5.39-2.11 6.144-5.276l4.365-17.59zm-21.557 18.645l-1.509-.469 4.743-19.231 1.509.469-4.743 19.231z"/><path d="M124.703 90.912c-.373 1.811.373 3.019 1.865 3.019h32.071c1.492 0 2.735-1.208 3.108-3.019l12.68-57.216h19.019c1.492 0 2.735-1.208 3.108-3.019l5.469-24.306c.373-1.811-.373-3.019-1.864-3.019h-75.083c-1.492 0-2.735 1.208-3.108 3.019l-5.469 24.306c-.373 1.811.372 3.019 1.864 3.019h19.019l-12.679 57.216z"/></g><g fill="#ef8231"><path d="M337.518 59.299l-1.567-.479 5.512-22.703c.162-.719-.108-1.198-.757-1.198h-14.86c-.648 0-1.243.479-1.405 1.198l-5.295 22.164c-.757 3.235.54 5.391 3.512 5.391h12.158c1.351 0 2.54-.419 3.513-1.198l-.433 1.797c-.162.719-.702 1.198-1.351 1.198h-18.048c-.648 0-1.189.48-1.405 1.199l-1.297 5.511c-.162.718.108 1.198.757 1.198h29.666c2.972 0 5.404-2.157 6.214-5.392l7.673-31.868c.162-.719-.108-1.198-.756-1.198h-14.806c-.649 0-1.243.479-1.405 1.198l-5.62 23.182zm-33.016-17.791c-.486 2.157.324 3.594 2.324 3.594h12.698c.649 0 1.189-.479 1.405-1.198l.865-3.594c.756-3.235-.595-5.391-3.567-5.391h-29.72c-.648 0-1.188.479-1.405 1.198l-6.268 26.357c-.216.719.108 1.198.757 1.198h14.806c.648 0 1.188-.479 1.405-1.198l5.565-23.182 1.567.479-.432 1.737zm-38.799 6.29l-1.567-.479 1.999-8.087 1.513.479-1.945 8.087zm12.806 3.894c2 0 3.567-1.438 4.107-3.594l1.891-7.788c.757-3.235-.594-5.391-3.566-5.391h-25.938c-2.972 0-5.403 2.156-6.16 5.391l-4.323 17.971c-.756 3.235.595 5.391 3.513 5.391h25.937c2.972 0 5.404-2.156 6.161-5.391l.864-3.594c.216-.719-.108-1.198-.756-1.198h-14.86c-.649 0-1.189.479-1.405 1.198l-1.081 4.672-1.513-.479 1.729-7.188h15.4zm-52.902 7.607l-1.567-.479 5.512-22.703c.162-.719-.108-1.198-.756-1.198h-14.86c-.649 0-1.189.479-1.405 1.198l-2 8.386-.972 15.575c-.109 2.097.378 3.594 2.377 3.594h23.56c1.999 0 3.242-1.497 4.107-3.594l6.592-15.575 2-8.386c.216-.719-.108-1.198-.757-1.198h-14.86c-.648 0-1.189.479-1.405 1.198l-5.566 23.182zm-15.67-18.989c.756-3.235-.594-5.391-3.566-5.391h-25.938c-2.972 0-5.404 2.156-6.16 5.391l-4.323 17.971c-.757 3.235.594 5.391 3.512 5.391H199.4c2.972 0 5.403-2.156 6.16-5.391l4.377-17.971zm-21.615 19.049l-1.513-.479 4.756-19.648 1.513.479-4.756 19.648zm-37.339 0l-1.513-.479 4.755-19.648 1.513.479-1.783 7.488c-.162.719.162 1.198.811 1.198h14.86c.648 0 1.188-.479 1.35-1.198l1.676-6.889c.756-3.235-.595-5.391-3.567-5.391h-25.937c-2.972 0-5.404 2.156-6.161 5.391l-4.322 17.971c-.757 3.235.594 5.391 3.512 5.391h25.937c2.972 0 5.404-2.156 6.161-5.391l1.675-6.889c.162-.719-.162-1.198-.811-1.198h-14.86c-.648 0-1.189.479-1.351 1.198l-1.945 7.967zm-35.394-7.667l-1.837 7.667-1.513-.479.973-4.193c.216-.719-.109-1.198-.757-1.198h-14.86c-.649 0-1.135.479-1.351 1.198l-.865 3.594c-.756 3.235.595 5.391 3.513 5.391h25.937c2.972 0 5.404-2.156 6.161-5.391l1.891-7.787c.54-2.157-.378-3.595-2.378-3.595h-15.4l1.891-7.667 1.513.479-.432 1.797c-.487 2.157.324 3.594 2.323 3.594h12.699c.648 0 1.189-.479 1.405-1.198l.865-3.594c.756-3.235-.595-5.391-3.567-5.391h-25.937c-2.972 0-5.404 2.156-6.161 5.391l-1.891 7.787c-.54 2.157.378 3.595 2.378 3.595h15.4zm-24.263 11.98c.649 0 1.189-.479 1.351-1.198l6.377-26.357c.216-.719-.108-1.198-.757-1.198h-14.86c-.648 0-1.189.479-1.405 1.198l-5.295 22.164c-.757 3.235.594 5.391 3.512 5.391h11.077z" fill-rule="nonzero"/><path d="M30.584 97.283c-9.134.112-19.655-2.394-25.256-9.193-6.448-7.826-7.008-20.888-1.872-34.71 2.404-6.468 11.084-19.686 33.67-27.21 9.376-3.123 33.162-4.017 46.339-2.335 11.31 1.443 14.327 5.076 9.64 5.865-6.357 1.071-53.447 5.773-63.832 26.217-6.625 13.041 1.297 21.568 10.702 17.11 10.791-5.116 10.009-25.722 10.066-30.345 25.014-9.643-.015-.005 25.039-9.681.275-.106 11.496 63.267-44.112 64.305"/></g><path d="M37.595.464l7.648 21.346 26.708.348L65.881 0 37.595.464z" fill="#aac5cf"/></svg>