<svg width="3384" height="1352" xmlns="http://www.w3.org/2000/svg" viewBox="0 0 3384 1352" fill="none">
	<g fill="#dadfe0">
		<path d="M2526.96 3.263l23.314 63.791-52.34-1.221 29.026-62.57z"/>
		<path d="M2526.96 3.263l23.314 63.791-52.34-1.221 29.026-62.57zm-24.123 59.519l42.873 1.001-19.098-52.252-23.775 51.251z"/>
		<path d="M2550.19 66.815l-52.349-1.185-11.817 501.826 85.123-2.035-7.883-179.464-13.074-319.142z"/>
		<path d="M2550.19 66.815l-52.349-1.185-11.817 501.826 85.123-2.035-7.883-179.464-13.074-319.142zm-49.267 2.05l-11.615 495.348 78.536-1.878-7.741-176.24-12.959-316.184-46.221-1.046zm-73.453 424.239h6.488v53.69h-6.488z"/>
		<path d="M2459.06 485.926l-31.176 8.061 3.04 20.847 30.223-9.146-2.087-19.762zm6.76 85.783c0-9.459-1.812-19.243-10.07-27.793l-32.349-.146c-9.592 0-16.353 25.649-16.353 25.649 1.714 6.863 60.105.271 58.772 2.29zm139.93-76.52h24.067v58.481h-24.067zm34.45-1.297h13.521v54.326H2640.2zm25.89-1.63h13.521v54.326h-13.521zm26.09-.428h13.521v54.326h-13.521zm27-.17h13.521v54.326h-13.521zm21.96-.945h21.014v54.326h-21.014zm-124.16-45.686h125.415v24.464H2616.98z"/>
		<path d="M2588.91 464.732h181.869v31.224H2588.91zm180.28 75.973l-171.491.915.067 12.2 171.491-.915-.067-12.2zm8.98 17.843l-190.115 1.015.067 12.2 190.115-1.015-.067-12.2z"/>
		<path d="M2772.48 549.826l-180.493.615.043 12.2 180.492-.615-.042-12.2zm-567.59-56.118h187.846v23.627H2204.89z"/>
		<path d="M2197.12 505.861h198.786v10.457H2197.12zm21.69-19.846h164.978v13.29H2218.81z"/>
		<path d="M2233.04 473.381h15.177v18.609h-15.177zm104.31 0h15.177v18.609h-15.177z"/>
		<path d="M2293.97 442.393l45.232 46.25h-90.464l45.232-46.25z" stroke="#dadfe0" class="F"/>
		<path d="M2202 536.566h185.659v20.422H2202z"/>
		<path d="M2201.61 514.286h19.144v79.463h-19.144zm37.8-1.06h15.703v81.048h-15.703zm121.41-.983h29.92v81.048h-29.92zm-88.87.818h10.378v81.048h-10.378z"/>
		<path d="M2202.29 575.642h187.412v18.608H2202.29z"/>
		<path d="M2295.93 513.478h10.378v81.048h-10.378zm39 40.568h28.188v22.764h-28.188z"/>
		<path d="M2300.94 553.818h14.382v22.947h-14.382zm22.92-36.729h17.203v36.257h-17.203zm601.13-62.335h7.755v44.643h-7.755zm-17.48 1.134h6.95v39.64h-6.95zm-10.38-.285h-9.918v42.26h9.918l-1.206-27.393 1.206-14.867zm46.12.303h8.344v38.41h-8.344zm89.6-21.882h7.644v60.833h-7.644z"/>
		<path d="M2959.79 429.049h82.339v66.148h-82.339z"/>
		<path d="M2961.43 431.832h-71.446c-20.469 9.05-40.398 16.96-14.903 24.878l86.349.759v-25.637zM2796 491.423h247.722v88.698H2796z"/>
		<path d="M2890.99 431.338l-93.923-1.095v63.334l80.905.885c-.093-13.013-.958-26.534-.678-41.15.133-6.997 13.667-14.748 13.696-21.974zm171.37 96.914h49.332v53.758h-49.332zm90.81 4.15h49.811v52.88h-49.811z"/>
		<path d="M3057.53 555.583h153.748v31.943H3057.53zm-247.02-139.308h11.681v7.681h-11.681zm25.81-.836h181.431v8.767H2836.32z"/>
		<path d="M2842.52 407.081h169.277v8.767H2842.52z"/>
		<path d="M2931.99 371.918h8.439v38.467h-8.439z"/>
		<path d="M2841.62 351.052h168.742v22.904H2841.62z"/>
		<path d="M2949.87 371.094h9.128v36.118h-9.128zm36.56 2.186h23.459v41.179h-23.459zM2847 308.322h23.974v47.741H2847zm41.69 5.506h12.653v38.427h-12.653zm56.2.285h16.766v38.427h-16.766zm33.88-6.006h25.886v45.62h-25.886zm-61.72 6.979h9.925v38.427h-9.925zm51.4 58.335h8.754v34.892h-8.754z"/>
		<path d="M2797.64 421.61h226.145v11.801H2797.64zm44.52-47.734h19.183v36.196h-19.183zm30.87-1.215h10.392v35.51h-10.392zm21.52 1.194h7.812v33.534h-7.812zm17.93-3.395h7.205v41.649h-7.205zm-63.73-62.217h154.493v19.666H2848.75z"/>
		<path d="M2928.33 217.883c24.497-.201 38.832 6.628 57.116 32.672 10.638 15.153 14.887 38.929 14.841 65.809-.017 9.994-35.603-6.655-72.874-6.864-36.292-.203-74.644 14.941-75.452 2.214-2.925-46.097 34.529-93.488 76.369-93.831z"/>
		<ellipse cx="3133.99" cy="494.355" rx="49.132" ry="39.131"/>
		<path d="M2902.11 206.933h55.729v22.253h-55.729zm6.92-20.569h40.02v12.307h-40.02z"/>
		<path d="M2912.42 174.372h33.469v12.307h-33.469z"/>
		<path d="M2923 146.531h11.928v34.575H2923zm-10.46 49.91h33.465v19.126h-33.465zm159.69 294.87h121.392v28.603H3072.23z"/>
		<path d="M3064.83 510.886h135.011v23.177H3064.83z"/>
		<path d="M3117.86 532.01h8.637v26.236h-8.637zm20.5.349h8.637v26.236h-8.637z"/>
		<g stroke="#dadfe0" class="F">
			<path d="M2163.28 577.931h1066.74v87.984H2163.28z"/>
			<path d="M2359.27 549.984h447.34v35.606h-447.34zm-181.89 17.391h29.135v15.113h-29.135z"/>
			<path d="M2182.89 556.907h24.213v12.359h-24.213z"/>
			<path d="M2189.8 549.782h15.676v8.939H2189.8z"/>
			<path d="M2195.01 540.948h11.877v9.914h-11.877z"/>
		</g>
	</g>
	<g class="B C D E">
		<path d="M1124.06 1292.91c-3.83 19.986-2.601 54.596 12.699 54.6l336.325-.667c15.301.004 43.485-22.052 47.315-42.038l152.162-577.195 16.473-28.642 185.527-7.042c15.3.004 41.296-13.914 45.126-33.9l79.326-267.762c3.83-19.986-3.311-36.365-18.611-36.369l-780.777-2.103c-15.3-.003-31.591 24.012-35.421 43.999l-78.735 263.329c-3.83 19.986 17.84 28.435 33.141 28.439l184.174-.064-10.193 30.631-168.531 574.784z" fill="#0f3f72" class="G"/>
		<path d="M768.448 710.637c-1.499 6.956 1.499 11.593 7.496 11.593h137.421c5.996 0 10.993-4.637 12.492-11.593l6.996-28.985c1.5-6.956-1.499-11.594-7.495-11.594H787.937c-5.997 0-10.994 4.638-12.493 11.594l-6.996 28.985zm76.456 307.237c5.997 0 10.994-4.638 12.493-11.594l58.966-255.065c1.999-6.956-.999-11.594-6.996-11.594H771.946c-5.996 0-10.993 4.638-12.992 11.594l-48.972 214.486c-6.996 31.304 5.497 52.173 32.481 52.173h102.441zm224.376-115.939l-16.99 74.201-13.992-4.638 8.994-40.578c1.999-6.956-.999-11.594-6.996-11.594h-137.42c-5.997 0-10.494 4.638-12.493 11.594l-7.995 34.781c-6.996 31.304 5.496 52.173 32.481 52.173h239.861c27.485 0 49.972-20.869 56.968-52.173l17.489-75.36c4.998-20.869-3.498-34.781-21.987-34.781h-142.418l17.49-74.201 13.992 4.638-3.998 17.39c-4.497 20.869 2.999 34.782 21.488 34.782h117.432c5.997 0 10.994-4.638 12.993-11.594l7.995-34.781c6.996-31.304-5.497-52.173-32.981-52.173H979.332c-27.485 0-49.972 20.869-56.968 52.173l-17.489 75.36c-4.998 20.869 3.498 34.781 21.987 34.781h142.418zm327.31 74.201l-13.992-4.638 43.975-190.139 13.992 4.638-16.491 72.461c-1.499 6.957 1.499 11.594 7.496 11.594h137.42c5.997 0 10.994-4.637 12.493-11.594l15.491-66.664c6.996-31.304-5.497-52.173-32.981-52.173h-239.861c-27.484 0-49.971 20.869-56.967 52.173l-39.977 173.907c-6.996 31.304 5.496 52.173 32.481 52.173h239.862c27.484 0 49.971-20.869 56.967-52.173l15.491-66.664c1.499-6.957-1.499-11.594-7.496-11.594h-137.421c-5.996 0-10.993 4.637-12.492 11.594l-17.99 77.099zm545.18-184.342c6.996-31.304-5.496-52.173-32.981-52.173h-239.861c-27.484 0-49.971 20.869-56.967 52.173l-39.977 173.907c-6.996 31.304 5.497 52.173 32.481 52.173h239.862c27.484 0 49.971-20.869 56.967-52.173l40.476-173.907zm-199.884 184.342l-13.992-4.638 43.974-190.139 13.992 4.638-43.974 190.139zm344.804-.58l-14.492-4.637 50.971-219.704c1.499-6.956-1-11.594-6.996-11.594h-137.421c-5.996 0-10.994 4.638-12.992 11.594l-18.49 81.157-8.995 150.72c-.999 20.289 3.498 34.782 21.988 34.782h217.874c18.489 0 29.983-14.493 37.978-34.782l60.965-150.72 18.489-81.157c1.999-6.956-.999-11.594-6.996-11.594h-137.42c-5.997 0-10.994 4.638-12.993 11.594l-51.47 224.341zm370.78-111.301l-14.492-4.637 18.49-78.259 13.991 4.638-17.989 78.258zm118.432 37.68c18.489 0 32.981-13.912 37.978-34.781l17.49-75.36c6.996-31.304-5.497-52.173-32.981-52.173h-239.862c-27.484 0-49.971 20.869-56.967 52.173l-39.977 173.907c-6.996 31.304 5.497 52.173 32.481 52.173h239.862c27.484 0 49.971-20.869 56.967-52.173l7.995-34.781c1.999-6.956-.999-11.594-6.996-11.594h-137.42c-5.997 0-10.994 4.638-12.993 11.594l-9.994 45.216-13.992-4.638 15.991-69.563h142.418zm240.368-98.548c-4.498 20.869 2.998 34.782 21.487 34.782h117.433c5.996 0 10.993-4.638 12.992-11.594l7.996-34.781c6.996-31.304-5.497-52.173-32.981-52.173h-274.842c-5.996 0-10.993 4.638-12.992 11.594l-57.967 255.065c-1.999 6.956 1 11.594 6.996 11.594h136.921c5.997 0 10.994-4.638 12.993-11.594l51.47-224.341 14.492 4.637-3.998 16.811zm305.32 172.169l-14.492-4.637 50.971-219.704c1.499-6.956-1-11.594-6.996-11.594h-137.421c-5.997 0-11.493 4.638-12.992 11.594l-48.972 214.486c-6.996 31.304 4.997 52.173 32.481 52.173h112.435c12.493 0 23.487-4.058 32.481-11.594l-3.997 17.391c-1.499 6.956-6.497 11.594-12.493 11.594h-166.904c-5.996 0-10.993 4.637-12.992 11.593l-11.993 53.332c-1.5 6.956.999 11.594 6.996 11.594h274.341c27.484 0 49.971-20.869 57.467-52.172l70.959-308.397c1.499-6.956-.999-11.594-6.996-11.594h-136.921c-5.996 0-11.493 4.638-12.992 11.594l-51.97 224.341z" fill="#ef8231" stroke-miterlimit="2"/>
	</g>
	<g class="G B C D">
		<path d="M205.54 19.21L440.103 4.167l287.444 466.18-227.935 9.593L205.54 19.21z" fill="#a6c2cc"/>
		<path d="M325.434 1179.07C135.039 1191.145-82.825 996.895 39.859 746.902c31.668-64.53 143.943-225.997 336.076-285.866 100.541-31.328 206.229-44.348 322.842-41.409 110.407 2.782 213.801 8.937 270.817 19.648 12.06 2.266 16.575 4.384 15.056 6.453-3.777 5.144-45.116 4.386-99.87 9.284-62.42 5.584-142.463 17.166-207.492 29.467-56.249 10.641-127.834 34.271-206.434 71.304-83.254 39.227-138.592 98.982-155.872 119.335-69.081 81.366-63.53 165.924-53.238 212.1 19.062 85.527 91.338 98.381 172.025 45.517 97.828-64.094 88.987-327.528 81.822-363.567 210.576-93.31.969-.161 211.54-93.494 0 0 140.705 665.625-397.964 703.434" fill="#ef8231" stroke-linecap="round"/>
		<path d="M1916.31 1117.07c6.978-30.639-5.482-51.064-32.893-51.064h-239.222c-27.411 0-49.838 20.425-56.816 51.064l-39.87 170.216c-6.977 30.638 5.482 51.064 32.395 51.064h239.222c27.411 0 49.838-20.426 56.816-51.064l40.368-170.216zm-199.352 180.429l-13.954-4.54 43.857-186.102 13.955 4.539-43.858 186.103zm380.262-220.149c1.495-6.808-.996-11.347-6.977-11.347h-137.055c-5.98 0-10.964 4.539-12.957 11.347l-48.842 209.933c-6.977 30.638 5.482 51.064 32.395 51.064h274.109c5.981 0 10.964-4.539 12.958-11.347l58.31-249.65c1.994-6.808-.996-11.347-6.977-11.347H2125.13c-5.981 0-11.463 4.539-12.958 11.347l-51.333 219.578-14.453-4.539 50.834-215.039zm347.37 51.07c-4.485 20.426 2.991 34.043 21.431 34.043h117.119c5.98 0 10.964-4.539 12.958-11.348l7.974-34.043c6.977-30.639-5.482-51.064-32.893-51.064H2297.07c-5.981 0-10.965 4.539-12.958 11.347l-57.812 249.65c-1.994 6.808.996 11.347 6.977 11.347h136.556c5.981 0 10.965-4.539 12.958-11.347l51.333-219.578 14.453 4.539-3.987 16.454zm320.96 96.45l-16.945 72.626-13.955-4.54 8.971-39.716c1.994-6.809-.996-11.348-6.977-11.348h-137.055c-5.98 0-10.466 4.539-12.459 11.348l-7.974 34.043c-6.977 30.638 5.482 51.064 32.395 51.064h239.222c27.411 0 49.838-20.426 56.815-51.064l17.444-73.76c4.983-20.426-3.489-34.043-21.929-34.043h-142.038l17.443-72.626 13.955 4.539-3.987 17.022c-4.486 20.426 2.99 34.043 21.43 34.043h117.119c5.981 0 10.965-4.539 12.958-11.348l7.974-34.043c6.977-30.639-5.482-51.064-32.893-51.064h-239.222c-27.411 0-49.838 20.425-56.816 51.064l-17.443 73.76c-4.984 20.426 3.489 34.043 21.929 34.043h142.038z" fill="#0f3f72" class="E"/>
		<path d="M2076.93 706.541l-4.377-1.805 20.944-112.153c.469-2.708-.469-4.513-2.344-4.513h-21.569c-1.876 0-3.439 1.805-3.908 4.513l-21.256 113.958-4.377-1.805 20.944-112.153c.469-2.708-.469-4.513-2.344-4.513h-51.109c-1.876 0-3.439 1.805-3.908 4.513l-20.475 110.573c-2.188 12.186 1.72 20.309 10.16 20.309h123.787c8.596 0 15.63-8.123 17.818-20.309l20.631-110.573c.469-2.708-.469-4.513-2.344-4.513h-51.11c-1.875 0-3.438 1.805-3.907 4.513l-21.256 113.958zm117.06-31.592l4.533 1.805-5.783 30.464-4.377-1.805 5.627-30.464zm-37.042-14.668c-5.783 0-10.316 5.416-11.879 13.539l-5.314 29.336c-2.188 12.186 1.719 20.309 10.159 20.309h79.712c5.783 0 10.472-5.416 11.878-13.539l13.911-74.468c2.188-12.185-1.719-20.309-10.316-20.309h-75.022c-8.597 0-15.63 8.124-17.818 20.309l-2.501 13.54c-.625 2.708.313 4.513 2.188 4.513h36.73c5.783 0 10.472-5.416 11.879-13.54l1.563-8.575 4.376 1.806-5.002 27.079h-44.544zm149.112 18.052l-5.314 28.885-4.376-1.805 2.813-15.797c.625-2.708-.313-4.513-2.188-4.513h-42.982c-1.875 0-3.282 1.805-3.907 4.513l-2.501 13.54c-2.188 12.186 1.719 20.309 10.159 20.309h75.023c8.596 0 15.63-8.123 17.818-20.309l5.47-29.336c1.563-8.123-1.094-13.539-6.877-13.539h-44.545l5.471-28.885 4.376 1.806-1.25 6.769c-1.407 8.124.938 13.54 6.721 13.54h36.729c1.876 0 3.439-1.805 4.064-4.513l2.501-13.54c2.188-12.185-1.719-20.309-10.316-20.309h-75.022c-8.597 0-15.63 8.124-17.818 20.309l-5.471 29.336c-1.563 8.124 1.094 13.539 6.877 13.539h44.545zm145.51 45.132c1.875 0 3.438-1.805 3.907-4.513l15.63-83.494c2.188-12.185-1.719-20.309-10.316-20.309h-35.167c-3.907 0-7.345 1.579-10.315 4.513l5.158-27.079c.469-2.708-.469-4.513-2.345-4.513h-38.293c-1.875 0-3.438 1.805-3.907 4.513l-23.445 126.369c-.468 2.708.469 4.513 2.345 4.513h42.825c1.876 0 3.439-1.805 3.908-4.513l16.098-87.33 4.533 1.805-12.973 69.729c-2.188 12.186 1.72 20.309 10.16 20.309h32.197zm30.01-119.599c-.469 2.708.469 4.513 2.344 4.513h42.982c1.876 0 3.439-1.805 3.907-4.513l2.189-11.283c.469-2.708-.469-4.513-2.345-4.513h-42.982c-1.875 0-3.438 1.805-3.907 4.513l-2.188 11.283zm23.913 119.599c1.876 0 3.439-1.805 3.908-4.513l18.443-99.29c.625-2.708-.313-4.513-2.188-4.513h-42.982c-1.876 0-3.439 1.805-4.064 4.513l-15.317 83.494c-2.188 12.186 1.719 20.309 10.159 20.309h32.041zm107.847 0c1.876 0 3.439-1.805 4.064-4.513l15.473-83.494c2.189-12.185-1.719-20.309-10.315-20.309h-85.964c-1.875 0-3.438 1.805-4.063 4.513l-18.131 99.29c-.625 2.708.313 4.513 2.188 4.513h42.826c1.875 0 3.438-1.805 4.064-4.513l16.098-87.33 4.533 1.805-12.973 69.729c-2.188 12.186 1.719 20.309 10.159 20.309h32.041zm96.43-135.395c-5.783 0-10.472 5.416-11.879 13.539l-2.657 13.54h-39.856c-8.596 0-15.473 8.124-17.818 20.309l-8.44 45.583c-2.032 12.186 1.72 20.31 10.316 20.31h6.408l4.845 17.601c.782 2.708 2.97 4.513 5.627 4.513h18.912l-1.25 6.77h-50.797c-1.876 0-3.438 1.805-4.064 4.513l-3.751 20.761c-.469 2.708.313 4.513 2.188 4.513h85.964c8.596 0 15.63-8.124 17.974-20.309l2.032-11.283c2.188-12.186-1.719-20.31-10.316-20.31h-50.484l-2.032-6.769h53.767c8.596 0 15.629-8.124 17.817-20.31l8.441-45.583c2.344-12.185-1.72-20.309-10.316-20.309h-30.478l1.25-6.77h41.419c1.876 0 3.595-1.805 4.064-4.513l2.032-11.283c.469-2.708-.313-4.513-2.188-4.513h-36.73zm-22.038 42.875l4.532 1.805-9.846 52.805-4.533-1.806 9.847-52.804zm156.148 13.991c1.875 0 3.438-1.805 3.907-4.513l3.907-20.761c.469-2.708-.468-4.513-2.344-4.513h-55.485l3.125-16.473c.469-2.708-.468-4.513-2.344-4.513h-38.293c-1.875 0-3.438 1.805-3.907 4.513l-19.225 104.48c-2.344 12.186 1.72 20.309 10.16 20.309h75.022c8.597 0 15.474-8.123 17.818-20.309l8.909-48.065c.469-2.708-.469-4.514-2.344-4.514h-42.982c-1.876 0-3.439 1.806-3.908 4.514l-9.534 52.352-4.532-1.805 11.253-60.702h50.797zm112.69-9.478c2.188-12.185-1.719-20.309-10.316-20.309h-75.022c-8.597 0-15.63 8.124-17.818 20.309l-12.504 67.698c-2.188 12.186 1.719 20.309 10.159 20.309h75.023c8.596 0 15.63-8.123 17.818-20.309l12.66-67.698zm-62.519 71.76l-4.376-1.805 13.754-74.017 4.376 1.806-13.754 74.016zm150.829 16.247c1.875 0 3.438-1.805 4.063-4.513l15.474-83.494c2.188-12.185-1.719-20.309-10.316-20.309h-85.963c-1.876 0-3.439 1.805-4.064 4.513l-18.13 99.29c-.626 2.708.312 4.513 2.188 4.513h42.825c1.876 0 3.439-1.805 4.064-4.513l16.099-87.33 4.532 1.805-12.972 69.729c-2.189 12.186 1.719 20.309 10.159 20.309h32.041zm200.21-115.086c2.189-12.185-1.719-20.309-10.315-20.309h-111.596c-1.876 0-3.439 1.805-3.908 4.513l-23.444 126.369c-.469 2.708.469 4.513 2.344 4.513h111.44c8.596 0 15.63-8.123 17.818-20.309l17.661-94.777zm-66.113-3.61l4.532 1.805-18.599 100.192-4.533-1.805 18.6-100.192zm119.253 101.997l-4.532-1.805 18.599-100.192 4.533 1.805-7.659 41.295c-.469 2.708.469 4.514 2.345 4.514h55.798c1.875 0 3.438-1.806 3.907-4.514l7.346-39.49c2.188-12.185-1.719-20.309-10.315-20.309h-100.656c-8.596 0-15.63 8.124-17.818 20.309l-17.505 94.777c-2.188 12.186 1.719 20.309 10.159 20.309h100.656c8.596 0 15.629-8.123 17.818-20.309l7.346-39.49c.468-2.708-.469-4.514-2.345-4.514h-55.798c-1.876 0-3.439 1.806-3.907 4.514l-7.972 43.1z" fill="#a6c2cc" class="E"/>
	</g>
</svg>