<svg width="200" height="auto" viewBox="0 0 500 167" version="1.1" xmlns="http://www.w3.org/2000/svg" xmlns:xlink="http://www.w3.org/1999/xlink" xml:space="preserve" style="fill-rule:evenodd;clip-rule:evenodd;"><g><rect x="0" y="0" width="500" height="166.667" style="fill:none;"/><g><g><path d="M356.575,2.528l2.842,6.331l-6.38,-0.122l3.538,-6.209Z" style="fill:#dadfe0;fill-rule:nonzero;"/><path d="M356.575,2.528l2.842,6.331l-6.38,-0.122l3.538,-6.209Zm-2.941,5.906l5.227,0.1l-2.329,-5.186l-2.898,5.086Z" style="fill:#dadfe0;fill-rule:nonzero;"/><path d="M359.407,8.835l-6.382,-0.118l-1.44,49.805l10.377,-0.202l-0.961,-17.811l-1.594,-31.674Z" style="fill:#dadfe0;fill-rule:nonzero;"/><path d="M359.407,10.56l-6.382,-0.117l-1.44,49.805l10.377,-0.202l-0.961,-17.812l-1.594,-31.674Zm-6.006,0.204l-1.416,49.162l9.574,-0.186l-0.944,-17.492l-1.58,-31.38l-5.634,-0.104Zm-8.954,38.654l0.791,0l0,8.78l-0.791,0l0,-8.78Z" style="fill:#dadfe0;fill-rule:nonzero;"/></g><path d="M347.435,46.98l-3.801,0.8l0.371,2.069l3.685,-0.908l-0.255,-1.961Zm0.824,8.513c0,-0.939 -0.221,-1.909 -1.227,-2.758l-3.944,-0.014c-1.169,0 -1.993,2.545 -1.993,2.545c0.209,0.682 7.327,0.027 7.164,0.227Zm17.058,-7.594l2.934,0l0,5.804l-2.934,0l0,-5.804Zm4.2,-0.129l1.648,0l0,5.392l-1.648,0l0,-5.392Zm3.156,-0.161l1.648,0l0,5.391l-1.648,0l0,-5.391Zm3.18,-0.043l1.648,0l0,5.392l-1.648,0l0,-5.392Zm3.292,-0.017l1.648,0l0,5.392l-1.648,0l0,-5.392Zm2.676,-0.094l2.562,0l0,5.392l-2.562,0l0,-5.392Zm-15.135,-4.534l15.288,0l0,2.428l-15.288,0l0,-2.428Z" style="fill:#dadfe0;fill-rule:nonzero;"/><path d="M363.264,44.876l22.17,0l0,3.1l-22.17,0l0,-3.1Zm21.976,7.54l-20.904,0.091l0.007,2.074l20.906,-0.078l-0.009,-2.087Zm1.095,1.772l-23.175,0.1l0.008,1.211l23.175,-0.101l-0.008,-1.21Z" style="fill:#dadfe0;fill-rule:nonzero;"/><path d="M311.38,55.248l130.037,0l0,8.732c0,0 -49.115,-4.314 -70.725,-4.314c-21.673,0 -59.312,4.314 -59.312,4.314l0,-8.732Z" style="fill:#dadfe0;fill-rule:nonzero;stroke:#dadfe0;stroke-width:0.11px;"/><path d="M387.069,47.393l32.786,0l0,8.628l-32.786,0l0,-8.628Zm0.863,-6.902l8.628,0l0,6.902l-8.628,0l0,-6.902Z" style="fill:#dadfe0;"/><path d="M395.266,40.491l1.726,0l0,6.902l-1.726,0l0,-6.902Zm10.354,0l1.726,0l0,6.902l-1.726,0l0,-6.902Zm2.588,0l1.726,0l0,6.902l-1.726,0l0,-6.902Zm-5.177,0l1.726,0l0,6.902l-1.726,0l0,-6.902Zm-2.588,0l1.726,0l0,6.902l-1.726,0l0,-6.902Zm-2.589,0l1.726,0l0,6.902l-1.726,0l0,-6.902Z" style="fill:#dadfe0;"/><rect x="408.639" y="40.491" width="8.628" height="6.902" style="fill:#dadfe0;"/><g><path d="M409.934,30.137l4.314,0l0,6.902l-4.314,0l0,-6.902Zm-5.177,0l1.726,0l0,6.902l-1.726,0l0,-6.902Zm2.588,0l1.726,0l0,6.902l-1.726,0l0,-6.902Zm-5.177,0l1.726,0l0,6.902l-1.726,0l0,-6.902Zm-2.588,0l1.726,0l0,6.902l-1.726,0l0,-6.902Zm-2.588,0l1.726,0l0,6.902l-1.726,0l0,-6.902Zm-5.177,0l4.314,0l0,6.902l-4.314,0l0,-6.902Zm-1.294,6.903l25.021,0l0,1.726l-25.021,0l0,-1.726Z" style="fill:#dadfe0;"/><rect x="388.795" y="38.765" width="27.61" height="1.726" style="fill:#dadfe0;"/></g><g><rect x="393.109" y="24.96" width="19.844" height="8.628" style="fill:#dadfe0;"/><circle cx="403.031" cy="25.392" r="8.197" style="fill:#dadfe0;"/><rect x="400.874" y="15.47" width="4.314" height="2.588" style="fill:#dadfe0;"/><rect x="402.6" y="10.293" width="0.863" height="6.04" style="fill:#dadfe0;"/></g><g><rect x="420.719" y="50.844" width="19.844" height="8.628" style="fill:#dadfe0;"/><circle cx="430.641" cy="51.276" r="8.197" style="fill:#dadfe0;"/></g><g><path d="M313.511,48.554l23.495,0l0,2.027l-23.495,0l0,-2.027Zm0.862,3.452l22.632,0l0,2.027l-22.632,0l0,-2.027Z" style="fill:#dadfe0;fill-rule:nonzero;"/><path d="M318.908,49.119l2.588,0l0,6.902l-2.588,0l0,-6.902Zm5.177,0l2.588,0l0,6.902l-2.588,0l0,-6.902Zm5.177,0l2.588,0l0,6.902l-2.588,0l0,-6.902Zm6.04,0l2.588,0l0,6.902l-2.588,0l0,-6.902Zm-22.433,0l2.588,0l0,6.902l-2.588,0l0,-6.902Z" style="fill:#dadfe0;"/><path d="M325.379,43.942l9.06,6.04l-18.119,0l9.059,-6.04Z" style="fill:#dadfe0;"/></g></g><path d="M294.699,73.542l-0.674,-0.278l3.224,-17.266c0.072,-0.416 -0.072,-0.694 -0.361,-0.694l-3.32,0c-0.289,0 -0.53,0.278 -0.602,0.694l-3.272,17.544l-0.674,-0.278l3.224,-17.266c0.073,-0.416 -0.072,-0.694 -0.361,-0.694l-7.868,0c-0.288,0 -0.529,0.278 -0.602,0.694l-3.152,17.023c-0.336,1.876 0.266,3.126 1.565,3.126l19.057,0c1.323,0 2.406,-1.25 2.743,-3.126l3.176,-17.023c0.072,-0.416 -0.072,-0.694 -0.361,-0.694l-7.869,0c-0.288,0 -0.529,0.278 -0.601,0.694l-3.272,17.544Zm18.021,-4.864l0.698,0.278l-0.891,4.69l-0.673,-0.278l0.866,-4.69Zm-5.703,-2.258c-0.89,0 -1.587,0.835 -1.829,2.085l-0.817,4.516c-0.338,1.876 0.264,3.126 1.564,3.126l12.272,0c0.889,0 1.611,-0.833 1.828,-2.083l2.141,-11.465c0.338,-1.876 -0.264,-3.126 -1.587,-3.126l-11.55,0c-1.324,0 -2.406,1.25 -2.743,3.126l-0.386,2.085c-0.096,0.417 0.049,0.694 0.337,0.694l5.655,0c0.89,0 1.612,-0.833 1.828,-2.084l0.242,-1.321l0.673,0.279l-0.77,4.168l-6.858,0Zm22.956,2.779l-0.817,4.447l-0.675,-0.278l0.433,-2.431c0.096,-0.417 -0.048,-0.695 -0.336,-0.695l-6.617,0c-0.289,0 -0.506,0.278 -0.602,0.695l-0.385,2.084c-0.336,1.876 0.265,3.126 1.564,3.126l11.55,0c1.323,0 2.406,-1.25 2.743,-3.126l0.842,-4.516c0.241,-1.25 -0.169,-2.085 -1.059,-2.085l-6.857,0l0.842,-4.447l0.673,0.279l-0.192,1.042c-0.217,1.251 0.145,2.084 1.034,2.084l5.655,0c0.289,0 0.53,-0.277 0.626,-0.694l0.384,-2.085c0.338,-1.876 -0.264,-3.126 -1.587,-3.126l-11.55,0c-1.323,0 -2.406,1.25 -2.743,3.126l-0.842,4.517c-0.241,1.25 0.168,2.083 1.059,2.083l6.857,0Zm22.402,6.948c0.288,0 0.529,-0.277 0.601,-0.694l2.406,-12.854c0.337,-1.876 -0.265,-3.126 -1.588,-3.126l-5.414,0c-0.602,0 -1.131,0.242 -1.588,0.695l0.794,-4.17c0.072,-0.416 -0.072,-0.694 -0.361,-0.694l-5.895,0c-0.289,0 -0.529,0.278 -0.601,0.694l-3.61,19.455c-0.072,0.417 0.072,0.694 0.361,0.694l6.593,0c0.289,0 0.529,-0.277 0.601,-0.694l2.479,-13.444l0.697,0.278l-1.997,10.734c-0.336,1.876 0.265,3.126 1.565,3.126l4.957,0Zm4.619,-18.411c-0.072,0.416 0.072,0.694 0.361,0.694l6.617,0c0.289,0 0.53,-0.278 0.602,-0.694l0.336,-1.738c0.073,-0.416 -0.072,-0.694 -0.36,-0.694l-6.617,0c-0.289,0 -0.53,0.278 -0.602,0.694l-0.337,1.738Zm3.681,18.411c0.29,0 0.53,-0.277 0.602,-0.694l2.84,-15.285c0.096,-0.417 -0.048,-0.695 -0.337,-0.695l-6.617,0c-0.289,0 -0.529,0.278 -0.625,0.695l-2.359,12.853c-0.337,1.876 0.265,3.126 1.564,3.126l4.932,0Zm16.604,0c0.288,0 0.53,-0.277 0.626,-0.694l2.382,-12.854c0.336,-1.876 -0.265,-3.126 -1.589,-3.126l-13.234,0c-0.288,0 -0.529,0.278 -0.625,0.695l-2.791,15.285c-0.097,0.417 0.048,0.694 0.336,0.694l6.593,0c0.289,0 0.53,-0.277 0.626,-0.694l2.478,-13.444l0.698,0.278l-1.997,10.734c-0.337,1.876 0.264,3.126 1.564,3.126l4.933,0Zm14.845,-20.843c-0.89,0 -1.612,0.833 -1.829,2.084l-0.409,2.085l-6.136,0c-1.323,0 -2.381,1.25 -2.743,3.126l-1.299,7.018c-0.313,1.875 0.265,3.126 1.588,3.126l0.987,0l0.745,2.71c0.121,0.417 0.458,0.694 0.867,0.694l2.911,0l-0.192,1.043l-7.821,0c-0.288,0 -0.529,0.278 -0.625,0.695l-0.578,3.196c-0.072,0.417 0.048,0.695 0.338,0.695l13.234,0c1.323,0 2.406,-1.251 2.767,-3.127l0.313,-1.737c0.336,-1.876 -0.265,-3.127 -1.589,-3.127l-7.772,0l-0.312,-1.042l8.277,0c1.324,0 2.406,-1.251 2.743,-3.126l1.299,-7.018c0.362,-1.876 -0.264,-3.126 -1.588,-3.126l-4.692,0l0.193,-1.043l6.376,0c0.289,0 0.553,-0.278 0.626,-0.694l0.312,-1.738c0.073,-0.416 -0.048,-0.694 -0.336,-0.694l-5.655,0Zm-3.392,6.6l0.697,0.279l-1.516,8.128l-0.698,-0.277l1.517,-8.13Zm24.038,2.154c0.289,0 0.53,-0.278 0.602,-0.695l0.601,-3.195c0.072,-0.417 -0.072,-0.695 -0.361,-0.695l-8.542,0l0.481,-2.537c0.073,-0.417 -0.071,-0.694 -0.36,-0.694l-5.895,0c-0.289,0 -0.53,0.277 -0.602,0.694l-2.96,16.085c-0.361,1.876 0.265,3.126 1.565,3.126l11.55,0c1.323,0 2.381,-1.25 2.742,-3.126l1.371,-7.399c0.072,-0.417 -0.072,-0.695 -0.36,-0.695l-6.617,0c-0.289,0 -0.53,0.278 -0.602,0.695l-1.468,8.059l-0.698,-0.278l1.733,-9.345l7.82,0Zm17.349,-1.459c0.337,-1.876 -0.265,-3.126 -1.588,-3.126l-11.55,0c-1.323,0 -2.406,1.25 -2.743,3.126l-1.925,10.422c-0.336,1.876 0.265,3.126 1.564,3.126l11.55,0c1.323,0 2.406,-1.25 2.743,-3.126l1.949,-10.422Zm-9.625,11.047l-0.673,-0.278l2.117,-11.395l0.673,0.279l-2.117,11.394Zm23.22,2.501c0.288,0 0.53,-0.277 0.626,-0.694l2.382,-12.854c0.336,-1.876 -0.265,-3.126 -1.588,-3.126l-13.235,0c-0.288,0 -0.528,0.278 -0.625,0.695l-2.791,15.285c-0.096,0.417 0.048,0.694 0.336,0.694l6.593,0c0.29,0 0.53,-0.277 0.626,-0.694l2.478,-13.444l0.698,0.278l-1.997,10.734c-0.336,1.876 0.265,3.126 1.565,3.126l4.932,0Zm30.823,-17.717c0.336,-1.876 -0.265,-3.126 -1.589,-3.126l-17.18,0c-0.289,0 -0.529,0.278 -0.601,0.694l-3.609,19.455c-0.073,0.417 0.072,0.694 0.36,0.694l17.157,0c1.323,0 2.406,-1.25 2.742,-3.126l2.72,-14.591Zm-10.179,-0.555l0.698,0.277l-2.864,15.425l-0.697,-0.278l2.863,-15.424Zm18.359,15.702l-0.697,-0.278l2.863,-15.424l0.698,0.277l-1.179,6.357c-0.072,0.418 0.072,0.696 0.36,0.696l8.591,0c0.288,0 0.528,-0.278 0.602,-0.696l1.13,-6.079c0.337,-1.876 -0.265,-3.126 -1.588,-3.126l-15.496,0c-1.323,0 -2.407,1.25 -2.743,3.126l-2.695,14.591c-0.337,1.876 0.265,3.126 1.564,3.126l15.496,0c1.324,0 2.406,-1.25 2.743,-3.126l1.131,-6.079c0.072,-0.418 -0.072,-0.695 -0.361,-0.695l-8.59,0c-0.288,0 -0.53,0.277 -0.602,0.695l-1.227,6.635Z" style="fill:#a6c2cc;fill-rule:nonzero;"/><g><path d="M403.074,146.53l-2.476,10.139l-2.039,-0.634l1.31,-5.544c0.292,-0.951 -0.144,-1.584 -1.018,-1.584l-20.02,0c-0.873,0 -1.528,0.633 -1.82,1.584l-1.165,4.752c-1.02,4.277 0.801,7.127 4.733,7.127l34.942,0c4.005,0 7.28,-2.85 8.3,-7.127l2.548,-10.296c0.728,-2.851 -0.509,-4.753 -3.203,-4.753l-20.747,0l2.547,-10.137l2.038,0.634l-0.582,2.375c-0.654,2.853 0.436,4.753 3.13,4.753l17.109,0c0.873,0 1.6,-0.634 1.892,-1.584l1.165,-4.753c1.019,-4.276 -0.802,-7.129 -4.805,-7.129l-34.944,0c-4.004,0 -7.279,2.853 -8.3,7.129l-2.547,10.296c-0.728,2.852 0.509,4.752 3.203,4.752l20.749,0Zm-46.885,-13.464c-0.655,2.853 0.437,4.753 3.13,4.753l17.108,0c0.873,0 1.601,-0.634 1.893,-1.584l1.164,-4.753c1.02,-4.276 -0.801,-7.129 -4.805,-7.129l-40.04,0c-0.873,0 -1.6,0.635 -1.892,1.585l-8.444,34.849c-0.292,0.95 0.144,1.583 1.018,1.583l19.948,0c0.873,0 1.601,-0.633 1.892,-1.583l7.499,-30.65l2.111,0.633l-0.582,2.296Zm-50.742,-7.128c0.219,-0.951 -0.146,-1.585 -1.019,-1.585l-20.02,0c-0.874,0 -1.602,0.634 -1.893,1.585l-7.134,29.305c-1.02,4.277 0.801,7.127 4.732,7.127l40.04,0c0.873,0 1.6,-0.633 1.892,-1.583l8.517,-34.849c0.292,-0.951 -0.144,-1.585 -1.018,-1.585l-20.021,0c-0.873,0 -1.673,0.634 -1.892,1.585l-7.499,30.65l-2.111,-0.633l7.426,-30.017Zm-26.427,5.544c1.019,-4.276 -0.801,-7.127 -4.805,-7.127l-34.944,0c-4.003,0 -7.279,2.851 -8.299,7.127l-5.823,23.761c-1.021,4.277 0.8,7.127 4.732,7.127l34.943,0c4.004,0 7.281,-2.85 8.299,-7.127l5.897,-23.761Zm-29.12,25.187l-2.038,-0.634l6.406,-25.978l2.039,0.634l-6.407,25.978Z" style="fill:#0f3f72;fill-rule:nonzero;"/><path d="M173.275,157.471c-0.504,2.446 0.504,4.078 2.52,4.078l43.322,0c2.016,0 3.695,-1.632 4.199,-4.078l17.128,-77.29l25.692,0c2.015,0 3.695,-1.631 4.199,-4.078l7.387,-32.833c0.504,-2.446 -0.504,-4.079 -2.519,-4.079l-101.424,0c-2.015,0 -3.694,1.633 -4.198,4.079l-7.387,32.833c-0.504,2.447 0.502,4.078 2.517,4.078l25.692,0l-17.128,77.29Z" style="fill:#0f3f72;fill-rule:nonzero;"/></g><path d="M460.753,114.767l-2.117,-0.647l7.446,-30.668c0.219,-0.972 -0.146,-1.618 -1.022,-1.618l-20.074,0c-0.875,0 -1.679,0.646 -1.898,1.618l-7.152,29.939c-1.023,4.37 0.729,7.283 4.743,7.283l16.424,0c1.825,0 3.431,-0.566 4.746,-1.619l-0.585,2.429c-0.219,0.97 -0.949,1.617 -1.826,1.617l-24.379,0c-0.876,0 -1.607,0.649 -1.898,1.62l-1.752,7.444c-0.219,0.97 0.146,1.619 1.022,1.619l40.074,0c4.015,0 7.3,-2.914 8.394,-7.284l10.365,-43.048c0.219,-0.972 -0.146,-1.618 -1.021,-1.618l-20,0c-0.877,0 -1.68,0.646 -1.899,1.618l-7.591,31.315Zm-44.599,-24.033c-0.657,2.914 0.438,4.855 3.139,4.855l17.153,0c0.877,0 1.606,-0.647 1.898,-1.618l1.169,-4.855c1.021,-4.37 -0.804,-7.282 -4.819,-7.282l-40.147,0c-0.875,0 -1.605,0.646 -1.897,1.618l-8.468,35.603c-0.292,0.972 0.146,1.619 1.023,1.619l20.001,0c0.875,0 1.604,-0.647 1.897,-1.619l7.517,-31.314l2.117,0.646l-0.583,2.347Zm-52.411,8.496l-2.117,-0.646l2.7,-10.924l2.044,0.646l-2.627,10.924Zm17.299,5.261c2.701,0 4.818,-1.943 5.547,-4.855l2.555,-10.52c1.022,-4.37 -0.802,-7.282 -4.817,-7.282l-35.038,0c-4.015,0 -7.299,2.912 -8.321,7.282l-5.84,24.275c-1.021,4.37 0.804,7.283 4.746,7.283l35.036,0c4.015,0 7.3,-2.913 8.323,-7.283l1.167,-4.855c0.292,-0.97 -0.146,-1.617 -1.022,-1.617l-20.073,0c-0.876,0 -1.606,0.647 -1.898,1.617l-1.46,6.312l-2.043,-0.647l2.335,-9.71l20.803,0Zm-71.462,10.276l-2.117,-0.647l7.446,-30.668c0.218,-0.972 -0.146,-1.618 -1.021,-1.618l-20.073,0c-0.877,0 -1.607,0.646 -1.899,1.618l-2.701,11.328l-1.313,21.039c-0.148,2.833 0.51,4.855 3.211,4.855l31.825,0c2.7,0 4.38,-2.022 5.548,-4.855l8.905,-21.039l2.702,-11.328c0.291,-0.972 -0.146,-1.618 -1.023,-1.618l-20.074,0c-0.875,0 -1.606,0.646 -1.897,1.618l-7.519,31.315Zm-21.168,-25.651c1.022,-4.37 -0.802,-7.282 -4.817,-7.282l-35.038,0c-4.014,0 -7.3,2.912 -8.32,7.282l-5.841,24.275c-1.022,4.37 0.803,7.283 4.744,7.283l35.039,0c4.015,0 7.299,-2.913 8.321,-7.283l5.912,-24.275Zm-29.198,25.732l-2.044,-0.647l6.425,-26.541l2.043,0.646l-6.424,26.542Zm-50.439,0l-2.043,-0.647l6.423,-26.541l2.043,0.646l-2.408,10.116c-0.219,0.97 0.219,1.618 1.096,1.618l20.073,0c0.875,0 1.605,-0.648 1.824,-1.618l2.263,-9.306c1.021,-4.37 -0.803,-7.282 -4.818,-7.282l-35.036,0c-4.015,0 -7.3,2.912 -8.323,7.282l-5.838,24.275c-1.023,4.37 0.802,7.283 4.744,7.283l35.036,0c4.016,0 7.3,-2.913 8.323,-7.283l2.262,-9.305c0.219,-0.971 -0.218,-1.619 -1.095,-1.619l-20.073,0c-0.876,0 -1.607,0.648 -1.825,1.619l-2.628,10.762Zm-47.811,-10.357l-2.482,10.357l-2.043,-0.647l1.314,-5.665c0.292,-0.97 -0.147,-1.617 -1.022,-1.617l-20.074,0c-0.877,0 -1.533,0.647 -1.825,1.617l-1.168,4.855c-1.022,4.37 0.803,7.283 4.745,7.283l35.036,0c4.015,0 7.3,-2.913 8.323,-7.283l2.555,-10.519c0.729,-2.913 -0.511,-4.855 -3.213,-4.855l-20.802,0l2.553,-10.357l2.045,0.646l-0.584,2.428c-0.657,2.914 0.438,4.855 3.138,4.855l17.154,0c0.875,0 1.607,-0.647 1.899,-1.618l1.168,-4.855c1.021,-4.37 -0.804,-7.282 -4.818,-7.282l-35.038,0c-4.014,0 -7.299,2.912 -8.322,7.282l-2.554,10.519c-0.73,2.913 0.511,4.856 3.212,4.856l20.803,0Zm-32.776,16.183c0.878,0 1.607,-0.647 1.826,-1.619l8.614,-35.603c0.292,-0.972 -0.146,-1.618 -1.022,-1.618l-20.074,0c-0.876,0 -1.606,0.646 -1.898,1.618l-7.153,29.939c-1.022,4.37 0.802,7.283 4.744,7.283l14.963,0Z" style="fill:#ef8231;fill-rule:nonzero;"/><path d="M46.137,166.077c-12.339,0.151 -26.552,-3.234 -34.117,-12.418c-8.71,-10.572 -9.467,-28.217 -2.529,-46.887c3.248,-8.738 14.972,-26.594 45.482,-36.757c12.666,-4.219 44.797,-5.426 62.597,-3.154c15.278,1.949 19.353,6.856 13.022,7.922c-8.588,1.447 -72.198,7.799 -86.226,35.415c-8.949,17.617 1.752,29.135 14.456,23.113c14.577,-6.91 13.52,-34.746 13.598,-40.991c33.79,-13.026 -0.021,-0.007 33.823,-13.077c0.372,-0.144 15.529,85.463 -59.588,86.865" style="fill:#ef8231;"/><path d="M61.828,29.07l7.987,34.234l32.57,1.846l-6.011,-35.445l-34.546,-0.635Z" style="fill:#aac5cf;"/></g></svg>